<?xml version="1.0" encoding="utf-8"?><svg version="1.1" id="Layer_1" xmlns="http://www.w3.org/2000/svg" xmlns:xlink="http://www.w3.org/1999/xlink" x="0px" y="0px" viewBox="0 0 115.28 122.88" style="enable-background:new 0 0 115.28 122.88" xml:space="preserve"><style type="text/css">.st0{fill-rule:evenodd;clip-rule:evenodd;}</style><g><path class="st0" d="M21.69,57h68.56V37.34H69.59c-2.17,0-5.19-1.17-6.62-2.6c-1.43-1.43-2.3-4.01-2.3-6.17V7.64l0,0H8.15 c-0.18,0-0.32,0.09-0.41,0.18C7.59,7.92,7.55,8.05,7.55,8.24v106.45c0,0.14,0.09,0.32,0.18,0.41c0.09,0.14,0.28,0.18,0.41,0.18 c22.78,0,58.09,0,81.51,0c0.18,0,0.17-0.09,0.27-0.18c0.14-0.09,0.33-0.28,0.33-0.41v-11.16H21.69c-4.14,0-7.56-3.4-7.56-7.56 V64.55C14.13,60.4,17.53,57,21.69,57L21.69,57z M46.46,88.06h-8.28L37,91.95h-7.46l8.9-23.64h8l8.86,23.64h-7.65L46.46,88.06 L46.46,88.06z M44.91,82.94l-2.58-8.5l-2.59,8.5H44.91L44.91,82.94z M56.41,84.13l6.93-0.43c0.15,1.12,0.46,1.98,0.92,2.56 c0.75,0.95,1.83,1.43,3.22,1.43c1.04,0,1.84-0.24,2.4-0.73c0.57-0.49,0.85-1.06,0.85-1.7c0-0.61-0.26-1.16-0.8-1.65 c-0.53-0.48-1.78-0.94-3.73-1.37c-3.2-0.72-5.48-1.67-6.85-2.87c-1.38-1.19-2.06-2.71-2.06-4.56c0-1.21,0.35-2.36,1.06-3.43 c0.7-1.08,1.76-1.93,3.18-2.55c1.41-0.62,3.35-0.92,5.81-0.92c3.02,0,5.32,0.56,6.91,1.69c1.58,1.12,2.53,2.91,2.83,5.37 l-6.87,0.41c-0.18-1.07-0.57-1.85-1.15-2.34c-0.59-0.49-1.4-0.73-2.43-0.73c-0.85,0-1.49,0.18-1.92,0.54 c-0.43,0.36-0.64,0.8-0.64,1.32c0,0.37,0.18,0.71,0.52,1.01c0.34,0.31,1.15,0.6,2.44,0.87c3.19,0.69,5.48,1.39,6.85,2.09 c1.38,0.7,2.39,1.57,3.02,2.62c0.63,1.04,0.94,2.21,0.94,3.5c0,1.51-0.42,2.91-1.25,4.19c-0.84,1.28-2.01,2.25-3.52,2.91 c-1.5,0.66-3.4,0.99-5.68,0.99c-4.02,0-6.8-0.78-8.35-2.32C57.48,88.48,56.61,86.52,56.41,84.13L56.41,84.13z M81.53,68.31h12.15 c2.65,0,4.63,0.63,5.95,1.89c1.32,1.26,1.98,3.05,1.98,5.38c0,2.39-0.72,4.26-2.16,5.6c-1.44,1.35-3.63,2.02-6.58,2.02h-4.01v8.75 h-7.33V68.31L81.53,68.31z M88.86,78.42h1.8c1.42,0,2.42-0.25,2.99-0.74c0.57-0.49,0.86-1.12,0.86-1.88c0-0.74-0.25-1.37-0.75-1.89 c-0.5-0.52-1.43-0.78-2.81-0.78h-2.09V78.42L88.86,78.42z M97.79,57h9.93c4.16,0,7.56,3.41,7.56,7.56v31.42 c0,4.15-3.41,7.56-7.56,7.56h-9.93v13.55c0,1.61-0.65,3.04-1.7,4.1c-1.06,1.06-2.49,1.7-4.1,1.7c-29.44,0-56.59,0-86.18,0 c-1.61,0-3.04-0.64-4.1-1.7c-1.06-1.06-1.7-2.49-1.7-4.1V5.85c0-1.61,0.65-3.04,1.7-4.1c1.06-1.06,2.53-1.7,4.1-1.7h58.72 C64.66,0,64.8,0,64.94,0c0.64,0,1.29,0.28,1.75,0.69h0.09c0.09,0.05,0.14,0.09,0.23,0.18l29.99,30.36c0.51,0.51,0.88,1.2,0.88,1.98 c0,0.23-0.05,0.41-0.09,0.65V57L97.79,57z M67.52,27.97V8.94l21.43,21.7H70.19c-0.74,0-1.38-0.32-1.89-0.78 C67.84,29.4,67.52,28.71,67.52,27.97L67.52,27.97z"/></g></svg>