<svg width="56" height="56" viewBox="0 0 56 56" fill="none" xmlns="http://www.w3.org/2000/svg">
	<path d="M27.1318 0.230574C27.6698 -0.0768582 28.3302 -0.0768582 28.8682 0.230574L41.9932 7.73057C42.5385 8.04215 42.875 8.622 42.875 9.25V23.2344L55.1182 30.2306C55.6635 30.5421 56 31.122 56 31.75V46.75C56 47.378 55.6635 47.9578 55.1182 48.2694L41.9932 55.7694C41.4552 56.0769 40.7948 56.0769 40.2568 55.7694L28 48.7656L15.7432 55.7694C15.2052 56.0769 14.5448 56.0769 14.0068 55.7694L0.881757 48.2694C0.3365 47.9578 0 47.378 0 46.75V31.75C0 31.122 0.336501 30.5421 0.881757 30.2306L13.125 23.2344V9.25C13.125 8.622 13.4615 8.04215 14.0068 7.73057L27.1318 0.230574ZM14.875 26.2656L5.27724 31.75L14.875 37.2344L24.4728 31.75L14.875 26.2656ZM26.25 34.7656L16.625 40.2656V51.2344L26.25 45.7344V34.7656ZM29.75 45.7344L39.375 51.2344V40.2656L29.75 34.7656V45.7344ZM31.5272 31.75L41.125 37.2344L50.7228 31.75L41.125 26.2656L31.5272 31.75ZM39.375 23.2344V12.2656L29.75 17.7656V28.7344L39.375 23.2344ZM26.25 28.7344V17.7656L16.625 12.2656V23.2344L26.25 28.7344ZM18.4022 9.25L28 14.7344L37.5978 9.25L28 3.76556L18.4022 9.25ZM52.5 34.7656L42.875 40.2656V51.2344L52.5 45.7344V34.7656ZM13.125 51.2344V40.2656L3.5 34.7656V45.7344L13.125 51.2344Z" fill="#D9EEE1"/>
</svg>