<svg width="46" height="47" viewBox="0 0 46 47" fill="none" xmlns="http://www.w3.org/2000/svg">
	<path fill-rule="evenodd" clip-rule="evenodd" d="M18.6898 37.7854C14.7948 37.7836 10.9978 36.5643 7.82996 34.2979C4.66217 32.0316 2.28211 28.8316 1.02277 25.1458C-0.236566 21.4599 -0.312168 17.4726 0.80654 13.7417C1.92525 10.0108 4.1823 6.72293 7.2619 4.33812C10.3415 1.95331 14.0896 0.590872 17.9818 0.441432C21.8739 0.291991 25.7154 1.36302 28.9688 3.50467C32.2222 5.64633 34.7247 8.75145 36.1262 12.3856C37.5277 16.0198 37.7581 20.0011 36.7851 23.7727C36.6832 24.1344 36.4437 24.4419 36.1179 24.6292C35.792 24.8165 35.4058 24.8687 35.042 24.7748C34.6781 24.6808 34.3655 24.4481 34.1711 24.1264C33.9767 23.8047 33.9161 23.4198 34.0021 23.0539C34.3367 21.762 34.5048 20.4325 34.5023 19.0979C34.5023 15.9705 33.5749 12.9133 31.8374 10.313C30.0999 7.71262 27.6304 5.68589 24.741 4.48908C21.8517 3.29227 18.6723 2.97913 15.605 3.58926C12.5376 4.19939 9.72012 5.70538 7.5087 7.9168C5.29728 10.1282 3.79129 12.9457 3.18116 16.0131C2.57103 19.0804 2.88417 22.2598 4.08098 25.1491C5.27779 28.0385 7.30452 30.508 9.90487 32.2455C12.5052 33.983 15.5624 34.9104 18.6898 34.9104C21.9167 34.9211 25.0678 33.9323 27.7101 32.08C29.2584 31.0172 30.5979 29.6786 31.6618 28.1312C31.8774 27.8165 32.2092 27.6003 32.5842 27.5302C32.9592 27.4601 33.3467 27.5418 33.6614 27.7574C33.7378 27.8098 33.8084 27.869 33.8725 27.934L44.6898 38.7512C45.3173 39.3787 45.7446 40.1781 45.9178 41.0484C46.0909 41.9188 46.0021 42.8209 45.6625 43.6407C45.3229 44.4606 44.7478 45.1613 44.0099 45.6542C43.2721 46.1472 42.4046 46.4103 41.5172 46.4102C40.328 46.407 39.188 45.9349 38.3447 45.0964L28.346 35.0977C25.4429 36.8617 22.1023 37.7958 18.6898 37.7854ZM30.717 33.4035C31.5428 32.7123 32.3057 31.9494 32.9968 31.1235L42.6572 40.7839C42.9595 41.0862 43.1293 41.4962 43.1293 41.9238C43.1293 42.3514 42.9595 42.7614 42.6572 43.0637C42.3548 43.3661 41.9448 43.5359 41.5172 43.5359C41.0897 43.5359 40.6796 43.3661 40.3773 43.0637L30.717 33.4035ZM8.62836 26.2854V21.5877C8.4126 21.4631 8.21215 21.31 8.03293 21.1308C7.49376 20.5916 7.19086 19.8604 7.19086 19.0979V14.7854C7.19086 14.4041 7.34231 14.0385 7.61189 13.7689C7.88148 13.4993 8.24711 13.3479 8.62836 13.3479H11.5034V11.9104C11.5034 10.7666 11.9577 9.66973 12.7665 8.86098C13.5752 8.05223 14.6721 7.59788 15.8159 7.59788H21.5659C22.7096 7.59788 23.8065 8.05223 24.6153 8.86098C25.424 9.66973 25.8784 10.7666 25.8784 11.9104V13.3479H28.7534C29.1346 13.3479 29.5002 13.4993 29.7698 13.7689C30.0394 14.0385 30.1909 14.4041 30.1909 14.7854V19.0979C30.1909 19.8604 29.888 20.5916 29.3488 21.1308C29.1696 21.31 28.9691 21.4631 28.7534 21.5877V26.2854C28.7534 27.4291 28.299 28.526 27.4903 29.3348C26.6815 30.1435 25.5846 30.5979 24.4409 30.5979H12.9409C11.7971 30.5979 10.7002 30.1435 9.89146 29.3348C9.08271 28.526 8.62836 27.4291 8.62836 26.2854ZM24.4409 16.2229H27.3159V19.0979H10.0659V16.2229H12.9409H24.4409ZM23.0034 13.3479V11.9104C23.0034 11.5291 22.8519 11.1635 22.5823 10.8939C22.3127 10.6243 21.9471 10.4729 21.5659 10.4729H15.8159C15.4346 10.4729 15.069 10.6243 14.7994 10.8939C14.5298 11.1635 14.3784 11.5291 14.3784 11.9104V13.3479H23.0034ZM25.8784 26.2854V21.9729H11.5034V26.2854C11.5034 26.6666 11.6548 27.0323 11.9244 27.3018C12.194 27.5714 12.5596 27.7229 12.9409 27.7229H24.4409C24.8221 27.7229 25.1877 27.5714 25.4573 27.3018C25.7269 27.0323 25.8784 26.6666 25.8784 26.2854Z" fill="url(#paint0_linear_111_65316)"/>
	<defs>
		<linearGradient id="paint0_linear_111_65316" x1="21.6914" y1="7.47308" x2="21.6914" y2="16.0981" gradientUnits="userSpaceOnUse">
			<stop stop-color="white"/>
			<stop offset="1" stop-color="#63ADB9"/>
		</linearGradient>
	</defs>
</svg>