<?xml version="1.0" encoding="utf-8"?>
<!-- Generator: Adobe Illustrator 20.1.0, SVG Export Plug-In . SVG Version: 6.00 Build 0)  -->
<svg version="1.1" id="Layer_1" xmlns="http://www.w3.org/2000/svg" xmlns:xlink="http://www.w3.org/1999/xlink" x="0px" y="0px"
	 viewBox="0 0 128 128" style="enable-background:new 0 0 128 128;" xml:space="preserve">
<style type="text/css">
	.st0{opacity:0.12;fill:#007BFF;enable-background:new    ;}
	.st1{fill:#FFFFFF;stroke:#007BFF;stroke-miterlimit:10;}
	.st2{fill:#082E51;}
	.st3{fill:#007BFF;}
	.st4{fill:none;stroke:#007BFF;stroke-miterlimit:10;}
</style>
<g>
	<rect x="24.3" y="17" class="st0" width="75.3" height="111"/>
	<g>
		<rect x="35" y="27.7" class="st1" width="11.7" height="16.7"/>
		<rect x="56.6" y="27.7" class="st1" width="11.7" height="16.7"/>
		<rect x="78.2" y="27.7" class="st1" width="11.7" height="16.7"/>
		<rect x="35.2" y="55.3" class="st1" width="11.7" height="16.7"/>
		<rect x="56.8" y="55.3" class="st1" width="11.7" height="16.7"/>
		<rect x="78.4" y="55.3" class="st1" width="11.7" height="16.7"/>
		<rect x="35.2" y="81.6" class="st1" width="11.7" height="16.7"/>
		<rect x="56.8" y="81.6" class="st1" width="11.7" height="16.7"/>
		<rect x="78.4" y="81.6" class="st1" width="11.7" height="16.7"/>
	</g>
	<g>
		<rect x="35" y="27.8" class="st2" width="11.7" height="4.5"/>
		<rect x="56.6" y="27.8" class="st2" width="11.7" height="4.5"/>
		<rect x="78.2" y="27.8" class="st2" width="11.7" height="4.5"/>
	</g>
	<rect x="78.4" y="109.8" class="st1" width="11.7" height="10.5"/>
	<rect x="18.8" y="10.7" class="st3" width="86.3" height="6.3"/>
	<polygon class="st2" points="105.1,10.7 18.8,10.7 33.5,1.2 91.9,1.2 	"/>
	<g>
		<rect x="35.2" y="55.1" class="st2" width="11.7" height="4.5"/>
		<rect x="56.8" y="55.1" class="st2" width="11.7" height="4.5"/>
		<rect x="78.4" y="55.1" class="st2" width="11.7" height="4.5"/>
	</g>
	<g>
		<rect x="35.2" y="81.6" class="st2" width="11.7" height="4.5"/>
		<rect x="56.8" y="81.6" class="st2" width="11.7" height="4.5"/>
		<rect x="78.4" y="81.6" class="st2" width="11.7" height="4.5"/>
	</g>
	<rect x="78.4" y="109.8" class="st2" width="11.7" height="4.5"/>
	<g>
		<rect x="35" y="27.7" class="st4" width="11.7" height="16.7"/>
		<rect x="56.6" y="27.7" class="st4" width="11.7" height="16.7"/>
		<rect x="78.2" y="27.7" class="st4" width="11.7" height="16.7"/>
		<rect x="35.2" y="55.3" class="st4" width="11.7" height="16.7"/>
		<rect x="56.8" y="55.3" class="st4" width="11.7" height="16.7"/>
		<rect x="78.4" y="55.3" class="st4" width="11.7" height="16.7"/>
		<rect x="35.2" y="81.6" class="st4" width="11.7" height="16.7"/>
		<rect x="56.8" y="81.6" class="st4" width="11.7" height="16.7"/>
		<rect x="78.4" y="81.6" class="st4" width="11.7" height="16.7"/>
	</g>
	<g>
		<rect x="35.2" y="110.3" class="st1" width="33.1" height="17.2"/>
		<rect x="35.2" y="110.3" class="st2" width="33.1" height="5.5"/>
		<rect x="45.1" y="113.8" class="st2" width="4.9" height="13.7"/>
		<rect x="35.2" y="110.3" class="st4" width="33.1" height="17.2"/>
	</g>
	<rect x="78.4" y="109.8" class="st4" width="11.7" height="10.5"/>
</g>
</svg>
