<svg width="40" height="33" viewBox="0 0 40 33" fill="none" xmlns="http://www.w3.org/2000/svg">
    <path fill-rule="evenodd" clip-rule="evenodd" d="M6.57533 26.2196L8.26826 26.4657C8.74704 26.5352 9.14498 26.8706 9.29396 27.3307C9.44344 27.7909 9.31887 28.2959 8.97228 28.6337L7.74728 29.8277L8.02048 31.4196C8.04523 31.5186 8.05828 31.6223 8.05828 31.7289C8.05828 32.4309 7.48934 32.9998 6.78735 33H6.78379C6.5816 33 6.37856 32.9519 6.19248 32.8541L4.67801 32.0579L3.16353 32.8541C2.97762 32.9517 2.77441 33 2.57222 33C2.30851 33 2.04649 32.9181 1.82498 32.7571C1.43366 32.4727 1.23757 31.9907 1.31943 31.5138L1.60873 29.8277L0.383728 28.6337C0.037481 28.2959 -0.087256 27.7909 0.0622251 27.3307C0.211706 26.8706 0.609645 26.5352 1.08842 26.4657L2.78119 26.2196L3.53842 24.6855C3.75265 24.2516 4.19465 23.9769 4.67834 23.9769C5.16238 23.9769 5.60404 24.2516 5.81826 24.6855L6.57533 26.2196ZM36.8951 25.9468H16.5576C15.1536 25.9468 14.0154 27.085 14.0154 28.489C14.0154 29.893 15.1536 31.0312 16.5576 31.0312H36.8951C38.2991 31.0312 39.4373 29.893 39.4373 28.489C39.4373 27.085 38.2991 25.9468 36.8951 25.9468ZM16.5576 14.0828H36.8951C38.2991 14.0828 39.4373 15.221 39.4373 16.625C39.4373 18.029 38.2991 19.1672 36.8951 19.1672H16.5576C15.1536 19.1672 14.0154 18.029 14.0154 16.625C14.0154 15.221 15.1536 14.0828 16.5576 14.0828ZM36.8951 7.30381H16.5576C15.1534 7.30381 14.0154 6.16559 14.0154 4.76162C14.0154 3.35765 15.1536 2.21942 16.5576 2.21942H36.8951C38.2991 2.21942 39.4373 3.35765 39.4373 4.76162C39.4373 6.16559 38.2991 7.30381 36.8951 7.30381ZM6.57533 14.356L8.26826 14.6021C8.74704 14.6716 9.14498 15.007 9.29396 15.4672C9.44344 15.9273 9.31887 16.4323 8.97228 16.7701L7.74728 17.9641L8.02048 19.556C8.04523 19.655 8.05828 19.7587 8.05828 19.8653C8.05828 20.5673 7.48934 21.1363 6.78735 21.1364H6.78379C6.5816 21.1364 6.37856 21.0883 6.19248 20.9905L4.67801 20.1943L3.16353 20.9905C2.97762 21.0881 2.77441 21.1364 2.57222 21.1364C2.30851 21.1364 2.04649 21.0546 1.82498 20.8936C1.43366 20.6092 1.23757 20.1272 1.31943 19.6503L1.60873 17.9641L0.383728 16.7701C0.037481 16.4323 -0.087256 15.9273 0.0622251 15.4672C0.211706 15.007 0.609645 14.6716 1.08842 14.6021L2.78119 14.356L3.53842 12.8219C3.75265 12.388 4.19465 12.1133 4.67834 12.1133C5.16238 12.1133 5.60404 12.388 5.81826 12.8219L6.57533 14.356ZM8.26826 2.73875L6.57533 2.49267L5.81826 0.958535C5.60404 0.524667 5.16238 0.24994 4.67834 0.24994C4.19465 0.24994 3.75265 0.524667 3.53842 0.958535L2.78119 2.49267L1.08842 2.73875C0.609645 2.80824 0.211706 3.14364 0.0622251 3.60377C-0.087256 4.06391 0.037481 4.56896 0.383728 4.90674L1.60873 6.10072L1.31943 7.78687C1.23757 8.26379 1.43366 8.74579 1.82498 9.03018C2.04649 9.19118 2.30851 9.27304 2.57222 9.27304C2.77441 9.27304 2.97762 9.22474 3.16353 9.12712L4.67801 8.3309L6.19248 9.12712C6.37856 9.22491 6.5816 9.27304 6.78379 9.27304H6.78735C7.48934 9.27304 8.05828 8.70393 8.05828 8.00194C8.05828 7.89534 8.04523 7.79162 8.02048 7.69264L7.74728 6.10072L8.97228 4.90674C9.31887 4.56896 9.44344 4.06391 9.29396 3.60377C9.14498 3.14364 8.74704 2.80824 8.26826 2.73875Z" fill="url(#paint0_linear_111_65528)"/>
    <defs>
        <linearGradient id="paint0_linear_111_65528" x1="4.67813" y1="23.9769" x2="4.67813" y2="33" gradientUnits="userSpaceOnUse">
            <stop stop-color="white"/>
            <stop offset="1" stop-color="#63ADB9"/>
        </linearGradient>
    </defs>
</svg>