<svg width="13" height="14" viewBox="0 0 13 14" fill="none" xmlns="http://www.w3.org/2000/svg">
	<path d="M6.5 0.5C2.91015 0.5 0 3.41015 0 7C0 10.5898 2.91015 13.5 6.5 13.5C10.0898 13.5 13 10.5898 13 7C12.9958 3.41188 10.0881 0.504179 6.5 0.5Z" fill="#282A35"/>
	<path d="M10.2519 4.94165L6.54423 9.97319C6.45577 10.0905 6.32391 10.1674 6.17826 10.1865C6.0326 10.2057 5.88535 10.1655 5.76961 10.075L3.12194 7.95819C2.88831 7.77125 2.85047 7.43026 3.03744 7.19659C3.22442 6.96297 3.56539 6.92514 3.79903 7.11209L6.00686 8.87846L9.37985 4.30086C9.49042 4.13489 9.68327 4.04313 9.88184 4.06201C10.0804 4.08089 10.2525 4.20736 10.3298 4.3912C10.4072 4.57504 10.3773 4.78651 10.2519 4.94165Z" fill="#D9EEE1"/>
</svg>