<svg height="512pt" viewBox="0 -13 512 512" width="512pt" xmlns="http://www.w3.org/2000/svg"><path d="m0 90v360h183.699219c22.800781 0 45.300781 9.300781 61.800781 25.5l10.5 10.800781 10.5-10.800781c16.5-16.199219 39-25.5 61.800781-25.5h183.699219v-360zm0 0" fill="#54469d"/><path d="m512 90v360h-183.699219c-22.800781 0-45.300781 9.300781-61.800781 25.5l-10.5 10.800781v-396.300781zm0 0" fill="#463b85"/><path d="m241 435.199219c-17.453125-9.765625-37.265625-15.199219-57.421875-15.199219h-153.578125v-300h211zm0 0" fill="#ffcebf"/><path d="m482 420h-153.578125c-20.152344 0-39.96875 5.433594-57.421875 15.199219v-315.199219h211zm0 0" fill="#ffbfab"/><g fill="#ec806b"><path d="m301 240h150v30h-150zm0 0"/><path d="m301 300h150v30h-150zm0 0"/><path d="m301 360h150v30h-150zm0 0"/></g><path d="m61 240h150v30h-150zm0 0" fill="#f89580"/><path d="m61 300h150v30h-150zm0 0" fill="#f89580"/><path d="m61 360h150v30h-150zm0 0" fill="#f89580"/><path d="m451 195v15h-30l-105-15c0-33-27-60-60-60s-60 27-60 60l-105 15h-30v-15c0-107.402344 87.597656-195 195-195s195 87.597656 195 195zm0 0" fill="#ff8597"/><path d="m451 195v15h-30l-105-15c0-33-27-60-60-60v-135c107.402344 0 195 87.597656 195 195zm0 0" fill="#ff6c6c"/><path d="m421 195v15h-30l-75-15c0-33-27-60-60-60s-60 27-60 60l-75 15h-30v-15c0-90.902344 74.097656-165 165-165s165 74.097656 165 165zm0 0" fill="#ffd400"/><path d="m421 195v15h-30l-75-15c0-33-27-60-60-60v-105c90.902344 0 165 74.097656 165 165zm0 0" fill="#fdbf00"/><path d="m391 195v15h-30l-45-15c0-33-27-60-60-60s-60 27-60 60l-45 15h-30v-15c0-74.398438 60.601562-135 135-135s135 60.601562 135 135zm0 0" fill="#a8ebfa"/><path d="m391 195v15h-30l-45-15c0-33-27-60-60-60v-75c74.398438 0 135 60.601562 135 135zm0 0" fill="#76e2f8"/><path d="m361 195v15h-30l-15-15c0-33-27-60-60-60s-60 27-60 60l-15 15h-30v-15c0-57.898438 47.101562-105 105-105s105 47.101562 105 105zm0 0" fill="#deecf1"/><path d="m361 195v15h-30l-15-15c0-33-27-60-60-60v-45c57.898438 0 105 47.101562 105 105zm0 0" fill="#c6e2e7"/><path d="m331 195v15h-30v-15c0-24.902344-20.097656-45-45-45s-45 20.097656-45 45v15h-30v-15c0-41.398438 33.601562-75 75-75s75 33.601562 75 75zm0 0" fill="#da90f8"/><path d="m331 195v15h-30v-15c0-24.902344-20.097656-45-45-45v-30c41.398438 0 75 33.601562 75 75zm0 0" fill="#cb75f6"/></svg>