<?xml version="1.0" standalone="no"?>
<!DOCTYPE svg PUBLIC "-//W3C//DTD SVG 20010904//EN"
 "http://www.w3.org/TR/2001/REC-SVG-20010904/DTD/svg10.dtd">
<svg version="1.0" xmlns="http://www.w3.org/2000/svg"
 width="158.000000pt" height="150.000000pt" viewBox="0 0 158.000000 150.000000"
 preserveAspectRatio="xMidYMid meet">

<g transform="translate(0.000000,150.000000) scale(0.100000,-0.100000)"
fill="#000000" stroke="none">
<path d="M385 1468 c-15 -14 -28 -38 -32 -60 -5 -32 -1 -41 25 -68 43 -42 84
-41 128 5 31 33 36 35 98 35 l65 0 3 -147 c3 -140 4 -148 23 -148 19 0 20 8
23 168 l2 167 -90 0 -91 0 -33 35 c-40 42 -82 46 -121 13z"/>
<path d="M1070 1460 c-27 -29 -32 -30 -113 -30 -60 0 -88 -4 -96 -14 -8 -9
-11 -64 -9 -172 3 -151 4 -159 23 -159 19 0 20 8 23 148 l3 147 68 0 c66 0 71
-2 105 -36 31 -31 41 -36 68 -30 49 10 78 43 78 88 0 84 -93 119 -150 58z"/>
<path d="M44 1226 c-41 -35 -39 -90 4 -126 32 -26 32 -27 32 -118 l0 -92 145
0 c138 0 145 1 145 20 0 19 -7 20 -120 20 l-120 0 0 69 c0 64 2 72 30 99 84
85 -26 206 -116 128z"/>
<path d="M1415 1225 c-36 -35 -34 -88 5 -127 28 -27 30 -35 30 -99 l0 -69
-125 0 -125 0 0 -25 0 -25 134 0 c74 0 141 3 150 6 13 5 16 23 16 95 0 88 1
90 32 118 25 22 32 37 32 64 0 79 -94 118 -149 62z"/>
<path d="M432 1028 c-16 -16 -16 -210 0 -226 7 -7 20 -12 30 -12 14 0 18 -8
18 -40 0 -32 -4 -40 -18 -40 -35 0 -42 -21 -42 -121 0 -54 3 -104 6 -113 5
-14 47 -16 364 -16 317 0 359 2 364 16 3 9 6 59 6 113 0 100 -7 121 -42 121
-14 0 -18 8 -18 40 0 32 4 40 18 40 10 0 23 5 30 12 16 16 16 210 0 226 -17
17 -699 17 -716 0z m346 -100 c8 -8 9 -15 1 -25 -8 -9 -42 -13 -120 -13 -108
0 -127 6 -115 35 7 19 215 22 234 3z m159 -4 c8 -21 -13 -42 -28 -27 -13 13
-5 43 11 43 6 0 13 -7 17 -16z m71 -7 c4 -20 -25 -34 -40 -19 -15 15 -1 44 19
40 10 -2 19 -11 21 -21z m60 0 c4 -21 -27 -35 -38 -17 -12 19 0 42 19 38 9 -2
17 -11 19 -21z m-18 -167 l0 -40 -260 0 -260 0 0 40 0 40 260 0 260 0 0 -40z
m-272 -162 c-3 -22 -8 -23 -108 -26 -109 -2 -137 5 -127 32 5 13 25 16 122 16
115 0 116 0 113 -22z m160 0 c-2 -13 -10 -23 -18 -23 -8 0 -16 10 -18 23 -3
17 2 22 18 22 16 0 21 -5 18 -22z m68 11 c3 -6 0 -17 -7 -25 -18 -17 -44 -2
-36 20 7 18 33 21 43 5z m61 -5 c3 -8 1 -20 -6 -27 -14 -14 -47 15 -37 32 10
16 36 13 43 -5z"/>
<path d="M87 603 c-4 -3 -7 -45 -7 -91 0 -84 -1 -86 -32 -112 -25 -21 -32 -35
-32 -64 0 -81 99 -122 150 -62 35 40 32 90 -6 126 -28 26 -30 33 -30 99 l0 71
125 0 c118 0 125 1 125 20 0 19 -7 20 -143 20 -79 0 -147 -3 -150 -7z"/>
<path d="M1200 590 c0 -19 7 -20 125 -20 l125 0 0 -69 c0 -64 -2 -72 -30 -99
-84 -85 26 -206 116 -128 41 35 39 89 -4 127 -32 28 -32 30 -32 119 l0 90
-150 0 c-143 0 -150 -1 -150 -20z"/>
<path d="M677 414 c-4 -4 -7 -72 -7 -151 l0 -143 -74 0 c-66 0 -75 2 -81 20
-4 11 -20 27 -36 36 -90 46 -171 -65 -100 -137 40 -39 82 -39 123 1 28 28 34
30 111 30 45 0 88 4 95 8 9 7 12 48 10 173 -3 138 -5 164 -18 167 -9 1 -19 0
-23 -4z"/>
<path d="M857 414 c-13 -13 -8 -319 5 -332 7 -7 44 -12 96 -12 80 0 85 -1 112
-30 58 -62 150 -26 150 59 0 32 -6 44 -31 65 -42 36 -74 33 -116 -9 -33 -33
-39 -35 -104 -35 l-68 0 -3 147 c-3 124 -5 148 -18 151 -9 1 -19 0 -23 -4z"/>
</g>
</svg>
