<svg width="39" height="43" viewBox="0 0 39 43" fill="none" xmlns="http://www.w3.org/2000/svg">
	<path d="M12.375 40H3C3 31.9458 9.52919 25.4167 17.5833 25.4167C17.9335 25.4167 18.2808 25.429 18.625 25.4533M25.9167 10.8333C25.9167 15.4357 22.1856 19.1667 17.5833 19.1667C12.981 19.1667 9.25 15.4357 9.25 10.8333C9.25 6.23096 12.981 2.5 17.5833 2.5C22.1856 2.5 25.9167 6.23096 25.9167 10.8333ZM20.8954 40L25.1142 39.1562C25.4821 39.0827 25.666 39.0458 25.8375 38.9785C25.9898 38.919 26.1344 38.8415 26.2685 38.7479C26.4196 38.6425 26.5523 38.51 26.8175 38.2446L35.4787 29.5833C36.6294 28.4327 36.6294 26.5673 35.4787 25.4167C34.3283 24.266 32.4627 24.266 31.3121 25.4167L22.6508 34.0779C22.3856 34.3433 22.2529 34.4758 22.1475 34.6271C22.054 34.761 21.9767 34.9058 21.9169 35.0581C21.8496 35.2296 21.8129 35.4135 21.7392 35.7812L20.8954 40Z" stroke="url(#paint0_linear_111_65308)" stroke-width="4.16667" stroke-linecap="round" stroke-linejoin="round"/>
	<defs>
		<linearGradient id="paint0_linear_111_65308" x1="19.6709" y1="2.5" x2="19.6709" y2="40" gradientUnits="userSpaceOnUse">
			<stop stop-color="white"/>
			<stop offset="1" stop-color="#63ADB9"/>
		</linearGradient>
	</defs>
</svg>