<svg width="51" height="48" viewBox="0 0 51 48" fill="none" xmlns="http://www.w3.org/2000/svg">
    <g clip-path="url(#clip0_111_65376)">
        <path d="M1.52448 41.2354L35.4682 7.29167H27.9974C27.4449 7.29167 26.915 7.07218 26.5243 6.68148C26.1336 6.29078 25.9141 5.76087 25.9141 5.20834C25.9141 4.6558 26.1336 4.1259 26.5243 3.7352C26.915 3.3445 27.4449 3.125 27.9974 3.125H40.4974C40.7706 3.12631 41.0409 3.18079 41.2932 3.28542C41.6739 3.44276 41.9994 3.70941 42.2285 4.05167C42.4577 4.39393 42.5802 4.79644 42.5807 5.20834V17.7083C42.5807 18.2609 42.3612 18.7908 41.9705 19.1815C41.5798 19.5722 41.0499 19.7917 40.4974 19.7917C39.9449 19.7917 39.415 19.5722 39.0243 19.1815C38.6336 18.7908 38.4141 18.2609 38.4141 17.7083V10.2375L4.47031 44.1813C4.07739 44.5607 3.55114 44.7707 3.00489 44.766C2.45865 44.7612 1.93612 44.5421 1.54986 44.1559C1.16359 43.7696 0.944488 43.2471 0.939742 42.7008C0.934995 42.1546 1.14498 41.6283 1.52448 41.2354ZM0.914062 11.4583C0.914063 9.81016 1.4028 8.19899 2.31848 6.82858C3.23416 5.45818 4.53565 4.39007 6.05837 3.75934C7.58108 3.12861 9.25664 2.96358 10.8731 3.28513C12.4897 3.60667 13.9745 4.40034 15.14 5.56578C16.3054 6.73122 17.0991 8.21608 17.4206 9.83258C17.7422 11.4491 17.5771 13.1246 16.9464 14.6474C16.3157 16.1701 15.2476 17.4716 13.8771 18.3872C12.5067 19.3029 10.8956 19.7917 9.2474 19.7917C7.03726 19.7917 4.91764 18.9137 3.35484 17.3509C1.79204 15.7881 0.914063 13.6685 0.914062 11.4583ZM5.08073 11.4583C5.08073 12.2824 5.3251 13.088 5.78294 13.7732C6.24078 14.4584 6.89152 14.9925 7.65288 15.3078C8.41424 15.6232 9.25202 15.7057 10.0603 15.5449C10.8685 15.3842 11.611 14.9873 12.1937 14.4046C12.7764 13.8219 13.1732 13.0795 13.334 12.2712C13.4948 11.463 13.4123 10.6252 13.0969 9.86382C12.7815 9.10246 12.2475 8.45172 11.5623 7.99388C10.8771 7.53604 10.0715 7.29167 9.2474 7.29167C8.14233 7.29167 7.08252 7.73066 6.30112 8.51206C5.51972 9.29346 5.08073 10.3533 5.08073 11.4583ZM41.8328 28.6083C41.6226 28.4327 41.3797 28.3002 41.1182 28.2185C40.8567 28.1369 40.5816 28.1076 40.3087 28.1323C40.0359 28.1571 39.7706 28.2354 39.5281 28.3629C39.2855 28.4903 39.0705 28.6644 38.8953 28.875L29.937 39.6229L25.2995 34.9854C24.9066 34.6059 24.3803 34.3959 23.8341 34.4007C23.2878 34.4054 22.7653 34.6245 22.379 35.0108C21.9928 35.3971 21.7737 35.9196 21.7689 36.4658C21.7642 37.0121 21.9741 37.5383 22.3536 37.9313L28.6036 44.1813C28.7976 44.3752 29.0278 44.529 29.2813 44.6337C29.5348 44.7385 29.8065 44.7922 30.0807 44.7917H30.1745C30.4641 44.7788 30.7478 44.7056 31.0076 44.5769C31.2673 44.4481 31.4973 44.2665 31.6828 44.0438L42.0995 31.5438C42.2748 31.3335 42.407 31.0909 42.4885 30.8295C42.57 30.5682 42.5992 30.2934 42.5744 30.0208C42.5497 29.7482 42.4714 29.4831 42.3442 29.2408C42.2169 28.9984 42.0432 28.7835 41.8328 28.6083Z" fill="url(#paint0_linear_111_65376)"/>
    </g>
    <defs>
        <linearGradient id="paint0_linear_111_65376" x1="21.7485" y1="3.125" x2="21.7485" y2="44.7917" gradientUnits="userSpaceOnUse">
            <stop stop-color="white"/>
            <stop offset="0.9999" stop-color="#64ADB9"/>
            <stop offset="1" stop-color="#63ADB9" stop-opacity="0"/>
        </linearGradient>
        <clipPath id="clip0_111_65376">
            <rect width="50" height="47.9329" fill="white" transform="matrix(1 0 0 -1 0.914062 47.9329)"/>
        </clipPath>
    </defs>
</svg>