<svg xmlns="http://www.w3.org/2000/svg"  viewBox="0 0 30 30" width="80px" height="80px"><path fill="#8bb7f0" d="M15 1A14 14 0 1 0 15 29A14 14 0 1 0 15 1Z"/><path fill="#fff" d="M28.921 16.479c.002-.02.006-.039.008-.059C28.926 16.439 28.922 16.459 28.921 16.479zM1.071 16.415c.003.027.008.053.011.08C1.079 16.468 1.074 16.441 1.071 16.415zM16.996 18.71h3.623l.569-3.68h-4.192v-2.012c0-1.529.5-2.885 1.93-2.885h2.298V6.922c-.404-.054-1.257-.174-2.871-.174-3.37 0-5.345 1.78-5.345 5.834v2.449H9.544v3.68h3.464v9.92c.684.103 1.379.173 2.093.173.644 0 1.274-.059 1.895-.143V18.71z"/><g><path fill="#4e7ab5" d="M15,2c7.168,0,13,5.832,13,13s-5.832,13-13,13S2,22.168,2,15S7.832,2,15,2 M15,1 C7.268,1,1,7.268,1,15s6.268,14,14,14s14-6.268,14-14S22.732,1,15,1L15,1z"/></g></svg>