<svg width="50" height="47" viewBox="0 0 50 47" fill="none" xmlns="http://www.w3.org/2000/svg">
    <g clip-path="url(#clip0_111_65557)">
        <path fill-rule="evenodd" clip-rule="evenodd" d="M5.89824 3.125C2.64073 3.125 0 5.76573 0 9.02324V40.4805C0 43.7381 2.64075 46.3788 5.89824 46.3788H29.4912C32.7488 46.3788 35.3894 43.7381 35.3894 40.4805V37.5314C35.3894 36.4456 34.5092 35.5653 33.4234 35.5653C32.3375 35.5653 31.4573 36.4456 31.4573 37.5314V40.4805C31.4573 41.5664 30.5771 42.4466 29.4912 42.4466H5.89824C4.81238 42.4466 3.93216 41.5664 3.93216 40.4805V9.02324C3.93216 7.9374 4.8124 7.05716 5.89824 7.05716H17.6941V28.684C17.6941 29.4367 18.1238 30.1233 18.8008 30.4523C19.4777 30.7813 20.2831 30.695 20.8749 30.23L27.0503 25.3779L32.074 30.1145C32.645 30.6528 33.4813 30.8001 34.2018 30.4892C34.9223 30.1783 35.3889 29.4687 35.3889 28.684V24.8003C35.3892 24.7842 35.3894 24.7681 35.3894 24.7519V9.02324C35.3894 5.76575 32.7488 3.125 29.4912 3.125H19.6602H5.89824ZM21.6263 7.05716V24.6389L25.9524 21.2398C26.7177 20.6385 27.8077 20.6876 28.5159 21.3553L31.4567 24.1281V10.9893C31.4567 10.9732 31.4569 10.9571 31.4573 10.941V9.02324C31.4573 7.93738 30.5771 7.05716 29.4912 7.05716H21.6263Z" fill="url(#paint0_linear_111_65557)"/>
    </g>
    <defs>
        <linearGradient id="paint0_linear_111_65557" x1="17.6947" y1="3.125" x2="17.6947" y2="46.3788" gradientUnits="userSpaceOnUse">
            <stop stop-color="white"/>
            <stop offset="1" stop-color="#63ADB9"/>
        </linearGradient>
        <clipPath id="clip0_111_65557">
            <rect width="50" height="46.3788" fill="white" transform="matrix(1 0 0 -1 0 46.3787)"/>
        </clipPath>
    </defs>
</svg>