<svg height="512" viewBox="0 0 512 512" width="512" xmlns="http://www.w3.org/2000/svg"><path d="m368 267.708v-67.708h-80v67.708a16 16 0 0 1 -11.877 15.459l-72.491 19.333a48 48 0 0 0 -35.632 46.377v139.123h320v-139.123a48 48 0 0 0 -35.632-46.377l-72.491-19.331a16 16 0 0 1 -11.877-15.461z" fill="#fec9a3"/><path d="m345.373 288a54.569 54.569 0 0 0 28.409-8.042 15.958 15.958 0 0 1 -5.782-12.25v-67.708h-80v67.708a15.958 15.958 0 0 1 -5.782 12.25 54.569 54.569 0 0 0 28.409 8.042z" fill="#feb784"/><path d="m452.368 302.5-69.668-18.581a55.978 55.978 0 0 1 -109.4 0l-69.668 18.581a48 48 0 0 0 -35.632 46.377v139.123h320v-139.123a48 48 0 0 0 -35.632-46.377z" fill="#c7ae71"/><path d="m168 384h64v104h-64z" fill="#fec9a3"/><path d="m424 384h64v104h-64z" fill="#feb784"/><path d="m56 456h280v32h-280z" fill="#c7c7c5"/><path d="m241.67 488h-170.98a18.317 18.317 0 0 1 -17.27-12.23 16.5 16.5 0 0 1 -.61-2.11l-28.47-128.12a14.834 14.834 0 0 1 -.34-3.12 14.408 14.408 0 0 1 14.42-14.42h178.54a18.345 18.345 0 0 1 17.99 14.74l2.49 12.48 22.18 110.88a18.307 18.307 0 0 1 -17.95 21.9z" fill="#e0e0de"/><ellipse cx="136" cy="408" fill="#ebebe9" rx="15.31" ry="16.721" transform="matrix(.691 -.723 .723 .691 -252.812 224.193)"/><path d="m440 488h-64l-8-104h80z" fill="#d6d6d4"/><path d="m370.461 416 3.078 40h68.922l3.078-40z" fill="#95573a"/><path d="m424 272v8a48 48 0 0 0 -48 48v24h64v-16a16 16 0 0 1 16-16 16 16 0 0 0 16-16v-8a24 24 0 0 1 24-24v-72a72 72 0 0 0 -72 72z" fill="#ebebe9"/><path d="m424 416h64a0 0 0 0 1 0 0v72a0 0 0 0 1 0 0h-64a16 16 0 0 1 -16-16v-40a16 16 0 0 1 16-16z" fill="#fec9a3"/><path d="m408 120h-8v48h8a24 24 0 1 0 0-48z" fill="#feb784"/><path d="m248.4 120h-.4a24 24 0 0 0 0 48h8v-48z" fill="#feb784"/><path d="m328 256a72 72 0 0 1 -72-72v-72a72 72 0 0 1 72-72 72 72 0 0 1 72 72v72a72 72 0 0 1 -72 72z" fill="#fec9a3"/><path d="m328 40a72.045 72.045 0 0 0 -16 1.846 71.983 71.983 0 0 1 56 70.154v72a71.983 71.983 0 0 1 -56 70.154 71.82 71.82 0 0 0 88-70.154v-72a72 72 0 0 0 -72-72z" fill="#fec093"/><circle cx="292" cy="132" fill="#7a432a" r="12"/><circle cx="364" cy="132" fill="#7a432a" r="12"/><path d="m312 176h32v-16h-20.9l12.492-37.469-15.18-5.062-16 48a8 8 0 0 0 7.588 10.531z" fill="#f7a468"/><path d="m256 120 27.25 40.875a16 16 0 0 0 13.313 7.125h62.874a16 16 0 0 0 13.313-7.125l27.25-40.875v97.373a54.626 54.626 0 0 1 -16 38.627 54.626 54.626 0 0 1 -38.627 16h-34.746a54.626 54.626 0 0 1 -38.627-16 54.626 54.626 0 0 1 -16-38.627z" fill="#7a432a"/><path d="m372.75 160.875a15.888 15.888 0 0 1 -4.75 4.519v51.979a54.627 54.627 0 0 1 -54.627 54.627h32a54.627 54.627 0 0 0 54.627-54.627v-97.373z" fill="#743b20"/><path d="m349.68 184.344a99.084 99.084 0 0 1 -28.746 4.215h-16.934v16h16.934a115.083 115.083 0 0 0 33.386-4.9z" fill="#fec9a3"/><path d="m280 96h118.154a72.036 72.036 0 0 0 -34.554-46.529 47.908 47.908 0 0 0 -11.6-1.471h-56.882a72.145 72.145 0 0 0 -34.305 38.285 23.894 23.894 0 0 0 19.187 9.715z" fill="#fec093"/><path d="m256 120v-40c0-26.51 17.909-40 40-40l-1.408 5.068c-7.842 28.232-21.055 53.888-38.592 74.932z" fill="#95573a"/><path d="m400 120v-48c0-26.51-17.909-32-40-32l1.408 5.067c7.842 28.233 21.055 53.889 38.592 74.933z" fill="#95573a"/><path d="m400 80h-120a24 24 0 0 1 -24-24v-24h104a40 40 0 0 1 40 40z" fill="#7a432a"/><path d="m360 32h-32a40 40 0 0 1 40 40v8h32v-8a40 40 0 0 0 -40-40z" fill="#743b20"/><path d="m446.769 400 1.231-16h-80l1.231 16z" fill="#c7c7c5"/><path d="m360 352h96v32h-96z" fill="#7a432a"/><path d="m424 352h32v32h-32z" fill="#743b20"/><path d="m397.645 287.9a47.933 47.933 0 0 0 -21.645 40.1v24h64v-16a16 16 0 0 1 16-16 15.931 15.931 0 0 0 14-8.4 47.662 47.662 0 0 0 -17.629-9.105z" fill="#d4bd81"/><path d="m241.67 488h-170.98a18.317 18.317 0 0 1 -17.27-12.23c65.28-20.55 137.03-56.79 184.02-120.55l22.18 110.88a18.307 18.307 0 0 1 -17.95 21.9z" fill="#d6d6d4"/></svg>