<svg width="1474" height="1006" viewBox="0 0 1474 1006" fill="none" xmlns="http://www.w3.org/2000/svg">
<g clip-path="url(#clip0)">
<rect width="1474" height="1006" fill="white"/>
<path d="M1238.12 344C1249.48 293.118 1159.79 342.439 1191.46 303.451C1191.87 302.955 1217.59 303.947 1218 303.451C1236.48 280.984 1211.43 276.882 1238.12 273C1220.96 253.258 1226 230 1226 230C1257.75 239.003 1319 230 1319 230L1300 264C1325.61 263.835 1321.78 284.205 1343 302.047C1380.22 333.435 1369.01 354.466 1370 407C1315 446 1377.58 360 1300 407C1220.1 455.404 1286.2 426.64 1238.12 433C1190.05 439.278 1225.11 402.151 1238.12 344Z" fill="#B8D7F6"/>
<path d="M556.922 175.789C548.714 123.254 503.169 82.9316 448.363 82.9316C427.746 82.9316 407.934 88.636 390.75 99.2756C364.607 55.3401 317.543 28 265.258 28C184.488 28 118.773 93.7141 118.773 174.484C118.773 174.985 118.773 175.504 118.792 176.004C66.8813 184.748 26 230.006 26 284.348C26 344.93 76.5017 394.211 137.084 394.211H539.916C600.498 394.211 651 344.93 651 284.348C651 229.542 609.457 183.997 556.922 175.789Z" fill="#B8D7F6"/>
<path d="M1413.66 626H1189.34C1186.18 626 1183.61 628.562 1183.61 631.723V679.793C1183.61 679.849 1183.65 680.475 1183.69 680.723L1217.45 885.594C1217.46 885.632 1217.47 885.668 1217.48 885.706C1217.48 885.733 1217.48 885.759 1217.49 885.786L1223.21 914.4C1223.75 917.075 1226.1 919 1228.82 919H1374.18C1376.9 919 1379.25 917.075 1379.79 914.4C1379.79 914.4 1385.54 885.632 1385.55 885.594L1419.31 680.723C1419.32 680.678 1419.32 680.631 1419.33 680.587C1419.34 680.466 1419.36 680.345 1419.36 680.224C1419.37 680.135 1419.38 680.048 1419.38 679.958C1419.38 679.903 1419.39 679.849 1419.39 679.793V631.723C1419.39 628.562 1416.82 626 1413.66 626ZM1383.59 827.078L1373.87 816.643L1387.27 804.746L1383.59 827.078ZM1375.04 878.941H1358.96L1334.18 851.877L1365.31 824.243L1381.24 841.344L1375.04 878.941ZM1318.38 685.516L1340.19 710.212L1304.82 742.53L1276.8 712.457L1306.28 685.516H1318.38ZM1333.65 685.516H1367.21L1348.64 702.489L1333.65 685.516ZM1390.23 786.82L1366.07 808.267L1342.57 783.047L1376.7 751.563L1393 770.012L1390.23 786.82ZM1210.51 773.05L1230.09 755.146L1257.84 785.454L1232.94 808.208L1212.53 785.327L1210.51 773.05ZM1266.29 777.733L1238.54 747.425L1268.36 720.178L1296.37 750.249L1266.29 777.733ZM1304.17 758.625L1326.36 782.432L1296.12 810.314L1274.02 786.176L1304.17 758.625ZM1265.57 793.897L1287.71 818.076L1262.5 841.333L1240.56 816.75L1265.57 793.897ZM1295.44 826.517L1317.89 851.035L1291.81 874.184L1270.12 849.874L1295.44 826.517ZM1303.85 818.757L1334.16 790.806L1357.5 815.867L1326.45 843.436L1303.85 818.757ZM1334.77 774.673L1312.62 750.904L1347.76 718.792L1369.13 742.981L1334.77 774.673ZM1269 704.083L1251.7 685.516H1289.32L1269 704.083ZM1236.06 685.516L1260.55 711.804L1230.81 738.982L1204.91 710.693L1233 685.516H1236.06ZM1198.62 700.958L1196.08 685.516H1215.85L1198.62 700.958ZM1222.36 746.706L1208.28 759.573L1202.61 725.125L1222.36 746.706ZM1216 806.416L1224.49 815.93L1218.48 821.426L1216 806.416ZM1232.12 824.471L1254.08 849.094L1227.13 873.95L1220.7 834.902L1232.12 824.471ZM1261.7 857.636L1280.71 878.941H1238.6L1261.7 857.636ZM1325.62 859.478L1343.44 878.941H1303.69L1325.62 859.478ZM1395.4 755.439L1385.12 743.802L1399.5 730.535L1395.4 755.439ZM1402.53 712.173L1377.54 735.22L1356.21 711.071L1384.18 685.516H1406.92L1402.53 712.173ZM1407.94 637.445V648.891H1395.35C1392.2 648.891 1389.63 651.459 1389.63 654.613C1389.63 657.767 1392.2 660.336 1395.35 660.336H1407.94V674.07H1195.06V660.336H1212.23C1215.38 660.336 1217.95 657.767 1217.95 654.613C1217.95 651.459 1215.38 648.891 1212.23 648.891H1195.06V637.445H1407.94ZM1369.49 907.555H1233.51L1230.08 890.387H1372.92L1369.49 907.555Z" fill="#274867"/>
<path d="M1326.68 660.336H1349.57C1352.72 660.336 1355.29 657.767 1355.29 654.613C1355.29 651.459 1352.72 648.891 1349.57 648.891H1326.68C1323.53 648.891 1320.96 651.459 1320.96 654.613C1320.96 657.767 1323.53 660.336 1326.68 660.336Z" fill="#274867"/>
<path d="M1372.46 660.336C1375.62 660.336 1378.18 657.767 1378.18 654.613C1378.18 651.459 1375.62 648.891 1372.46 648.891C1369.31 648.891 1366.74 651.459 1366.74 654.613C1366.74 657.767 1369.31 660.336 1372.46 660.336Z" fill="#274867"/>
<path d="M1303.79 660.336C1306.94 660.336 1309.51 657.767 1309.51 654.613C1309.51 651.459 1306.94 648.891 1303.79 648.891C1300.63 648.891 1298.07 651.459 1298.07 654.613C1298.07 657.767 1300.63 660.336 1303.79 660.336Z" fill="#274867"/>
<path d="M1258.01 660.336H1280.9C1284.05 660.336 1286.62 657.767 1286.62 654.613C1286.62 651.459 1284.05 648.891 1280.9 648.891H1258.01C1254.85 648.891 1252.29 651.459 1252.29 654.613C1252.29 657.767 1254.85 660.336 1258.01 660.336Z" fill="#274867"/>
<path d="M1235.12 660.336C1238.27 660.336 1240.84 657.767 1240.84 654.613C1240.84 651.459 1238.27 648.891 1235.12 648.891C1231.96 648.891 1229.39 651.459 1229.39 654.613C1229.39 657.767 1231.96 660.336 1235.12 660.336Z" fill="#274867"/>
<ellipse cx="709" cy="453" rx="16" ry="9" fill="#B8D7F6"/>
<rect x="1166" y="626" width="271" height="53" rx="8" fill="#274867"/>
<ellipse cx="637.5" cy="415.5" rx="33.5" ry="18.5" fill="#B8D7F6"/>
<path d="M171.193 278H179.947V234.15H181.79L193.31 258.187H202.679L214.275 234.15H216.118V278H224.873V223.168H210.205L198.993 247.051H197.15L185.784 223.168H171.193V278ZM247.379 269.629V253.886H271.262V245.669H247.379V231.539H277.56V223.168H238.164V278H278.558V269.629H247.379ZM288.786 278H297.54V234.15H299.383L310.903 258.187H320.272L331.868 234.15H333.711V278H342.466V223.168H327.798L316.586 247.051H314.742L303.377 223.168H288.786V278ZM379.256 222.17C362.207 222.17 353.069 234.611 353.069 250.584C353.069 266.557 362.207 278.998 379.256 278.998C396.228 278.998 405.366 266.557 405.366 250.584C405.366 234.611 396.228 222.17 379.256 222.17ZM379.256 270.628C367.583 270.628 362.438 261.412 362.438 250.584C362.438 239.756 367.583 230.54 379.256 230.54C390.852 230.54 395.997 239.756 395.997 250.584C395.997 261.412 390.852 270.628 379.256 270.628ZM416.053 223.168V278H425.268V256.19H438.017C439.629 256.19 441.242 256.267 442.855 256.037L450.611 278H459.98L451.533 254.04C456.831 251.352 459.75 246.437 459.75 239.679C459.75 229.312 452.992 223.168 441.088 223.168H416.053ZM425.268 231.308H439.783C447.539 231.308 450.381 234.303 450.381 239.756C450.381 244.978 447.539 248.203 439.783 248.203H425.268V231.308ZM486.961 246.591L473.829 223.168H463.922L483.428 257.803V278H492.644V257.803L512.15 223.168H502.243L489.111 246.591H486.961Z" fill="#425F7A"/>
<path d="M706.648 809.271C701.052 816.262 695.596 820.036 688.321 817.8C679.227 814.864 669.294 812.487 665.517 802.001C661.6 791.515 665.797 782.568 672.092 774.319C679.087 765.231 686.083 756.423 692.938 747.196C707.628 727.623 707.348 705.533 702.451 683.303C698.674 666.246 692.238 649.889 692.098 631.853C692.098 616.055 696.995 602.633 705.809 589.911C717.281 573.134 729.312 556.496 739.385 538.88C752.676 515.532 760.371 490.087 762.189 463.104C765.547 413.611 768.625 364.119 771.423 314.627C772.542 294.214 773.661 273.663 772.962 253.25C772.262 229.623 769.604 205.995 767.786 182.367C767.506 179.711 766.387 177.054 765.267 173C767.925 173.979 770.024 174.398 771.563 175.377C797.585 191.175 820.109 211.448 841.934 232.279C902.372 289.741 953.996 354.332 997.365 425.355C1008.28 443.251 1025.07 445.069 1040.46 433.464C1060.6 418.365 1079.49 401.588 1098.79 385.09C1134.33 354.612 1169.87 324.134 1205.12 293.236C1210.86 288.203 1214.91 281.352 1220.23 275.76C1223.59 272.125 1227.5 269.748 1232.96 273.663C1234.92 275.061 1239.54 273.663 1242.61 272.404C1251.01 268.769 1259.26 264.715 1268.64 260.241C1271.29 279.255 1255.63 289.461 1251.57 304.001C1269.62 307.077 1283.19 300.226 1287.52 287.643C1283.19 279.535 1278.99 272.125 1275.07 264.715C1273.11 261.08 1274.93 258.563 1278.43 257.864C1293.4 254.928 1308.09 249.336 1323.76 253.111C1337.89 256.606 1348.8 272.404 1346.42 286.944C1348.24 288.203 1349.92 289.601 1351.88 290.579C1360.83 294.914 1364.75 301.904 1363.91 311.691C1363.49 316.025 1364.19 319.101 1369.37 320.359C1374.82 321.757 1376.5 326.79 1376.36 331.823C1376.22 336.437 1374.82 341.051 1374.82 345.664C1374.82 349.439 1375.24 353.494 1376.64 357.129C1378.18 361.463 1383.64 365.657 1379.58 370.131C1376.08 373.906 1370.49 375.723 1364.89 372.368C1359.43 369.152 1353.7 366.216 1347.96 363.14C1345.3 366.496 1342.36 371.389 1338.45 375.444C1331.45 382.714 1322.22 382.853 1314.66 376.143C1301.37 364.259 1301.23 357.408 1310.33 340.771C1312.99 336.017 1315.64 331.264 1317.6 325.532C1302.91 338.534 1287.24 340.911 1270.18 332.522C1263.6 352.095 1246.39 358.666 1230.72 347.901C1225.83 344.546 1222.61 339.932 1222.61 333.501C1222.61 327.209 1217.43 324.553 1211.42 326.93C1177.56 341.19 1150.84 365.098 1124.68 389.844C1105.79 407.6 1087.04 425.635 1067.18 442.272C1056.4 451.36 1052.77 462.964 1050.53 475.547C1046.19 500.713 1049.69 524.62 1060.18 548.248C1068.86 567.681 1075.71 587.953 1081.45 608.366C1089.98 638.704 1097.4 669.322 1103.83 700.22C1107.47 717.417 1109.29 735.172 1110.13 752.788C1111.25 777.674 1111.25 802.56 1110.83 827.586C1110.41 851.913 1106.35 875.68 1094.04 897.351C1086.62 910.493 1074.45 915.945 1060.18 918.602C1040.32 922.237 1028.84 911.052 1018.63 896.512C1004.22 876.24 990.51 855.268 974.421 836.534C956.094 815.003 931.891 803.399 902.652 806.894C883.345 809.131 865.717 816.821 850.188 828.006C829.762 842.546 810.176 858.204 790.45 873.723C777.719 883.789 765.547 894.415 750.298 900.427C735.608 906.159 719.799 904.761 712.384 894.834C707.767 888.543 704.55 879.735 704.27 871.766C703.57 854.849 705.249 837.792 705.949 820.875C706.228 818.079 706.508 814.724 706.648 809.271ZM950.078 416.408C958.053 445.348 953.016 471.492 934.549 494.561C920.979 511.478 903.771 524.061 881.946 527.556C867.676 529.793 852.706 531.471 838.576 529.234C820.389 526.437 804.72 516.651 793.388 501.272C792.548 500.153 788.491 499.734 787.512 500.713C785.133 502.949 783.035 505.885 782.195 508.821C780.517 514.973 779.957 521.544 778.558 527.835C775.2 543.634 771.423 559.293 768.205 574.951C764.568 592.427 761.35 610.043 757.852 627.519C751.557 660.514 744.981 693.509 739.106 726.504C736.308 742.163 734.769 758.101 732.67 773.899C731.551 783.127 729.872 792.214 729.452 801.442C728.473 822.553 727.494 843.664 727.773 864.775C728.053 876.659 735.328 881.273 745.681 878.057C748.759 877.079 751.977 875.96 754.355 874.003C771.983 859.882 790.03 845.901 807.098 831.081C830.182 810.949 854.105 792.774 884.604 785.364C909.087 779.352 932.451 781.729 954.695 793.613C979.458 806.755 996.806 827.586 1012.61 849.816C1021.57 862.399 1030.66 874.982 1039.62 887.564C1045.63 896.232 1054.03 896.652 1063.26 894.695C1072.21 892.737 1076.55 885.747 1077.95 878.197C1081.45 860.022 1085.5 841.707 1085.92 823.392C1086.76 790.677 1085.92 757.821 1084.1 725.106C1082.99 706.372 1079.21 687.637 1074.87 669.182C1070.53 650.029 1065.08 630.875 1058.36 612.42C1047.31 581.243 1036.54 549.786 1022.83 519.727C1007.58 486.452 989.251 454.576 972.043 422.14C966.587 411.095 962.11 410.116 950.078 416.408ZM849.628 406.761C850.888 407.739 851.867 408.998 852.986 409.417C855.085 410.116 857.183 410.396 859.422 410.815C858.722 408.299 858.722 404.244 857.043 403.405C854.385 402.007 850.468 402.007 847.39 402.706C840.955 403.965 838.856 402.706 839.695 396.555C822.907 403.266 800.942 420.462 797.725 437.659C801.082 434.723 803.461 432.625 806.539 429.829C808.077 432.346 809.337 434.862 810.876 437.239C812.554 439.756 814.513 444.369 816.052 444.23C820.109 443.81 825.565 442.552 827.384 439.616C830.322 435.002 832.281 435.841 835.358 438.358C838.576 441.014 840.395 440.315 843.053 436.68C846.131 432.206 849.628 426.334 857.043 431.088C857.603 431.507 860.821 429.41 861.38 427.872C861.94 426.334 861.38 422.979 860.401 422.559C854.805 420.043 848.789 418.225 842.633 415.988C844.872 413.192 847.11 410.116 849.628 406.761ZM736.587 592.987C710.006 602.074 703.151 654.083 723.716 679.528C726.794 662.611 730.012 645.974 732.95 629.337C734.349 621.647 735.608 613.958 736.447 606.129C737.007 602.074 736.587 597.74 736.587 592.987ZM850.048 447.166C845.012 442.832 832.98 441.713 828.923 445.069C827.664 446.047 826.964 448.004 826.405 449.682C826.265 450.102 827.804 451.64 828.643 451.64C836.058 451.919 843.613 453.457 850.048 447.166Z" fill="black"/>
<path d="M951.569 436.182C962.112 468.851 937.577 508.868 892.165 523.524C846.753 538.181 803.454 520.056 792.91 487.387C782.366 454.717 806.901 414.7 852.313 400.044C897.725 385.388 941.025 403.512 951.569 436.182Z" fill="#FA3E38" stroke="black" stroke-width="15"/>
<path d="M1214 253.5L1288 220V292L1251.5 304L1214 253.5Z" fill="#B8D7F6"/>
<path d="M1201.48 650.892V655.809H1210.88C1210.74 661.4 1207.94 665.015 1201.96 665.015C1194.78 665.015 1191.5 659.327 1191.5 652.386C1191.5 645.397 1194.83 639.806 1201.96 639.806C1206.35 639.806 1208.76 641.541 1209.68 644.578H1215.7C1214.4 638.457 1209.53 634.552 1201.96 634.552C1191.36 634.552 1185.62 642.168 1185.62 652.386C1185.62 662.605 1191.31 670.22 1201.92 670.22C1212.57 670.22 1216.71 662.557 1216.71 654.652V650.892H1201.48ZM1246.55 669.594H1252.47L1241 635.179H1231.75L1220.32 669.594H1226.11L1229.24 659.713H1243.36L1246.55 669.594ZM1235.22 640.818H1237.29L1241.68 654.555H1230.88L1235.22 640.818ZM1257.59 635.179V669.594H1263.37V655.905H1271.37C1272.38 655.905 1273.4 655.953 1274.41 655.809L1279.28 669.594H1285.16L1279.86 654.555C1283.18 652.868 1285.01 649.784 1285.01 645.542C1285.01 639.035 1280.77 635.179 1273.3 635.179H1257.59ZM1263.37 640.288H1272.48C1277.35 640.288 1279.13 642.168 1279.13 645.59C1279.13 648.868 1277.35 650.892 1272.48 650.892H1263.37V640.288ZM1315.32 650.989C1317.63 649.687 1318.93 647.181 1318.93 644.096C1318.93 639.276 1315.22 635.179 1307.75 635.179H1292.18V669.594H1308.19C1316.14 669.594 1319.95 665.352 1319.95 659.761C1319.95 656.291 1318.02 653.35 1315.32 652.145V650.989ZM1297.97 649.302V640.192H1307.22C1311.46 640.192 1313.01 641.831 1313.01 644.723C1313.01 647.615 1311.46 649.302 1307.22 649.302H1297.97ZM1297.97 664.581V654.218H1307.41C1312.23 654.218 1314.02 656.098 1314.02 659.375C1314.02 662.605 1312.23 664.581 1307.41 664.581H1297.97ZM1349.49 669.594H1355.42L1343.95 635.179H1334.69L1323.27 669.594H1329.05L1332.18 659.713H1346.31L1349.49 669.594ZM1338.16 640.818H1340.23L1344.62 654.555H1333.82L1338.16 640.818ZM1374.18 650.892V655.809H1383.58C1383.44 661.4 1380.64 665.015 1374.66 665.015C1367.48 665.015 1364.21 659.327 1364.21 652.386C1364.21 645.397 1367.53 639.806 1374.66 639.806C1379.05 639.806 1381.46 641.541 1382.38 644.578H1388.4C1387.1 638.457 1382.23 634.552 1374.66 634.552C1364.06 634.552 1358.33 642.168 1358.33 652.386C1358.33 662.605 1364.01 670.22 1374.62 670.22C1385.27 670.22 1389.41 662.557 1389.41 654.652V650.892H1374.18ZM1402.09 664.34V654.459H1417.08V649.302H1402.09V640.433H1421.03V635.179H1396.3V669.594H1421.66V664.34H1402.09Z" fill="white"/>
</g>
<defs>
<clipPath id="clip0">
<rect width="1474" height="1006" fill="white"/>
</clipPath>
</defs>
</svg>
