<svg width="56" height="56" viewBox="0 0 56 56" fill="none" xmlns="http://www.w3.org/2000/svg">
	<path d="M0 28C0 12.536 12.536 0 28 0C43.464 0 56 12.536 56 28C56 43.464 43.464 56 28 56C12.536 56 0 43.464 0 28ZM26.25 3.76794C23.907 4.48448 21.5762 6.64028 19.6446 10.262C19.1437 11.2012 18.6807 12.2214 18.262 13.3126C20.7301 13.8632 23.4167 14.2139 26.25 14.3169V3.76794ZM14.8698 12.388C15.37 11.0437 15.9344 9.78116 16.5564 8.61489C17.1819 7.44205 17.8802 6.34344 18.6454 5.34923C15.6434 6.59041 12.9418 8.41102 10.6801 10.6717C11.9453 11.3151 13.3493 11.8922 14.8698 12.388ZM12.2796 26.25C12.4066 22.505 12.9389 18.9442 13.8069 15.723C11.8136 15.0746 9.97422 14.2906 8.33161 13.389C5.62242 17.03 3.90035 21.4491 3.56152 26.25H12.2796ZM17.1804 16.6559C16.4018 19.5525 15.9074 22.7955 15.7817 26.25H26.25V17.819C23.0657 17.7109 20.0098 17.3095 17.1804 16.6559ZM29.75 17.819V26.25H40.2183C40.0926 22.7955 39.5982 19.5525 38.8196 16.6559C35.9902 17.3095 32.9343 17.7109 29.75 17.819ZM15.7817 29.75C15.9074 33.2045 16.4018 36.4474 17.1804 39.344C20.0098 38.6904 23.0657 38.289 26.25 38.181V29.75H15.7817ZM29.75 29.75V38.181C32.9343 38.289 35.9902 38.6904 38.8196 39.344C39.5982 36.4474 40.0926 33.2045 40.2183 29.75H29.75ZM18.262 42.6873C18.6807 43.7785 19.1437 44.7988 19.6446 45.738C21.5762 49.3597 23.907 51.5155 26.25 52.232V41.683C23.4167 41.786 20.7301 42.1368 18.262 42.6873ZM18.6454 50.6507C17.8802 49.6565 17.1819 48.5579 16.5564 47.3851C15.9344 46.2188 15.37 44.9562 14.8698 43.6119C13.3493 44.1077 11.9453 44.6849 10.6801 45.3283C12.9418 47.5889 15.6434 49.4096 18.6454 50.6507ZM13.8069 40.277C12.9389 37.0558 12.4066 33.495 12.2796 29.75H3.56152C3.90035 34.5509 5.62242 38.9699 8.33161 42.6109C9.97422 41.7094 11.8136 40.9254 13.8069 40.277ZM37.3546 50.6507C40.3566 49.4096 43.0582 47.5889 45.3199 45.3283C44.0547 44.6849 42.6506 44.1077 41.1302 43.6119C40.63 44.9562 40.0656 46.2188 39.4436 47.3851C38.8181 48.5579 38.1198 49.6565 37.3546 50.6507ZM29.75 41.683V52.232C32.093 51.5155 34.4238 49.3597 36.3554 45.738C36.8563 44.7988 37.3193 43.7785 37.738 42.6873C35.2699 42.1368 32.5832 41.786 29.75 41.683ZM42.1931 40.277C44.1863 40.9254 46.0257 41.7094 47.6684 42.6109C50.3776 38.9699 52.0996 34.5509 52.4384 29.75H43.7204C43.5934 33.495 43.061 37.0558 42.1931 40.277ZM52.4384 26.25C52.0996 21.4491 50.3776 17.03 47.6684 13.389C46.0257 14.2906 44.1863 15.0746 42.1931 15.723C43.061 18.9442 43.5934 22.505 43.7204 26.25H52.4384ZM39.4436 8.61489C40.0656 9.78116 40.63 11.0437 41.1302 12.388C42.6506 11.8922 44.0547 11.3151 45.3199 10.6717C43.0582 8.41101 40.3566 6.5904 37.3546 5.34922C38.1198 6.34343 38.8181 7.44206 39.4436 8.61489ZM37.738 13.3126C37.3193 12.2214 36.8563 11.2012 36.3554 10.262C34.4238 6.64028 32.093 4.48448 29.75 3.76794V14.3169C32.5832 14.2139 35.2699 13.8632 37.738 13.3126Z" fill="#D9EEE1"/>
</svg>