<svg width="1474" height="1239" viewBox="0 0 1474 1239" fill="none" xmlns="http://www.w3.org/2000/svg">
<g clip-path="url(#clip0_925_882)">
<rect width="1474" height="1239" fill="white"/>
<g clip-path="url(#clip1_925_882)">
<path d="M885.836 990.79C885.836 1031.21 838.557 1070.43 765.775 1100.56C754.44 1105.18 822.151 1194.97 764.134 1212.42C696.124 1232.85 704.775 1122.04 691.352 1125.62C622.447 1144.41 510.589 1143.07 429.156 1143.07C409.171 1143.07 366.665 1205.11 349.961 1214.21C326.843 1226.74 285.679 1226.59 282.547 1194.22C278.819 1155.59 333.107 1135.76 321.325 1131.58C219.758 1094.89 144.738 1023.15 112.374 961.707C107.601 952.758 20.0535 984.824 16.6232 938.44C13.1929 892.057 94.4765 911.893 94.4765 901.602C94.4765 895.785 94.6256 889.969 95.073 884.301C100.293 806.746 145.633 742.465 346.083 742.465C561.149 742.465 885.836 905.479 885.836 990.79Z" fill="white" stroke="#274867" stroke-width="10" stroke-miterlimit="10"/>
<path d="M1081.96 922.185C1039.6 1033.89 702.09 1066.41 451.081 970.955C200.071 875.503 24.6773 715.769 43.4695 575.574C59.2788 457.153 221.995 345.743 473.005 441.195C629.457 500.703 843.927 629.415 972.936 745.002C976.367 748.134 1019.02 676.992 1077.34 636.574C1087.33 629.713 1131.18 654.173 1120.74 648.505C1101.05 637.767 1055.11 612.412 1081.96 605.104C1126.85 593.024 1146.99 626.879 1160.11 640.302C1164.14 644.478 1141.17 619.87 1130.13 609.877C1176.52 588.251 1222.01 580.346 1223.95 582.285C1227.08 585.268 1229.91 519.794 1262.43 522.777C1305.98 526.804 1271.67 575.574 1281.81 575.872C1317.46 577.214 1357.73 589.892 1386.07 602.122C1435.58 623.449 1460.04 655.963 1456.76 692.205C1456.01 700.408 1430.51 774.98 1347.14 796.456C1291.81 810.774 1174.28 772.444 1171.6 776.322C1139.98 820.32 1089.87 901.603 1081.96 922.185Z" fill="white" stroke="#274867" stroke-width="10" stroke-miterlimit="10"/>
<path d="M1038.71 496.528C1129.48 496.528 1203.07 431.356 1203.07 350.963C1203.07 270.57 1129.48 205.398 1038.71 205.398C947.937 205.398 874.352 270.57 874.352 350.963C874.352 431.356 947.937 496.528 1038.71 496.528Z" fill="white" stroke="#274867" stroke-width="10" stroke-miterlimit="10"/>
<path d="M1203.06 359.017C1203.06 378.555 1196.8 394.364 1181.74 394.364C1166.67 394.364 1154.74 378.406 1154.74 359.017C1154.74 339.628 1166.82 323.67 1181.89 323.67C1196.95 323.67 1203.06 339.479 1203.06 359.017Z" fill="#274867"/>
<path d="M1193.63 357.846C1195.19 347.836 1192.17 339.052 1186.88 338.226C1181.59 337.4 1176.04 344.846 1174.48 354.856C1172.91 364.866 1175.93 373.65 1181.22 374.475C1186.51 375.301 1192.07 367.855 1193.63 357.846Z" fill="white"/>
<path d="M1081.96 403.76C1081.96 517.259 1039.75 676.396 968.015 750.521C900.9 819.724 793.814 847.017 718.497 832.998C646.012 819.575 534.9 774.235 435.57 732.922C410.364 722.333 361.743 784.526 331.02 761.11C297.164 735.308 324.308 714.726 354.734 698.619C272.406 656.262 210.213 594.367 210.213 516.514C210.213 414.797 297.015 250.739 393.362 161.849C413.198 143.653 288.215 67.1419 343.995 30.1542C416.927 -18.0194 449.739 77.1346 476.734 115.912C481.954 123.518 450.484 85.1884 459.135 80.7141C532.364 42.6823 640.196 23.1444 700.003 28.961C760.853 34.9268 853.472 51.9292 927.895 91.005C943.108 98.9097 992.176 31.3473 1025.14 59.8339C1062.72 92.4965 990.834 133.809 999.633 142.907C1066.75 212.408 1081.96 299.658 1081.96 403.76Z" fill="white" stroke="#274867" stroke-width="10" stroke-miterlimit="10"/>
<path d="M354.736 698.469L417.377 674.605" stroke="#274867" stroke-width="10" stroke-miterlimit="10"/>
<path d="M412.156 736.502L457.347 720.395" stroke="#274867" stroke-width="10" stroke-miterlimit="10"/>
<path d="M388.291 89.6621L435.122 143.205" stroke="#274867" stroke-width="10" stroke-miterlimit="10"/>
<path d="M927.893 90.8555C954.739 101.743 999.631 142.907 999.631 142.907" stroke="#274867" stroke-width="10" stroke-miterlimit="10"/>
<path d="M1224.09 582.583L1283.3 576.17" stroke="#274867" stroke-width="10" stroke-miterlimit="10"/>
<path d="M1260.34 523.227C1244.53 534.562 1242.59 580.498 1242.59 580.498" stroke="#274867" stroke-width="10" stroke-miterlimit="10"/>
<path d="M1242.59 742.464C1271.17 742.464 1294.34 721.296 1294.34 695.185C1294.34 669.074 1271.17 647.906 1242.59 647.906C1214.01 647.906 1190.84 669.074 1190.84 695.185C1190.84 721.296 1214.01 742.464 1242.59 742.464Z" stroke="#274867" stroke-width="10" stroke-miterlimit="10"/>
<path d="M1241.99 704.884C1248.42 704.884 1253.63 699.675 1253.63 693.25C1253.63 686.826 1248.42 681.617 1241.99 681.617C1235.57 681.617 1230.36 686.826 1230.36 693.25C1230.36 699.675 1235.57 704.884 1241.99 704.884Z" fill="#274867"/>
<path d="M94.3262 901.605L112.373 961.711" stroke="#274867" stroke-width="10" stroke-miterlimit="10"/>
<path d="M691.354 1125.62L765.776 1100.41" stroke="#274867" stroke-width="10" stroke-miterlimit="10"/>
<path d="M759.959 516.364C850.73 516.364 924.315 451.192 924.315 370.799C924.315 290.406 850.73 225.234 759.959 225.234C669.187 225.234 595.602 290.406 595.602 370.799C595.602 451.192 669.187 516.364 759.959 516.364Z" fill="white" stroke="#274867" stroke-width="10" stroke-miterlimit="10"/>
<path d="M819.584 401.303C834.081 376.194 827.85 345.455 805.665 332.647C783.481 319.838 753.745 329.81 739.247 354.919C724.75 380.028 730.982 410.766 753.166 423.575C775.351 436.383 805.087 426.412 819.584 401.303Z" fill="#274867"/>
<path d="M794.608 367.698C800.044 358.282 797.686 346.743 789.34 341.924C780.994 337.105 769.821 340.832 764.385 350.248C758.948 359.664 761.307 371.203 769.653 376.022C777.999 380.84 789.171 377.114 794.608 367.698Z" fill="white"/>
<path d="M1027.52 581.99L1007.68 576.472C1000.23 574.384 995.902 566.628 997.99 559.171C997.99 559.171 1001.12 552.459 1003.96 537.694C1006.79 522.929 1005.3 496.53 1005.3 496.53C1007.39 489.073 1024.24 488.626 1031.7 490.714L1051.53 496.232C1058.99 498.32 1060.78 500.259 1061.23 513.533C1061.67 526.807 1044.82 572.296 1044.82 572.296C1042.73 579.604 1034.83 584.078 1027.52 581.99Z" fill="white" stroke="#274867" stroke-width="10" stroke-miterlimit="10"/>
<path d="M1022.9 516.367C940.27 533.071 927.891 516.516 927.891 487.731C927.891 429.714 977.108 412.115 1022.9 412.115C1068.68 412.115 1105.67 435.382 1105.67 464.167C1105.67 533.668 1067.79 507.269 1022.9 516.367Z" fill="white" stroke="#274867" stroke-width="10" stroke-miterlimit="10"/>
<path d="M1049.15 429.711C1014.84 429.711 993.963 413.753 993.963 394.215C993.963 374.677 1014.84 358.719 1049.15 358.719C1083.45 358.719 1111.34 374.677 1111.34 394.215C1111.34 413.753 1083.45 429.711 1049.15 429.711Z" fill="white" stroke="#274867" stroke-width="10" stroke-miterlimit="10"/>
</g>
</g>
<defs>
<clipPath id="clip0_925_882">
<rect width="1474" height="1239" fill="white"/>
</clipPath>
<clipPath id="clip1_925_882">
<rect width="1449.68" height="1213.44" fill="white" transform="translate(12 13)"/>
</clipPath>
</defs>
</svg>
