<?xml version="1.0" ?><!DOCTYPE svg  PUBLIC '-//W3C//DTD SVG 1.1//EN'  'http://www.w3.org/Graphics/SVG/1.1/DTD/svg11.dtd'><svg height="2048px" style="shape-rendering:geometricPrecision; text-rendering:geometricPrecision; image-rendering:optimizeQuality; fill-rule:evenodd; clip-rule:evenodd" viewBox="0 0 2048 2048" width="2048px" xml:space="preserve" xmlns="http://www.w3.org/2000/svg" xmlns:xlink="http://www.w3.org/1999/xlink"><defs><style type="text/css">
   <![CDATA[
    .fil4 {fill:none}
    .fil0 {fill:#E55638}
    .fil2 {fill:#EAEAEA}
    .fil1 {fill:#F26B3A}
    .fil3 {fill:#FEFEFE}
   ]]>
  </style></defs><g id="Layer_x0020_1"><g id="_337848256"><polygon class="fil0" id="_337847992" points="470.072,1638.46 346.817,255.999 1701.18,255.999 1577.79,1638.24 1023.17,1792 "/><polygon class="fil1" id="_337847968" points="1024,1674.47 1472.16,1550.22 1577.61,369.037 1024,369.037 "/><polygon class="fil2" id="_337848328" points="1024,881.773 799.639,881.773 784.142,708.146 1024,708.146 1024,538.593 1023.41,538.593 598.843,538.593 602.9,584.08 644.573,1051.32 1024,1051.32 "/><polygon class="fil2" id="_337847872" points="1024,1322.12 1023.26,1322.31 834.427,1271.32 822.351,1136.1 730.596,1136.1 652.147,1136.1 675.904,1402.32 1023.22,1498.74 1024,1498.52 "/><polygon class="fil3" id="_337847848" points="1023.41,881.773 1023.41,1051.32 1232.2,1051.32 1212.52,1271.22 1023.41,1322.26 1023.41,1498.66 1371,1402.32 1373.55,1373.68 1413.4,927.301 1417.53,881.773 1371.84,881.773 "/><polygon class="fil3" id="_337847752" points="1023.41,538.593 1023.41,643.899 1023.41,707.731 1023.41,708.146 1432.42,708.146 1432.96,708.146 1436.36,670.034 1444.09,584.08 1448.14,538.593 "/></g></g><rect class="fil4" height="2048" width="2048"/></svg>