<svg width="43" height="44" viewBox="0 0 43 44" fill="none" xmlns="http://www.w3.org/2000/svg">
	<path d="M14.8333 24.6927C14.8333 29.6018 18.8131 33.5816 23.7222 33.5816C26.1769 33.5816 28.3991 32.5867 30.0076 30.978M14.8333 24.6927H5.94444M14.8333 24.6927C14.8333 21.2438 16.7975 18.2538 19.6682 16.78M30.0076 30.978C31.6162 29.3696 32.6111 27.1473 32.6111 24.6927C32.6111 22.238 31.6162 20.0158 30.0076 18.4073M30.0076 30.978L37.7064 38.6769M5.94444 24.6927C5.94444 25.92 4.94951 26.9149 3.72222 26.9149C2.49493 26.9149 1.5 25.92 1.5 24.6927C1.5 23.4653 2.49493 22.4705 3.72222 22.4705C4.94951 22.4705 5.94444 23.4653 5.94444 24.6927ZM19.6682 16.78L15.6589 6.7565M19.6682 16.78C20.8838 16.1559 22.2618 15.8038 23.7222 15.8038C26.1769 15.8038 28.3991 16.7987 30.0076 18.4073M37.7064 10.7085C37.3042 10.3063 37.0556 9.75077 37.0556 9.13713C37.0556 7.90984 38.0504 6.9149 39.2778 6.9149C40.5051 6.9149 41.5 7.90984 41.5 9.13713C41.5 10.3644 40.5051 11.3593 39.2778 11.3593C38.6642 11.3593 38.1087 11.1106 37.7064 10.7085ZM37.7064 10.7085L30.0076 18.4073M15.6589 6.7565C16.4774 6.42881 17.0556 5.62826 17.0556 4.69268C17.0556 3.46539 16.0606 2.47046 14.8333 2.47046C13.606 2.47046 12.6111 3.46539 12.6111 4.69268C12.6111 5.91997 13.606 6.9149 14.8333 6.9149C15.125 6.9149 15.4036 6.8587 15.6589 6.7565ZM37.7064 38.6769C37.3042 39.0791 37.0556 39.6347 37.0556 40.2482C37.0556 41.4756 38.0504 42.4705 39.2778 42.4705C40.5051 42.4705 41.5 41.4756 41.5 40.2482C41.5 39.0209 40.5051 38.026 39.2778 38.026C38.6642 38.026 38.1087 38.2747 37.7064 38.6769Z" stroke="url(#paint0_linear_130_72816)" stroke-width="3" stroke-linecap="round" stroke-linejoin="round"/>
	<defs>
		<linearGradient id="paint0_linear_130_72816" x1="21.5" y1="2.47046" x2="21.5" y2="42.4705" gradientUnits="userSpaceOnUse">
			<stop stop-color="white"/>
			<stop offset="1" stop-color="#63ADB9"/>
		</linearGradient>
	</defs>
</svg>