<svg width="1452" height="1458" viewBox="0 0 1452 1458" fill="none" xmlns="http://www.w3.org/2000/svg">
<g clip-path="url(#clip0)">
<rect width="1451.4" height="1457.4" fill="white"/>
<path d="M242.9 485.8C377.05 485.8 485.8 377.05 485.8 242.9C485.8 108.75 377.05 0 242.9 0C108.75 0 0 108.75 0 242.9C0 377.05 108.75 485.8 242.9 485.8Z" transform="translate(482.8)" fill="#007BFF" fill-opacity="0.12"/>
<path d="M32.8 18L42.4 45.4H44L49.6 0H56L49.3 52.8H38.6L28.8 24.5H27.3L17.4 52.8H6.70001L0 0H6.5L12.1 45.4H13.7L23.3 18H32.8Z" transform="translate(638.8 213.6)" fill="#082E51"/>
<path d="M21.3 5.89999H18.2C10.8 5.89999 6.29999 10.4 6.29999 18.6V37.2H0V0H6.09998V4.39999H7.70001C9.60001 2.09999 13.1 0 18.5 0H21.3V5.89999Z" transform="translate(704.8 229.2)" fill="#082E51"/>
<path d="M0 6.79999V0H6.70001V6.79999H0ZM6.39996 53.8H0.0999756V16.5H6.39996V53.8Z" transform="translate(734.3 212.7)" fill="#082E51"/>
<path d="M22.1 11.2V16.7H12.7V37.2C12.7 41 14.3 42.9 19.4 42.9H22.1V48.5H19.2C11.1 48.5 6.39996 46 6.39996 38.1V16.7H0V11.2H6.39996V0H12.7V11.2H22.1Z" transform="translate(749 218)" fill="#082E51"/>
<path d="M34.5 19.6H6.10004C6.30004 28.5 10.3 33.8 18 33.8C23.3 33.8 26.4 31.6 27.5 28H33.9C32.7 34.4 27.3 39.2 18.1 39.2C6.50004 39.2 0 30.7 0 19.2C0 7.70001 6.7 0 18 0C29.1 0 34.4 8.19999 34.7 17.4V19.6H34.5ZM6.5 14.3H28C27.6 9.59999 24 5.5 17.7 5.5C11 5.5 7.3 9.59999 6.5 14.3Z" transform="translate(778.7 228.2)" fill="#082E51"/>
<path d="M242.9 485.8C377.05 485.8 485.8 377.05 485.8 242.9C485.8 108.75 377.05 0 242.9 0C108.75 0 0 108.75 0 242.9C0 377.05 108.75 485.8 242.9 485.8Z" transform="translate(796.3 971.6)" fill="#007BFF" fill-opacity="0.12"/>
<path d="M34.1001 25.7001C38.5001 27.8001 41.5 32.5 41.5 37.9C41.5 46.3 35.7001 52.8 23.6001 52.8H0V0H23C34.2 0 39.9 6.10002 39.9 13.4C39.9 18.1 38.0001 22.1 34.1001 24.1V25.7001V25.7001ZM6.6001 22.4H22.8C28.6 22.4 33.1001 20.5 33.1001 14C33.1001 8 28.0001 5.90002 22.7001 5.90002H6.6001V22.4ZM23.1001 46.9C29.1001 46.9 34.7001 44.8 34.7001 37.4C34.7001 30.6 29.4001 28.2001 23.2001 28.2001H6.6001V46.8H23.1001V46.9Z" transform="translate(956.3 1185.3)" fill="#082E51"/>
<path d="M6.19995 0V22.3C6.19995 29.2 9.39995 32.6 15.7 32.6C22.3 32.6 26.7999 26.9001 26.7999 20.2001V0H33.1V37.3H27V33.3H25.4C23.3 36.2 19.2 38.3 14.2 38.3C4.99995 38.3 0 32.7001 0 23.7001V0H6.19995V0Z" transform="translate(1007 1200.8)" fill="#082E51"/>
<path d="M0 6.80005V0H6.70007V6.80005H0ZM6.40002 53.8H0.0999756V16.5H6.40002V53.8Z" transform="translate(1052.2 1184.3)" fill="#082E51"/>
<path d="M6.29993 0V53.8H0V0H6.29993Z" transform="translate(1071 1184.3)" fill="#082E51"/>
<path d="M35.7 0V53.8H29.6V49.8H28C25.9 52.4 22.3 54.8 16.4 54.8C6.10002 54.8 0 46.2001 0 35.2001C0 24.0001 6.10002 15.6 16.4 15.6C22.3 15.6 25.7 17.9 27.8 20.6H29.4V0.0999756H35.7V0ZM29.4 35.2001C29.4 27.9001 26 21.1 17.7 21.1C10.2 21.1 6.19995 26.9001 6.19995 35.2001C6.19995 43.5001 10.2 49.3 17.7 49.3C26 49.3 29.4 42.5001 29.4 35.2001Z" transform="translate(1087.1 1184.3)" fill="#082E51"/>
<path opacity="0.12" d="M242.9 485.8C377.05 485.8 485.8 377.05 485.8 242.9C485.8 108.75 377.05 0 242.9 0C108.75 0 0 108.75 0 242.9C0 377.05 108.75 485.8 242.9 485.8Z" transform="translate(169.3 971.6)" fill="#007BFF"/>
<path d="M23.5 0C34.7 0 40.9 5.70002 40.9 15.4C40.9 21.9 38.2 26.6 32.8 28.9L41.2 52.8H34.3L26.4 30.5C25 30.6 23.5 30.7001 22.1 30.7001H6.70001V52.8H0V0H23.5V0ZM22.6 24.8C31.1 24.8 34.2 21.2 34.2 15.4C34.2 9.50002 31.1 5.90002 22.6 5.90002H6.80002V24.8H22.6Z" transform="translate(347.9 1185.3)" fill="#082E51"/>
<path d="M6.19998 0V22.3C6.19998 29.2 9.39998 32.6 15.7 32.6C22.3 32.6 26.8 26.9001 26.8 20.2001V0H33.1V37.3H27V33.3H25.4C23.3 36.2 19.2 38.3 14.2 38.3C4.99998 38.3 0 32.7001 0 23.7001V0H6.19998V0Z" transform="translate(399.3 1200.8)" fill="#082E51"/>
<path d="M26.9 38.3V16C26.9 9.1 23.7 5.70007 17.4 5.70007C10.7 5.70007 6.29999 11.5 6.29999 18.1V38.3H0V1H6.09998V5H7.69995C9.79995 2.1 13.9 0 18.9 0C28.1 0 33.1 5.59998 33.1 14.6V38.3H26.9V38.3Z" transform="translate(444.5 1199.8)" fill="#082E51"/>
<path opacity="0.12" d="M242.9 485.8C377.05 485.8 485.8 377.05 485.8 242.9C485.8 108.75 377.05 0 242.9 0C108.75 0 0 108.75 0 242.9C0 377.05 108.75 485.8 242.9 485.8Z" transform="translate(965.6 411.4)" fill="#007BFF"/>
<path d="M19.8 0C36 0 44.2001 10.5 44.2001 26.4C44.2001 42.2 36 52.8 19.8 52.8H0V0H19.8ZM19.8 46.7C32.6 46.7 37.5 37.4 37.5 26.3C37.5 15.3 32.6 5.89996 19.8 5.89996H6.70007V46.6H19.8V46.7Z" transform="translate(1098.8 625.1)" fill="#082E51"/>
<path d="M34.5 19.6H6.09998C6.29998 28.5 10.3 33.8 18 33.8C23.3 33.8 26.4 31.6 27.5 28H33.9C32.7 34.4 27.3 39.2 18.1 39.2C6.49998 39.2 0 30.7 0 19.2C0 7.69995 6.7 0 18 0C29.1 0 34.4 8.19996 34.7 17.4V19.6H34.5ZM6.5 14.3H28C27.6 9.59999 24 5.5 17.7 5.5C11 5.5 7.3 9.59999 6.5 14.3Z" transform="translate(1151 639.6)" fill="#082E51"/>
<path d="M35.7001 35.2C35.7001 46.2 29.6 54.8 19.3 54.8C13.4 54.8 9.80007 52.4 7.70007 49.8H6.09998V53.8H0V0H6.30005V20.5H7.90002C9.90002 17.8 13.4 15.5 19.3 15.5C29.7 15.6 35.7001 24 35.7001 35.2ZM29.4 35.2C29.4 26.9 25.4 21.1 17.9 21.1C9.60002 21.1 6.20007 27.9 6.20007 35.2C6.20007 42.5 9.60002 49.3 17.9 49.3C25.4 49.4 29.4 43.5 29.4 35.2Z" transform="translate(1195.2 624)" fill="#082E51"/>
<path d="M6.20007 0V22.3C6.20007 29.2 9.40007 32.6 15.7001 32.6C22.3001 32.6 26.8 26.9 26.8 20.2V0H33.1001V37.3H27V33.3H25.4C23.3 36.2 19.2001 38.3 14.2001 38.3C5.00007 38.3 0 32.7 0 23.7V0H6.20007V0Z" transform="translate(1240.3 640.6)" fill="#082E51"/>
<path d="M35.7 0.900024V36.3C35.7 46.7 29.2 53.5 18.3 53.5C8.80005 53.5 2.50002 49.5 1.40002 42.1H7.59998C8.69998 46.5 12.6 48.2 18.2 48.2C25.9 48.2 29.4 43.5 29.4 36.1V33.1H27.8C25.8 35.7 22.2 38.1 16.6 38.1C6.29998 38.1 0 30 0 19.1C0 8.09998 6.29998 0 16.6 0C22.4 0 26 2.4 28 5H29.6V1H35.7V0.900024ZM29.6 19C29.6 11.8 25.8 5.40002 17.8 5.40002C10.5 5.40002 6.30005 10.8 6.30005 19C6.30005 27.1 10.4 32.5 17.8 32.5C25.8 32.6 29.6 26.1 29.6 19Z" transform="translate(1283.1 639.7)" fill="#082E51"/>
<path opacity="0.12" d="M242.9 485.8C377.05 485.8 485.8 377.05 485.8 242.9C485.8 108.75 377.05 0 242.9 0C108.75 0 0 108.75 0 242.9C0 377.05 108.75 485.8 242.9 485.8Z" transform="translate(0 411.4)" fill="#007BFF"/>
<path d="M19.8 0C36 0 44.2 10.5 44.2 26.4C44.2 42.2 36 52.8 19.8 52.8H0V0H19.8ZM19.8 46.7C32.6 46.7 37.5 37.4 37.5 26.3C37.5 15.3 32.6 5.89996 19.8 5.89996H6.7V46.6H19.8V46.7Z" transform="translate(68.1 625.1)" fill="#082E51"/>
<path d="M36.8 19.6C36.8 30.6 30.1 39.2 18.4 39.2C6.70001 39.2 0 30.6 0 19.6C0 8.59998 6.70001 0 18.4 0C30.1 0 36.8 8.59998 36.8 19.6ZM30.5 19.6C30.5 12.3 26.7 5.5 18.4 5.5C10.1 5.5 6.3 12.3 6.3 19.6C6.3 26.9 10.1 33.7 18.4 33.7C26.7 33.8 30.5 27 30.5 19.6Z" transform="translate(120 639.6)" fill="#082E51"/>
<path d="M33.8 27C32.4 34.3 26.8 39.2 18.1 39.2C6.49999 39.2 0 30.6 0 19.6C0 8.39998 6.49999 0 18.1 0C27 0 32.3 4.89999 33.6 11.8H27.3C26.1 7.99999 23.2 5.5 18.1 5.5C9.69999 5.5 6.3 12.1 6.3 19.5C6.3 27 9.79999 33.8 18.1 33.8C23.4 33.8 26.5 31.2 27.5 27.1H33.8V27Z" transform="translate(164.4 639.6)" fill="#082E51"/>
<path d="M6.20001 0V22.3C6.20001 29.2 9.40001 32.6 15.7 32.6C22.3 32.6 26.8 26.9 26.8 20.2V0H33.1V37.3H27V33.3H25.4C23.3 36.2 19.2 38.3 14.2 38.3C5.00001 38.3 0 32.7 0 23.7V0H6.20001V0Z" transform="translate(207.1 640.6)" fill="#082E51"/>
<path d="M51.5 14.3V38.4H45.2V14.9C45.2 8.80002 42.8 5.70001 38 5.70001C32.2 5.70001 28.9 10.2 28.9 16.5V38.3H22.6V15C22.6 8.9 20.2 5.70001 15.5 5.70001C9.3 5.70001 6.29999 11 6.29999 17.7V38.3H0V1H6.10001V4.60004H7.69998C9.59998 1.70004 12.4 0 17.2 0C21.7 0 25 1.6 27 5H28.6C30.9 1.7 34.4 0 39.1 0C47.8 0.1 51.5 5.69999 51.5 14.3Z" transform="translate(252.2 639.5)" fill="#082E51"/>
<path d="M34.5 19.6H6.10001C6.30001 28.5 10.3 33.8 18 33.8C23.3 33.8 26.4 31.6 27.5 28H33.9C32.7 34.4 27.3 39.2 18.1 39.2C6.50001 39.2 0 30.7 0 19.2C0 7.69995 6.7 0 18 0C29.1 0 34.4 8.19996 34.7 17.4V19.6H34.5ZM6.5 14.3H28C27.6 9.59999 24 5.5 17.7 5.5C11 5.5 7.3 9.59999 6.5 14.3Z" transform="translate(313.1 639.6)" fill="#082E51"/>
<path d="M26.9 38.3V16C26.9 9.1 23.7 5.69995 17.4 5.69995C10.7 5.69995 6.29999 11.5 6.29999 18.1V38.3H0V1H6.09998V5H7.69998C9.79998 2.1 13.9 0 18.9 0C28.1 0 33.1 5.59998 33.1 14.6V38.3H26.9V38.3Z" transform="translate(357.3 639.6)" fill="#082E51"/>
<path d="M22.1 11.2V16.7H12.7V37.2C12.7 41 14.3 42.9 19.4 42.9H22.1V48.5H19.2C11.1 48.5 6.39999 46 6.39999 38.1V16.7H0V11.2H6.39999V0H12.7V11.2H22.1V11.2Z" transform="translate(398 629.4)" fill="#082E51"/>
<path d="M15.6562 89H9.89062V20.75H15.6562V89ZM34.2188 89V20.75H53.2969C58.8906 20.75 63.9062 22.0312 68.3438 24.5938C72.7812 27.125 76.2344 30.7656 78.7031 35.5156C81.2031 40.2656 82.4531 45.6719 82.4531 51.7344V58.0156C82.4531 64.1094 81.2188 69.5156 78.75 74.2344C76.2812 78.9531 72.7969 82.5938 68.2969 85.1562C63.8281 87.7188 58.6875 89 52.875 89H34.2188ZM39.9844 25.6719V84.125H52.9219C60.1094 84.125 65.875 81.75 70.2188 77C74.5625 72.2188 76.7344 65.7656 76.7344 57.6406V51.6406C76.7344 43.7969 74.5938 37.5156 70.3125 32.7969C66.0312 28.0781 60.3906 25.7031 53.3906 25.6719H39.9844ZM134.812 56.2812H102.891V84.125H139.594V89H97.125V20.75H139.359V25.6719H102.891V51.4062H134.812V56.2812Z" transform="translate(655 652)" fill="black"/>
</g>
<defs>
<clipPath id="clip0">
<rect width="1451.4" height="1457.4" fill="white"/>
</clipPath>
</defs>
</svg>
