<svg width="45" height="45" viewBox="0 0 45 45" fill="none" xmlns="http://www.w3.org/2000/svg">
    <g clip-path="url(#clip0_111_65358)">
        <path d="M9.40709 25.0354C9.13776 25.0354 8.87084 24.9515 8.64628 24.7883C8.28586 24.5263 8.08545 24.0975 8.11579 23.653L8.30657 20.8631L6.51237 18.7182C6.22662 18.3765 6.13665 17.9117 6.27423 17.488C6.41191 17.0644 6.7578 16.7413 7.18998 16.6328L9.90234 15.9521L11.3879 13.5828C11.6245 13.2053 12.0388 12.9761 12.4843 12.9761C12.9298 12.9761 13.3441 13.2053 13.5808 13.5828L15.0663 15.9521L17.7785 16.6328C18.2106 16.7413 18.5565 17.0644 18.6943 17.488C18.8319 17.9117 18.7419 18.3766 18.4561 18.7182L16.6619 20.8632L16.8527 23.6532C16.8831 24.0978 16.6828 24.5266 16.3222 24.7884C15.9617 25.0502 15.4919 25.1084 15.0787 24.9422L12.4843 23.8986L9.88971 24.9422C9.73399 25.0046 9.57011 25.0354 9.40709 25.0354ZM9.82182 18.6405L10.6259 19.6016C10.84 19.8579 10.9469 20.1869 10.9243 20.5202L10.8389 21.7704L12.0015 21.3027C12.3115 21.1781 12.6574 21.1781 12.9673 21.3027L14.1298 21.7703L14.0444 20.5202C14.0216 20.1869 14.1285 19.8579 14.3428 19.6016L15.1469 18.6405L13.9314 18.3355C13.6075 18.2542 13.3275 18.0508 13.15 17.7678L12.4843 16.7061L11.8187 17.7678C11.6412 18.0508 11.3612 18.2541 11.0372 18.3355L9.82182 18.6405Z" fill="url(#paint0_linear_111_65358)"/>
        <path d="M29.2721 18.038H21.8957C21.1811 18.038 20.6016 17.4586 20.6016 16.7438C20.6016 16.0291 21.181 15.4497 21.8957 15.4497H29.2721C29.9867 15.4497 30.5663 16.0291 30.5663 16.7438C30.5663 17.4586 29.9869 18.038 29.2721 18.038Z" fill="url(#paint1_linear_111_65358)"/>
        <path d="M26.6822 22.5619H21.8957C21.1811 22.5619 20.6016 21.9825 20.6016 21.2678C20.6016 20.553 21.181 19.9736 21.8957 19.9736H26.6822C27.3968 19.9736 27.9764 20.553 27.9764 21.2678C27.9763 21.9825 27.3968 22.5619 26.6822 22.5619Z" fill="url(#paint2_linear_111_65358)"/>
        <path d="M15.5616 39.0207C15.3986 39.0207 15.2347 38.9899 15.0789 38.9273L12.4844 37.8838L9.88988 38.9273C9.4767 39.0935 9.00679 39.0353 8.64637 38.7735C8.28594 38.5116 8.08545 38.0828 8.11588 37.6383L8.30666 34.8484L6.51237 32.7034C6.22662 32.3616 6.13665 31.8968 6.27423 31.4732C6.41191 31.0495 6.7578 30.7264 7.18998 30.6179L9.90234 29.9372L11.3879 27.5679C11.6245 27.1904 12.0388 26.9612 12.4843 26.9612C12.9298 26.9612 13.3441 27.1904 13.5808 27.5679L15.0663 29.9372L17.7785 30.6179C18.2106 30.7264 18.5565 31.0495 18.6943 31.4732C18.8319 31.8968 18.7419 32.3616 18.4561 32.7034L16.6619 34.8484L16.8527 37.6383C16.8831 38.0829 16.6828 38.5117 16.3222 38.7735C16.0978 38.9367 15.8309 39.0207 15.5616 39.0207ZM9.82182 32.6258L10.6259 33.587C10.84 33.8432 10.9469 34.1723 10.9243 34.5055L10.8389 35.7558L12.0015 35.2881C12.3115 35.1635 12.6574 35.1635 12.9673 35.2881L14.1298 35.7558L14.0444 34.5055C14.0216 34.1723 14.1285 33.8432 14.3428 33.587L15.1469 32.6258L13.9314 32.3208C13.6075 32.2395 13.3275 32.0361 13.15 31.7531L12.4843 30.6915L11.8187 31.7531C11.6412 32.0361 11.3612 32.2395 11.0372 32.3208L9.82182 32.6258Z" fill="url(#paint3_linear_111_65358)"/>
        <path d="M29.2721 32.0231H21.8957C21.1811 32.0231 20.6016 31.4437 20.6016 30.7289C20.6016 30.0142 21.181 29.4348 21.8957 29.4348H29.2721C29.9867 29.4348 30.5663 30.0142 30.5663 30.7289C30.5663 31.4437 29.9869 32.0231 29.2721 32.0231Z" fill="url(#paint4_linear_111_65358)"/>
        <path d="M26.6822 36.547H21.8957C21.1811 36.547 20.6016 35.9676 20.6016 35.2529C20.6016 34.5381 21.181 33.9587 21.8957 33.9587H26.6822C27.3968 33.9587 27.9764 34.5381 27.9764 35.2529C27.9763 35.9677 27.3968 36.547 26.6822 36.547Z" fill="url(#paint5_linear_111_65358)"/>
        <path d="M24.2086 9.30884C24.2086 10.0236 24.7881 10.603 25.5028 10.603H34.5619C35.2765 10.603 35.8561 10.0236 35.8561 9.30884V5.17164C35.8561 4.4569 35.2766 3.87751 34.5619 3.87751H26.7969V1.54413C26.7968 0.829391 26.2173 0.25 25.5028 0.25H11.2674C10.5528 0.25 9.97325 0.829391 9.97325 1.54413V3.87759H2.2082C1.49363 3.87759 0.914062 4.45698 0.914062 5.17173V9.30893V42.956C0.914062 43.6707 1.49354 44.2501 2.2082 44.2501H34.5619C35.2765 44.2501 35.8561 43.6707 35.8561 42.956V16.7434C35.8561 16.0286 35.2766 15.4493 34.5619 15.4493C33.8473 15.4493 33.2678 16.0286 33.2678 16.7434V41.6617H3.50233V10.603H11.2674H20.3741C21.0887 10.603 21.6682 10.0236 21.6682 9.30884C21.6682 8.5941 21.0887 8.01471 20.3741 8.01471H12.5615V5.17164V2.83827H24.2085V5.17164L24.2086 9.30884ZM3.50233 6.46577H9.97334V8.01471H3.50233V6.46577ZM33.2678 8.01471H26.7968V6.46577H33.2678V8.01471Z" fill="url(#paint6_linear_111_65358)"/>
    </g>
    <defs>
        <linearGradient id="paint0_linear_111_65358" x1="12.4843" y1="12.9761" x2="12.4843" y2="25.0356" gradientUnits="userSpaceOnUse">
            <stop stop-color="white"/>
            <stop offset="1" stop-color="#63ADB9"/>
        </linearGradient>
        <linearGradient id="paint1_linear_111_65358" x1="25.5839" y1="15.4497" x2="25.5839" y2="18.038" gradientUnits="userSpaceOnUse">
            <stop stop-color="white"/>
            <stop offset="1" stop-color="#63ADB9"/>
        </linearGradient>
        <linearGradient id="paint2_linear_111_65358" x1="24.289" y1="19.9736" x2="24.289" y2="22.5619" gradientUnits="userSpaceOnUse">
            <stop stop-color="white"/>
            <stop offset="1" stop-color="#63ADB9"/>
        </linearGradient>
        <linearGradient id="paint3_linear_111_65358" x1="12.4843" y1="26.9612" x2="12.4843" y2="39.0207" gradientUnits="userSpaceOnUse">
            <stop stop-color="white"/>
            <stop offset="1" stop-color="#63ADB9"/>
        </linearGradient>
        <linearGradient id="paint4_linear_111_65358" x1="25.5839" y1="29.4348" x2="25.5839" y2="32.0231" gradientUnits="userSpaceOnUse">
            <stop stop-color="white"/>
            <stop offset="1" stop-color="#63ADB9"/>
        </linearGradient>
        <linearGradient id="paint5_linear_111_65358" x1="24.289" y1="33.9587" x2="24.289" y2="36.547" gradientUnits="userSpaceOnUse">
            <stop stop-color="white"/>
            <stop offset="1" stop-color="#63ADB9"/>
        </linearGradient>
        <linearGradient id="paint6_linear_111_65358" x1="18.3851" y1="0.25" x2="18.3851" y2="44.2501" gradientUnits="userSpaceOnUse">
            <stop stop-color="white"/>
            <stop offset="1" stop-color="#63ADB9"/>
        </linearGradient>
        <clipPath id="clip0_111_65358">
            <rect width="44" height="44" fill="white" transform="translate(0.914062 0.25)"/>
        </clipPath>
    </defs>
</svg>