<?xml version="1.0" encoding="utf-8"?>
<!-- Generator: Adobe Illustrator 20.1.0, SVG Export Plug-In . SVG Version: 6.00 Build 0)  -->
<svg version="1.1" id="Layer_1" xmlns="http://www.w3.org/2000/svg" xmlns:xlink="http://www.w3.org/1999/xlink" x="0px" y="0px"
	 viewBox="0 0 1600 943.9" style="enable-background:new 0 0 1600 943.9;" xml:space="preserve">
<style type="text/css">
	.st0{fill:#082E51;}
	.st1{opacity:0.12;fill:#007BFF;enable-background:new    ;}
	.st2{fill:#007BFF;}
	.st3{fill:#FFFFFF;}
	.st4{fill:none;stroke:#007BFF;stroke-width:2.0091;stroke-miterlimit:10;}
</style>
<g>
	<path class="st0" d="M411,102.6h5.3c0.5,5.8,3.5,8.6,8.3,8.6c4.7,0,7.8-2.9,7.8-9.3V73.3h5.3v28.6c0,8.9-4.9,14.2-13.2,14.2
		C416.8,116,411.5,111.3,411,102.6z"/>
	<path class="st0" d="M466.7,112.2h-1.3c-1.8,2.3-5,3.9-9.2,3.9c-6.8,0-10.6-4.6-10.6-9.6c0-4.8,3.1-9.8,11.3-9.8h9.6v-1.2
		c0-3.6-2.1-6.2-7.2-6.2c-4.4,0-6.6,1.7-6.9,4.3h-5c0.4-5.5,5.1-8.6,11.8-8.6c7.5,0,12.2,3.6,12.2,10.2v20.2h-4.7L466.7,112.2
		L466.7,112.2z M466.5,103.3v-2.7h-8.9c-4.9,0-7.1,2.1-7.1,5.6c0,3.4,2.5,5.5,6.9,5.5C462.3,111.7,466.5,108,466.5,103.3z"/>
	<path class="st0" d="M477,85.6h5.2l8.3,24.9h2.4l8-24.9h5.2l-9.9,29.6h-9.3L477,85.6z"/>
	<path class="st0" d="M530.5,112.2h-1.3c-1.8,2.3-5,3.9-9.2,3.9c-6.8,0-10.6-4.6-10.6-9.6c0-4.8,3.1-9.8,11.3-9.8h9.6v-1.2
		c0-3.6-2.1-6.2-7.2-6.2c-4.4,0-6.6,1.7-6.9,4.3h-5c0.4-5.5,5.1-8.6,11.8-8.6c7.5,0,12.2,3.6,12.2,10.2v20.2h-4.7L530.5,112.2
		L530.5,112.2z M530.3,103.3v-2.7h-8.9c-4.9,0-7.1,2.1-7.1,5.6c0,3.4,2.5,5.5,6.9,5.5C526.1,111.7,530.3,108,530.3,103.3z"/>
	<path class="st0" d="M576.9,73.3c12.9,0,19.4,8.3,19.4,21c0,12.6-6.5,21-19.4,21h-15.7v-42H576.9z M576.9,110.5
		c10.2,0,14-7.4,14-16.2s-3.9-16.2-14-16.2h-10.4v32.3L576.9,110.5L576.9,110.5z"/>
	<path class="st0" d="M630.1,100.4h-22.6c0.2,7.1,3.4,11.3,9.5,11.3c4.2,0,6.6-1.8,7.5-4.6h5.1c-0.9,5.1-5.2,8.9-12.6,8.9
		c-9.2,0-14.4-6.8-14.4-15.9s5.3-15.3,14.3-15.3c8.8,0,13.1,6.5,13.2,13.8V100.4z M607.8,96.2h17.1c-0.3-3.8-3.2-7-8.2-7
		C611.4,89.2,608.4,92.5,607.8,96.2z"/>
	<path class="st0" d="M634.3,85.6h5.2l8.3,24.9h2.4l8-24.9h5.2l-9.9,29.6h-9.3L634.3,85.6z"/>
	<path class="st0" d="M694.7,100.4h-22.6c0.2,7.1,3.4,11.3,9.5,11.3c4.2,0,6.6-1.8,7.5-4.6h5.1c-0.9,5.1-5.2,8.9-12.6,8.9
		c-9.2,0-14.4-6.8-14.4-15.9s5.3-15.3,14.3-15.3c8.8,0,13.1,6.5,13.2,13.8V100.4z M672.5,96.2h17.1c-0.3-3.8-3.2-7-8.2-7
		C676,89.2,673.1,92.5,672.5,96.2z"/>
	<path class="st0" d="M707.5,72.5v42.7h-5V72.5H707.5z"/>
	<path class="st0" d="M744.5,100.5c0,8.8-5.3,15.6-14.6,15.6s-14.6-6.8-14.6-15.6s5.3-15.6,14.6-15.6
		C739.1,84.9,744.5,91.7,744.5,100.5z M739.5,100.5c0-5.8-3.1-11.2-9.6-11.2c-6.6,0-9.6,5.4-9.6,11.2c0,5.8,3,11.2,9.6,11.2
		C736.4,111.7,739.5,106.3,739.5,100.5z"/>
	<path class="st0" d="M757.1,85.6v3.2h1.3c1.6-2.1,4.5-3.9,9.2-3.9c8.2,0,13,6.8,13,15.6c0,8.9-4.8,15.6-13,15.6
		c-4.7,0-7.5-1.8-9.1-3.9h-1.3V127h-5V85.6H757.1z M757.2,100.5c0,5.8,2.7,11.2,9.3,11.2c5.9,0,9.1-4.6,9.1-11.2s-3.2-11.2-9.1-11.2
		C759.9,89.2,757.2,94.6,757.2,100.5z"/>
	<path class="st0" d="M829.3,96.1v19.2h-5V96.6c0-4.9-1.9-7.3-5.7-7.3c-4.6,0-7.2,3.6-7.2,8.6v17.3h-5V96.8c0-4.9-1.9-7.4-5.6-7.4
		c-4.9,0-7.3,4.2-7.3,9.5v16.4h-5V85.6h4.8v2.9h1.3c1.5-2.3,3.8-3.6,7.5-3.6c3.6,0,6.2,1.3,7.8,3.9h1.3c1.8-2.6,4.6-3.9,8.3-3.9
		C826.4,84.9,829.3,89.3,829.3,96.1z"/>
	<path class="st0" d="M864.2,100.4h-22.6c0.2,7.1,3.4,11.3,9.5,11.3c4.2,0,6.6-1.8,7.5-4.6h5.1c-0.9,5.1-5.2,8.9-12.6,8.9
		c-9.2,0-14.4-6.8-14.4-15.9S842,84.8,851,84.8c8.8,0,13.1,6.5,13.2,13.8V100.4z M841.9,96.2H859c-0.3-3.8-3.2-7-8.2-7
		C845.5,89.2,842.5,92.5,841.9,96.2z"/>
	<path class="st0" d="M893.3,115.3V97.5c0-5.5-2.5-8.2-7.5-8.2c-5.3,0-8.8,4.6-8.8,9.9v16h-5V85.6h4.8v3.2h1.3
		c1.6-2.3,4.9-3.9,8.9-3.9c7.3,0,11.3,4.5,11.3,11.6v18.8L893.3,115.3L893.3,115.3z"/>
	<path class="st0" d="M921.8,85.6V90h-7.5v16.3c0,3,1.3,4.5,5.3,4.5h2.2v4.5h-2.3c-6.4,0-10.2-2-10.2-8.3V90h-5.1v-4.3h5.1v-8.9h5
		v8.9L921.8,85.6L921.8,85.6z"/>
	<path class="st0" d="M946.9,73.3h5.3v20.8l21.6-20.8h6.5L967,86.5l14.8,28.8h-5.6l-12.6-24.2h-1.3l-10.1,9.7v14.5h-5.3L946.9,73.3
		L946.9,73.3z"/>
	<path class="st0" d="M988.5,77.9v-5.4h5.3v5.4H988.5z M993.7,115.3h-5V85.6h5V115.3z"/>
	<path class="st0" d="M1017.8,85.6V90h-7.5v16.3c0,3,1.3,4.5,5.3,4.5h2.2v4.5h-2.3c-6.4,0-10.2-2-10.2-8.3V90h-5.1v-4.3h5.1v-8.9h5
		v8.9L1017.8,85.6L1017.8,85.6z"/>
	<path class="st0" d="M1054.6,123.6h-4.8c-5.1-6.1-9.3-14.9-9.3-26.6c0-11.6,4.1-20.2,8.9-26.3h4.8c-4.7,6.4-9.1,14.6-9.1,26.3
		S1049.7,117.2,1054.6,123.6z"/>
	<path class="st0" d="M1055.3,102.6h5.3c0.5,5.8,3.5,8.6,8.3,8.6c4.7,0,7.8-2.9,7.8-9.3V73.3h5.3v28.6c0,8.9-4.9,14.2-13.2,14.2
		C1061.1,116,1055.9,111.3,1055.3,102.6z"/>
	<path class="st0" d="M1108.3,73.3c12.9,0,19.4,8.3,19.4,21c0,12.6-6.5,21-19.4,21h-15.7v-42H1108.3z M1108.3,110.5
		c10.2,0,14-7.4,14-16.2s-3.9-16.2-14-16.2h-10.4v32.3L1108.3,110.5L1108.3,110.5z"/>
	<path class="st0" d="M1136.3,73.3h5.3v20.8l21.6-20.8h6.5l-13.2,13.2l14.8,28.8h-5.6L1153,91.1h-1.3l-10.1,9.7v14.5h-5.3
		L1136.3,73.3L1136.3,73.3z"/>
	<path class="st0" d="M1173.9,70.7h4.8c4.8,6.1,8.9,14.7,8.9,26.3c0,11.7-4.2,20.6-9.3,26.6h-4.8c4.8-6.4,9.5-14.8,9.5-26.6
		C1182.9,85.3,1178.6,77.1,1173.9,70.7z"/>
</g>
<rect x="174.6" y="360.7" class="st1" width="574.6" height="466.6"/>
<rect x="849.4" y="360.7" class="st1" width="574.6" height="466.6"/>
<g>
	<path class="st0" d="M294.7,232.6h4.7c0.4,5.2,3.1,7.6,7.4,7.6c4.2,0,6.9-2.6,6.9-8.3v-25.4h4.7v25.4c0,7.9-4.4,12.6-11.8,12.6
		C299.9,244.5,295.2,240.4,294.7,232.6z"/>
	<path class="st0" d="M344.2,241.1H343c-1.6,2-4.4,3.4-8.2,3.4c-6.1,0-9.5-4.1-9.5-8.6c0-4.2,2.8-8.7,10.1-8.7h8.6v-1
		c0-3.2-1.8-5.5-6.4-5.5c-3.9,0-5.9,1.5-6.1,3.8H327c0.4-4.9,4.5-7.7,10.4-7.7c6.6,0,10.9,3.2,10.9,9.1v17.9h-4.2v-2.7H344.2z
		 M344,233.2v-2.4h-7.9c-4.3,0-6.3,1.9-6.3,5c0,3,2.2,4.9,6.1,4.9C340.3,240.7,344,237.4,344,233.2z"/>
	<path class="st0" d="M353.4,217.5h4.6l7.4,22.1h2.1l7.1-22.1h4.6l-8.8,26.3h-8.3L353.4,217.5z"/>
	<path class="st0" d="M400.9,241.1h-1.1c-1.6,2-4.4,3.4-8.2,3.4c-6.1,0-9.5-4.1-9.5-8.6c0-4.2,2.8-8.7,10.1-8.7h8.6v-1
		c0-3.2-1.8-5.5-6.4-5.5c-3.9,0-5.9,1.5-6.1,3.8h-4.4c0.4-4.9,4.5-7.7,10.4-7.7c6.6,0,10.9,3.2,10.9,9.1v17.9H401L400.9,241.1
		L400.9,241.1z M400.7,233.2v-2.4h-7.9c-4.3,0-6.3,1.9-6.3,5c0,3,2.2,4.9,6.1,4.9C397,240.7,400.7,237.4,400.7,233.2z"/>
	<path class="st0" d="M444.7,206.6c7.9,0,12.3,4,12.3,10.9c0,4.6-1.9,7.9-5.7,9.6l6,16.9h-4.9l-5.6-15.8c-1,0.1-2,0.2-3,0.2h-10.9
		V244h-4.7v-37.3L444.7,206.6L444.7,206.6z M444,224.1c6,0,8.2-2.5,8.2-6.6c0-4.2-2.2-6.7-8.2-6.7h-11.1v13.3H444z"/>
	<path class="st0" d="M468.8,217.5v15.8c0,4.9,2.2,7.3,6.7,7.3c4.6,0,7.8-4,7.8-8.8v-14.3h4.4v26.3h-4.3V241h-1.1
		c-1.5,2-4.4,3.5-7.9,3.5c-6.5,0-10-4-10-10.3v-16.7H468.8z"/>
	<path class="st0" d="M515.3,243.9v-15.8c0-4.9-2.2-7.3-6.7-7.3c-4.7,0-7.8,4.1-7.8,8.8v14.3h-4.4v-26.3h4.3v2.8h1.1
		c1.5-2,4.4-3.5,7.9-3.5c6.5,0,10,4,10,10.3v16.7H515.3z"/>
	<path class="st0" d="M540.6,217.5v3.9H534v14.5c0,2.7,1.1,4,4.7,4h1.9v4h-2c-5.7,0-9-1.8-9-7.4v-15.1H525v-3.9h4.5v-7.9h4.4v7.9
		H540.6z"/>
	<path class="st0" d="M547.9,210.7v-4.8h4.7v4.8H547.9z M552.5,243.9H548v-26.3h4.4L552.5,243.9L552.5,243.9z"/>
	<path class="st0" d="M597.5,226.8v17h-4.4v-16.6c0-4.3-1.7-6.5-5.1-6.5c-4.1,0-6.4,3.2-6.4,7.6v15.4h-4.4v-16.5
		c0-4.3-1.7-6.6-5-6.6c-4.4,0-6.5,3.7-6.5,8.5v14.6h-4.4v-26.3h4.3v2.6h1.1c1.3-2,3.3-3.2,6.7-3.2c3.2,0,5.5,1.1,6.9,3.5h1.1
		c1.6-2.4,4.1-3.5,7.4-3.5C594.9,216.8,597.5,220.8,597.5,226.8z"/>
	<path class="st0" d="M628.5,230.6h-20.1c0.2,6.3,3,10,8.4,10c3.7,0,5.9-1.6,6.7-4.1h4.5c-0.8,4.5-4.6,7.9-11.2,7.9
		c-8.2,0-12.8-6-12.8-14.1s4.7-13.6,12.7-13.6c7.8,0,11.6,5.8,11.8,12.3L628.5,230.6L628.5,230.6z M608.7,226.9h15.2
		c-0.3-3.3-2.8-6.2-7.3-6.2C611.9,220.7,609.3,223.6,608.7,226.9z"/>
	<path class="st0" d="M262.8,302.3v4.3H236v-37.3h26v4.3h-21.3v11.5h17.1v4.3h-17.1v12.9L262.8,302.3L262.8,302.3z"/>
	<path class="st0" d="M288.6,306.5v-15.8c0-4.9-2.2-7.3-6.7-7.3c-4.7,0-7.8,4.1-7.8,8.8v14.3h-4.4v-26.3h4.3v2.8h1.1
		c1.5-2,4.4-3.5,7.9-3.5c6.5,0,10,4,10,10.3v16.7H288.6z"/>
	<path class="st0" d="M297.7,280.2h4.6l7.4,22.1h2.1l7.1-22.1h4.6l-8.8,26.3h-8.3L297.7,280.2z"/>
	<path class="st0" d="M329,273.4v-4.8h4.7v4.8H329z M333.5,306.5h-4.4v-26.3h4.4V306.5z"/>
	<path class="st0" d="M357.3,284.4h-2.2c-5.2,0-8.4,3.2-8.4,9v13.2h-4.4v-26.3h4.3v3.1h1.1c1.3-1.6,3.8-3.1,7.6-3.1h2V284.4z"/>
	<path class="st0" d="M387.4,293.4c0,7.8-4.8,13.8-13,13.8c-8.3,0-13-6.1-13-13.8c0-7.8,4.7-13.8,13-13.8
		C382.6,279.5,387.4,285.6,387.4,293.4z M383,293.4c0-5.2-2.7-10-8.5-10c-5.9,0-8.5,4.8-8.5,10s2.7,10,8.5,10
		C380.2,303.4,383,298.5,383,293.4z"/>
	<path class="st0" d="M413.3,306.5v-15.8c0-4.9-2.2-7.3-6.7-7.3c-4.7,0-7.8,4.1-7.8,8.8v14.3h-4.4v-26.3h4.3v2.8h1.1
		c1.5-2,4.4-3.5,7.9-3.5c6.5,0,10,4,10,10.3v16.7H413.3z"/>
	<path class="st0" d="M462.2,289.5v17h-4.4V290c0-4.3-1.7-6.5-5.1-6.5c-4.1,0-6.4,3.2-6.4,7.6v15.4h-4.4V290c0-4.3-1.7-6.6-5-6.6
		c-4.4,0-6.5,3.7-6.5,8.5v14.6H426v-26.3h4.3v2.6h1.1c1.3-2,3.3-3.2,6.7-3.2c3.2,0,5.5,1.1,6.9,3.5h1.1c1.6-2.4,4.1-3.5,7.4-3.5
		C459.6,279.5,462.2,283.5,462.2,289.5z"/>
	<path class="st0" d="M493.2,293.3h-20.1c0.2,6.3,3,10,8.4,10c3.7,0,5.9-1.6,6.7-4.1h4.5c-0.8,4.5-4.6,7.9-11.2,7.9
		c-8.2,0-12.8-6-12.8-14.1s4.7-13.6,12.7-13.6c7.8,0,11.6,5.8,11.8,12.3V293.3z M473.4,289.6h15.2c-0.3-3.3-2.8-6.2-7.3-6.2
		C476.6,283.4,474,286.3,473.4,289.6z"/>
	<path class="st0" d="M519,306.5v-15.8c0-4.9-2.2-7.3-6.7-7.3c-4.7,0-7.8,4.1-7.8,8.8v14.3h-4.4v-26.3h4.3v2.8h1.1
		c1.5-2,4.4-3.5,7.9-3.5c6.5,0,10,4,10,10.3v16.7H519z"/>
	<path class="st0" d="M544.4,280.2v3.9h-6.6v14.5c0,2.7,1.1,4,4.7,4h1.9v4h-2c-5.7,0-9-1.8-9-7.4v-15.1h-4.5v-3.9h4.5v-7.9h4.4v7.9
		H544.4z"/>
	<path class="st0" d="M577,313.9h-4.3c-4.5-5.4-8.3-13.3-8.3-23.7c0-10.3,3.7-17.9,7.9-23.4h4.3c-4.2,5.7-8,13-8,23.4
		C568.6,300.7,572.7,308.2,577,313.9z"/>
	<path class="st0" d="M577.7,295.3h4.7c0.4,5.2,3.1,7.6,7.4,7.6c4.2,0,6.9-2.6,6.9-8.3v-25.4h4.7v25.4c0,7.9-4.4,12.6-11.8,12.6
		C582.9,307.2,578.2,303,577.7,295.3z"/>
	<path class="st0" d="M627.4,269.2c7.9,0,12.3,4,12.3,10.9c0,4.6-1.9,7.9-5.7,9.6l6,16.9h-5l-5.6-15.8c-1,0.1-2,0.2-3,0.2h-10.9
		v15.6h-4.7v-37.3h16.6V269.2z M626.7,286.7c6,0,8.2-2.5,8.2-6.6c0-4.2-2.2-6.7-8.2-6.7h-11.1v13.3L626.7,286.7L626.7,286.7z"/>
	<path class="st0" d="M674.7,302.3v4.3h-26.8v-37.3h26v4.3h-21.3v11.5h17.1v4.3h-17.1v12.9L674.7,302.3L674.7,302.3z"/>
	<path class="st0" d="M677.8,266.9h4.3c4.3,5.4,7.9,13.1,7.9,23.4c0,10.4-3.8,18.3-8.3,23.7h-4.3c4.3-5.7,8.4-13.2,8.4-23.7
		C685.9,279.9,682,272.6,677.8,266.9z"/>
</g>
<g>
	<path class="st0" d="M923.1,232.8c11.4,0,17.2,7.4,17.2,18.6c0,11.2-5.8,18.6-17.2,18.6h-13.9v-37.3h13.9V232.8z M923.1,265.8
		c9,0,12.5-6.6,12.5-14.4c0-7.8-3.4-14.4-12.5-14.4h-9.2v28.7L923.1,265.8L923.1,265.8z"/>
	<path class="st0" d="M970.3,256.8h-20.1c0.2,6.3,3,10,8.4,10c3.7,0,5.9-1.6,6.7-4.1h4.5c-0.8,4.5-4.6,7.9-11.2,7.9
		c-8.2,0-12.8-6-12.8-14.1s4.7-13.6,12.7-13.6c7.8,0,11.6,5.8,11.8,12.3L970.3,256.8L970.3,256.8z M950.5,253.1h15.2
		c-0.3-3.3-2.8-6.2-7.3-6.2C953.7,246.9,951.1,249.8,950.5,253.1z"/>
	<path class="st0" d="M974.1,243.7h4.6l7.4,22.1h2.1l7.1-22.1h4.6l-8.8,26.3h-8.3L974.1,243.7z"/>
	<path class="st0" d="M1027.8,256.8h-20.1c0.2,6.3,3,10,8.4,10c3.7,0,5.9-1.6,6.7-4.1h4.5c-0.8,4.5-4.7,7.9-11.2,7.9
		c-8.2,0-12.8-6-12.8-14.1s4.7-13.6,12.7-13.6c7.8,0,11.6,5.8,11.8,12.3V256.8z M1008,253.1h15.2c-0.3-3.3-2.8-6.2-7.3-6.2
		C1011.2,246.9,1008.6,249.8,1008,253.1z"/>
	<path class="st0" d="M1039.1,232.1v38h-4.4v-38H1039.1z"/>
	<path class="st0" d="M1072,256.9c0,7.8-4.8,13.8-13,13.8c-8.3,0-13-6.1-13-13.8c0-7.8,4.7-13.8,13-13.8
		C1067.2,243,1072,249.1,1072,256.9z M1067.5,256.9c0-5.2-2.7-10-8.5-10c-5.9,0-8.5,4.8-8.5,10c0,5.2,2.7,10,8.5,10
		S1067.5,262.1,1067.5,256.9z"/>
	<path class="st0" d="M1083.2,243.7v2.8h1.1c1.5-1.8,4-3.5,8.2-3.5c7.3,0,11.5,6.1,11.5,13.8c0,7.9-4.3,13.8-11.5,13.8
		c-4.2,0-6.6-1.6-8-3.5h-1.1v13.3h-4.4v-36.8h4.2V243.7z M1083.3,256.9c0,5.2,2.4,10,8.3,10c5.3,0,8.1-4.1,8.1-10s-2.8-10-8.1-10
		C1085.7,246.9,1083.3,251.7,1083.3,256.9z"/>
	<path class="st0" d="M1147.4,253v17h-4.4v-16.6c0-4.3-1.7-6.5-5.1-6.5c-4.1,0-6.4,3.2-6.4,7.6v15.4h-4.4v-16.5c0-4.3-1.7-6.6-5-6.6
		c-4.4,0-6.5,3.7-6.5,8.5v14.6h-4.4v-26.3h4.3v2.6h1.1c1.3-2,3.3-3.2,6.7-3.2c3.2,0,5.5,1.1,6.9,3.5h1.1c1.6-2.4,4.1-3.5,7.4-3.5
		C1144.7,243,1147.4,247,1147.4,253z"/>
	<path class="st0" d="M1178.3,256.8h-20.1c0.2,6.3,3,10,8.4,10c3.7,0,5.9-1.6,6.7-4.1h4.5c-0.8,4.5-4.6,7.9-11.2,7.9
		c-8.2,0-12.8-6-12.8-14.1s4.7-13.6,12.7-13.6c7.8,0,11.6,5.8,11.8,12.3V256.8z M1158.5,253.1h15.2c-0.3-3.3-2.8-6.2-7.3-6.2
		C1161.7,246.9,1159.1,249.8,1158.5,253.1z"/>
	<path class="st0" d="M1204.2,270.1v-15.8c0-4.9-2.2-7.3-6.7-7.3c-4.7,0-7.8,4.1-7.8,8.8v14.3h-4.4v-26.3h4.3v2.8h1.1
		c1.5-2,4.4-3.5,7.9-3.5c6.5,0,10,4,10,10.3v16.7H1204.2z"/>
	<path class="st0" d="M1229.5,243.7v3.9h-6.6v14.5c0,2.7,1.1,4,4.7,4h1.9v4h-2c-5.7,0-9-1.8-9-7.4v-15.1h-4.5v-3.9h4.5v-7.9h4.4v7.9
		L1229.5,243.7L1229.5,243.7z"/>
	<path class="st0" d="M1264.1,243.7v3.9h-6.6v14.5c0,2.7,1.1,4,4.7,4h1.9v4h-2c-5.7,0-9-1.8-9-7.4v-15.1h-4.5v-3.9h4.5v-7.9h4.4v7.9
		L1264.1,243.7L1264.1,243.7z"/>
	<path class="st0" d="M1295.3,256.9c0,7.8-4.8,13.8-13,13.8c-8.3,0-13-6.1-13-13.8c0-7.8,4.7-13.8,13-13.8
		C1290.5,243,1295.3,249.1,1295.3,256.9z M1290.9,256.9c0-5.2-2.7-10-8.5-10c-5.9,0-8.5,4.8-8.5,10c0,5.2,2.7,10,8.5,10
		C1288.1,266.9,1290.9,262.1,1290.9,256.9z"/>
	<path class="st0" d="M1326.5,256.9c0,7.8-4.8,13.8-13,13.8c-8.3,0-13-6.1-13-13.8c0-7.8,4.7-13.8,13-13.8
		C1321.8,243,1326.5,249.1,1326.5,256.9z M1322.1,256.9c0-5.2-2.7-10-8.5-10c-5.9,0-8.5,4.8-8.5,10c0,5.2,2.7,10,8.5,10
		S1322.1,262.1,1322.1,256.9z"/>
	<path class="st0" d="M1337.9,232.1v38h-4.4v-38H1337.9z"/>
	<path class="st0" d="M1356.3,254.1l3,0.5c4.6,0.8,7.5,3.1,7.5,7.9c0,4.3-3.7,8.3-10.8,8.3c-7.5,0-11.1-3.3-11.7-8.3h4.5
		c0.4,3,3,4.4,7,4.4s6.6-1.4,6.6-4.3c0-2.3-1.5-3.6-4.8-4.1l-5.9-1c-3.8-0.7-6.3-2.7-6.3-6.6c0-4.4,3.3-7.8,10.4-7.8
		c6.2,0,9.8,2.9,10.4,7.5h-4.4c-0.4-2.5-2.9-3.7-6.2-3.7c-3.4,0-5.7,1.3-5.7,3.5c0,2,1.3,2.8,4,3.2L1356.3,254.1z"/>
</g>
<path class="st2" d="M1339,572.5H934.4c-19.2,0-34.8-15.6-34.8-34.8v-87.2c0-19.2,15.6-34.8,34.8-34.8H1339
	c19.2,0,34.8,15.6,34.8,34.8v87.2C1373.8,557,1358.2,572.5,1339,572.5z"/>
<path class="st3" d="M966.6,499.6h4.7c0.4,5.2,3.1,7.6,7.4,7.6c4.2,0,6.9-2.6,6.9-8.3v-25.4h4.7v25.4c0,7.9-4.4,12.6-11.8,12.6
	C971.7,511.5,967,507.3,966.6,499.6z"/>
<path class="st3" d="M1016,508h-1.1c-1.6,2-4.4,3.4-8.2,3.4c-6.1,0-9.5-4.1-9.5-8.6c0-4.2,2.8-8.7,10.1-8.7h8.6v-1
	c0-3.2-1.8-5.5-6.4-5.5c-3.9,0-5.9,1.5-6.1,3.8H999c0.4-4.9,4.5-7.7,10.4-7.7c6.6,0,10.9,3.2,10.9,9.1v17.9h-4.2L1016,508L1016,508z
	 M1015.9,500.1v-2.4h-7.9c-4.3,0-6.3,1.9-6.3,5c0,3,2.2,4.9,6.1,4.9C1012.2,507.6,1015.9,504.3,1015.9,500.1z"/>
<path class="st3" d="M1025.2,484.5h4.6l7.4,22.1h2.1l7.1-22.1h4.6l-8.8,26.3h-8.3L1025.2,484.5z"/>
<path class="st3" d="M1072.8,508h-1.1c-1.6,2-4.4,3.4-8.2,3.4c-6.1,0-9.5-4.1-9.5-8.6c0-4.2,2.8-8.7,10.1-8.7h8.6v-1
	c0-3.2-1.8-5.5-6.4-5.5c-3.9,0-5.9,1.5-6.1,3.8h-4.4c0.4-4.9,4.5-7.7,10.4-7.7c6.6,0,10.9,3.2,10.9,9.1v17.9h-4.2V508H1072.8z
	 M1072.6,500.1v-2.4h-7.9c-4.3,0-6.3,1.9-6.3,5c0,3,2.2,4.9,6.1,4.9C1068.9,507.6,1072.6,504.3,1072.6,500.1z"/>
<path class="st3" d="M1121.9,502.9c-1,5.2-5,8.6-11.1,8.6c-8.2,0-12.8-6.1-12.8-13.8c0-7.9,4.6-13.8,12.8-13.8
	c6.3,0,10,3.4,10.9,8.3h-4.4c-0.8-2.7-2.9-4.4-6.5-4.4c-6,0-8.4,4.6-8.4,9.9s2.5,10.1,8.4,10.1c3.8,0,6-1.8,6.6-4.8h4.5V502.9z"/>
<path class="st3" d="M1152.8,497.6c0,7.8-4.8,13.8-13,13.8c-8.3,0-13-6.1-13-13.8c0-7.8,4.7-13.8,13-13.8
	C1148,483.8,1152.8,489.9,1152.8,497.6z M1148.4,497.6c0-5.2-2.7-10-8.5-10c-5.9,0-8.5,4.8-8.5,10s2.7,10,8.5,10
	C1145.6,507.6,1148.4,502.8,1148.4,497.6z"/>
<path class="st3" d="M1196,493.8v17h-4.4v-16.6c0-4.3-1.7-6.5-5.1-6.5c-4.1,0-6.4,3.2-6.4,7.6v15.4h-4.4v-16.5c0-4.3-1.7-6.6-5-6.6
	c-4.4,0-6.5,3.7-6.5,8.5v14.6h-4.4v-26.3h4.3v2.6h1.1c1.3-2,3.3-3.2,6.7-3.2c3.2,0,5.5,1.1,6.9,3.5h1.1c1.6-2.4,4.1-3.5,7.4-3.5
	C1193.4,483.8,1196,487.7,1196,493.8z"/>
<path class="st3" d="M1208.5,484.5v2.8h1.1c1.5-1.8,4-3.5,8.2-3.5c7.3,0,11.5,6.1,11.5,13.8c0,7.9-4.3,13.8-11.5,13.8
	c-4.2,0-6.6-1.6-8-3.5h-1.1v13.3h-4.4v-36.8h4.2V484.5z M1208.6,497.6c0,5.2,2.4,10,8.3,10c5.3,0,8.1-4.1,8.1-10s-2.8-10-8.1-10
	C1211,487.7,1208.6,492.5,1208.6,497.6z"/>
<path class="st3" d="M1253.8,472.8v38h-4.4v-38H1253.8z"/>
<path class="st3" d="M1237.3,477.6v-4.8h4.7v4.8H1237.3z M1241.9,510.8h-4.4v-26.3h4.4V510.8z"/>
<path class="st3" d="M1285.4,497.6h-20.1c0.2,6.3,3,10,8.4,10c3.7,0,5.9-1.6,6.7-4.1h4.5c-0.8,4.5-4.6,7.9-11.2,7.9
	c-8.2,0-12.8-6-12.8-14.1s4.7-13.6,12.7-13.6c7.8,0,11.6,5.8,11.8,12.3V497.6z M1265.6,493.9h15.2c-0.3-3.3-2.8-6.2-7.3-6.2
	C1268.8,487.7,1266.2,490.5,1265.6,493.9z"/>
<path class="st3" d="M1307.4,488.7h-2.2c-5.2,0-8.4,3.2-8.4,9v13.2h-4.4v-26.3h4.3v3.1h1.1c1.3-1.6,3.8-3.1,7.6-3.1h2V488.7z"/>
<g>
	<path class="st2" d="M1339,779.5H934.4c-19.2,0-34.8-15.6-34.8-34.8v-87.2c0-19.2,15.6-34.8,34.8-34.8H1339
		c19.2,0,34.8,15.6,34.8,34.8v87.2C1373.8,763.9,1358.2,779.5,1339,779.5z"/>
	<g>
		<path class="st3" d="M1034.8,699.1c0,10.7-6.1,19.3-17.4,19.3c-11.4,0-17.4-8.6-17.4-19.3s6-19.3,17.4-19.3
			C1028.7,679.8,1034.8,688.4,1034.8,699.1z M1030,699.1c0-7.8-3.8-15-12.6-15c-8.9,0-12.6,7.3-12.6,15c0,7.8,3.8,15,12.6,15
			C1026.3,714.1,1030,706.9,1030,699.1z"/>
		<path class="st3" d="M1054.7,691.4v3.9h-6.6v14.5c0,2.7,1.1,4,4.7,4h1.9v4h-2c-5.7,0-9-1.8-9-7.4v-15.1h-4.5v-3.9h4.5v-7.9h4.4
			v7.9H1054.7z"/>
		<path class="st3" d="M1081,717.7V702c0-4.8-2.2-7.3-6.7-7.3c-4.7,0-7.8,4.1-7.8,8.8v14.3h-4.4v-38h4.4v14.5h1.1
			c1.4-2,4.3-3.5,7.8-3.5c6.4,0,10,4,10,10.3v16.7L1081,717.7L1081,717.7z"/>
		<path class="st3" d="M1116.4,704.5h-20.1c0.2,6.3,3,10,8.4,10c3.7,0,5.9-1.6,6.7-4.1h4.5c-0.8,4.5-4.6,7.9-11.2,7.9
			c-8.2,0-12.8-6-12.8-14.1s4.7-13.6,12.7-13.6c7.8,0,11.6,5.8,11.8,12.3V704.5z M1096.6,700.8h15.2c-0.3-3.3-2.8-6.2-7.3-6.2
			C1099.8,694.6,1097.2,697.5,1096.6,700.8z"/>
		<path class="st3" d="M1138.3,695.6h-2.2c-5.2,0-8.4,3.2-8.4,9v13.2h-4.4v-26.3h4.3v3.1h1.1c1.3-1.6,3.8-3.1,7.6-3.1h2V695.6z"/>
		<path class="st3" d="M1171.4,691.4v3.9h-6.6v14.5c0,2.7,1.1,4,4.7,4h1.9v4h-2c-5.7,0-9-1.8-9-7.4v-15.1h-4.5v-3.9h4.5v-7.9h4.4
			v7.9H1171.4z"/>
		<path class="st3" d="M1202.6,704.6c0,7.8-4.8,13.8-13,13.8c-8.3,0-13-6.1-13-13.8c0-7.8,4.7-13.8,13-13.8
			C1197.8,690.7,1202.6,696.8,1202.6,704.6z M1198.1,704.6c0-5.2-2.7-10-8.5-10c-5.9,0-8.5,4.8-8.5,10s2.7,10,8.5,10
			S1198.1,709.8,1198.1,704.6z"/>
		<path class="st3" d="M1233.8,704.6c0,7.8-4.8,13.8-13,13.8c-8.3,0-13-6.1-13-13.8c0-7.8,4.7-13.8,13-13.8
			C1229.1,690.7,1233.8,696.8,1233.8,704.6z M1229.4,704.6c0-5.2-2.7-10-8.5-10c-5.9,0-8.5,4.8-8.5,10s2.7,10,8.5,10
			C1226.7,714.6,1229.4,709.8,1229.4,704.6z"/>
		<path class="st3" d="M1245.2,679.8v38h-4.4v-38H1245.2z"/>
		<path class="st3" d="M1263.6,701.8l3,0.5c4.6,0.8,7.5,3.1,7.5,7.9c0,4.3-3.7,8.3-10.8,8.3c-7.5,0-11.1-3.3-11.7-8.3h4.5
			c0.4,3,3,4.4,7,4.4s6.6-1.4,6.6-4.3c0-2.3-1.5-3.6-4.8-4.1l-5.9-1c-3.8-0.7-6.3-2.7-6.3-6.6c0-4.4,3.3-7.8,10.4-7.8
			c6.2,0,9.8,2.9,10.4,7.5h-4.4c-0.4-2.5-2.9-3.7-6.2-3.7c-3.4,0-5.7,1.3-5.7,3.5c0,2,1.3,2.8,4,3.2L1263.6,701.8z"/>
	</g>
</g>
<g>
	<path class="st2" d="M664.2,779.5H259.6c-19.2,0-34.8-15.6-34.8-34.8v-87.2c0-19.2,15.6-34.8,34.8-34.8h404.6
		c19.2,0,34.8,15.6,34.8,34.8v87.2C699,763.9,683.4,779.5,664.2,779.5z"/>
	<g>
		<path class="st3" d="M383,713.3v4.4h-25.6v-37.3h4.7v32.9L383,713.3L383,713.3z"/>
		<path class="st3" d="M389.5,684.6v-4.8h4.7v4.8H389.5z M394,717.7h-4.4v-26.3h4.4V717.7z"/>
		<path class="st3" d="M427.9,704.6c0,7.8-4.3,13.8-11.5,13.8c-4.2,0-6.7-1.7-8.2-3.5H407v2.8h-4.3v-38h4.4v14.5h1.1
			c1.4-1.9,3.9-3.5,8-3.5C423.6,690.7,427.9,696.6,427.9,704.6z M423.5,704.6c0-5.9-2.8-10-8.1-10c-5.9,0-8.3,4.8-8.3,10
			s2.4,10,8.3,10C420.6,714.6,423.5,710.4,423.5,704.6z"/>
		<path class="st3" d="M449.9,695.6h-2.2c-5.2,0-8.4,3.2-8.4,9v13.2h-4.4v-26.3h4.3v3.1h1.1c1.3-1.6,3.8-3.1,7.6-3.1h2V695.6z"/>
		<path class="st3" d="M472.5,715h-1.1c-1.6,2-4.4,3.4-8.2,3.4c-6.1,0-9.5-4.1-9.5-8.6c0-4.2,2.8-8.7,10.1-8.7h8.6v-1
			c0-3.2-1.8-5.5-6.4-5.5c-3.9,0-5.9,1.5-6.1,3.8h-4.4c0.4-4.9,4.5-7.7,10.4-7.7c6.6,0,10.9,3.2,10.9,9.1v17.9h-4.2L472.5,715
			L472.5,715z M472.3,707.1v-2.4h-7.9c-4.3,0-6.3,1.9-6.3,5c0,3,2.2,4.9,6.1,4.9C468.6,714.6,472.3,711.3,472.3,707.1z"/>
		<path class="st3" d="M499.8,695.6h-2.2c-5.2,0-8.4,3.2-8.4,9v13.2h-4.4v-26.3h4.3v3.1h1.1c1.3-1.6,3.8-3.1,7.6-3.1h2V695.6z"/>
		<path class="st3" d="M505.6,684.6v-4.8h4.7v4.8H505.6z M510.2,717.7h-4.4v-26.3h4.4V717.7z"/>
		<path class="st3" d="M541.7,704.5h-20.1c0.2,6.3,3,10,8.4,10c3.7,0,5.9-1.6,6.7-4.1h4.5c-0.8,4.5-4.6,7.9-11.2,7.9
			c-8.2,0-12.8-6-12.8-14.1s4.7-13.6,12.7-13.6c7.8,0,11.6,5.8,11.8,12.3L541.7,704.5L541.7,704.5z M521.9,700.8h15.2
			c-0.3-3.3-2.8-6.2-7.3-6.2C525.1,694.6,522.5,697.5,521.9,700.8z"/>
		<path class="st3" d="M558.4,701.8l3,0.5c4.6,0.8,7.5,3.1,7.5,7.9c0,4.3-3.7,8.3-10.8,8.3c-7.5,0-11.1-3.3-11.7-8.3h4.5
			c0.4,3,3,4.4,7,4.4s6.6-1.4,6.6-4.3c0-2.3-1.5-3.6-4.8-4.1l-5.9-1c-3.8-0.7-6.3-2.7-6.3-6.6c0-4.4,3.3-7.8,10.4-7.8
			c6.2,0,9.8,2.9,10.4,7.5h-4.4c-0.4-2.5-2.9-3.7-6.2-3.7c-3.4,0-5.7,1.3-5.7,3.5c0,2,1.3,2.8,4,3.2L558.4,701.8z"/>
	</g>
</g>
<g>
	<path class="st2" d="M664.2,571.4H259.6c-19.2,0-34.8-15.6-34.8-34.8v-87.2c0-19.2,15.6-34.8,34.8-34.8h404.6
		c19.2,0,34.8,15.6,34.8,34.8v87.2C699,555.8,683.4,571.4,664.2,571.4z"/>
	<g>
		<path class="st3" d="M316.3,467.1h4.7c0.4,5.2,3.1,7.6,7.4,7.6c4.2,0,6.9-2.6,6.9-8.3V441h4.7v25.4c0,7.9-4.4,12.6-11.8,12.6
			C321.5,479,316.8,474.8,316.3,467.1z"/>
		<path class="st3" d="M365.8,475.6h-1.1c-1.6,2-4.4,3.4-8.2,3.4c-6.1,0-9.5-4.1-9.5-8.6c0-4.2,2.8-8.7,10.1-8.7h8.6v-1
			c0-3.2-1.8-5.5-6.4-5.5c-3.9,0-5.9,1.5-6.1,3.8h-4.4c0.4-4.9,4.5-7.7,10.4-7.7c6.6,0,10.9,3.2,10.9,9.1v17.9h-4.2L365.8,475.6
			L365.8,475.6z M365.6,467.7v-2.4h-7.9c-4.3,0-6.3,1.9-6.3,5c0,3,2.2,4.9,6.1,4.9C361.9,475.1,365.6,471.8,365.6,467.7z"/>
		<path class="st3" d="M375,452h4.6l7.4,22.1h2.1l7.1-22.1h4.6l-8.8,26.3h-8.3L375,452z"/>
		<path class="st3" d="M422.5,475.6h-1.1c-1.6,2-4.4,3.4-8.2,3.4c-6.1,0-9.5-4.1-9.5-8.6c0-4.2,2.8-8.7,10.1-8.7h8.6v-1
			c0-3.2-1.8-5.5-6.4-5.5c-3.9,0-5.9,1.5-6.1,3.8h-4.4c0.4-4.9,4.5-7.7,10.4-7.7c6.6,0,10.9,3.2,10.9,9.1v17.9h-4.2L422.5,475.6
			L422.5,475.6z M422.4,467.7v-2.4h-7.9c-4.3,0-6.3,1.9-6.3,5c0,3,2.2,4.9,6.1,4.9C418.7,475.1,422.4,471.8,422.4,467.7z"/>
		<path class="st3" d="M446.1,441h5l10.2,32.5h2.6l10.2-32.5h4.9l-12,37.3h-9L446.1,441z"/>
		<path class="st3" d="M484.3,445.2v-4.8h4.7v4.8H484.3z M488.8,478.3h-4.4V452h4.4V478.3z"/>
		<path class="st3" d="M512.6,456.2h-2.2c-5.2,0-8.4,3.2-8.4,9v13.2h-4.4V452h4.3v3.1h1.1c1.3-1.6,3.8-3.1,7.6-3.1h2V456.2z"/>
		<path class="st3" d="M532.8,452v3.9h-6.6v14.5c0,2.7,1.1,4,4.7,4h1.9v4h-2c-5.7,0-9-1.8-9-7.4v-15.1h-4.5V452h4.5v-7.9h4.4v7.9
			H532.8z"/>
		<path class="st3" d="M544.1,452v15.8c0,4.9,2.2,7.3,6.7,7.3c4.6,0,7.8-4,7.8-8.8V452h4.4v26.3h-4.3v-2.8h-1.1
			c-1.5,2-4.4,3.5-7.9,3.5c-6.5,0-10-4-10-10.3V452H544.1z"/>
		<path class="st3" d="M588.4,475.6h-1.1c-1.6,2-4.4,3.4-8.2,3.4c-6.1,0-9.5-4.1-9.5-8.6c0-4.2,2.8-8.7,10.1-8.7h8.6v-1
			c0-3.2-1.8-5.5-6.4-5.5c-3.9,0-5.9,1.5-6.1,3.8h-4.4c0.4-4.9,4.5-7.7,10.4-7.7c6.6,0,10.9,3.2,10.9,9.1v17.9h-4.2L588.4,475.6
			L588.4,475.6z M588.3,467.7v-2.4h-7.9c-4.3,0-6.3,1.9-6.3,5c0,3,2.2,4.9,6.1,4.9C584.6,475.1,588.3,471.8,588.3,467.7z"/>
		<path class="st3" d="M605.2,440.3v38h-4.4v-38H605.2z"/>
		<path class="st3" d="M285.1,503.7h7.8l9.4,17.5h1.1l9.2-17.5h7.9V541H316v-32h-1.1l-9.6,17.7h-4.9l-9.6-17.7h-1.1v32h-4.6
			L285.1,503.7L285.1,503.7z"/>
		<path class="st3" d="M346.4,538.2h-1.1c-1.6,2-4.4,3.4-8.2,3.4c-6.1,0-9.5-4.1-9.5-8.6c0-4.2,2.8-8.7,10.1-8.7h8.6v-1
			c0-3.2-1.8-5.5-6.4-5.5c-3.9,0-5.9,1.5-6.1,3.8h-4.4c0.4-4.9,4.5-7.7,10.4-7.7c6.6,0,10.9,3.2,10.9,9.1v18h-4.2L346.4,538.2
			L346.4,538.2z M346.3,530.4V528h-7.9c-4.3,0-6.3,1.9-6.3,5c0,3,2.2,4.9,6.1,4.9C342.6,537.8,346.3,534.5,346.3,530.4z"/>
		<path class="st3" d="M381,533.1c-1,5.2-5,8.6-11.1,8.6c-8.2,0-12.8-6.1-12.8-13.8c0-7.9,4.6-13.8,12.8-13.8c6.3,0,10,3.4,10.9,8.3
			h-4.4c-0.8-2.7-2.9-4.4-6.5-4.4c-6,0-8.4,4.6-8.4,9.9c0,5.3,2.5,10.1,8.4,10.1c3.8,0,6-1.8,6.6-4.8L381,533.1L381,533.1z"/>
		<path class="st3" d="M406.6,541v-15.8c0-4.8-2.2-7.3-6.7-7.3c-4.7,0-7.8,4.1-7.8,8.8V541h-4.4v-38h4.4v14.5h1.1
			c1.4-2,4.3-3.5,7.8-3.5c6.4,0,10,4,10,10.3V541H406.6z"/>
		<path class="st3" d="M419.2,507.8V503h4.7v4.8H419.2z M423.8,541h-4.4v-26.3h4.4V541z"/>
		<path class="st3" d="M451.4,541v-15.8c0-4.9-2.2-7.3-6.7-7.3c-4.7,0-7.8,4.1-7.8,8.8V541h-4.4v-26.3h4.3v2.8h1.1
			c1.5-2,4.4-3.5,7.9-3.5c6.5,0,10,4,10,10.3V541H451.4z"/>
		<path class="st3" d="M486.9,527.8h-20.1c0.2,6.3,3,10,8.4,10c3.7,0,5.9-1.6,6.7-4.1h4.5c-0.8,4.5-4.6,7.9-11.2,7.9
			c-8.2,0-12.8-6-12.8-14.1s4.7-13.6,12.7-13.6c7.8,0,11.6,5.8,11.8,12.3V527.8z M467.1,524.1h15.2c-0.3-3.3-2.8-6.2-7.3-6.2
			C470.2,517.9,467.6,520.7,467.1,524.1z"/>
		<path class="st3" d="M519.1,548.4h-4.3c-4.5-5.4-8.3-13.3-8.3-23.7c0-10.3,3.7-17.9,7.9-23.4h4.3c-4.2,5.7-8,13-8,23.4
			C510.7,535.2,514.8,542.7,519.1,548.4z"/>
		<path class="st3" d="M519.8,529.8h4.7c0.4,5.2,3.1,7.6,7.4,7.6c4.2,0,6.9-2.6,6.9-8.3v-25.4h4.7v25.4c0,7.9-4.4,12.6-11.8,12.6
			C524.9,541.7,520.2,537.5,519.8,529.8z"/>
		<path class="st3" d="M549.2,503.7h5l10.2,32.5h2.6l10.2-32.5h4.9l-12,37.3h-9L549.2,503.7z"/>
		<path class="st3" d="M587.8,503.7h7.8l9.4,17.5h1.1l9.2-17.5h7.9V541h-4.6v-32h-1.1l-9.6,17.7H603l-9.6-17.7h-1.1v32h-4.6
			L587.8,503.7L587.8,503.7z"/>
		<path class="st3" d="M628.7,501.4h4.3c4.3,5.4,7.9,13.1,7.9,23.4c0,10.4-3.8,18.3-8.3,23.7h-4.3c4.3-5.7,8.4-13.2,8.4-23.7
			C636.8,514.4,632.9,507.1,628.7,501.4z"/>
	</g>
</g>
<rect x="70" y="150.3" class="st4" width="1458.6" height="727.3"/>
</svg>
