<svg width="1474" height="1003" viewBox="0 0 1474 1003" fill="none" xmlns="http://www.w3.org/2000/svg">
<g clip-path="url(#clip0)">
<rect width="1474" height="1003" fill="white"/>
<path opacity="0.12" d="M1388.8 81.1992H1289L1238.2 131.999V266.599C1238.2 276.099 1245.9 283.799 1255.4 283.799H1388.8C1398.3 283.799 1406 276.099 1406 266.599V98.3992C1406 88.8992 1398.3 81.1992 1388.8 81.1992Z" fill="#007BFF"/>
<path d="M1442.9 693.302L1409.1 634.802C1398.2 615.802 1377.8 604.102 1355.9 604.102H1288.3C1266.4 604.102 1246 615.902 1235.1 634.802L1201.3 693.302C1190.4 712.302 1190.4 735.802 1201.3 754.802L1235.1 813.302C1246 832.302 1266.4 844.002 1288.3 844.002H1355.9C1377.8 844.002 1398.2 832.202 1409.1 813.302L1442.9 754.802C1453.8 735.802 1453.8 712.202 1442.9 693.302Z" fill="#007BFF"/>
<path opacity="0.12" d="M443.699 145.6H496.799C513.299 145.6 526.799 132.1 526.799 115.6V62.5L443.699 145.6Z" fill="#007BFF"/>
<path d="M616.4 62.5H526.7L443.6 145.6V272.5C443.6 289 457.1 302.5 473.6 302.5H616.4C632.9 302.5 646.4 289 646.4 272.5V92.5C646.4 76 632.9 62.5 616.4 62.5Z" stroke="#007BFF" stroke-miterlimit="10"/>
<path d="M1220.7 145.6H1273.8C1290.3 145.6 1303.8 132.1 1303.8 115.6V62.5L1220.7 145.6Z" fill="#082E51"/>
<path d="M1393.5 62.5H1303.8L1220.7 145.6V272.5C1220.7 289 1234.2 302.5 1250.7 302.5H1393.5C1410 302.5 1423.5 289 1423.5 272.5V92.5C1423.5 76 1410 62.5 1393.5 62.5Z" stroke="#007BFF" stroke-miterlimit="10"/>
<path d="M832.199 686.6H885.299C901.799 686.6 915.299 673.1 915.299 656.6V603.5L832.199 686.6Z" fill="#007BFF"/>
<path d="M1004.9 603.5H915.2L832.1 686.6V813.5C832.1 830 845.6 843.5 862.1 843.5H1004.9C1021.4 843.5 1034.9 830 1034.9 813.5V633.5C1034.9 617 1021.4 603.5 1004.9 603.5Z" stroke="#007BFF" stroke-miterlimit="10"/>
<path d="M156.5 188.801C173.897 188.801 188 174.698 188 157.301C188 139.904 173.897 125.801 156.5 125.801C139.103 125.801 125 139.904 125 157.301C125 174.698 139.103 188.801 156.5 188.801Z" fill="#082E51"/>
<path d="M212 239.199L196.5 212.299C191.5 203.599 182.1 198.199 172 198.199H141C130.9 198.199 121.6 203.599 116.5 212.299L101 239.199" fill="#007BFF"/>
<path d="M156.5 302.5C222.774 302.5 276.5 248.774 276.5 182.5C276.5 116.226 222.774 62.5 156.5 62.5C90.2258 62.5 36.5 116.226 36.5 182.5C36.5 248.774 90.2258 302.5 156.5 302.5Z" stroke="#007BFF" stroke-miterlimit="10"/>
<path d="M156.5 313C228.573 313 287 254.573 287 182.5C287 110.427 228.573 52 156.5 52C84.4268 52 26 110.427 26 182.5C26 254.573 84.4268 313 156.5 313Z" stroke="#007BFF" stroke-miterlimit="10"/>
<path d="M403.6 782.401V646.301C403.6 632.301 415.1 620.801 429.1 620.801H660.6C674.6 620.801 686.1 632.301 686.1 646.301V782.401" stroke="#007BFF" stroke-width="0.8509" stroke-miterlimit="10"/>
<path opacity="0.12" d="M654.1 796.001H435.5C427.3 796.001 420.6 789.301 420.6 781.101V652.701C420.6 644.501 427.3 637.801 435.5 637.801H654.1C662.3 637.801 669 644.501 669 652.701V781.101C669.1 789.301 662.3 796.001 654.1 796.001Z" fill="#007BFF"/>
<path d="M679.3 826.302H411.3C407.3 826.302 404.1 823.002 404.1 819.102C404.1 815.102 407.4 811.902 411.3 811.902H679.3C683.3 811.902 686.5 815.202 686.5 819.102C686.5 823.002 683.2 826.302 679.3 826.302Z" stroke="#007BFF" stroke-width="0.8509" stroke-miterlimit="10"/>
<path d="M933.2 287.098C990.969 287.098 1037.8 240.267 1037.8 182.498C1037.8 124.729 990.969 77.8984 933.2 77.8984C875.431 77.8984 828.6 124.729 828.6 182.498C828.6 240.267 875.431 287.098 933.2 287.098Z" stroke="#007BFF" stroke-miterlimit="10"/>
<path d="M813.1 188.9L823.9 178.1C826.7 175.3 831.3 175.3 834.1 178.1L844.9 188.9" stroke="#007BFF" stroke-width="4" stroke-miterlimit="10" stroke-linecap="round"/>
<path d="M1054.1 176.102L1043.3 186.902C1040.5 189.702 1035.9 189.702 1033.1 186.902L1022.3 176.102" stroke="#007BFF" stroke-width="4" stroke-miterlimit="10" stroke-linecap="round"/>
<path d="M927.9 62L938.7 72.8C941.5 75.6 941.5 80.2 938.7 83L927.9 93.8" stroke="#007BFF" stroke-width="4" stroke-miterlimit="10" stroke-linecap="round"/>
<path d="M940.8 302.999L930 292.199C927.2 289.399 927.2 284.799 930 281.999L940.8 271.199" stroke="#007BFF" stroke-width="4" stroke-miterlimit="10" stroke-linecap="round"/>
<path d="M743.6 173.5L755.2 185.1C757.6 187.5 757.6 191.3 755.2 193.7L743.6 205.3" stroke="#007BFF" stroke-width="4" stroke-miterlimit="10" stroke-linecap="round"/>
<path d="M750.699 189.398H697.699" stroke="#007BFF" stroke-width="4" stroke-miterlimit="10" stroke-linecap="round"/>
<path d="M1144.1 173.102L1155.7 184.702C1158.1 187.102 1158.1 190.902 1155.7 193.302L1144.1 204.902" stroke="#007BFF" stroke-width="4" stroke-miterlimit="10" stroke-linecap="round"/>
<path d="M1151.2 189H1098.2" stroke="#007BFF" stroke-width="4" stroke-miterlimit="10" stroke-linecap="round"/>
<path d="M1111.6 739.902L1100 728.302C1097.6 725.902 1097.6 722.102 1100 719.702L1111.6 708.102" stroke="#007BFF" stroke-width="4" stroke-miterlimit="10" stroke-linecap="round"/>
<path d="M1104.4 724H1157.4" stroke="#007BFF" stroke-width="4" stroke-miterlimit="10" stroke-linecap="round"/>
<path d="M742.099 739.902L730.499 728.302C728.099 725.902 728.099 722.102 730.499 719.702L742.099 708.102" stroke="#007BFF" stroke-width="4" stroke-miterlimit="10" stroke-linecap="round"/>
<path d="M735 724H788" stroke="#007BFF" stroke-width="4" stroke-miterlimit="10" stroke-linecap="round"/>
<path d="M1335.9 518.898L1324.3 530.498C1321.9 532.898 1318.1 532.898 1315.7 530.498L1304.1 518.898" stroke="#007BFF" stroke-width="4" stroke-miterlimit="10" stroke-linecap="round"/>
<path d="M1320 526V473" stroke="#007BFF" stroke-width="4" stroke-miterlimit="10" stroke-linecap="round"/>
<path d="M379 173.102L390.6 184.702C393 187.102 393 190.902 390.6 193.302L379 204.902" stroke="#007BFF" stroke-width="4" stroke-miterlimit="10" stroke-linecap="round"/>
<path d="M386.199 189H333.199" stroke="#007BFF" stroke-width="4" stroke-miterlimit="10" stroke-linecap="round"/>
<path d="M27.5971 370.494C32.9551 370.494 36.1471 367.112 36.1471 361.336V342.868H32.7271V361.374C32.7271 365.478 30.7131 367.378 27.6731 367.378C24.5191 367.378 22.5811 365.592 22.2771 361.83H18.8571C19.1991 367.454 22.6191 370.494 27.5971 370.494ZM54.8443 370H57.8843V356.966C57.8843 352.672 54.8063 350.354 49.9803 350.354C45.6863 350.354 42.6463 352.406 42.3803 355.94H45.6103C45.7623 354.268 47.2063 353.166 50.0563 353.166C53.4003 353.166 54.7303 354.838 54.7303 357.156V357.916H48.4983C43.1783 357.916 41.1643 361.184 41.1643 364.262C41.1643 367.53 43.6343 370.494 48.0423 370.494C50.7783 370.494 52.8303 369.468 54.0083 367.986H54.8443V370ZM48.8403 367.682C45.9903 367.682 44.3943 366.314 44.3943 364.148C44.3943 361.868 45.8383 360.5 48.9923 360.5H54.7303V362.248C54.7303 365.288 52.0323 367.682 48.8403 367.682ZM67.8646 370H73.9066L80.3286 350.848H76.9466L71.7786 366.96H70.2206L64.8626 350.848H61.5186L67.8646 370ZM96.1099 370H99.1499V356.966C99.1499 352.672 96.0719 350.354 91.2459 350.354C86.9519 350.354 83.9119 352.406 83.6459 355.94H86.8759C87.0279 354.268 88.4719 353.166 91.3219 353.166C94.6659 353.166 95.9959 354.838 95.9959 357.156V357.916H89.7639C84.4439 357.916 82.4299 361.184 82.4299 364.262C82.4299 367.53 84.8999 370.494 89.3079 370.494C92.0439 370.494 94.0959 369.468 95.2739 367.986H96.1099V370ZM90.1059 367.682C87.2559 367.682 85.6599 366.314 85.6599 364.148C85.6599 361.868 87.1039 360.5 90.2579 360.5H95.9959V362.248C95.9959 365.288 93.2979 367.682 90.1059 367.682ZM115.982 342.868V370H126.128C134.45 370 138.668 364.566 138.668 356.434C138.668 348.264 134.45 342.868 126.128 342.868H115.982ZM119.402 366.884V345.984H126.128C132.702 345.984 135.21 350.772 135.21 356.434C135.21 362.096 132.702 366.884 126.128 366.884H119.402ZM160.487 359.284C160.373 354.572 157.637 350.354 151.937 350.354C146.123 350.354 142.703 354.344 142.703 360.234C142.703 366.124 146.047 370.494 152.013 370.494C156.763 370.494 159.537 367.986 160.145 364.718H156.877C156.307 366.542 154.711 367.682 152.013 367.682C148.061 367.682 146.009 364.946 145.895 360.386H160.487V359.284ZM151.861 353.166C155.091 353.166 156.953 355.256 157.143 357.688H146.085C146.503 355.256 148.403 353.166 151.861 353.166ZM169.581 370H175.623L182.045 350.848H178.663L173.495 366.96H171.937L166.579 350.848H163.235L169.581 370ZM202.309 359.284C202.195 354.572 199.459 350.354 193.759 350.354C187.945 350.354 184.525 354.344 184.525 360.234C184.525 366.124 187.869 370.494 193.835 370.494C198.585 370.494 201.359 367.986 201.967 364.718H198.699C198.129 366.542 196.533 367.682 193.835 367.682C189.883 367.682 187.831 364.946 187.717 360.386H202.309V359.284ZM193.683 353.166C196.913 353.166 198.775 355.256 198.965 357.688H187.907C188.325 355.256 190.225 353.166 193.683 353.166ZM207.338 342.374V370H210.568V342.374H207.338ZM225.047 350.354C219.043 350.354 215.623 354.762 215.623 360.424C215.623 366.086 219.043 370.494 225.047 370.494C231.013 370.494 234.471 366.086 234.471 360.424C234.471 354.762 231.013 350.354 225.047 350.354ZM225.047 367.682C220.791 367.682 218.853 364.186 218.853 360.424C218.853 356.662 220.791 353.166 225.047 353.166C229.265 353.166 231.241 356.662 231.241 360.424C231.241 364.186 229.265 367.682 225.047 367.682ZM248.708 353.166C252.546 353.166 254.598 356.168 254.598 360.424C254.598 364.68 252.546 367.682 248.708 367.682C244.452 367.682 242.704 364.186 242.704 360.424C242.704 356.662 244.452 353.166 248.708 353.166ZM239.512 350.848V377.6H242.742V367.948H243.578C244.604 369.316 246.39 370.494 249.43 370.494C254.712 370.494 257.828 366.2 257.828 360.424C257.828 354.762 254.712 350.354 249.43 350.354C246.39 350.354 244.528 351.57 243.464 352.9H242.628V350.848H239.512ZM279.496 359.284C279.382 354.572 276.646 350.354 270.946 350.354C265.132 350.354 261.712 354.344 261.712 360.234C261.712 366.124 265.056 370.494 271.022 370.494C275.772 370.494 278.546 367.986 279.154 364.718H275.886C275.316 366.542 273.72 367.682 271.022 367.682C267.07 367.682 265.018 364.946 264.904 360.386H279.496V359.284ZM270.87 353.166C274.1 353.166 275.962 355.256 276.152 357.688H265.094C265.512 355.256 267.412 353.166 270.87 353.166ZM295.469 350.848H294.025C291.251 350.848 289.427 351.95 288.477 353.128H287.641V350.848H284.525V370H287.755V360.424C287.755 356.206 290.073 353.888 293.873 353.888H295.469V350.848Z" fill="#082E51"/>
<path d="M504.242 370V365.592H500.29V370H504.242ZM514.115 345.87V342.374H510.695V345.87H514.115ZM507.883 377.6C511.835 377.6 514.039 375.244 514.039 371.026V350.848H510.809V370.912C510.809 373.382 509.859 374.788 507.237 374.788H505.489V377.6H507.883ZM532.532 370H535.572V356.966C535.572 352.672 532.494 350.354 527.668 350.354C523.374 350.354 520.334 352.406 520.068 355.94H523.298C523.45 354.268 524.894 353.166 527.744 353.166C531.088 353.166 532.418 354.838 532.418 357.156V357.916H526.186C520.866 357.916 518.852 361.184 518.852 364.262C518.852 367.53 521.322 370.494 525.73 370.494C528.466 370.494 530.518 369.468 531.696 367.986H532.532V370ZM526.528 367.682C523.678 367.682 522.082 366.314 522.082 364.148C522.082 361.868 523.526 360.5 526.68 360.5H532.418V362.248C532.418 365.288 529.72 367.682 526.528 367.682ZM545.552 370H551.594L558.016 350.848H554.634L549.466 366.96H547.908L542.55 350.848H539.206L545.552 370ZM573.797 370H576.837V356.966C576.837 352.672 573.759 350.354 568.933 350.354C564.639 350.354 561.599 352.406 561.333 355.94H564.563C564.715 354.268 566.159 353.166 569.009 353.166C572.353 353.166 573.683 354.838 573.683 357.156V357.916H567.451C562.131 357.916 560.117 361.184 560.117 364.262C560.117 367.53 562.587 370.494 566.995 370.494C569.731 370.494 571.783 369.468 572.961 367.986H573.797V370ZM567.793 367.682C564.943 367.682 563.347 366.314 563.347 364.148C563.347 361.868 564.791 360.5 567.945 360.5H573.683V362.248C573.683 365.288 570.985 367.682 567.793 367.682ZM421.237 393.144C421.237 385.62 424.049 380.3 427.089 376.158H423.973C420.857 380.11 418.197 385.658 418.197 393.144C418.197 400.706 420.933 406.444 424.239 410.358H427.355C424.239 406.216 421.237 400.782 421.237 393.144ZM435.608 393.068C433.67 392.764 432.72 392.194 432.72 390.712C432.72 389.078 434.392 388.166 436.862 388.166C439.256 388.166 441.08 389.002 441.346 390.826H444.576C444.158 387.482 441.536 385.354 437.014 385.354C431.846 385.354 429.452 387.824 429.452 391.016C429.452 393.904 431.314 395.348 434.05 395.842L438.344 396.564C440.776 396.982 441.84 397.894 441.84 399.566C441.84 401.656 439.94 402.682 437.052 402.682C434.164 402.682 432.264 401.618 431.96 399.452H428.692C429.11 403.1 431.77 405.494 437.204 405.494C442.372 405.494 445.07 402.644 445.07 399.49C445.07 395.994 442.942 394.284 439.598 393.714L437.432 393.372L435.608 393.068ZM458.053 385.354C452.049 385.354 448.629 389.762 448.629 395.424C448.629 401.086 452.049 405.494 458.053 405.494C464.019 405.494 467.477 401.086 467.477 395.424C467.477 389.762 464.019 385.354 458.053 385.354ZM458.053 402.682C453.797 402.682 451.859 399.186 451.859 395.424C451.859 391.662 453.797 388.166 458.053 388.166C462.271 388.166 464.247 391.662 464.247 395.424C464.247 399.186 462.271 402.682 458.053 402.682ZM472.214 385.848V398.008C472.214 402.606 474.798 405.494 479.51 405.494C482.094 405.494 484.222 404.43 485.286 402.948H486.122V405H489.238V385.848H486.008V396.222C486.008 399.68 483.69 402.606 480.308 402.606C477.078 402.606 475.444 400.858 475.444 397.324V385.848H472.214ZM506.396 385.848H504.952C502.178 385.848 500.354 386.95 499.404 388.128H498.568V385.848H495.452V405H498.682V395.424C498.682 391.206 501 388.888 504.8 388.888H506.396V385.848ZM523.588 399.224C523.094 401.352 521.498 402.682 518.762 402.682C514.468 402.682 512.682 399.186 512.682 395.348C512.682 391.548 514.43 388.166 518.762 388.166C521.384 388.166 522.866 389.458 523.474 391.396H526.704C526.058 387.862 523.322 385.354 518.762 385.354C512.796 385.354 509.452 389.648 509.452 395.424C509.452 401.086 512.796 405.494 518.762 405.494C523.208 405.494 526.096 402.986 526.818 399.224H523.588ZM548.24 394.284C548.126 389.572 545.39 385.354 539.69 385.354C533.876 385.354 530.456 389.344 530.456 395.234C530.456 401.124 533.8 405.494 539.766 405.494C544.516 405.494 547.29 402.986 547.898 399.718H544.63C544.06 401.542 542.464 402.682 539.766 402.682C535.814 402.682 533.762 399.946 533.648 395.386H548.24V394.284ZM539.614 388.166C542.844 388.166 544.706 390.256 544.896 392.688H533.838C534.256 390.256 536.156 388.166 539.614 388.166ZM576.803 399.224C576.309 401.352 574.713 402.682 571.977 402.682C567.683 402.682 565.897 399.186 565.897 395.348C565.897 391.548 567.645 388.166 571.977 388.166C574.599 388.166 576.081 389.458 576.689 391.396H579.919C579.273 387.862 576.537 385.354 571.977 385.354C566.011 385.354 562.667 389.648 562.667 395.424C562.667 401.086 566.011 405.494 571.977 405.494C576.423 405.494 579.311 402.986 580.033 399.224H576.803ZM593.094 385.354C587.09 385.354 583.67 389.762 583.67 395.424C583.67 401.086 587.09 405.494 593.094 405.494C599.06 405.494 602.518 401.086 602.518 395.424C602.518 389.762 599.06 385.354 593.094 385.354ZM593.094 402.682C588.838 402.682 586.9 399.186 586.9 395.424C586.9 391.662 588.838 388.166 593.094 388.166C597.312 388.166 599.288 391.662 599.288 395.424C599.288 399.186 597.312 402.682 593.094 402.682ZM621.467 377.374V387.9H620.631C619.567 386.532 617.819 385.354 614.779 385.354C609.497 385.354 606.381 389.648 606.381 395.424C606.381 401.086 609.497 405.494 614.779 405.494C617.819 405.494 619.681 404.278 620.745 402.948H621.581V405H624.697V377.374H621.467ZM615.501 402.682C611.663 402.682 609.611 399.68 609.611 395.424C609.611 391.168 611.663 388.166 615.501 388.166C619.757 388.166 621.505 391.662 621.505 395.424C621.505 399.186 619.757 402.682 615.501 402.682ZM647.544 394.284C647.43 389.572 644.694 385.354 638.994 385.354C633.18 385.354 629.76 389.344 629.76 395.234C629.76 401.124 633.104 405.494 639.07 405.494C643.82 405.494 646.594 402.986 647.202 399.718H643.934C643.364 401.542 641.768 402.682 639.07 402.682C635.118 402.682 633.066 399.946 632.952 395.386H647.544V394.284ZM638.918 388.166C642.148 388.166 644.01 390.256 644.2 392.688H633.142C633.56 390.256 635.46 388.166 638.918 388.166ZM655.765 393.144C655.765 400.782 652.763 406.216 649.647 410.358H652.763C656.069 406.444 658.805 400.706 658.805 393.144C658.805 385.658 656.145 380.11 653.029 376.158H649.913C652.953 380.3 655.765 385.62 655.765 393.144Z" fill="#082E51"/>
<path d="M1279.65 370V365.592H1275.7V370H1279.65ZM1297.64 364.224C1297.15 366.352 1295.55 367.682 1292.82 367.682C1288.52 367.682 1286.74 364.186 1286.74 360.348C1286.74 356.548 1288.48 353.166 1292.82 353.166C1295.44 353.166 1296.92 354.458 1297.53 356.396H1300.76C1300.11 352.862 1297.38 350.354 1292.82 350.354C1286.85 350.354 1283.51 354.648 1283.51 360.424C1283.51 366.086 1286.85 370.494 1292.82 370.494C1297.26 370.494 1300.15 367.986 1300.87 364.224H1297.64ZM1305.69 342.374V370H1308.92V342.374H1305.69ZM1327.35 370H1330.39V356.966C1330.39 352.672 1327.31 350.354 1322.49 350.354C1318.19 350.354 1315.15 352.406 1314.89 355.94H1318.12C1318.27 354.268 1319.71 353.166 1322.56 353.166C1325.91 353.166 1327.24 354.838 1327.24 357.156V357.916H1321C1315.68 357.916 1313.67 361.184 1313.67 364.262C1313.67 367.53 1316.14 370.494 1320.55 370.494C1323.28 370.494 1325.34 369.468 1326.51 367.986H1327.35V370ZM1321.35 367.682C1318.5 367.682 1316.9 366.314 1316.9 364.148C1316.9 361.868 1318.34 360.5 1321.5 360.5H1327.24V362.248C1327.24 365.288 1324.54 367.682 1321.35 367.682ZM1341.62 358.068C1339.69 357.764 1338.74 357.194 1338.74 355.712C1338.74 354.078 1340.41 353.166 1342.88 353.166C1345.27 353.166 1347.1 354.002 1347.36 355.826H1350.59C1350.17 352.482 1347.55 350.354 1343.03 350.354C1337.86 350.354 1335.47 352.824 1335.47 356.016C1335.47 358.904 1337.33 360.348 1340.07 360.842L1344.36 361.564C1346.79 361.982 1347.86 362.894 1347.86 364.566C1347.86 366.656 1345.96 367.682 1343.07 367.682C1340.18 367.682 1338.28 366.618 1337.98 364.452H1334.71C1335.13 368.1 1337.79 370.494 1343.22 370.494C1348.39 370.494 1351.09 367.644 1351.09 364.49C1351.09 360.994 1348.96 359.284 1345.61 358.714L1343.45 358.372L1341.62 358.068ZM1361.14 358.068C1359.21 357.764 1358.26 357.194 1358.26 355.712C1358.26 354.078 1359.93 353.166 1362.4 353.166C1364.79 353.166 1366.62 354.002 1366.88 355.826H1370.11C1369.69 352.482 1367.07 350.354 1362.55 350.354C1357.38 350.354 1354.99 352.824 1354.99 356.016C1354.99 358.904 1356.85 360.348 1359.59 360.842L1363.88 361.564C1366.31 361.982 1367.38 362.894 1367.38 364.566C1367.38 366.656 1365.48 367.682 1362.59 367.682C1359.7 367.682 1357.8 366.618 1357.5 364.452H1354.23C1354.65 368.1 1357.31 370.494 1362.74 370.494C1367.91 370.494 1370.61 367.644 1370.61 364.49C1370.61 360.994 1368.48 359.284 1365.13 358.714L1362.97 358.372L1361.14 358.068ZM1231.96 393.144C1231.96 385.62 1234.77 380.3 1237.81 376.158H1234.69C1231.58 380.11 1228.92 385.658 1228.92 393.144C1228.92 400.706 1231.65 406.444 1234.96 410.358H1238.07C1234.96 406.216 1231.96 400.782 1231.96 393.144ZM1251.3 385.354C1248.26 385.354 1246.47 386.532 1245.44 387.9H1244.61V377.374H1241.38V405H1244.49V402.948H1245.33C1246.39 404.278 1248.26 405.494 1251.3 405.494C1256.58 405.494 1259.69 401.086 1259.69 395.424C1259.69 389.648 1256.58 385.354 1251.3 385.354ZM1250.57 402.682C1246.32 402.682 1244.57 399.186 1244.57 395.424C1244.57 391.662 1246.32 388.166 1250.57 388.166C1254.41 388.166 1256.46 391.168 1256.46 395.424C1256.46 399.68 1254.41 402.682 1250.57 402.682ZM1269.92 412.6L1281.4 385.848H1278.02L1272.7 398.464H1271.75L1265.9 385.848H1262.44L1270.61 403.214L1266.66 412.6H1269.92ZM1289.65 385.848V380.072H1286.42V385.848H1283.11V388.66H1286.42V399.642C1286.42 403.708 1288.85 405 1292.99 405H1294.48V402.112H1293.07C1290.49 402.112 1289.65 401.124 1289.65 399.186V388.66H1294.48V385.848H1289.65ZM1316.1 394.284C1315.98 389.572 1313.25 385.354 1307.55 385.354C1301.73 385.354 1298.31 389.344 1298.31 395.234C1298.31 401.124 1301.66 405.494 1307.62 405.494C1312.37 405.494 1315.15 402.986 1315.76 399.718H1312.49C1311.92 401.542 1310.32 402.682 1307.62 402.682C1303.67 402.682 1301.62 399.946 1301.51 395.386H1316.1V394.284ZM1307.47 388.166C1310.7 388.166 1312.56 390.256 1312.75 392.688H1301.7C1302.11 390.256 1304.01 388.166 1307.47 388.166ZM1334.08 399.224C1333.59 401.352 1331.99 402.682 1329.26 402.682C1324.96 402.682 1323.18 399.186 1323.18 395.348C1323.18 391.548 1324.93 388.166 1329.26 388.166C1331.88 388.166 1333.36 389.458 1333.97 391.396H1337.2C1336.55 387.862 1333.82 385.354 1329.26 385.354C1323.29 385.354 1319.95 389.648 1319.95 395.424C1319.95 401.086 1323.29 405.494 1329.26 405.494C1333.7 405.494 1336.59 402.986 1337.31 399.224H1334.08ZM1350.38 385.354C1344.37 385.354 1340.95 389.762 1340.95 395.424C1340.95 401.086 1344.37 405.494 1350.38 405.494C1356.34 405.494 1359.8 401.086 1359.8 395.424C1359.8 389.762 1356.34 385.354 1350.38 385.354ZM1350.38 402.682C1346.12 402.682 1344.18 399.186 1344.18 395.424C1344.18 391.662 1346.12 388.166 1350.38 388.166C1354.59 388.166 1356.57 391.662 1356.57 395.424C1356.57 399.186 1354.59 402.682 1350.38 402.682ZM1378.75 377.374V387.9H1377.91C1376.85 386.532 1375.1 385.354 1372.06 385.354C1366.78 385.354 1363.66 389.648 1363.66 395.424C1363.66 401.086 1366.78 405.494 1372.06 405.494C1375.1 405.494 1376.96 404.278 1378.03 402.948H1378.86V405H1381.98V377.374H1378.75ZM1372.78 402.682C1368.94 402.682 1366.89 399.68 1366.89 395.424C1366.89 391.168 1368.94 388.166 1372.78 388.166C1377.04 388.166 1378.79 391.662 1378.79 395.424C1378.79 399.186 1377.04 402.682 1372.78 402.682ZM1404.83 394.284C1404.71 389.572 1401.98 385.354 1396.28 385.354C1390.46 385.354 1387.04 389.344 1387.04 395.234C1387.04 401.124 1390.39 405.494 1396.35 405.494C1401.1 405.494 1403.88 402.986 1404.48 399.718H1401.22C1400.65 401.542 1399.05 402.682 1396.35 402.682C1392.4 402.682 1390.35 399.946 1390.23 395.386H1404.83V394.284ZM1396.2 388.166C1399.43 388.166 1401.29 390.256 1401.48 392.688H1390.42C1390.84 390.256 1392.74 388.166 1396.2 388.166ZM1413.05 393.144C1413.05 400.782 1410.04 406.216 1406.93 410.358H1410.04C1413.35 406.444 1416.09 400.706 1416.09 393.144C1416.09 385.658 1413.43 380.11 1410.31 376.158H1407.19C1410.23 380.3 1413.05 385.62 1413.05 393.144Z" fill="#082E51"/>
<path d="M476.914 903.286C476.04 906.44 473.57 908.378 469.77 908.378C463.462 908.378 460.688 903.21 460.688 897.434C460.688 891.696 463.5 886.49 469.808 886.49C473.57 886.49 475.584 888.086 476.61 890.974H480.22C479.118 886.3 475.318 883.374 469.808 883.374C461.752 883.374 457.23 889.378 457.23 897.434C457.23 905.49 461.676 911.494 469.77 911.494C475.736 911.494 479.422 908.112 480.524 903.286H476.914ZM493.777 891.354C487.773 891.354 484.353 895.762 484.353 901.424C484.353 907.086 487.773 911.494 493.777 911.494C499.743 911.494 503.201 907.086 503.201 901.424C503.201 895.762 499.743 891.354 493.777 891.354ZM493.777 908.682C489.521 908.682 487.583 905.186 487.583 901.424C487.583 897.662 489.521 894.166 493.777 894.166C497.995 894.166 499.971 897.662 499.971 901.424C499.971 905.186 497.995 908.682 493.777 908.682ZM528.344 891.354C525.95 891.354 524.126 892.19 522.948 893.9H522.112C521.086 892.19 519.376 891.354 517.058 891.354C514.626 891.354 513.144 892.228 512.194 893.71H511.358V891.848H508.242V911H511.472V900.398C511.472 896.94 512.992 894.242 516.184 894.242C518.578 894.242 519.832 895.876 519.832 899.03V911H523.062V899.79C523.062 896.56 524.734 894.242 527.736 894.242C530.206 894.242 531.422 895.8 531.422 898.954V911H534.652V898.612C534.652 894.204 532.752 891.354 528.344 891.354ZM549.76 894.166C553.598 894.166 555.65 897.168 555.65 901.424C555.65 905.68 553.598 908.682 549.76 908.682C545.504 908.682 543.756 905.186 543.756 901.424C543.756 897.662 545.504 894.166 549.76 894.166ZM540.564 891.848V918.6H543.794V908.948H544.63C545.656 910.316 547.442 911.494 550.482 911.494C555.764 911.494 558.88 907.2 558.88 901.424C558.88 895.762 555.764 891.354 550.482 891.354C547.442 891.354 545.58 892.57 544.516 893.9H543.68V891.848H540.564ZM563.639 891.848V904.008C563.639 908.606 566.223 911.494 570.935 911.494C573.519 911.494 575.647 910.43 576.711 908.948H577.547V911H580.663V891.848H577.433V902.222C577.433 905.68 575.115 908.606 571.733 908.606C568.503 908.606 566.869 906.858 566.869 903.324V891.848H563.639ZM591.323 891.848V886.072H588.093V891.848H584.787V894.66H588.093V905.642C588.093 909.708 590.525 911 594.667 911H596.149V908.112H594.743C592.159 908.112 591.323 907.124 591.323 905.186V894.66H596.149V891.848H591.323ZM617.77 900.284C617.656 895.572 614.92 891.354 609.22 891.354C603.406 891.354 599.986 895.344 599.986 901.234C599.986 907.124 603.33 911.494 609.296 911.494C614.046 911.494 616.82 908.986 617.428 905.718H614.16C613.59 907.542 611.994 908.682 609.296 908.682C605.344 908.682 603.292 905.946 603.178 901.386H617.77V900.284ZM609.144 894.166C612.374 894.166 614.236 896.256 614.426 898.688H603.368C603.786 896.256 605.686 894.166 609.144 894.166ZM633.743 891.848H632.299C629.525 891.848 627.701 892.95 626.751 894.128H625.915V891.848H622.799V911H626.029V901.424C626.029 897.206 628.347 894.888 632.147 894.888H633.743V891.848Z" fill="#082E51"/>
<path d="M861.954 907.77V883.868H858.534V911H877.192V907.77H861.954ZM889.817 891.354C883.813 891.354 880.393 895.762 880.393 901.424C880.393 907.086 883.813 911.494 889.817 911.494C895.783 911.494 899.241 907.086 899.241 901.424C899.241 895.762 895.783 891.354 889.817 891.354ZM889.817 908.682C885.561 908.682 883.623 905.186 883.623 901.424C883.623 897.662 885.561 894.166 889.817 894.166C894.035 894.166 896.011 897.662 896.011 901.424C896.011 905.186 894.035 908.682 889.817 908.682ZM912.338 898.118L909.07 907.58H908.234L905.954 891.848H902.838L905.574 911H910.59L913.934 901.31H914.732L918.076 911H923.016L925.79 891.848H922.674L920.47 907.58H919.634L916.442 898.118H912.338ZM939.675 901.88V899.03H929.301V901.88H939.675ZM944.657 883.374V911H947.887V883.374H944.657ZM970.726 900.284C970.612 895.572 967.876 891.354 962.176 891.354C956.362 891.354 952.942 895.344 952.942 901.234C952.942 907.124 956.286 911.494 962.252 911.494C967.002 911.494 969.776 908.986 970.384 905.718H967.116C966.546 907.542 964.95 908.682 962.252 908.682C958.3 908.682 956.248 905.946 956.134 901.386H970.726V900.284ZM962.1 894.166C965.33 894.166 967.192 896.256 967.382 898.688H956.324C956.742 896.256 958.642 894.166 962.1 894.166ZM979.821 911H985.863L992.285 891.848H988.903L983.735 907.96H982.177L976.819 891.848H973.475L979.821 911ZM1012.55 900.284C1012.43 895.572 1009.7 891.354 1004 891.354C998.184 891.354 994.764 895.344 994.764 901.234C994.764 907.124 998.108 911.494 1004.07 911.494C1008.82 911.494 1011.6 908.986 1012.21 905.718H1008.94C1008.37 907.542 1006.77 908.682 1004.07 908.682C1000.12 908.682 998.07 905.946 997.956 901.386H1012.55V900.284ZM1003.92 894.166C1007.15 894.166 1009.01 896.256 1009.2 898.688H998.146C998.564 896.256 1000.46 894.166 1003.92 894.166ZM1017.58 883.374V911H1020.81V883.374H1017.58ZM911.21 940.224C910.716 942.352 909.12 943.682 906.384 943.682C902.09 943.682 900.304 940.186 900.304 936.348C900.304 932.548 902.052 929.166 906.384 929.166C909.006 929.166 910.488 930.458 911.096 932.396H914.326C913.68 928.862 910.944 926.354 906.384 926.354C900.418 926.354 897.074 930.648 897.074 936.424C897.074 942.086 900.418 946.494 906.384 946.494C910.83 946.494 913.718 943.986 914.44 940.224H911.21ZM927.502 926.354C921.498 926.354 918.078 930.762 918.078 936.424C918.078 942.086 921.498 946.494 927.502 946.494C933.468 946.494 936.926 942.086 936.926 936.424C936.926 930.762 933.468 926.354 927.502 926.354ZM927.502 943.682C923.246 943.682 921.308 940.186 921.308 936.424C921.308 932.662 923.246 929.166 927.502 929.166C931.72 929.166 933.696 932.662 933.696 936.424C933.696 940.186 931.72 943.682 927.502 943.682ZM955.875 918.374V928.9H955.039C953.975 927.532 952.227 926.354 949.187 926.354C943.905 926.354 940.789 930.648 940.789 936.424C940.789 942.086 943.905 946.494 949.187 946.494C952.227 946.494 954.089 945.278 955.153 943.948H955.989V946H959.105V918.374H955.875ZM949.909 943.682C946.071 943.682 944.019 940.68 944.019 936.424C944.019 932.168 946.071 929.166 949.909 929.166C954.165 929.166 955.913 932.662 955.913 936.424C955.913 940.186 954.165 943.682 949.909 943.682ZM981.951 935.284C981.837 930.572 979.101 926.354 973.401 926.354C967.587 926.354 964.167 930.344 964.167 936.234C964.167 942.124 967.511 946.494 973.477 946.494C978.227 946.494 981.001 943.986 981.609 940.718H978.341C977.771 942.542 976.175 943.682 973.477 943.682C969.525 943.682 967.473 940.946 967.359 936.386H981.951V935.284ZM973.325 929.166C976.555 929.166 978.417 931.256 978.607 933.688H967.549C967.967 931.256 969.867 929.166 973.325 929.166Z" fill="#082E51"/>
<path d="M1290.55 911.494C1295.91 911.494 1299.1 908.112 1299.1 902.336V883.868H1295.68V902.374C1295.68 906.478 1293.67 908.378 1290.63 908.378C1287.47 908.378 1285.53 906.592 1285.23 902.83H1281.81C1282.15 908.454 1285.57 911.494 1290.55 911.494ZM1311.91 911H1318.44L1327.11 883.868H1323.57L1316.16 907.504H1314.26L1306.85 883.868H1303.24L1311.91 911ZM1331.32 911H1334.67V887.744H1335.5L1342.46 900.626H1346.03L1352.98 887.744H1353.82V911H1357.16V883.868H1351.43L1344.7 896.598H1343.86L1337.02 883.868H1331.32V911Z" fill="#082E51"/>
<path d="M875.968 362.286C875.094 365.44 872.624 367.378 868.824 367.378C862.516 367.378 859.742 362.21 859.742 356.434C859.742 350.696 862.554 345.49 868.862 345.49C872.624 345.49 874.638 347.086 875.664 349.974H879.274C878.172 345.3 874.372 342.374 868.862 342.374C860.806 342.374 856.284 348.378 856.284 356.434C856.284 364.49 860.73 370.494 868.824 370.494C874.79 370.494 878.476 367.112 879.578 362.286H875.968ZM892.832 350.354C886.828 350.354 883.408 354.762 883.408 360.424C883.408 366.086 886.828 370.494 892.832 370.494C898.798 370.494 902.256 366.086 902.256 360.424C902.256 354.762 898.798 350.354 892.832 350.354ZM892.832 367.682C888.576 367.682 886.638 364.186 886.638 360.424C886.638 356.662 888.576 353.166 892.832 353.166C897.05 353.166 899.026 356.662 899.026 360.424C899.026 364.186 897.05 367.682 892.832 367.682ZM927.399 350.354C925.005 350.354 923.181 351.19 922.003 352.9H921.167C920.141 351.19 918.431 350.354 916.113 350.354C913.681 350.354 912.199 351.228 911.249 352.71H910.413V350.848H907.297V370H910.527V359.398C910.527 355.94 912.047 353.242 915.239 353.242C917.633 353.242 918.887 354.876 918.887 358.03V370H922.117V358.79C922.117 355.56 923.789 353.242 926.791 353.242C929.261 353.242 930.477 354.8 930.477 357.954V370H933.707V357.612C933.707 353.204 931.807 350.354 927.399 350.354ZM948.815 353.166C952.653 353.166 954.705 356.168 954.705 360.424C954.705 364.68 952.653 367.682 948.815 367.682C944.559 367.682 942.811 364.186 942.811 360.424C942.811 356.662 944.559 353.166 948.815 353.166ZM939.619 350.848V377.6H942.849V367.948H943.685C944.711 369.316 946.497 370.494 949.537 370.494C954.819 370.494 957.935 366.2 957.935 360.424C957.935 354.762 954.819 350.354 949.537 350.354C946.497 350.354 944.635 351.57 943.571 352.9H942.735V350.848H939.619ZM966.418 345.87V342.374H962.998V345.87H966.418ZM966.304 350.848H963.074V370H966.304V350.848ZM972.646 342.374V370H975.876V342.374H972.646ZM998.715 359.284C998.601 354.572 995.865 350.354 990.165 350.354C984.351 350.354 980.931 354.344 980.931 360.234C980.931 366.124 984.275 370.494 990.241 370.494C994.991 370.494 997.765 367.986 998.373 364.718H995.105C994.535 366.542 992.939 367.682 990.241 367.682C986.289 367.682 984.237 364.946 984.123 360.386H998.715V359.284ZM990.089 353.166C993.319 353.166 995.181 355.256 995.371 357.688H984.313C984.731 355.256 986.631 353.166 990.089 353.166ZM1014.69 350.848H1013.24C1010.47 350.848 1008.65 351.95 1007.7 353.128H1006.86V350.848H1003.74V370H1006.97V360.424C1006.97 356.206 1009.29 353.888 1013.09 353.888H1014.69V350.848Z" fill="#082E51"/>
</g>
<defs>
<clipPath id="clip0">
<rect width="1474" height="1003" fill="white"/>
</clipPath>
</defs>
</svg>
