<svg width="1474" height="1236" viewBox="0 0 1474 1236" fill="none" xmlns="http://www.w3.org/2000/svg">
<g clip-path="url(#clip0)">
<rect width="1474" height="1236" fill="white"/>
<path d="M1141 162.199L1413.1 286.299C1422.8 290.699 1427.1 302.099 1422.7 311.799L1337.7 502.999L1034.8 364.899L1121.8 169.499C1125.1 162.099 1133.7 158.899 1141 162.199Z" fill="white" stroke="#007BFF" stroke-width="2" stroke-miterlimit="10" stroke-linecap="round" stroke-linejoin="round"/>
<path d="M1140.4 180.098L1404.6 300.598C1407.1 301.698 1408.2 304.598 1407.1 307.098L1332.3 475.298C1331.2 477.798 1328.3 478.898 1325.8 477.798L1061.6 357.298C1059.1 356.198 1058 353.298 1059.1 350.798L1133.9 182.598C1135 180.098 1137.9 178.998 1140.4 180.098Z" fill="white" stroke="#007BFF" stroke-width="2" stroke-miterlimit="10" stroke-linecap="round" stroke-linejoin="round"/>
<path d="M829.101 465.901V454.301L893.401 434.401L1032.6 370.301L1280.3 483.601L1339.2 500.701V513.701L1339 513.601C1339 515.501 1338 517.301 1336 518.201L1148.1 604.601C1140.1 608.301 1130.8 608.301 1122.7 604.601L831.801 472.001C829.301 470.901 828.401 468.201 829.101 465.901Z" fill="white" stroke="#007BFF" stroke-width="2" stroke-miterlimit="10" stroke-linecap="round" stroke-linejoin="round"/>
<path d="M1336.1 518.302L1148.2 604.702L1337.2 517.602C1336.8 517.902 1336.5 518.102 1336.1 518.302Z" fill="white" stroke="#007BFF" stroke-width="2" stroke-miterlimit="10" stroke-linecap="round" stroke-linejoin="round"/>
<path d="M1146.7 605.299C1147.2 605.099 1147.7 604.899 1148.2 604.699C1147.7 604.899 1147.2 605.099 1146.7 605.299Z" fill="white" stroke="#007BFF" stroke-width="2" stroke-miterlimit="10" stroke-linecap="round" stroke-linejoin="round"/>
<path d="M1332.4 498.801L1339.2 500.801V513.801L1339 513.701C1339 515.201 1338.4 516.601 1337.1 517.601L1148.1 604.701C1147.6 604.901 1147.1 605.101 1146.6 605.301V587.201C1176.5 577.301 1277.2 526.801 1332.4 498.801Z" fill="white" stroke="#007BFF" stroke-width="2" stroke-miterlimit="10" stroke-linecap="round" stroke-linejoin="round"/>
<path d="M1042.4 363.901L1336.1 497.901C1340.1 499.701 1340.1 505.401 1336.1 507.201L1148.2 593.301C1140.2 597.001 1130.9 597.001 1122.8 593.301L831.801 460.601C827.801 458.801 827.801 453.101 831.801 451.301L1022.5 363.901C1028.8 361.101 1036.1 361.101 1042.4 363.901Z" fill="white" stroke="#007BFF" stroke-width="2" stroke-miterlimit="10" stroke-linecap="round" stroke-linejoin="round"/>
<path d="M1307.9 484.198L1299.1 488.198C1298.3 488.598 1297.3 488.598 1296.5 488.198L1054.5 377.798C1053.5 377.298 1053.5 375.898 1054.5 375.398L1064 370.998C1064.3 370.798 1064.7 370.798 1065.1 370.998L1307.9 481.798C1308.9 482.298 1308.9 483.698 1307.9 484.198Z" fill="white" stroke="#007BFF" stroke-width="2" stroke-miterlimit="10" stroke-linecap="round" stroke-linejoin="round"/>
<path d="M1009 472.799L1086.3 508.099C1087.9 508.799 1087.9 510.999 1086.3 511.699L1035.7 534.999C1032.8 536.299 1029.4 536.399 1026.5 534.999L953.001 501.399C951.401 500.699 951.401 498.499 953.001 497.799L1007.4 472.799C1007.8 472.499 1008.5 472.499 1009 472.799Z" fill="white" stroke="#007BFF" stroke-width="2" stroke-miterlimit="10" stroke-linecap="round" stroke-linejoin="round"/>
<g opacity="0.87">
<path opacity="0.87" d="M1070.2 569C1070.2 569 1059.5 564 1043.4 556.6C1035.4 552.9 1026 548.6 1015.9 543.9C1005.8 539.3 995.101 534.4 984.301 529.5C973.501 524.6 962.801 519.7 952.701 515.1C942.601 510.5 933.201 506.3 925.101 502.6C908.901 495.4 898.101 490.5 898.101 490.5C897.901 490.4 897.801 490.5 897.701 490.7C897.601 490.9 897.701 491 897.901 491.1C897.901 491.1 908.601 496.1 924.701 503.5C932.701 507.2 942.101 511.5 952.201 516.2C962.301 520.8 973.001 525.7 983.801 530.6C994.601 535.5 1005.3 540.4 1015.4 545C1025.5 549.6 1034.9 553.8 1043 557.5C1059.2 564.7 1070 569.6 1070 569.6C1070.2 569.7 1070.3 569.6 1070.4 569.4C1070.4 569.3 1070.3 569.1 1070.2 569Z" fill="white" stroke="#007BFF" stroke-width="2" stroke-miterlimit="10" stroke-linecap="round" stroke-linejoin="round"/>
</g>
<path d="M1329.4 514.301V518.401C1329.4 518.701 1329.2 518.901 1329 519.001L1320.2 523.101C1319.7 523.301 1319.2 523.001 1319.2 522.501V518.401C1319.2 518.101 1319.4 517.901 1319.6 517.801L1328.4 513.701C1328.9 513.401 1329.4 513.801 1329.4 514.301Z" fill="white" stroke="#007BFF" stroke-width="2" stroke-miterlimit="10" stroke-linecap="round" stroke-linejoin="round"/>
<path d="M1310.1 522.799V526.899C1310.1 527.199 1309.9 527.399 1309.7 527.499L1300.9 531.599C1300.4 531.799 1299.9 531.499 1299.9 530.999V526.899C1299.9 526.599 1300.1 526.399 1300.3 526.299L1309.1 522.199C1309.6 521.999 1310.1 522.299 1310.1 522.799Z" fill="white" stroke="#007BFF" stroke-width="2" stroke-miterlimit="10" stroke-linecap="round" stroke-linejoin="round"/>
<path d="M957.602 439.299L966.902 443.499C968.602 444.299 971.302 444.299 972.902 443.499L974.602 442.699C975.002 442.499 975.302 442.199 975.502 441.999C975.902 442.599 975.602 443.299 974.602 443.799L972.902 444.599C971.202 445.399 968.502 445.399 966.902 444.599L957.602 440.399C956.602 439.899 956.302 439.299 956.802 438.699C956.902 438.899 957.202 439.099 957.602 439.299Z" fill="white" stroke="#007BFF" stroke-width="2" stroke-miterlimit="10" stroke-linecap="round" stroke-linejoin="round"/>
<path d="M1022.2 469.8L1109.7 509.7C1111.3 510.4 1114 510.4 1115.6 509.7L1128.3 503.9C1128.8 503.7 1129.1 503.4 1129.3 503.1C1129.7 503.8 1129.4 504.5 1128.3 505L1115.6 510.8C1114 511.5 1111.3 511.6 1109.7 510.8L1022.2 470.9C1021.1 470.4 1020.7 469.6 1021.2 469C1021.4 469.3 1021.7 469.6 1022.2 469.8Z" fill="white" stroke="#007BFF" stroke-width="2" stroke-miterlimit="10" stroke-linecap="round" stroke-linejoin="round"/>
<path d="M976.102 448.8L986.602 453.6C988.202 454.3 990.902 454.3 992.502 453.6L1005.2 447.8C1005.7 447.6 1006 447.3 1006.2 447C1006.6 447.7 1006.3 448.4 1005.2 448.9L992.502 454.7C990.902 455.4 988.202 455.5 986.602 454.7L976.102 449.9C975.002 449.4 974.602 448.6 975.102 448C975.302 448.3 975.602 448.5 976.102 448.8Z" fill="white" stroke="#007BFF" stroke-width="2" stroke-miterlimit="10" stroke-linecap="round" stroke-linejoin="round"/>
<path d="M1120.6 514.601L1134 520.701C1135.6 521.401 1138.3 521.401 1139.9 520.701L1152.6 514.901C1153.1 514.701 1153.4 514.401 1153.6 514.101C1154 514.801 1153.7 515.501 1152.6 516.001L1139.9 521.801C1138.3 522.501 1135.6 522.601 1134 521.801L1120.6 515.701C1119.5 515.201 1119.1 514.401 1119.6 513.801C1119.8 514.101 1120.1 514.401 1120.6 514.601Z" fill="white" stroke="#007BFF" stroke-width="2" stroke-miterlimit="10" stroke-linecap="round" stroke-linejoin="round"/>
<path d="M997.502 458.499L1011.4 464.899C1013 465.599 1015.7 465.599 1017.3 464.899L1030 459.099C1030.5 458.899 1030.8 458.599 1031 458.299C1031.4 458.999 1031.1 459.699 1030 460.199L1017.3 465.999C1015.7 466.699 1013 466.799 1011.4 465.999L997.502 459.599C996.402 459.099 996.002 458.299 996.502 457.699C996.702 457.999 997.002 458.299 997.502 458.499Z" fill="white" stroke="#007BFF" stroke-width="2" stroke-miterlimit="10" stroke-linecap="round" stroke-linejoin="round"/>
<path d="M1202.3 530.098C1202.5 530.398 1202.8 530.698 1203.3 530.898L1225.1 540.898C1226.7 541.598 1229.4 541.598 1231 540.898L1241.2 536.198C1241.7 535.998 1242 535.698 1242.2 535.398C1242.6 536.098 1242.3 536.798 1241.2 537.298L1231 541.998C1229.4 542.698 1226.7 542.798 1225.1 541.998L1203.3 531.998C1202.2 531.498 1201.8 530.698 1202.3 530.098Z" fill="white" stroke="#007BFF" stroke-width="2" stroke-miterlimit="10" stroke-linecap="round" stroke-linejoin="round"/>
<path d="M1144.8 525.698L1156.4 530.998C1158 531.698 1160.7 531.698 1162.3 530.998L1175 525.198C1175.5 524.998 1175.8 524.698 1176 524.398C1176.4 525.098 1176.1 525.798 1175 526.298L1162.3 532.098C1160.7 532.798 1158 532.898 1156.4 532.098L1144.8 526.798C1143.7 526.298 1143.3 525.498 1143.8 524.898C1144 525.198 1144.3 525.498 1144.8 525.698Z" fill="white" stroke="#007BFF" stroke-width="2" stroke-miterlimit="10" stroke-linecap="round" stroke-linejoin="round"/>
<path d="M1167.2 535.898L1177.3 540.498C1178.9 541.198 1181.6 541.198 1183.2 540.498L1195.9 534.698C1196.4 534.498 1196.7 534.198 1196.9 533.898C1197.3 534.598 1197 535.298 1195.9 535.798L1183.2 541.598C1181.6 542.298 1178.9 542.398 1177.3 541.598L1167.2 536.998C1166.1 536.498 1165.7 535.698 1166.2 535.098C1166.4 535.398 1166.7 535.698 1167.2 535.898Z" fill="white" stroke="#007BFF" stroke-width="2" stroke-miterlimit="10" stroke-linecap="round" stroke-linejoin="round"/>
<path d="M1188.1 545.398L1201.7 551.598C1203.3 552.298 1206 552.298 1207.6 551.598L1220.3 545.798C1220.8 545.598 1221.1 545.298 1221.3 544.998C1221.7 545.698 1221.4 546.398 1220.3 546.898L1207.6 552.698C1206 553.398 1203.3 553.498 1201.7 552.698L1188.1 546.498C1187 545.998 1186.6 545.198 1187.1 544.598C1187.3 544.898 1187.6 545.198 1188.1 545.398Z" fill="white" stroke="#007BFF" stroke-width="2" stroke-miterlimit="10" stroke-linecap="round" stroke-linejoin="round"/>
<path d="M1106.2 439.499L1099.1 442.799C1097.5 443.499 1096.1 443.699 1096 443.799C1095.9 443.899 1094.3 443.899 1092.7 443.199L1081.5 438.099C1080.4 437.599 1080 436.799 1080.5 436.199C1080.7 436.499 1081 436.799 1081.5 436.999L1092.7 442.099C1094.3 442.799 1095.9 442.799 1096 442.699C1096.1 442.599 1097.5 442.399 1099.1 441.699L1106.2 438.399C1106.7 438.199 1107 437.899 1107.2 437.599C1107.7 438.299 1107.4 438.999 1106.2 439.499Z" fill="white" stroke="#007BFF" stroke-width="2" stroke-miterlimit="10" stroke-linecap="round" stroke-linejoin="round"/>
<path d="M951.202 436.398C953.002 437.198 955.902 437.198 957.602 436.398L959.702 435.398C960.002 435.298 960.202 435.098 960.402 434.898C960.602 435.098 960.702 435.398 960.602 435.598C960.202 435.698 959.902 435.798 959.602 435.898L957.602 436.798C957.002 437.098 956.702 437.398 956.602 437.698C954.902 438.098 952.702 437.998 951.202 437.398L941.502 432.998C940.602 432.598 940.402 431.898 940.802 431.398C941.002 431.598 941.202 431.698 941.502 431.898L951.202 436.398Z" fill="white" stroke="#007BFF" stroke-width="2" stroke-miterlimit="10" stroke-linecap="round" stroke-linejoin="round"/>
<path d="M1129 449.899L1121.4 453.399C1119.8 454.099 1118.4 454.199 1118.4 454.199C1118.4 454.199 1117.1 454.199 1115.4 453.499L1103.5 448.099C1102.4 447.599 1102 446.799 1102.5 446.199C1102.7 446.499 1103 446.799 1103.5 446.999L1115.4 452.399C1117 453.099 1118.4 453.099 1118.4 453.099C1118.4 453.099 1119.8 453.099 1121.4 452.299L1129 448.799C1129.5 448.599 1129.8 448.299 1130 447.999C1130.4 448.599 1130.1 449.399 1129 449.899Z" fill="white" stroke="#007BFF" stroke-width="2" stroke-miterlimit="10" stroke-linecap="round" stroke-linejoin="round"/>
<path d="M1151.6 460.2L1143.9 463.8C1142.3 464.5 1139.6 464.6 1138 463.8L1126.2 458.4C1125.1 457.9 1124.7 457.1 1125.2 456.5C1125.4 456.8 1125.7 457.1 1126.2 457.3L1138 462.7C1139.6 463.4 1142.3 463.4 1143.9 462.7L1151.6 459.1C1152.1 458.9 1152.4 458.6 1152.6 458.3C1153.1 458.9 1152.7 459.7 1151.6 460.2Z" fill="white" stroke="#007BFF" stroke-width="2" stroke-miterlimit="10" stroke-linecap="round" stroke-linejoin="round"/>
<path d="M1035.2 415.8L1047.1 421.2C1048.7 421.9 1051.4 421.9 1053 421.2L1060.7 417.6C1061.2 417.4 1061.5 417.1 1061.7 416.8C1062.1 417.5 1061.8 418.2 1060.7 418.7L1053 422.3C1051.4 423 1048.7 423.1 1047.1 422.3L1035.2 416.9C1034.1 416.4 1033.7 415.6 1034.2 415C1034.4 415.3 1034.7 415.6 1035.2 415.8Z" fill="white" stroke="#007BFF" stroke-width="2" stroke-miterlimit="10" stroke-linecap="round" stroke-linejoin="round"/>
<path d="M1084.4 429.501L1076.7 433.001C1075.1 433.701 1073.5 433.601 1073.5 433.601C1073.5 433.601 1072.3 433.701 1070.7 433.001L1057.9 427.201C1056.8 426.701 1056.4 425.901 1056.9 425.301C1057.1 425.601 1057.4 425.901 1057.9 426.101L1070.7 431.901C1072.3 432.601 1073.5 432.501 1073.5 432.501C1073.5 432.501 1075 432.601 1076.7 431.901L1084.4 428.401C1084.9 428.201 1085.2 427.901 1085.4 427.601C1085.8 428.301 1085.5 429.001 1084.4 429.501Z" fill="white" stroke="#007BFF" stroke-width="2" stroke-miterlimit="10" stroke-linecap="round" stroke-linejoin="round"/>
<path d="M926.001 424.801C926.101 424.901 926.201 425.001 926.401 425.101L935.401 429.201C937.101 430.001 939.801 430.001 941.501 429.201L944.501 427.801C944.601 427.801 944.701 427.701 944.701 427.701C945.101 428.001 945.201 428.301 945.001 428.601C944.501 428.701 944.001 428.801 943.601 429.001L941.501 430.001C941.101 430.201 940.901 430.401 940.701 430.601C939.001 431.101 936.801 431.001 935.401 430.301L926.401 426.201C925.601 425.801 925.401 425.301 926.001 424.801Z" fill="white" stroke="#007BFF" stroke-width="2" stroke-miterlimit="10" stroke-linecap="round" stroke-linejoin="round"/>
<path d="M1008.6 422.8L1021.7 428.8C1023.3 429.5 1026 429.5 1027.6 428.8L1037.7 424.2C1038.2 424 1038.5 423.7 1038.7 423.4C1039.1 424.1 1038.8 424.8 1037.7 425.3L1027.6 429.9C1026 430.6 1023.3 430.7 1021.7 429.9L1008.6 423.9C1007.5 423.4 1007.1 422.6 1007.6 422C1007.8 422.3 1008.1 422.6 1008.6 422.8Z" fill="white" stroke="#007BFF" stroke-width="2" stroke-miterlimit="10" stroke-linecap="round" stroke-linejoin="round"/>
<path d="M1170.3 438.098L1166.8 439.698C1165.2 440.398 1162.5 440.498 1160.9 439.698L1146.3 432.998C1145.2 432.498 1144.8 431.698 1145.3 431.098C1145.5 431.398 1145.8 431.698 1146.3 431.898L1160.9 438.598C1162.5 439.298 1165.2 439.298 1166.8 438.598L1170.3 436.998C1170.8 436.798 1171.1 436.498 1171.3 436.198C1171.8 436.898 1171.4 437.598 1170.3 438.098Z" fill="white" stroke="#007BFF" stroke-width="2" stroke-miterlimit="10" stroke-linecap="round" stroke-linejoin="round"/>
<path d="M1098.2 405.299L1094.7 406.899C1093.1 407.599 1090.4 407.699 1088.8 406.899L1073.9 400.099C1072.8 399.599 1072.4 398.799 1072.9 398.199C1073.1 398.499 1073.4 398.799 1073.9 398.999L1088.8 405.799C1090.4 406.499 1093.1 406.499 1094.7 405.799L1098.2 404.199C1098.7 403.999 1099 403.699 1099.2 403.399C1099.7 403.999 1099.4 404.699 1098.2 405.299Z" fill="white" stroke="#007BFF" stroke-width="2" stroke-miterlimit="10" stroke-linecap="round" stroke-linejoin="round"/>
<path d="M1050 383.199L1046.5 384.799C1044.9 385.499 1042.2 385.599 1040.6 384.799L1027 378.599C1025.9 378.099 1025.5 377.299 1026 376.699C1026.2 376.999 1026.5 377.299 1027 377.499L1040.6 383.699C1042.2 384.399 1044.9 384.399 1046.5 383.699L1050 382.099C1050.5 381.899 1050.8 381.599 1051 381.299C1051.4 381.999 1051.1 382.699 1050 383.199Z" fill="white" stroke="#007BFF" stroke-width="2" stroke-miterlimit="10" stroke-linecap="round" stroke-linejoin="round"/>
<path d="M1072.5 393.498L1069 395.098C1067.4 395.798 1064.7 395.898 1063.1 395.098L1051.4 389.798C1050.3 389.298 1049.9 388.498 1050.4 387.898C1050.6 388.198 1050.9 388.498 1051.4 388.698L1063.1 393.998C1064.7 394.698 1067.4 394.698 1069 393.998L1072.5 392.398C1073 392.198 1073.3 391.898 1073.5 391.598C1073.9 392.298 1073.6 392.998 1072.5 393.498Z" fill="white" stroke="#007BFF" stroke-width="2" stroke-miterlimit="10" stroke-linecap="round" stroke-linejoin="round"/>
<path d="M1121.7 415.998L1118.2 417.598C1116.6 418.298 1113.9 418.398 1112.3 417.598L1099.6 411.798C1098.5 411.298 1098.1 410.498 1098.6 409.898C1098.8 410.198 1099.1 410.498 1099.6 410.698L1112.3 416.498C1113.9 417.198 1116.6 417.198 1118.2 416.498L1121.7 414.898C1122.2 414.698 1122.5 414.398 1122.7 414.098C1123.2 414.698 1122.8 415.498 1121.7 415.998Z" fill="white" stroke="#007BFF" stroke-width="2" stroke-miterlimit="10" stroke-linecap="round" stroke-linejoin="round"/>
<path d="M1144.9 426.498L1141.4 428.098C1139.8 428.798 1137.1 428.898 1135.5 428.098L1123.2 422.498C1122.1 421.998 1121.7 421.198 1122.2 420.598C1122.4 420.898 1122.7 421.198 1123.2 421.398L1135.5 426.998C1137.1 427.698 1139.8 427.698 1141.4 426.998L1144.9 425.398C1145.4 425.198 1145.7 424.898 1145.9 424.598C1146.3 425.298 1146 425.998 1144.9 426.498Z" fill="white" stroke="#007BFF" stroke-width="2" stroke-miterlimit="10" stroke-linecap="round" stroke-linejoin="round"/>
<path d="M947.502 414.198L988.202 432.798C989.802 433.498 991.102 433.398 991.202 433.398C991.202 433.398 992.802 433.398 994.402 432.698L1004.3 428.098C1004.8 427.898 1005.1 427.598 1005.3 427.298C1005.7 427.998 1005.4 428.698 1004.3 429.198L994.402 433.798C992.802 434.498 991.202 434.498 991.202 434.498C991.202 434.498 989.902 434.598 988.202 433.898L947.502 415.298C946.402 414.798 946.002 413.998 946.502 413.398C946.702 413.698 947.002 413.998 947.502 414.198Z" fill="white" stroke="#007BFF" stroke-width="2" stroke-miterlimit="10" stroke-linecap="round" stroke-linejoin="round"/>
<path d="M1213.1 515.801C1213.3 516.101 1213.6 516.401 1214.1 516.601L1245.9 531.101C1247.5 531.801 1249.1 531.801 1249.2 531.901C1249.2 531.901 1250.4 532.001 1252.1 531.201L1262.2 526.501C1262.7 526.301 1263 526.001 1263.2 525.701C1263.6 526.401 1263.3 527.101 1262.2 527.601L1252.1 532.301C1250.5 533.001 1249.3 533.001 1249.2 533.001C1249.2 533.001 1247.6 533.001 1245.9 532.201L1214.1 517.701C1213 517.201 1212.7 516.401 1213.1 515.801Z" fill="white" stroke="#007BFF" stroke-width="2" stroke-miterlimit="10" stroke-linecap="round" stroke-linejoin="round"/>
<path d="M1007.9 386.398L1035.4 398.998C1037 399.698 1039.7 399.698 1041.3 398.898L1049.2 394.998C1049.7 394.798 1050 394.498 1050.2 394.198C1050.6 394.898 1050.3 395.598 1049.2 396.098L1041.3 399.998C1039.7 400.798 1037 400.798 1035.4 400.098L1007.9 387.498C1006.8 386.998 1006.4 386.198 1006.9 385.598C1007.1 385.898 1007.4 386.098 1007.9 386.398Z" fill="white" stroke="#007BFF" stroke-width="2" stroke-miterlimit="10" stroke-linecap="round" stroke-linejoin="round"/>
<path d="M968.502 404.499L973.202 406.599C974.802 407.299 977.502 407.299 979.102 406.599L993.302 400.099C994.902 399.399 996.602 398.499 997.702 398.699C998.802 398.899 999.702 399.599 1001.4 400.399C1001.4 400.399 1003.8 401.399 1005 401.299C1006.2 401.199 1006.5 401.099 1008.1 400.399L1015.4 396.999C1015.9 396.799 1016.2 396.499 1016.4 396.199C1016.8 396.899 1016.5 397.599 1015.4 398.099L1008.1 401.499C1006.5 402.199 1006.2 402.299 1005 402.399C1003.8 402.499 1001.4 401.499 1001.4 401.499C999.802 400.799 998.802 399.999 997.702 399.799C996.602 399.599 994.902 400.399 993.302 401.199L979.102 407.699C977.502 408.399 974.802 408.499 973.202 407.699L968.502 405.599C967.402 405.099 967.002 404.299 967.502 403.699C967.702 403.999 968.002 404.299 968.502 404.499Z" fill="white" stroke="#007BFF" stroke-width="2" stroke-miterlimit="10" stroke-linecap="round" stroke-linejoin="round"/>
<path d="M1287.6 491.6L1284.1 493.2C1282.5 493.9 1279.8 494 1278.2 493.2L1265.5 487.4C1264.4 486.9 1264 486.1 1264.5 485.5C1264.7 485.8 1265 486.1 1265.5 486.3L1278.2 492.1C1279.8 492.8 1282.5 492.8 1284.1 492.1L1287.6 490.5C1288.1 490.3 1288.4 490 1288.6 489.7C1289 490.4 1288.7 491.1 1287.6 491.6Z" fill="white" stroke="#007BFF" stroke-width="2" stroke-miterlimit="10" stroke-linecap="round" stroke-linejoin="round"/>
<path d="M1272.1 506.5C1272.3 506.8 1272.6 507.1 1273.1 507.3L1285.5 513C1287.1 513.7 1289.8 513.7 1291.4 513L1299.7 509.2C1300.2 509 1300.5 508.7 1300.7 508.4C1301.1 509.1 1300.8 509.8 1299.7 510.3L1291.4 514.1C1289.8 514.8 1287.1 514.9 1285.5 514.1L1273.1 508.4C1272 507.9 1271.7 507.2 1272.1 506.5Z" fill="white" stroke="#007BFF" stroke-width="2" stroke-miterlimit="10" stroke-linecap="round" stroke-linejoin="round"/>
<path d="M1264.1 480.901L1260.6 482.501C1259 483.201 1256.3 483.301 1254.7 482.501L1242 476.701C1240.9 476.201 1240.5 475.401 1241 474.801C1241.2 475.101 1241.5 475.401 1242 475.601L1254.7 481.401C1256.3 482.101 1259 482.101 1260.6 481.401L1264.1 479.801C1264.6 479.601 1264.9 479.301 1265.1 479.001C1265.6 479.701 1265.2 480.401 1264.1 480.901Z" fill="white" stroke="#007BFF" stroke-width="2" stroke-miterlimit="10" stroke-linecap="round" stroke-linejoin="round"/>
<path d="M1174.4 470.598L1166.7 474.198C1165.1 474.898 1162.4 474.998 1160.8 474.198L1148.9 468.798C1147.8 468.298 1147.4 467.498 1147.9 466.898C1148.1 467.198 1148.4 467.498 1148.9 467.698L1160.8 473.098C1162.4 473.798 1165.1 473.798 1166.7 473.098L1174.4 469.498C1174.9 469.298 1175.2 468.998 1175.4 468.698C1175.8 469.298 1175.5 470.098 1174.4 470.598Z" fill="white" stroke="#007BFF" stroke-width="2" stroke-miterlimit="10" stroke-linecap="round" stroke-linejoin="round"/>
<path d="M1239 508.398C1239.2 508.698 1239.5 508.998 1240 509.198L1267 521.498C1268.6 522.198 1271.3 522.198 1272.9 521.498L1280.6 517.898C1281.1 517.698 1281.4 517.398 1281.6 517.098C1282 517.798 1281.7 518.498 1280.6 518.998L1272.9 522.598C1271.3 523.298 1268.6 523.398 1267 522.598L1240 510.298C1238.9 509.798 1238.5 509.098 1239 508.398Z" fill="white" stroke="#007BFF" stroke-width="2" stroke-miterlimit="10" stroke-linecap="round" stroke-linejoin="round"/>
<path d="M1193.7 448.801L1190.2 450.401C1188.6 451.101 1185.9 451.201 1184.3 450.401L1171.8 444.701C1170.7 444.201 1170.3 443.401 1170.8 442.801C1171 443.101 1171.3 443.401 1171.8 443.601L1184.3 449.301C1185.9 450.001 1188.6 450.001 1190.2 449.301L1193.7 447.701C1194.2 447.501 1194.5 447.201 1194.7 446.901C1195.1 447.501 1194.8 448.301 1193.7 448.801Z" fill="white" stroke="#007BFF" stroke-width="2" stroke-miterlimit="10" stroke-linecap="round" stroke-linejoin="round"/>
<path d="M1240.6 470.198L1237.1 471.798C1235.5 472.498 1232.8 472.598 1231.2 471.798L1218.5 465.998C1217.4 465.498 1217 464.698 1217.5 464.098C1217.7 464.398 1218 464.698 1218.5 464.898L1231.2 470.698C1232.8 471.398 1235.5 471.398 1237.1 470.698L1240.6 469.098C1241.1 468.898 1241.4 468.598 1241.6 468.298C1242.1 468.998 1241.7 469.698 1240.6 470.198Z" fill="white" stroke="#007BFF" stroke-width="2" stroke-miterlimit="10" stroke-linecap="round" stroke-linejoin="round"/>
<path d="M1217.1 459.498L1213.6 461.098C1212 461.798 1209.3 461.898 1207.7 461.098L1195 455.298C1193.9 454.798 1193.5 453.998 1194 453.398C1194.2 453.698 1194.5 453.998 1195 454.198L1207.7 459.998C1209.3 460.698 1212 460.698 1213.6 459.998L1217.1 458.398C1217.6 458.198 1217.9 457.898 1218.1 457.598C1218.6 458.198 1218.3 458.998 1217.1 459.498Z" fill="white" stroke="#007BFF" stroke-width="2" stroke-miterlimit="10" stroke-linecap="round" stroke-linejoin="round"/>
<path d="M1287.5 496.799C1287.5 496.799 1287.5 496.599 1287.8 496.199C1288 496.399 1288.4 496.699 1289.1 497.099L1304.6 504.199C1306.2 504.899 1308.9 504.899 1310.5 504.199L1314 502.599C1314.5 502.399 1314.8 502.099 1315 501.799C1315.4 502.499 1315.1 503.199 1314 503.699L1310.5 505.299C1308.9 505.999 1306.2 506.099 1304.6 505.299L1289.1 498.199C1287.5 497.499 1287.5 496.799 1287.5 496.799Z" fill="white" stroke="#007BFF" stroke-width="2" stroke-miterlimit="10" stroke-linecap="round" stroke-linejoin="round"/>
<path d="M1180.8 520.601L1192.5 525.901C1194.1 526.601 1196.8 526.601 1198.4 525.901L1208.6 521.201C1209.1 521.001 1209.4 520.701 1209.6 520.401C1210 521.101 1209.7 521.801 1208.6 522.301L1198.4 527.001C1196.8 527.701 1194.1 527.801 1192.5 527.001L1180.8 521.701C1179.7 521.201 1179.3 520.401 1179.8 519.801C1179.9 520.101 1180.3 520.401 1180.8 520.601Z" fill="white" stroke="#007BFF" stroke-width="2" stroke-miterlimit="10" stroke-linecap="round" stroke-linejoin="round"/>
<path d="M1219.4 508.098L1209.3 512.698C1207.7 513.398 1205 513.498 1203.4 512.698L1191.6 507.298C1190.5 506.798 1190.1 505.998 1190.6 505.398C1190.8 505.698 1191.1 505.998 1191.6 506.198L1203.4 511.598C1205 512.298 1207.7 512.298 1209.3 511.598L1219.4 506.998C1219.9 506.798 1220.2 506.498 1220.4 506.198C1220.8 506.798 1220.5 507.598 1219.4 508.098Z" fill="white" stroke="#007BFF" stroke-width="2" stroke-miterlimit="10" stroke-linecap="round" stroke-linejoin="round"/>
<path d="M1242.6 501.7L1234.9 505.3C1233.3 506 1230.6 506.1 1229 505.3L1217.1 499.9C1216 499.4 1215.6 498.6 1216.1 498C1216.3 498.3 1216.6 498.6 1217.1 498.8L1229 504.2C1230.6 504.9 1233.3 504.9 1234.9 504.2L1242.6 500.6C1243.1 500.4 1243.4 500.1 1243.6 499.8C1244.1 500.5 1243.8 501.2 1242.6 501.7Z" fill="white" stroke="#007BFF" stroke-width="2" stroke-miterlimit="10" stroke-linecap="round" stroke-linejoin="round"/>
<path d="M1158 510.198L1169.9 515.598C1171.5 516.298 1173.2 516.398 1173.2 516.398C1173.2 516.398 1174.2 516.398 1175.9 515.598L1186.1 510.898C1186.6 510.698 1186.9 510.398 1187.1 510.098C1187.5 510.798 1187.2 511.498 1186.1 511.998L1175.9 516.698C1174.3 517.398 1173.2 517.498 1173.2 517.498C1173.2 517.498 1171.5 517.498 1169.9 516.698L1158 511.298C1156.9 510.798 1156.5 509.998 1157 509.398C1157.2 509.698 1157.5 509.998 1158 510.198Z" fill="white" stroke="#007BFF" stroke-width="2" stroke-miterlimit="10" stroke-linecap="round" stroke-linejoin="round"/>
<path d="M1250.4 496.999L1262.3 502.399C1263.9 503.099 1266.6 503.099 1268.2 502.399L1276.5 498.599C1277 498.399 1277.3 498.099 1277.5 497.799C1277.9 498.499 1277.6 499.199 1276.5 499.699L1268.2 503.499C1266.6 504.199 1263.9 504.299 1262.3 503.499L1250.4 498.099C1249.3 497.599 1248.9 496.799 1249.4 496.199C1249.6 496.499 1249.9 496.699 1250.4 496.999Z" fill="white" stroke="#007BFF" stroke-width="2" stroke-miterlimit="10" stroke-linecap="round" stroke-linejoin="round"/>
<path d="M1231 479L1223 482.9C1221.4 483.7 1218.7 483.7 1217.1 483L1204.9 477.4C1203.8 476.9 1203.4 476.1 1203.9 475.5C1204.1 475.8 1204.4 476.1 1204.9 476.3L1217.1 481.9C1218.7 482.6 1221.4 482.6 1223 481.8L1231 477.9C1231.5 477.7 1231.8 477.4 1232 477.1C1232.5 477.7 1232.2 478.5 1231 479Z" fill="white" stroke="#007BFF" stroke-width="2" stroke-miterlimit="10" stroke-linecap="round" stroke-linejoin="round"/>
<path d="M1242.5 493.901C1242.5 493.901 1241.2 493.901 1239.6 493.101L1227.7 487.701C1226.6 487.201 1226.2 486.401 1226.7 485.801C1226.9 486.101 1227.2 486.401 1227.7 486.601L1239.6 492.001C1241.2 492.701 1242.5 492.801 1242.5 492.801C1242.5 492.801 1243.9 492.801 1245.6 492.001L1253.9 488.201C1254.4 488.001 1254.7 487.701 1254.9 487.401C1255.3 488.101 1255 488.801 1253.9 489.301L1245.6 493.101C1243.9 493.901 1242.5 493.901 1242.5 493.901Z" fill="white" stroke="#007BFF" stroke-width="2" stroke-miterlimit="10" stroke-linecap="round" stroke-linejoin="round"/>
<path d="M1135.2 499.8L1147.1 505.2C1148.7 505.9 1151.4 505.9 1153 505.2L1163.2 500.5C1163.7 500.3 1164 500 1164.2 499.7C1164.6 500.4 1164.3 501.1 1163.2 501.6L1153 506.3C1151.4 507 1148.7 507.1 1147.1 506.3L1135.2 500.9C1134.1 500.4 1133.7 499.6 1134.2 499C1134.4 499.3 1134.7 499.6 1135.2 499.8Z" fill="white" stroke="#007BFF" stroke-width="2" stroke-miterlimit="10" stroke-linecap="round" stroke-linejoin="round"/>
<path d="M1021.7 447.999L1033.6 453.399C1035.2 454.099 1037.9 454.099 1039.5 453.399L1049.7 448.699C1050.2 448.499 1050.5 448.199 1050.7 447.899C1051.1 448.599 1050.8 449.299 1049.7 449.799L1039.5 454.499C1037.9 455.199 1035.2 455.299 1033.6 454.499L1021.7 449.099C1020.6 448.599 1020.2 447.799 1020.7 447.199C1020.9 447.499 1021.2 447.799 1021.7 447.999Z" fill="white" stroke="#007BFF" stroke-width="2" stroke-miterlimit="10" stroke-linecap="round" stroke-linejoin="round"/>
<path d="M999.002 437.698L1010.9 443.098C1012.5 443.798 1015.2 443.798 1016.8 443.098L1027 438.398C1027.5 438.198 1027.8 437.898 1028 437.598C1028.4 438.298 1028.1 438.998 1027 439.498L1016.8 444.198C1015.2 444.898 1012.5 444.998 1010.9 444.198L999.002 438.798C997.902 438.298 997.502 437.498 998.002 436.898C998.102 437.198 998.502 437.398 999.002 437.698Z" fill="white" stroke="#007BFF" stroke-width="2" stroke-miterlimit="10" stroke-linecap="round" stroke-linejoin="round"/>
<path d="M959.702 433.399L950.002 428.999C949.602 428.799 949.202 428.699 948.802 428.599C948.702 428.299 948.702 427.999 948.902 427.699C949.102 427.999 949.402 428.299 949.902 428.499L959.702 432.999C961.002 433.599 963.102 433.599 964.402 432.999L967.402 431.599C968.002 431.299 968.302 430.999 968.502 430.699C968.902 431.399 968.602 432.199 967.402 432.699L964.402 434.099C963.402 434.599 961.802 434.699 960.502 434.399C960.602 433.999 960.302 433.699 959.702 433.399Z" fill="white" stroke="#007BFF" stroke-width="2" stroke-miterlimit="10" stroke-linecap="round" stroke-linejoin="round"/>
<path d="M1208.3 468.598L1200 472.398C1198.4 473.098 1197 473.098 1197 473.098C1197 473.098 1195.7 473.098 1194.1 472.398L1182.2 466.998C1181.1 466.498 1180.7 465.698 1181.2 465.098C1181.4 465.398 1181.7 465.698 1182.2 465.898L1194.1 471.298C1195.7 471.998 1197 471.998 1197 471.998C1197 471.998 1198.4 471.998 1200 471.298L1208.3 467.498C1208.8 467.298 1209.1 466.998 1209.3 466.698C1209.7 467.298 1209.4 467.998 1208.3 468.598Z" fill="white" stroke="#007BFF" stroke-width="2" stroke-miterlimit="10" stroke-linecap="round" stroke-linejoin="round"/>
<path d="M1112.6 489.499L1124.4 494.899C1126 495.599 1128.7 495.599 1130.3 494.899L1140.5 490.199C1141 489.999 1141.3 489.699 1141.5 489.399C1141.9 490.099 1141.6 490.799 1140.5 491.299L1130.3 495.999C1128.7 496.699 1126 496.799 1124.4 495.999L1112.6 490.599C1111.5 490.099 1111.1 489.299 1111.6 488.699C1111.8 488.999 1112.1 489.299 1112.6 489.499Z" fill="white" stroke="#007BFF" stroke-width="2" stroke-miterlimit="10" stroke-linecap="round" stroke-linejoin="round"/>
<path d="M1089.9 479.101L1101.8 484.501C1103.4 485.201 1106.1 485.201 1107.7 484.501L1117.9 479.801C1118.4 479.601 1118.7 479.301 1118.9 479.001C1119.3 479.701 1119 480.401 1117.9 480.901L1107.7 485.601C1106.1 486.301 1103.4 486.401 1101.8 485.601L1089.9 480.201C1088.8 479.701 1088.4 478.901 1088.9 478.301C1089 478.601 1089.4 478.901 1089.9 479.101Z" fill="white" stroke="#007BFF" stroke-width="2" stroke-miterlimit="10" stroke-linecap="round" stroke-linejoin="round"/>
<path d="M1068 469.198L1079.1 474.298C1080.7 474.998 1082.3 474.898 1082.3 474.798C1082.4 474.798 1083.8 474.798 1085.4 473.998L1095.1 469.498C1095.6 469.298 1095.9 468.998 1096.1 468.698C1096.5 469.398 1096.2 470.098 1095.1 470.598L1085.4 475.098C1083.8 475.798 1082.4 475.798 1082.3 475.898C1082.2 475.898 1080.7 476.098 1079.1 475.398L1068 470.298C1066.9 469.798 1066.5 468.998 1067 468.398C1067.2 468.698 1067.5 468.898 1068 469.198Z" fill="white" stroke="#007BFF" stroke-width="2" stroke-miterlimit="10" stroke-linecap="round" stroke-linejoin="round"/>
<path d="M1044.4 458.398L1057.2 464.198C1058.8 464.898 1061.5 464.898 1063.1 464.198L1073.3 459.498C1073.8 459.298 1074.1 458.998 1074.3 458.698C1074.7 459.398 1074.4 460.098 1073.3 460.598L1063.1 465.298C1061.5 465.998 1058.8 466.098 1057.2 465.298L1044.4 459.498C1043.3 458.998 1042.9 458.198 1043.4 457.598C1043.5 457.898 1043.9 458.098 1044.4 458.398Z" fill="white" stroke="#007BFF" stroke-width="2" stroke-miterlimit="10" stroke-linecap="round" stroke-linejoin="round"/>
<path d="M1197.1 480.999L1189.6 484.499C1188 485.199 1187.6 485.199 1186.7 485.299C1185.8 485.399 1185.2 485.399 1183.5 484.599L1171.5 479.099C1170.4 478.599 1170 477.799 1170.5 477.199C1170.7 477.499 1171 477.799 1171.5 477.999L1183.5 483.499C1185.1 484.199 1185.7 484.199 1186.7 484.199C1187.6 484.099 1188 484.199 1189.6 483.399L1197.1 479.899C1197.6 479.699 1197.9 479.399 1198.1 479.099C1198.6 479.699 1198.2 480.499 1197.1 480.999Z" fill="white" stroke="#007BFF" stroke-width="2" stroke-miterlimit="10" stroke-linecap="round" stroke-linejoin="round"/>
<path d="M1100.7 464.8L1112.7 470.3C1114.3 471 1114.8 471 1115.9 471C1117 471 1117.5 470.7 1119.2 469.9L1128.6 465.6C1129.1 465.4 1129.4 465.1 1129.6 464.8C1130 465.5 1129.7 466.2 1128.6 466.7L1119.2 471C1117.6 471.7 1117 472 1115.9 472.1C1114.8 472.1 1114.4 472.1 1112.7 471.4L1100.7 465.9C1099.6 465.4 1099.2 464.6 1099.7 464C1099.8 464.3 1100.2 464.6 1100.7 464.8Z" fill="white" stroke="#007BFF" stroke-width="2" stroke-miterlimit="10" stroke-linecap="round" stroke-linejoin="round"/>
<path d="M1078.8 454.8L1089.8 459.8C1091.4 460.5 1094.1 460.5 1095.7 459.8L1105.8 455.2C1106.3 455 1106.6 454.7 1106.8 454.4C1107.2 455.1 1106.9 455.8 1105.8 456.3L1095.7 460.9C1094.1 461.6 1091.4 461.7 1089.8 460.9L1078.8 455.9C1077.7 455.4 1077.3 454.6 1077.8 454C1078 454.3 1078.3 454.6 1078.8 454.8Z" fill="white" stroke="#007BFF" stroke-width="2" stroke-miterlimit="10" stroke-linecap="round" stroke-linejoin="round"/>
<path d="M1032.5 433.698L1044.4 439.098C1046 439.798 1048.7 439.798 1050.3 439.098L1060.4 434.498C1060.9 434.298 1061.2 433.998 1061.4 433.698C1061.8 434.398 1061.5 435.098 1060.4 435.598L1050.3 440.198C1048.7 440.898 1046 440.998 1044.4 440.198L1032.5 434.798C1031.4 434.298 1031 433.498 1031.5 432.898C1031.7 433.198 1032 433.498 1032.5 433.698Z" fill="white" stroke="#007BFF" stroke-width="2" stroke-miterlimit="10" stroke-linecap="round" stroke-linejoin="round"/>
<path d="M1123.4 475.198L1135.2 480.598C1136.8 481.298 1139.5 481.298 1141.1 480.598L1151.2 475.998C1151.7 475.798 1152 475.498 1152.2 475.198C1152.6 475.898 1152.3 476.598 1151.2 477.098L1141.1 481.698C1139.5 482.398 1136.8 482.498 1135.2 481.698L1123.4 476.298C1122.3 475.798 1121.9 474.998 1122.4 474.398C1122.6 474.698 1122.9 474.898 1123.4 475.198Z" fill="white" stroke="#007BFF" stroke-width="2" stroke-miterlimit="10" stroke-linecap="round" stroke-linejoin="round"/>
<path d="M1055.2 443.999L1068.5 449.699C1070.1 450.399 1072.8 450.399 1074.5 449.599L1084 445.199C1084.5 444.999 1084.8 444.699 1085 444.399C1085.4 445.099 1085.1 445.799 1084 446.299L1074.5 450.699C1072.9 451.399 1070.2 451.499 1068.5 450.799L1055.2 445.099C1054 444.599 1053.7 443.899 1054.2 443.199C1054.4 443.499 1054.7 443.799 1055.2 443.999Z" fill="white" stroke="#007BFF" stroke-width="2" stroke-miterlimit="10" stroke-linecap="round" stroke-linejoin="round"/>
<path d="M1146 485.499L1157.9 490.899C1159.5 491.599 1162.2 491.599 1163.8 490.899L1173.9 486.299C1174.4 486.099 1174.7 485.799 1174.9 485.499C1175.3 486.199 1175 486.899 1173.9 487.399L1163.8 491.999C1162.2 492.699 1159.5 492.799 1157.9 491.999L1146 486.599C1144.9 486.099 1144.5 485.299 1145 484.699C1145.2 484.999 1145.5 485.299 1146 485.499Z" fill="white" stroke="#007BFF" stroke-width="2" stroke-miterlimit="10" stroke-linecap="round" stroke-linejoin="round"/>
<path d="M1219.9 491.298L1212.2 494.898C1210.6 495.598 1207.9 495.698 1206.3 494.898L1194.4 489.498C1193.3 488.998 1192.9 488.198 1193.4 487.598C1193.6 487.898 1193.9 488.198 1194.4 488.398L1206.3 493.798C1207.9 494.498 1210.6 494.498 1212.2 493.798L1219.9 490.198C1220.4 489.998 1220.7 489.698 1220.9 489.398C1221.3 490.098 1221 490.798 1219.9 491.298Z" fill="white" stroke="#007BFF" stroke-width="2" stroke-miterlimit="10" stroke-linecap="round" stroke-linejoin="round"/>
<path d="M1168.8 495.898L1180.9 501.398C1182.5 502.098 1184 502.098 1184.1 501.998C1184.2 501.898 1185.7 501.698 1187.4 500.898L1196.7 496.598C1197.2 496.398 1197.5 496.098 1197.7 495.798C1198.1 496.498 1197.8 497.198 1196.7 497.698L1187.4 501.998C1185.8 502.698 1184.2 502.998 1184.1 503.098C1184 503.198 1182.5 503.198 1180.9 502.498L1168.8 496.998C1167.7 496.498 1167.3 495.698 1167.8 495.098C1168 495.398 1168.3 495.698 1168.8 495.898Z" fill="white" stroke="#007BFF" stroke-width="2" stroke-miterlimit="10" stroke-linecap="round" stroke-linejoin="round"/>
<path d="M1071.9 406.4L1063.7 410.2C1062.1 410.9 1060.7 411.6 1060.7 411.6C1060.7 411.6 1059.3 411 1057.7 410.3L1045.8 404.9C1044.7 404.4 1044.3 403.6 1044.8 403C1045 403.3 1045.3 403.6 1045.8 403.8L1057.7 409.2C1059.3 409.9 1060.7 410.5 1060.7 410.5C1060.7 410.5 1062.1 409.9 1063.7 409.1L1071.9 405.3C1072.4 405.1 1072.7 404.8 1072.9 404.5C1073.4 405.1 1073.1 405.9 1071.9 406.4Z" fill="white" stroke="#007BFF" stroke-width="2" stroke-miterlimit="10" stroke-linecap="round" stroke-linejoin="round"/>
<path d="M1162.9 447.898L1154.6 451.698C1153 452.398 1150.3 452.498 1148.7 451.698L1136.8 446.298C1135.7 445.798 1135.3 444.998 1135.8 444.398C1136 444.698 1136.3 444.998 1136.8 445.198L1148.7 450.598C1150.3 451.298 1153 451.298 1154.6 450.598L1162.9 446.798C1163.4 446.598 1163.7 446.298 1163.9 445.998C1164.3 446.598 1164 447.298 1162.9 447.898Z" fill="white" stroke="#007BFF" stroke-width="2" stroke-miterlimit="10" stroke-linecap="round" stroke-linejoin="round"/>
<path d="M984.002 411.601L997.802 417.901C999.402 418.601 1002.1 418.601 1003.7 417.901L1013.8 413.301C1014.3 413.101 1014.6 412.801 1014.8 412.501C1015.2 413.201 1014.9 413.901 1013.8 414.401L1003.7 419.001C1002.1 419.701 999.402 419.801 997.802 419.001L984.002 412.701C982.902 412.201 982.502 411.401 983.002 410.801C983.102 411.101 983.502 411.401 984.002 411.601Z" fill="white" stroke="#007BFF" stroke-width="2" stroke-miterlimit="10" stroke-linecap="round" stroke-linejoin="round"/>
<path d="M1118.3 427.498L1110 431.298C1108.4 431.998 1105.7 432.098 1104.1 431.298L1091.3 425.498C1090.2 424.998 1089.8 424.198 1090.3 423.598C1090.5 423.898 1090.8 424.198 1091.3 424.398L1104.1 430.198C1105.7 430.898 1108.4 430.898 1110 430.198L1118.3 426.398C1118.8 426.198 1119.1 425.898 1119.3 425.598C1119.7 426.198 1119.4 426.998 1118.3 427.498Z" fill="white" stroke="#007BFF" stroke-width="2" stroke-miterlimit="10" stroke-linecap="round" stroke-linejoin="round"/>
<path d="M1140.1 437.498L1131.8 441.298C1130.2 441.998 1127.5 442.098 1125.9 441.298L1114.9 436.298C1113.8 435.798 1113.4 434.998 1113.9 434.398C1114.1 434.698 1114.4 434.998 1114.9 435.198L1125.9 440.198C1127.5 440.898 1130.2 440.898 1131.8 440.198L1140.1 436.398C1140.6 436.198 1140.9 435.898 1141.1 435.598C1141.6 436.198 1141.3 436.998 1140.1 437.498Z" fill="white" stroke="#007BFF" stroke-width="2" stroke-miterlimit="10" stroke-linecap="round" stroke-linejoin="round"/>
<path d="M1185.5 458.199L1177.4 461.899C1175.8 462.599 1174.3 462.699 1174.3 462.699C1174.3 462.699 1173 462.699 1171.3 461.999L1159.5 456.599C1158.4 456.099 1158 455.299 1158.5 454.699C1158.7 454.999 1159 455.299 1159.5 455.499L1171.3 460.899C1172.9 461.599 1174.2 461.599 1174.3 461.599C1174.3 461.599 1175.8 461.499 1177.4 460.799L1185.5 457.099C1186 456.899 1186.3 456.599 1186.5 456.299C1187 456.899 1186.6 457.699 1185.5 458.199Z" fill="white" stroke="#007BFF" stroke-width="2" stroke-miterlimit="10" stroke-linecap="round" stroke-linejoin="round"/>
<path d="M1094.6 416.699L1086.3 420.499C1084.7 421.199 1082 421.299 1080.4 420.499L1068.5 415.099C1067.4 414.599 1067 413.799 1067.5 413.199C1067.7 413.499 1068 413.799 1068.5 413.999L1080.4 419.399C1082 420.099 1084.7 420.099 1086.3 419.399L1094.6 415.599C1095.1 415.399 1095.4 415.099 1095.6 414.799C1096.1 415.499 1095.8 416.199 1094.6 416.699Z" fill="white" stroke="#007BFF" stroke-width="2" stroke-miterlimit="10" stroke-linecap="round" stroke-linejoin="round"/>
<path d="M1038 408.399L1030.3 411.999C1028.7 412.699 1026 412.799 1024.4 411.999L1012.5 406.599C1011.4 406.099 1011 405.299 1011.5 404.699C1011.7 404.999 1012 405.299 1012.5 405.499L1024.4 410.899C1026 411.599 1028.7 411.599 1030.3 410.899L1038 407.299C1038.5 407.099 1038.8 406.799 1039 406.499C1039.5 407.199 1039.2 407.899 1038 408.399Z" fill="white" stroke="#007BFF" stroke-width="2" stroke-miterlimit="10" stroke-linecap="round" stroke-linejoin="round"/>
<g opacity="0.7">
<path opacity="0.7" d="M974.7 440.196C976.2 440.896 976.2 441.996 974.7 442.696L973 443.496C971.3 444.296 968.6 444.296 967 443.496L957.7 439.296C956.3 438.696 956.3 437.596 957.7 436.996L959.7 436.096C961.4 435.296 964.1 435.296 965.8 436.096L974.7 440.196Z" fill="white" stroke="#007BFF" stroke-width="2" stroke-miterlimit="10" stroke-linecap="round" stroke-linejoin="round"/>
</g>
<g opacity="0.7">
<path opacity="0.7" d="M1128.4 501.198C1130 501.898 1130 503.198 1128.4 503.898L1115.7 509.698C1114.1 510.398 1111.4 510.498 1109.8 509.698L1022.3 469.797C1020.7 469.097 1020.7 467.798 1022.3 467.098L1035 461.297C1036.6 460.597 1039.3 460.497 1040.9 461.297L1128.4 501.198Z" fill="white" stroke="#007BFF" stroke-width="2" stroke-miterlimit="10" stroke-linecap="round" stroke-linejoin="round"/>
</g>
<g opacity="0.7">
<path opacity="0.7" d="M1005.3 444.996C1006.9 445.696 1006.9 446.996 1005.3 447.696L992.6 453.496C991 454.196 988.3 454.296 986.7 453.496L976.2 448.696C974.6 447.996 974.6 446.696 976.2 445.996L988.9 440.196C990.5 439.496 993.2 439.396 994.8 440.196L1005.3 444.996Z" fill="white" stroke="#007BFF" stroke-width="2" stroke-miterlimit="10" stroke-linecap="round" stroke-linejoin="round"/>
</g>
<g opacity="0.7">
<path opacity="0.7" d="M1152.6 512.198C1154.2 512.898 1154.2 514.198 1152.6 514.898L1139.9 520.698C1138.3 521.398 1135.6 521.498 1134 520.698L1120.6 514.598C1119 513.898 1119 512.598 1120.6 511.898L1133.3 506.098C1134.9 505.398 1137.6 505.298 1139.2 506.098L1152.6 512.198Z" fill="white" stroke="#007BFF" stroke-width="2" stroke-miterlimit="10" stroke-linecap="round" stroke-linejoin="round"/>
</g>
<g opacity="0.7">
<path opacity="0.7" d="M1030 456.299C1031.6 456.999 1031.6 458.299 1030 458.999L1017.3 464.799C1015.7 465.499 1013 465.599 1011.4 464.799L997.501 458.399C995.901 457.699 995.901 456.399 997.501 455.699L1010.1 449.899C1011.7 449.199 1014.4 449.099 1016 449.899L1030 456.299Z" fill="white" stroke="#007BFF" stroke-width="2" stroke-miterlimit="10" stroke-linecap="round" stroke-linejoin="round"/>
</g>
<g opacity="0.7">
<path opacity="0.7" d="M1213.2 523.398C1214.8 522.598 1217.5 522.598 1219.1 523.298L1241.3 533.398C1242.9 534.098 1242.9 535.398 1241.3 536.098L1231.1 540.798C1229.5 541.498 1226.8 541.598 1225.2 540.798L1203.4 530.798C1201.8 530.098 1201.8 528.798 1203.4 528.098L1213.2 523.398Z" fill="white" stroke="#007BFF" stroke-width="2" stroke-miterlimit="10" stroke-linecap="round" stroke-linejoin="round"/>
</g>
<g opacity="0.7">
<path opacity="0.7" d="M1175 522.398C1176.6 523.098 1176.6 524.398 1175 525.098L1162.3 530.898C1160.7 531.598 1158 531.698 1156.4 530.898L1144.8 525.598C1143.2 524.898 1143.2 523.598 1144.8 522.898L1157.5 517.098C1159.1 516.398 1161.8 516.298 1163.4 517.098L1175 522.398Z" fill="white" stroke="#007BFF" stroke-width="2" stroke-miterlimit="10" stroke-linecap="round" stroke-linejoin="round"/>
</g>
<g opacity="0.7">
<path opacity="0.7" d="M1195.9 531.999C1197.5 532.699 1197.5 533.999 1195.9 534.699L1183.2 540.499C1181.6 541.199 1178.9 541.299 1177.3 540.499L1167.2 535.899C1165.6 535.199 1165.6 533.899 1167.2 533.199L1179.9 527.399C1181.5 526.699 1184.2 526.599 1185.8 527.399L1195.9 531.999Z" fill="white" stroke="#007BFF" stroke-width="2" stroke-miterlimit="10" stroke-linecap="round" stroke-linejoin="round"/>
</g>
<g opacity="0.7">
<path opacity="0.7" d="M1220.3 543.099C1221.9 543.799 1221.9 545.099 1220.3 545.799L1207.6 551.599C1206 552.299 1203.3 552.399 1201.7 551.599L1188.1 545.399C1186.5 544.699 1186.5 543.399 1188.1 542.699L1200.8 536.899C1202.4 536.199 1205.1 536.099 1206.7 536.899L1220.3 543.099Z" fill="white" stroke="#007BFF" stroke-width="2" stroke-miterlimit="10" stroke-linecap="round" stroke-linejoin="round"/>
</g>
<g opacity="0.7">
<path opacity="0.7" d="M1091.5 429.896C1092.7 429.796 1093.4 429.896 1095 430.596L1106.2 435.696C1107.8 436.396 1107.8 437.696 1106.2 438.396L1099.1 441.696C1097.5 442.396 1096.1 442.596 1096 442.696C1095.9 442.796 1094.3 442.796 1092.7 442.096L1081.5 436.996C1079.9 436.296 1079.9 434.996 1081.5 434.296L1088.5 431.096C1090.2 430.196 1090.4 429.896 1091.5 429.896Z" fill="white" stroke="#007BFF" stroke-width="2" stroke-miterlimit="10" stroke-linecap="round" stroke-linejoin="round"/>
</g>
<g opacity="0.7">
<path opacity="0.7" d="M959.7 433.398C960.9 433.998 960.9 434.898 959.7 435.398L957.6 436.398C955.8 437.198 952.9 437.198 951.2 436.398L941.5 431.998C940.3 431.398 940.3 430.498 941.5 429.998L943.6 428.998C945.4 428.198 948.3 428.198 950 428.998L959.7 433.398Z" fill="white" stroke="#007BFF" stroke-width="2" stroke-miterlimit="10" stroke-linecap="round" stroke-linejoin="round"/>
</g>
<g opacity="0.7">
<path opacity="0.7" d="M1129 446.096C1130.6 446.796 1130.6 448.096 1129 448.796L1121.4 452.296C1119.8 452.996 1118.4 453.096 1118.4 453.096C1118.4 453.096 1117.1 453.096 1115.4 452.396L1103.5 446.996C1101.9 446.296 1101.9 444.996 1103.5 444.296L1111.2 440.696C1112.8 439.996 1115.5 439.896 1117.1 440.696L1129 446.096Z" fill="white" stroke="#007BFF" stroke-width="2" stroke-miterlimit="10" stroke-linecap="round" stroke-linejoin="round"/>
</g>
<g opacity="0.7">
<path opacity="0.7" d="M1136.7 450.199C1136.7 450.199 1138.1 450.199 1139.7 450.999L1151.5 456.399C1153.1 457.099 1153.1 458.399 1151.5 459.099L1143.8 462.699C1142.2 463.399 1139.5 463.499 1137.9 462.699L1126.1 457.299C1124.5 456.599 1124.5 455.299 1126.1 454.599L1133.6 451.199C1135.2 450.399 1136.7 450.199 1136.7 450.199Z" fill="white" stroke="#007BFF" stroke-width="2" stroke-miterlimit="10" stroke-linecap="round" stroke-linejoin="round"/>
</g>
<g opacity="0.7">
<path opacity="0.7" d="M1035.2 415.797C1033.6 415.097 1033.6 413.797 1035.2 413.097L1042.9 409.497C1044.5 408.797 1047.2 408.697 1048.8 409.497L1060.7 414.897C1062.3 415.597 1062.3 416.897 1060.7 417.597L1053 421.197C1051.4 421.897 1048.7 421.997 1047.1 421.197L1035.2 415.797Z" fill="white" stroke="#007BFF" stroke-width="2" stroke-miterlimit="10" stroke-linecap="round" stroke-linejoin="round"/>
</g>
<g opacity="0.7">
<path opacity="0.7" d="M1067.8 419.196C1068.6 418.996 1069.7 419.096 1071.4 419.796L1084.4 425.696C1086 426.396 1086 427.696 1084.4 428.396L1076.7 431.896C1075.1 432.596 1073.5 432.496 1073.5 432.496C1073.5 432.496 1072.3 432.596 1070.7 431.896L1057.9 426.096C1056.3 425.396 1056.3 424.096 1057.9 423.396L1064.8 420.196C1066.4 419.496 1067 419.296 1067.8 419.196Z" fill="white" stroke="#007BFF" stroke-width="2" stroke-miterlimit="10" stroke-linecap="round" stroke-linejoin="round"/>
</g>
<g opacity="0.7">
<path opacity="0.7" d="M941.5 429.199C939.8 429.999 937.1 429.999 935.4 429.199L926.4 425.099C925.4 424.599 925.4 423.899 926.4 423.499L929.1 422.299C930.8 421.499 933.5 421.499 935.2 422.299L944.5 426.499C945.3 426.899 945.3 427.499 944.5 427.899L941.5 429.199Z" fill="white" stroke="#007BFF" stroke-width="2" stroke-miterlimit="10" stroke-linecap="round" stroke-linejoin="round"/>
</g>
<g opacity="0.7">
<path opacity="0.7" d="M1037.7 421.399C1039.3 422.099 1039.3 423.399 1037.7 424.099L1027.6 428.699C1026 429.399 1023.3 429.499 1021.7 428.699L1008.6 422.699C1007 421.999 1007 420.699 1008.6 419.999L1018.7 415.399C1020.3 414.699 1023 414.599 1024.6 415.399L1037.7 421.399Z" fill="white" stroke="#007BFF" stroke-width="2" stroke-miterlimit="10" stroke-linecap="round" stroke-linejoin="round"/>
</g>
<g opacity="0.7">
<path opacity="0.7" d="M1146.3 431.996C1144.7 431.296 1144.7 429.996 1146.3 429.296L1149.8 427.696C1151.4 426.996 1154.1 426.896 1155.7 427.696L1170.3 434.396C1171.9 435.096 1171.9 436.396 1170.3 437.096L1166.8 438.696C1165.2 439.396 1162.5 439.496 1160.9 438.696L1146.3 431.996Z" fill="white" stroke="#007BFF" stroke-width="2" stroke-miterlimit="10" stroke-linecap="round" stroke-linejoin="round"/>
</g>
<g opacity="0.7">
<path opacity="0.7" d="M1073.9 398.996C1072.3 398.296 1072.3 396.996 1073.9 396.296L1077.4 394.696C1079 393.996 1081.7 393.896 1083.3 394.696L1098.2 401.496C1099.8 402.196 1099.8 403.496 1098.2 404.196L1094.7 405.796C1093.1 406.496 1090.4 406.596 1088.8 405.796L1073.9 398.996Z" fill="white" stroke="#007BFF" stroke-width="2" stroke-miterlimit="10" stroke-linecap="round" stroke-linejoin="round"/>
</g>
<g opacity="0.7">
<path opacity="0.7" d="M1027 377.598C1025.4 376.898 1025.4 375.598 1027 374.898L1030.5 373.297C1032.1 372.597 1034.8 372.497 1036.4 373.297L1050 379.498C1051.6 380.198 1051.6 381.498 1050 382.198L1046.5 383.797C1044.9 384.497 1042.2 384.597 1040.6 383.797L1027 377.598Z" fill="white" stroke="#007BFF" stroke-width="2" stroke-miterlimit="10" stroke-linecap="round" stroke-linejoin="round"/>
</g>
<g opacity="0.7">
<path opacity="0.7" d="M1051.4 388.699C1049.8 387.999 1049.8 386.699 1051.4 385.999L1054.9 384.399C1056.5 383.699 1059.2 383.599 1060.8 384.399L1072.5 389.699C1074.1 390.399 1074.1 391.699 1072.5 392.399L1069 393.999C1067.4 394.699 1064.7 394.799 1063.1 393.999L1051.4 388.699Z" fill="white" stroke="#007BFF" stroke-width="2" stroke-miterlimit="10" stroke-linecap="round" stroke-linejoin="round"/>
</g>
<g opacity="0.7">
<path opacity="0.7" d="M1099.6 410.699C1098 409.999 1098 408.699 1099.6 407.999L1103.1 406.399C1104.7 405.699 1107.4 405.599 1109 406.399L1121.7 412.199C1123.3 412.899 1123.3 414.199 1121.7 414.899L1118.2 416.499C1116.6 417.199 1113.9 417.299 1112.3 416.499L1099.6 410.699Z" fill="white" stroke="#007BFF" stroke-width="2" stroke-miterlimit="10" stroke-linecap="round" stroke-linejoin="round"/>
</g>
<g opacity="0.7">
<path opacity="0.7" d="M1123.1 421.398C1121.5 420.698 1121.5 419.398 1123.1 418.698L1126.6 417.098C1128.2 416.398 1130.9 416.298 1132.5 417.098L1144.8 422.698C1146.4 423.398 1146.4 424.698 1144.8 425.398L1141.3 426.998C1139.7 427.698 1137 427.798 1135.4 426.998L1123.1 421.398Z" fill="white" stroke="#007BFF" stroke-width="2" stroke-miterlimit="10" stroke-linecap="round" stroke-linejoin="round"/>
</g>
<g opacity="0.7">
<path opacity="0.7" d="M994.301 432.596C992.701 433.296 991.101 433.296 991.101 433.296C991.101 433.296 989.801 433.396 988.101 432.696L947.401 414.096C945.801 413.396 945.801 412.096 947.401 411.396L957.601 406.696C959.201 405.996 961.901 405.896 963.501 406.696L1004.2 425.196C1005.8 425.896 1005.8 427.196 1004.2 427.896L994.301 432.596Z" fill="white" stroke="#007BFF" stroke-width="2" stroke-miterlimit="10" stroke-linecap="round" stroke-linejoin="round"/>
</g>
<g opacity="0.7">
<path opacity="0.7" d="M1214.2 516.598C1212.6 515.898 1212.6 514.598 1214.2 513.898L1224.2 509.198C1225.8 508.398 1228.5 508.398 1230.1 509.198L1262.1 523.798C1263.7 524.498 1263.7 525.798 1262.1 526.498L1252 531.198C1250.4 531.898 1249.2 531.898 1249.1 531.898C1249.1 531.898 1247.5 531.898 1245.8 531.098L1214.2 516.598Z" fill="white" stroke="#007BFF" stroke-width="2" stroke-miterlimit="10" stroke-linecap="round" stroke-linejoin="round"/>
</g>
<g opacity="0.7">
<path opacity="0.7" d="M1041.3 398.797C1039.7 399.597 1037 399.598 1035.4 398.898L1007.9 386.297C1006.3 385.597 1006.3 384.298 1007.9 383.598L1016.2 379.797C1017.8 379.097 1020.5 378.997 1022.1 379.797L1049.2 392.198C1050.8 392.898 1050.8 394.198 1049.2 394.998L1041.3 398.797Z" fill="white" stroke="#007BFF" stroke-width="2" stroke-miterlimit="10" stroke-linecap="round" stroke-linejoin="round"/>
</g>
<g opacity="0.7">
<path opacity="0.7" d="M1008 400.297C1006.4 400.997 1006.1 401.097 1004.9 401.197C1003.7 401.297 1001.3 400.297 1001.3 400.297C999.701 399.597 998.701 398.797 997.601 398.597C996.501 398.397 994.801 399.197 993.201 399.997L979.001 406.497C977.401 407.197 974.701 407.297 973.101 406.497L968.401 404.397C966.801 403.697 966.801 402.397 968.401 401.697L997.001 388.497C998.601 387.797 1001.3 387.697 1002.9 388.497L1015.2 394.097C1016.8 394.797 1016.8 396.097 1015.2 396.797L1008 400.297Z" fill="white" stroke="#007BFF" stroke-width="2" stroke-miterlimit="10" stroke-linecap="round" stroke-linejoin="round"/>
</g>
<g opacity="0.7">
<path opacity="0.7" d="M1265.5 486.398C1263.9 485.698 1263.9 484.398 1265.5 483.698L1269 482.098C1270.6 481.398 1273.3 481.298 1274.9 482.098L1287.6 487.898C1289.2 488.598 1289.2 489.898 1287.6 490.598L1284.1 492.198C1282.5 492.898 1279.8 492.998 1278.2 492.198L1265.5 486.398Z" fill="white" stroke="#007BFF" stroke-width="2" stroke-miterlimit="10" stroke-linecap="round" stroke-linejoin="round"/>
</g>
<g opacity="0.7">
<path opacity="0.7" d="M1281.4 500.797C1283 500.097 1285.7 499.997 1287.3 500.797L1299.7 506.498C1301.3 507.198 1301.3 508.498 1299.7 509.198L1291.4 512.998C1289.8 513.698 1287.1 513.798 1285.5 512.998L1273.1 507.297C1271.5 506.597 1271.5 505.297 1273.1 504.597L1281.4 500.797Z" fill="white" stroke="#007BFF" stroke-width="2" stroke-miterlimit="10" stroke-linecap="round" stroke-linejoin="round"/>
</g>
<g opacity="0.7">
<path opacity="0.7" d="M1242 475.699C1240.4 474.999 1240.4 473.699 1242 472.999L1245.5 471.399C1247.1 470.699 1249.8 470.599 1251.4 471.399L1264.1 477.199C1265.7 477.899 1265.7 479.199 1264.1 479.899L1260.6 481.499C1259 482.199 1256.3 482.299 1254.7 481.499L1242 475.699Z" fill="white" stroke="#007BFF" stroke-width="2" stroke-miterlimit="10" stroke-linecap="round" stroke-linejoin="round"/>
</g>
<g opacity="0.7">
<path opacity="0.7" d="M1174.4 466.799C1176 467.499 1176 468.799 1174.4 469.499L1166.7 473.099C1165.1 473.799 1162.4 473.899 1160.8 473.099L1148.9 467.699C1147.3 466.999 1147.3 465.699 1148.9 464.999L1156.6 461.399C1158.2 460.699 1160.9 460.599 1162.5 461.399L1174.4 466.799Z" fill="white" stroke="#007BFF" stroke-width="2" stroke-miterlimit="10" stroke-linecap="round" stroke-linejoin="round"/>
</g>
<g opacity="0.7">
<path opacity="0.7" d="M1247.7 502.899C1249.3 502.199 1252 502.099 1253.6 502.899L1280.6 515.199C1282.2 515.899 1282.2 517.199 1280.6 517.899L1272.9 521.499C1271.3 522.199 1268.6 522.299 1267 521.499L1240 509.199C1238.4 508.499 1238.4 507.199 1240 506.499L1247.7 502.899Z" fill="white" stroke="#007BFF" stroke-width="2" stroke-miterlimit="10" stroke-linecap="round" stroke-linejoin="round"/>
</g>
<g opacity="0.7">
<path opacity="0.7" d="M1171.7 443.598C1170.1 442.898 1170.1 441.598 1171.7 440.898L1175.2 439.297C1176.8 438.597 1179.5 438.497 1181.1 439.297L1193.6 444.998C1195.2 445.698 1195.2 446.998 1193.6 447.698L1190.1 449.297C1188.5 449.997 1185.8 450.097 1184.2 449.297L1171.7 443.598Z" fill="white" stroke="#007BFF" stroke-width="2" stroke-miterlimit="10" stroke-linecap="round" stroke-linejoin="round"/>
</g>
<g opacity="0.7">
<path opacity="0.7" d="M1218.6 464.898C1217 464.198 1217 462.898 1218.6 462.198L1222.1 460.598C1223.7 459.898 1226.4 459.798 1228 460.598L1240.7 466.398C1242.3 467.098 1242.3 468.398 1240.7 469.098L1237.2 470.698C1235.6 471.398 1232.9 471.498 1231.3 470.698L1218.6 464.898Z" fill="white" stroke="#007BFF" stroke-width="2" stroke-miterlimit="10" stroke-linecap="round" stroke-linejoin="round"/>
</g>
<g opacity="0.7">
<path opacity="0.7" d="M1195.1 454.199C1193.5 453.499 1193.5 452.199 1195.1 451.499L1198.6 449.899C1200.2 449.199 1202.9 449.099 1204.5 449.899L1217.2 455.699C1218.8 456.399 1218.8 457.699 1217.2 458.399L1213.7 459.999C1212.1 460.699 1209.4 460.799 1207.8 459.999L1195.1 454.199Z" fill="white" stroke="#007BFF" stroke-width="2" stroke-miterlimit="10" stroke-linecap="round" stroke-linejoin="round"/>
</g>
<g opacity="0.7">
<path opacity="0.7" d="M1287.5 495.696C1287.5 495.696 1287.4 495.096 1289 494.296L1292.4 492.696C1294 491.996 1296.7 491.896 1298.3 492.696L1314 499.796C1315.6 500.496 1315.6 501.796 1314 502.496L1310.5 504.096C1308.9 504.796 1306.2 504.896 1304.6 504.096L1289.1 496.996C1287.5 496.396 1287.5 495.696 1287.5 495.696Z" fill="white" stroke="#007BFF" stroke-width="2" stroke-miterlimit="10" stroke-linecap="round" stroke-linejoin="round"/>
</g>
<g opacity="0.7">
<path opacity="0.7" d="M1193.7 512.297C1193.8 512.297 1195.2 512.397 1196.8 513.097L1208.6 518.497C1210.2 519.197 1210.2 520.497 1208.6 521.197L1198.4 525.897C1196.8 526.597 1194.1 526.697 1192.5 525.897L1180.8 520.597C1179.2 519.897 1179.2 518.597 1180.8 517.897L1190.6 513.397C1192.2 512.597 1193.7 512.397 1193.7 512.297Z" fill="white" stroke="#007BFF" stroke-width="2" stroke-miterlimit="10" stroke-linecap="round" stroke-linejoin="round"/>
</g>
<g opacity="0.7">
<path opacity="0.7" d="M1191.6 506.297C1190 505.597 1190 504.297 1191.6 503.597L1201.7 498.997C1203.3 498.297 1206 498.197 1207.6 498.997L1219.4 504.397C1221 505.097 1221 506.397 1219.4 507.097L1209.3 511.697C1207.7 512.397 1205 512.497 1203.4 511.697L1191.6 506.297Z" fill="white" stroke="#007BFF" stroke-width="2" stroke-miterlimit="10" stroke-linecap="round" stroke-linejoin="round"/>
</g>
<g opacity="0.7">
<path opacity="0.7" d="M1224.2 492.697C1225.8 491.997 1227.2 491.697 1227.3 491.697C1227.4 491.597 1228.9 491.697 1230.6 492.397L1242.6 497.897C1244.2 498.597 1244.2 499.897 1242.6 500.597L1234.9 504.197C1233.3 504.897 1230.6 504.997 1229 504.197L1217.1 498.797C1215.5 498.097 1215.5 496.797 1217.1 496.097L1224.2 492.697Z" fill="white" stroke="#007BFF" stroke-width="2" stroke-miterlimit="10" stroke-linecap="round" stroke-linejoin="round"/>
</g>
<g opacity="0.7">
<path opacity="0.7" d="M1186.1 508.198C1187.7 508.898 1187.7 510.198 1186.1 510.898L1175.9 515.597C1174.3 516.297 1173.2 516.398 1173.2 516.398C1173.2 516.398 1171.5 516.397 1169.9 515.597L1158 510.198C1156.4 509.498 1156.4 508.198 1158 507.498L1168.2 502.797C1169.8 502.097 1172.5 501.997 1174.1 502.797L1186.1 508.198Z" fill="white" stroke="#007BFF" stroke-width="2" stroke-miterlimit="10" stroke-linecap="round" stroke-linejoin="round"/>
</g>
<g opacity="0.7">
<path opacity="0.7" d="M1261.6 489.699C1261.6 489.699 1262.9 489.699 1264.6 490.399L1276.6 495.899C1278.2 496.599 1278.2 497.899 1276.6 498.599L1268.3 502.399C1266.7 503.099 1264 503.199 1262.4 502.399L1250.5 496.999C1248.9 496.299 1248.9 494.999 1250.5 494.299L1258.5 490.599C1260.1 489.799 1261.6 489.699 1261.6 489.699Z" fill="white" stroke="#007BFF" stroke-width="2" stroke-miterlimit="10" stroke-linecap="round" stroke-linejoin="round"/>
</g>
<g opacity="0.7">
<path opacity="0.7" d="M1204.9 476.196C1203.3 475.496 1203.3 474.196 1204.9 473.496L1213.2 469.696C1214.8 468.996 1217.5 468.896 1219.1 469.696L1231 475.096C1232.6 475.796 1232.6 477.096 1231 477.896L1223 481.796C1221.4 482.596 1218.7 482.596 1217.1 481.896L1204.9 476.196Z" fill="white" stroke="#007BFF" stroke-width="2" stroke-miterlimit="10" stroke-linecap="round" stroke-linejoin="round"/>
</g>
<g opacity="0.7">
<path opacity="0.7" d="M1242.5 492.798C1242.5 492.798 1241.2 492.798 1239.6 491.998L1227.7 486.598C1226.1 485.898 1226.1 484.598 1227.7 483.898L1236 480.098C1237.6 479.398 1240.3 479.298 1241.9 480.098L1253.8 485.498C1255.4 486.198 1255.4 487.498 1253.8 488.198L1245.5 491.998C1243.9 492.798 1242.5 492.798 1242.5 492.798Z" fill="white" stroke="#007BFF" stroke-width="2" stroke-miterlimit="10" stroke-linecap="round" stroke-linejoin="round"/>
</g>
<g opacity="0.7">
<path opacity="0.7" d="M1163.3 497.799C1164.9 498.499 1164.9 499.799 1163.3 500.499L1153.1 505.199C1151.5 505.899 1148.8 505.999 1147.2 505.199L1135.3 499.799C1133.7 499.099 1133.7 497.799 1135.3 497.099L1145.5 492.399C1147.1 491.699 1149.8 491.599 1151.4 492.399L1163.3 497.799Z" fill="white" stroke="#007BFF" stroke-width="2" stroke-miterlimit="10" stroke-linecap="round" stroke-linejoin="round"/>
</g>
<g opacity="0.7">
<path opacity="0.7" d="M1049.7 445.998C1051.3 446.698 1051.3 447.998 1049.7 448.698L1039.5 453.398C1037.9 454.098 1035.2 454.198 1033.6 453.398L1021.7 447.998C1020.1 447.298 1020.1 445.998 1021.7 445.298L1031.9 440.598C1033.5 439.898 1036.2 439.798 1037.8 440.598L1049.7 445.998Z" fill="white" stroke="#007BFF" stroke-width="2" stroke-miterlimit="10" stroke-linecap="round" stroke-linejoin="round"/>
</g>
<g opacity="0.7">
<path opacity="0.7" d="M1027 435.698C1028.6 436.398 1028.6 437.698 1027 438.398L1016.8 443.098C1015.2 443.798 1012.5 443.898 1010.9 443.098L999.001 437.698C997.401 436.998 997.401 435.698 999.001 434.998L1009.2 430.297C1010.8 429.597 1013.5 429.497 1015.1 430.297L1027 435.698Z" fill="white" stroke="#007BFF" stroke-width="2" stroke-miterlimit="10" stroke-linecap="round" stroke-linejoin="round"/>
</g>
<g opacity="0.7">
<path opacity="0.7" d="M967.501 428.698C969.201 429.498 969.201 430.798 967.501 431.598L964.501 432.998C963.201 433.598 961.101 433.598 959.801 432.998L950.001 428.498C948.401 427.798 948.401 426.498 950.001 425.798L954.101 423.898C954.901 423.498 956.201 423.498 957.001 423.898L967.501 428.698Z" fill="white" stroke="#007BFF" stroke-width="2" stroke-miterlimit="10" stroke-linecap="round" stroke-linejoin="round"/>
</g>
<g opacity="0.7">
<path opacity="0.7" d="M1197 471.999C1197 471.999 1195.7 471.999 1194.1 471.299L1182.2 465.899C1180.6 465.199 1180.6 463.899 1182.2 463.199L1190.5 459.399C1192.1 458.699 1194.8 458.599 1196.4 459.399L1208.3 464.799C1209.9 465.499 1209.9 466.799 1208.3 467.499L1200 471.299C1198.4 471.999 1197 471.999 1197 471.999Z" fill="white" stroke="#007BFF" stroke-width="2" stroke-miterlimit="10" stroke-linecap="round" stroke-linejoin="round"/>
</g>
<g opacity="0.7">
<path opacity="0.7" d="M1140.5 487.498C1142.1 488.198 1142.1 489.498 1140.5 490.198L1130.3 494.898C1128.7 495.598 1126 495.698 1124.4 494.898L1112.6 489.498C1111 488.798 1111 487.498 1112.6 486.798L1122.8 482.098C1124.4 481.398 1127.1 481.298 1128.7 482.098L1140.5 487.498Z" fill="white" stroke="#007BFF" stroke-width="2" stroke-miterlimit="10" stroke-linecap="round" stroke-linejoin="round"/>
</g>
<g opacity="0.7">
<path opacity="0.7" d="M1117.9 477.096C1119.5 477.796 1119.5 479.096 1117.9 479.796L1107.7 484.496C1106.1 485.196 1103.4 485.296 1101.8 484.496L1089.9 479.096C1088.3 478.396 1088.3 477.096 1089.9 476.396L1100.1 471.696C1101.7 470.996 1104.4 470.896 1106 471.696L1117.9 477.096Z" fill="white" stroke="#007BFF" stroke-width="2" stroke-miterlimit="10" stroke-linecap="round" stroke-linejoin="round"/>
</g>
<g opacity="0.7">
<path opacity="0.7" d="M1081.2 460.996C1081.2 460.996 1082.4 460.996 1084.1 461.696L1095.2 466.696C1096.8 467.396 1096.8 468.696 1095.2 469.396L1085.5 473.896C1083.9 474.596 1082.5 474.596 1082.4 474.696C1082.3 474.696 1080.8 474.896 1079.2 474.196L1068.1 469.096C1066.5 468.396 1066.5 467.096 1068.1 466.396L1078.2 461.696C1079.7 460.996 1081.2 460.996 1081.2 460.996Z" fill="white" stroke="#007BFF" stroke-width="2" stroke-miterlimit="10" stroke-linecap="round" stroke-linejoin="round"/>
</g>
<g opacity="0.7">
<path opacity="0.7" d="M1057.5 450.298C1057.5 450.298 1058.8 450.198 1060.4 450.898L1073.2 456.798C1074.8 457.498 1074.8 458.798 1073.2 459.498L1063 464.198C1061.4 464.898 1058.7 464.998 1057.1 464.198L1044.3 458.398C1042.7 457.698 1042.7 456.398 1044.3 455.698L1054.2 451.098C1055.9 450.298 1057.5 450.298 1057.5 450.298Z" fill="white" stroke="#007BFF" stroke-width="2" stroke-miterlimit="10" stroke-linecap="round" stroke-linejoin="round"/>
</g>
<g opacity="0.7">
<path opacity="0.7" d="M1182 470.898C1182 470.898 1183.5 470.998 1185.1 471.698L1197.1 477.198C1198.7 477.898 1198.7 479.198 1197.1 479.898L1189.6 483.398C1188 484.098 1187.6 484.098 1186.7 484.198C1185.8 484.298 1185.2 484.298 1183.5 483.498L1171.5 477.998C1169.9 477.298 1169.9 475.998 1171.5 475.298L1179 471.798C1180.6 471.098 1182 470.898 1182 470.898Z" fill="white" stroke="#007BFF" stroke-width="2" stroke-miterlimit="10" stroke-linecap="round" stroke-linejoin="round"/>
</g>
<g opacity="0.7">
<path opacity="0.7" d="M1115.9 470.997C1114.8 470.997 1114.4 470.997 1112.7 470.297L1100.7 464.797C1099.1 464.097 1099.1 462.797 1100.7 462.097L1110.8 457.497C1112.4 456.797 1115.1 456.697 1116.7 457.497L1128.6 462.897C1130.2 463.597 1130.2 464.897 1128.6 465.597L1119.2 469.897C1117.5 470.697 1117 470.997 1115.9 470.997Z" fill="white" stroke="#007BFF" stroke-width="2" stroke-miterlimit="10" stroke-linecap="round" stroke-linejoin="round"/>
</g>
<g opacity="0.7">
<path opacity="0.7" d="M1078.8 454.797C1077.2 454.097 1077.2 452.797 1078.8 452.097L1088.9 447.497C1090.5 446.797 1093.2 446.697 1094.8 447.497L1105.8 452.497C1107.4 453.197 1107.4 454.497 1105.8 455.197L1095.7 459.797C1094.1 460.497 1091.4 460.597 1089.8 459.797L1078.8 454.797Z" fill="white" stroke="#007BFF" stroke-width="2" stroke-miterlimit="10" stroke-linecap="round" stroke-linejoin="round"/>
</g>
<g opacity="0.7">
<path opacity="0.7" d="M1032.5 433.699C1030.9 432.999 1030.9 431.699 1032.5 430.999L1042.6 426.399C1044.2 425.699 1046.9 425.599 1048.5 426.399L1060.4 431.799C1062 432.499 1062 433.799 1060.4 434.499L1050.3 439.099C1048.7 439.799 1046 439.899 1044.4 439.099L1032.5 433.699Z" fill="white" stroke="#007BFF" stroke-width="2" stroke-miterlimit="10" stroke-linecap="round" stroke-linejoin="round"/>
</g>
<g opacity="0.7">
<path opacity="0.7" d="M1123.4 475.199C1121.8 474.499 1121.8 473.199 1123.4 472.499L1133.5 467.899C1135.1 467.199 1137.8 467.099 1139.4 467.899L1151.2 473.299C1152.8 473.999 1152.8 475.299 1151.2 475.999L1141.1 480.599C1139.5 481.299 1136.8 481.399 1135.2 480.599L1123.4 475.199Z" fill="white" stroke="#007BFF" stroke-width="2" stroke-miterlimit="10" stroke-linecap="round" stroke-linejoin="round"/>
</g>
<g opacity="0.7">
<path opacity="0.7" d="M1055.2 443.998C1053.6 443.298 1053.5 442.098 1055.2 441.398L1065.3 436.797C1066.9 436.097 1069.6 435.997 1071.2 436.797L1084 442.598C1085.6 443.298 1085.6 444.597 1084 445.297L1074.5 449.698C1072.9 450.398 1070.2 450.497 1068.5 449.797L1055.2 443.998Z" fill="white" stroke="#007BFF" stroke-width="2" stroke-miterlimit="10" stroke-linecap="round" stroke-linejoin="round"/>
</g>
<g opacity="0.7">
<path opacity="0.7" d="M1146 485.499C1144.4 484.799 1144.4 483.499 1146 482.799L1155 478.699C1156.6 477.999 1157.3 477.499 1158.3 477.399C1159.3 477.299 1160.1 477.199 1161.7 477.999L1174 483.599C1175.6 484.299 1175.6 485.599 1174 486.299L1163.9 490.899C1162.3 491.599 1159.6 491.699 1158 490.899L1146 485.499Z" fill="white" stroke="#007BFF" stroke-width="2" stroke-miterlimit="10" stroke-linecap="round" stroke-linejoin="round"/>
</g>
<g opacity="0.7">
<path opacity="0.7" d="M1219.9 487.498C1221.5 488.198 1221.5 489.498 1219.9 490.198L1212.2 493.798C1210.6 494.498 1207.9 494.598 1206.3 493.798L1194.4 488.398C1192.8 487.698 1192.8 486.398 1194.4 485.698L1202.1 482.098C1203.7 481.398 1206.4 481.298 1208 482.098L1219.9 487.498Z" fill="white" stroke="#007BFF" stroke-width="2" stroke-miterlimit="10" stroke-linecap="round" stroke-linejoin="round"/>
</g>
<g opacity="0.7">
<path opacity="0.7" d="M1184.2 501.998C1184.1 502.098 1182.6 502.098 1180.9 501.398L1168.8 495.898C1167.2 495.198 1167.2 493.898 1168.8 493.198L1178.9 488.598C1180.5 487.898 1183.2 487.798 1184.8 488.598L1196.7 493.998C1198.3 494.698 1198.3 495.998 1196.7 496.698L1187.4 500.998C1185.8 501.698 1184.3 501.898 1184.2 501.998Z" fill="white" stroke="#007BFF" stroke-width="2" stroke-miterlimit="10" stroke-linecap="round" stroke-linejoin="round"/>
</g>
<g opacity="0.7">
<path opacity="0.7" d="M1060.7 410.396C1060.7 410.396 1059.3 409.796 1057.7 409.096L1045.8 403.696C1044.2 402.996 1044.2 401.696 1045.8 400.996L1054.1 397.196C1055.7 396.496 1058.4 396.396 1060 397.196L1071.9 402.596C1073.5 403.296 1073.5 404.596 1071.9 405.296L1063.7 409.096C1062.1 409.796 1060.7 410.396 1060.7 410.396Z" fill="white" stroke="#007BFF" stroke-width="2" stroke-miterlimit="10" stroke-linecap="round" stroke-linejoin="round"/>
</g>
<g opacity="0.7">
<path opacity="0.7" d="M1136.8 445.098C1135.2 444.398 1135.2 443.098 1136.8 442.398L1145.1 438.598C1146.7 437.898 1149.4 437.798 1151 438.598L1162.9 443.998C1164.5 444.698 1164.5 445.998 1162.9 446.698L1154.6 450.498C1153 451.198 1150.3 451.298 1148.7 450.498L1136.8 445.098Z" fill="white" stroke="#007BFF" stroke-width="2" stroke-miterlimit="10" stroke-linecap="round" stroke-linejoin="round"/>
</g>
<g opacity="0.7">
<path opacity="0.7" d="M1003.7 417.898C1002.1 418.598 999.401 418.698 997.801 417.898L984.001 411.598C982.401 410.898 982.401 409.598 984.001 408.898L994.101 404.297C995.701 403.597 998.401 403.497 1000 404.297L1013.8 410.598C1015.4 411.298 1015.4 412.597 1013.8 413.297L1003.7 417.898Z" fill="white" stroke="#007BFF" stroke-width="2" stroke-miterlimit="10" stroke-linecap="round" stroke-linejoin="round"/>
</g>
<g opacity="0.7">
<path opacity="0.7" d="M1091.2 424.396C1089.6 423.696 1089.6 422.396 1091.2 421.696L1098.9 418.096C1100.5 417.396 1101.9 417.196 1102 417.096C1102.1 416.996 1103.6 416.996 1105.2 417.796L1118.1 423.696C1119.7 424.396 1119.7 425.696 1118.1 426.396L1109.8 430.196C1108.2 430.896 1105.5 430.996 1103.9 430.196L1091.2 424.396Z" fill="white" stroke="#007BFF" stroke-width="2" stroke-miterlimit="10" stroke-linecap="round" stroke-linejoin="round"/>
</g>
<g opacity="0.7">
<path opacity="0.7" d="M1114.9 435.196C1113.3 434.496 1113.3 433.196 1114.9 432.496L1122.8 428.896C1124.4 428.196 1125.7 427.996 1125.8 427.996C1125.9 427.996 1127.5 427.896 1129.1 428.696L1140.2 433.796C1141.8 434.496 1141.8 435.796 1140.2 436.496L1131.9 440.296C1130.3 440.996 1127.6 441.096 1126 440.296L1114.9 435.196Z" fill="white" stroke="#007BFF" stroke-width="2" stroke-miterlimit="10" stroke-linecap="round" stroke-linejoin="round"/>
</g>
<g opacity="0.7">
<path opacity="0.7" d="M1174.3 461.597C1174.3 461.597 1173 461.597 1171.3 460.897L1159.5 455.497C1157.9 454.797 1157.9 453.497 1159.5 452.797L1167.8 448.997C1169.4 448.297 1172.1 448.197 1173.7 448.997L1185.5 454.397C1187.1 455.097 1187.1 456.397 1185.5 457.097L1177.4 460.797C1175.8 461.597 1174.3 461.597 1174.3 461.597Z" fill="white" stroke="#007BFF" stroke-width="2" stroke-miterlimit="10" stroke-linecap="round" stroke-linejoin="round"/>
</g>
<g opacity="0.7">
<path opacity="0.7" d="M1068.6 413.997C1067 413.297 1067 411.997 1068.6 411.297L1076.9 407.497C1078.5 406.797 1081.2 406.697 1082.8 407.497L1094.7 412.897C1096.3 413.597 1096.3 414.897 1094.7 415.597L1086.4 419.397C1084.8 420.097 1082.1 420.197 1080.5 419.397L1068.6 413.997Z" fill="white" stroke="#007BFF" stroke-width="2" stroke-miterlimit="10" stroke-linecap="round" stroke-linejoin="round"/>
</g>
<g opacity="0.7">
<path opacity="0.7" d="M1012.5 405.398C1010.9 404.698 1010.9 403.398 1012.5 402.698L1020.2 399.098C1021.8 398.398 1024.5 398.298 1026.1 399.098L1038 404.498C1039.6 405.198 1039.6 406.498 1038 407.198L1030.3 410.798C1028.7 411.498 1026 411.598 1024.4 410.798L1012.5 405.398Z" fill="white" stroke="#007BFF" stroke-width="2" stroke-miterlimit="10" stroke-linecap="round" stroke-linejoin="round"/>
</g>
<path d="M459.4 864.802V1092.6H53.0996V864.802C53.0996 855.602 60.5996 848.102 69.7996 848.102H442.6C451.9 848.102 459.4 855.602 459.4 864.802Z" fill="white" stroke="#007BFF" stroke-width="2" stroke-miterlimit="10" stroke-linecap="round" stroke-linejoin="round"/>
<path d="M441.6 867.203H70.9004V1092.6H441.6V867.203Z" fill="white" stroke="#007BFF" stroke-width="2" stroke-miterlimit="10" stroke-linecap="round" stroke-linejoin="round"/>
<path d="M309.4 1173.3H203.1L214.8 1134.2H298.9L309.4 1173.3Z" fill="white" stroke="#007BFF" stroke-width="2" stroke-miterlimit="10" stroke-linecap="round" stroke-linejoin="round"/>
<path d="M459.399 1092.6V1117.4C459.399 1126.6 451.899 1134.1 442.699 1134.1H69.8992C60.6992 1134.1 53.1992 1126.6 53.1992 1117.4V1092.6H459.399Z" fill="white" stroke="#007BFF" stroke-width="2" stroke-miterlimit="10" stroke-linecap="round" stroke-linejoin="round"/>
<path d="M214.8 1134.2L211 1146.9H302.3L298.9 1134.2H214.8Z" fill="white" stroke="#007BFF" stroke-width="2" stroke-miterlimit="10" stroke-linecap="round" stroke-linejoin="round"/>
<path d="M323.8 1192.9H188.7C183.3 1192.9 178.9 1188.5 178.9 1183.1C178.9 1177.7 183.3 1173.3 188.7 1173.3H323.8C329.2 1173.3 333.6 1177.7 333.6 1183.1C333.6 1188.5 329.2 1192.9 323.8 1192.9Z" fill="white" stroke="#007BFF" stroke-width="2" stroke-miterlimit="10" stroke-linecap="round" stroke-linejoin="round"/>
<path d="M654 1192.9H513.5C509.4 1192.9 506.1 1189.6 506.1 1185.5V855.502C506.1 851.402 509.4 848.102 513.5 848.102H654C658.1 848.102 661.4 851.402 661.4 855.502V1185.5C661.4 1189.6 658.1 1192.9 654 1192.9Z" fill="white" stroke="#007BFF" stroke-width="2" stroke-miterlimit="10" stroke-linecap="round" stroke-linejoin="round"/>
<path d="M661.4 1129.7V1180C661.4 1187.1 655.6 1192.9 648.5 1192.9H519C511.9 1192.9 506.1 1187.1 506.1 1180V1129.7C506.1 1145.5 518.9 1158.3 534.7 1158.3H632.8C648.6 1158.3 661.4 1145.5 661.4 1129.7Z" fill="white" stroke="#007BFF" stroke-width="2" stroke-miterlimit="10" stroke-linecap="round" stroke-linejoin="round"/>
<path d="M649.899 933.603H519.499C516.899 933.603 514.799 931.503 514.799 928.903V885.903C514.799 883.303 516.899 881.203 519.499 881.203H649.899C652.499 881.203 654.599 883.303 654.599 885.903V928.903C654.599 931.503 652.499 933.603 649.899 933.603Z" fill="white" stroke="#007BFF" stroke-width="2" stroke-miterlimit="10" stroke-linecap="round" stroke-linejoin="round"/>
<path d="M644.799 909.401H523.399C521.699 909.401 520.299 908.001 520.299 906.301V896.901C520.299 895.201 521.699 893.801 523.399 893.801H644.799C646.499 893.801 647.899 895.201 647.899 896.901V906.301C647.899 908.001 646.499 909.401 644.799 909.401Z" fill="white" stroke="#007BFF" stroke-width="2" stroke-miterlimit="10" stroke-linecap="round" stroke-linejoin="round"/>
<path d="M541.3 904.401H528.7C526.9 904.401 525.4 902.901 525.4 901.101C525.4 899.301 526.9 897.801 528.7 897.801H541.3C543.1 897.801 544.6 899.301 544.6 901.101C544.7 903.001 543.2 904.401 541.3 904.401Z" fill="white" stroke="#007BFF" stroke-width="2" stroke-miterlimit="10" stroke-linecap="round" stroke-linejoin="round"/>
<path d="M618.7 905.603C621.02 905.603 622.9 903.723 622.9 901.403C622.9 899.084 621.02 897.203 618.7 897.203C616.38 897.203 614.5 899.084 614.5 901.403C614.5 903.723 616.38 905.603 618.7 905.603Z" fill="white" stroke="#007BFF" stroke-width="2" stroke-miterlimit="10" stroke-linecap="round" stroke-linejoin="round"/>
<path d="M634.8 905.603C637.119 905.603 639 903.723 639 901.403C639 899.084 637.119 897.203 634.8 897.203C632.48 897.203 630.6 899.084 630.6 901.403C630.6 903.723 632.48 905.603 634.8 905.603Z" fill="white" stroke="#007BFF" stroke-width="2" stroke-miterlimit="10" stroke-linecap="round" stroke-linejoin="round"/>
<path d="M645.799 866.1H610.599C608.199 866.1 606.299 864.2 606.299 861.8C606.299 859.4 608.199 857.5 610.599 857.5H645.799C648.199 857.5 650.099 859.4 650.099 861.8C650.099 864.2 648.199 866.1 645.799 866.1Z" fill="white" stroke="#007BFF" stroke-width="2" stroke-miterlimit="10" stroke-linecap="round" stroke-linejoin="round"/>
<path d="M650.699 1020.5H516.499C514.699 1020.5 513.199 1019 513.199 1017.2V1001.4C513.199 999.602 514.699 998.102 516.499 998.102H650.799C652.599 998.102 654.099 999.602 654.099 1001.4V1017.2C654.099 1019 652.599 1020.5 650.699 1020.5Z" fill="white" stroke="#007BFF" stroke-width="2" stroke-miterlimit="10" stroke-linecap="round" stroke-linejoin="round"/>
<path d="M641.2 1013.3H625.1C624.8 1013.3 624.5 1013.1 624.5 1012.7V1005.2C624.5 1004.9 624.7 1004.6 625.1 1004.6H641.2C641.5 1004.6 641.8 1004.8 641.8 1005.2V1012.7C641.7 1013 641.5 1013.3 641.2 1013.3Z" fill="white" stroke="#007BFF" stroke-width="2" stroke-miterlimit="10" stroke-linecap="round" stroke-linejoin="round"/>
<path d="M639.8 1008.5H626.4C626.1 1008.5 625.9 1008.3 625.9 1008V1006.4C625.9 1006.1 626.1 1005.9 626.4 1005.9H639.8C640.1 1005.9 640.3 1006.1 640.3 1006.4V1008C640.3 1008.3 640.1 1008.5 639.8 1008.5Z" fill="white" stroke="#007BFF" stroke-width="2" stroke-miterlimit="10" stroke-linecap="round" stroke-linejoin="round"/>
<path d="M619.6 1013.3H603.5C603.2 1013.3 602.9 1013.1 602.9 1012.7V1005.2C602.9 1004.9 603.1 1004.6 603.5 1004.6H619.6C619.9 1004.6 620.2 1004.8 620.2 1005.2V1012.7C620.1 1013 619.9 1013.3 619.6 1013.3Z" fill="white" stroke="#007BFF" stroke-width="2" stroke-miterlimit="10" stroke-linecap="round" stroke-linejoin="round"/>
<path d="M618.199 1008.5H604.799C604.499 1008.5 604.299 1008.3 604.299 1008V1006.4C604.299 1006.1 604.499 1005.9 604.799 1005.9H618.199C618.499 1005.9 618.699 1006.1 618.699 1006.4V1008C618.699 1008.3 618.499 1008.5 618.199 1008.5Z" fill="white" stroke="#007BFF" stroke-width="2" stroke-miterlimit="10" stroke-linecap="round" stroke-linejoin="round"/>
<path d="M581.8 1013.2C579.5 1013.2 577.6 1011.3 577.6 1009C577.6 1006.7 579.5 1004.8 581.8 1004.8C584.1 1004.8 586 1006.7 586 1009C586 1011.4 584.1 1013.2 581.8 1013.2ZM581.8 1006.4C580.3 1006.4 579.1 1007.6 579.1 1009.1C579.1 1010.6 580.3 1011.8 581.8 1011.8C583.3 1011.8 584.5 1010.6 584.5 1009.1C584.5 1007.6 583.3 1006.4 581.8 1006.4Z" fill="white" stroke="#007BFF" stroke-width="2" stroke-miterlimit="10" stroke-linecap="round" stroke-linejoin="round"/>
<path d="M593.3 1013.2C591 1013.2 589.1 1011.3 589.1 1009C589.1 1006.7 591 1004.8 593.3 1004.8C595.6 1004.8 597.5 1006.7 597.5 1009C597.5 1011.4 595.6 1013.2 593.3 1013.2ZM593.3 1006.4C591.8 1006.4 590.6 1007.6 590.6 1009.1C590.6 1010.6 591.8 1011.8 593.3 1011.8C594.8 1011.8 596 1010.6 596 1009.1C596 1007.6 594.8 1006.4 593.3 1006.4Z" fill="white" stroke="#007BFF" stroke-width="2" stroke-miterlimit="10" stroke-linecap="round" stroke-linejoin="round"/>
<path d="M577.9 1150.2H570.8C568.9 1150.2 567.4 1148.7 567.4 1146.8C567.4 1144.9 568.9 1143.4 570.8 1143.4H577.9C579.8 1143.4 581.3 1144.9 581.3 1146.8C581.3 1148.7 579.8 1150.2 577.9 1150.2Z" fill="white" stroke="#007BFF" stroke-width="2" stroke-miterlimit="10" stroke-linecap="round" stroke-linejoin="round"/>
<path d="M596.699 1150.2H589.599C587.699 1150.2 586.199 1148.7 586.199 1146.8C586.199 1144.9 587.699 1143.4 589.599 1143.4H596.699C598.599 1143.4 600.099 1144.9 600.099 1146.8C599.999 1148.7 598.499 1150.2 596.699 1150.2Z" fill="white" stroke="#007BFF" stroke-width="2" stroke-miterlimit="10" stroke-linecap="round" stroke-linejoin="round"/>
<path d="M584.599 1096.3C597.523 1096.3 607.999 1085.82 607.999 1072.9C607.999 1059.98 597.523 1049.5 584.599 1049.5C571.676 1049.5 561.199 1059.98 561.199 1072.9C561.199 1085.82 571.676 1096.3 584.599 1096.3Z" fill="white" stroke="#007BFF" stroke-width="2" stroke-miterlimit="10" stroke-linecap="round" stroke-linejoin="round"/>
<path d="M584.599 1088.3C593.104 1088.3 599.999 1081.41 599.999 1072.9C599.999 1064.39 593.104 1057.5 584.599 1057.5C576.094 1057.5 569.199 1064.39 569.199 1072.9C569.199 1081.41 576.094 1088.3 584.599 1088.3Z" fill="white" stroke="#007BFF" stroke-width="2" stroke-miterlimit="10" stroke-linecap="round" stroke-linejoin="round"/>
<path d="M584.6 1083.1C579.3 1083.1 575 1078.8 575 1073.5C575 1070.8 576.2 1068.1 578.2 1066.3C578.9 1065.6 580.1 1065.7 580.7 1066.5C581.4 1067.2 581.3 1068.4 580.5 1069C579.2 1070.1 578.5 1071.8 578.5 1073.5C578.5 1076.8 581.2 1079.5 584.5 1079.5C587.8 1079.5 590.5 1076.8 590.5 1073.5C590.5 1071.8 589.8 1070.1 588.5 1069C587.8 1068.3 587.7 1067.2 588.3 1066.5C589 1065.8 590.1 1065.7 590.8 1066.3C592.9 1068.1 594 1070.7 594 1073.5C594.1 1078.8 589.8 1083.1 584.6 1083.1Z" fill="white" stroke="#007BFF" stroke-width="2" stroke-miterlimit="10" stroke-linecap="round" stroke-linejoin="round"/>
<path d="M584.601 1072.6C583.601 1072.6 582.801 1071.8 582.801 1070.8V1064.5C582.801 1063.5 583.601 1062.7 584.601 1062.7C585.601 1062.7 586.401 1063.5 586.401 1064.5V1070.8C586.401 1071.8 585.601 1072.6 584.601 1072.6Z" fill="white" stroke="#007BFF" stroke-width="2" stroke-miterlimit="10" stroke-linecap="round" stroke-linejoin="round"/>
<path d="M1321.1 864.398C1331.5 864.398 1340 872.898 1340 883.398V1174C1340 1184.4 1331.5 1192.9 1321.1 1192.9H932.1C921.7 1192.9 913.1 1184.4 913.1 1174V883.398C913.1 872.998 921.6 864.398 932.1 864.398H1321.1Z" fill="white" stroke="#007BFF" stroke-width="2" stroke-miterlimit="10" stroke-linecap="round" stroke-linejoin="round"/>
<path d="M1303.8 896.297H949.5V1161.1H1303.8V896.297Z" fill="white" stroke="#007BFF" stroke-width="2" stroke-miterlimit="10" stroke-linecap="round" stroke-linejoin="round"/>
<path d="M932.6 1024.5C934.9 1024.5 936.8 1026.4 936.8 1028.7C936.8 1031 934.9 1032.9 932.6 1032.9C930.3 1032.9 928.4 1031 928.4 1028.7C928.4 1026.4 930.3 1024.5 932.6 1024.5Z" fill="white" stroke="#007BFF" stroke-width="2" stroke-miterlimit="10" stroke-linecap="round" stroke-linejoin="round"/>
<path d="M1320.6 1021.3C1324.7 1021.3 1328 1024.6 1328 1028.7C1328 1032.8 1324.7 1036.1 1320.6 1036.1C1316.5 1036.1 1313.2 1032.8 1313.2 1028.7C1313.2 1024.6 1316.5 1021.3 1320.6 1021.3Z" fill="white" stroke="#007BFF" stroke-width="2" stroke-miterlimit="10" stroke-linecap="round" stroke-linejoin="round"/>
<path d="M540.3 66.7035V530.704H237C218.1 530.704 202.8 515.404 202.8 496.504V66.7035V63.1035C202.8 41.3035 185.1 23.7035 163.4 23.7035H497.4C521 23.6035 540.3 42.9035 540.3 66.7035Z" fill="white" stroke="#007BFF" stroke-width="2" stroke-miterlimit="10" stroke-linecap="round" stroke-linejoin="round"/>
<path d="M53.0996 384.902V137.602H127.9V386.902C127.9 406.402 112.1 422.302 92.4996 422.302H92.3996C71.3996 422.302 54.1996 405.702 53.0996 384.902Z" fill="white" stroke="#007BFF" stroke-width="2" stroke-miterlimit="10" stroke-linecap="round" stroke-linejoin="round"/>
<path d="M127.9 386.902V372.302V137.602V59.0016C127.9 39.5016 143.7 23.6016 163.3 23.6016C185.1 23.6016 202.7 41.3016 202.7 63.0016V66.6016V372.202V379.102V422.202H92.5996C112.1 422.302 127.9 406.402 127.9 386.902Z" fill="white" stroke="#007BFF" stroke-width="2" stroke-miterlimit="10" stroke-linecap="round" stroke-linejoin="round"/>
<path d="M277.499 495.301V429.301H613.099V495.301C613.099 514.801 597.299 530.701 577.699 530.701H577.599H242.199C261.699 530.701 277.499 514.801 277.499 495.301Z" fill="white" stroke="#007BFF" stroke-width="2" stroke-miterlimit="10" stroke-linecap="round" stroke-linejoin="round"/>
<path d="M626 309.199H913.3" stroke="#007BFF" stroke-width="4" stroke-linecap="round" stroke-linejoin="round"/>
<path d="M937.501 309.199C926.101 313.399 912.001 320.599 903.301 328.199L910.201 309.199L903.301 290.199C912.001 297.799 926.101 304.999 937.501 309.199Z" fill="#007BFF"/>
<path d="M253.801 570.398V705.598" stroke="#007BFF" stroke-width="4" stroke-linecap="round" stroke-linejoin="round"/>
<path d="M253.801 729.7C249.601 718.3 242.401 704.2 234.801 695.5L253.801 702.4L272.801 695.5C265.201 704.2 258.001 718.3 253.801 729.7Z" fill="#007BFF"/>
<path d="M627.6 543.398L998.6 714.798" stroke="#007BFF" stroke-width="4" stroke-linecap="round" stroke-linejoin="round"/>
<path d="M1020.5 724.899C1008.4 723.999 992.6 724.599 981.5 727.799L995.7 713.399L997.4 693.199C1002.2 703.899 1011.9 716.299 1020.5 724.899Z" fill="#007BFF"/>
<path d="M350.851 239H354.195V215.744H355.031L361.985 228.626H365.557L372.511 215.744H373.347V239H376.691V211.868H370.953L364.227 224.598H363.391L356.551 211.868H350.851V239ZM388.444 246.6L399.92 219.848H396.538L391.218 232.464H390.268L384.416 219.848H380.958L389.128 237.214L385.176 246.6H388.444ZM309.663 257.166C313.501 257.166 315.553 260.168 315.553 264.424C315.553 268.68 313.501 271.682 309.663 271.682C305.407 271.682 303.659 268.186 303.659 264.424C303.659 260.662 305.407 257.166 309.663 257.166ZM300.467 254.848V281.6H303.697V271.948H304.533C305.559 273.316 307.345 274.494 310.385 274.494C315.667 274.494 318.783 270.2 318.783 264.424C318.783 258.762 315.667 254.354 310.385 254.354C307.345 254.354 305.483 255.57 304.419 256.9H303.583V254.848H300.467ZM334.789 254.848H333.345C330.571 254.848 328.747 255.95 327.797 257.128H326.961V254.848H323.845V274H327.075V264.424C327.075 260.206 329.393 257.888 333.193 257.888H334.789V254.848ZM347.269 254.354C341.265 254.354 337.845 258.762 337.845 264.424C337.845 270.086 341.265 274.494 347.269 274.494C353.235 274.494 356.693 270.086 356.693 264.424C356.693 258.762 353.235 254.354 347.269 254.354ZM347.269 271.682C343.013 271.682 341.075 268.186 341.075 264.424C341.075 260.662 343.013 257.166 347.269 257.166C351.487 257.166 353.463 260.662 353.463 264.424C353.463 268.186 351.487 271.682 347.269 271.682ZM375.756 254.848V256.9H374.92C373.894 255.57 372.07 254.354 369.068 254.354C363.786 254.354 360.556 258.534 360.556 264.158C360.556 269.744 363.786 273.924 369.068 273.924C371.956 273.924 373.78 272.708 374.806 271.378H375.642V272.898C375.642 276.736 373.856 279.13 369.904 279.13C367.016 279.13 365.04 278.294 364.47 276.014H361.278C361.848 279.814 365.04 281.866 369.942 281.866C375.528 281.866 378.872 278.408 378.872 273.05V254.848H375.756ZM369.676 271.112C365.914 271.112 363.786 268.3 363.786 264.158C363.786 259.94 365.914 257.166 369.676 257.166C373.78 257.166 375.718 260.472 375.718 264.158C375.718 267.806 373.78 271.112 369.676 271.112ZM396.057 254.848H394.613C391.839 254.848 390.015 255.95 389.065 257.128H388.229V254.848H385.113V274H388.343V264.424C388.343 260.206 390.661 257.888 394.461 257.888H396.057V254.848ZM412.489 274H415.529V260.966C415.529 256.672 412.451 254.354 407.625 254.354C403.331 254.354 400.291 256.406 400.025 259.94H403.255C403.407 258.268 404.851 257.166 407.701 257.166C411.045 257.166 412.375 258.838 412.375 261.156V261.916H406.143C400.823 261.916 398.809 265.184 398.809 268.262C398.809 271.53 401.279 274.494 405.687 274.494C408.423 274.494 410.475 273.468 411.653 271.986H412.489V274ZM406.485 271.682C403.635 271.682 402.039 270.314 402.039 268.148C402.039 265.868 403.483 264.5 406.637 264.5H412.375V266.248C412.375 269.288 409.677 271.682 406.485 271.682ZM441.545 254.354C439.151 254.354 437.327 255.19 436.149 256.9H435.313C434.287 255.19 432.577 254.354 430.259 254.354C427.827 254.354 426.345 255.228 425.395 256.71H424.559V254.848H421.443V274H424.673V263.398C424.673 259.94 426.193 257.242 429.385 257.242C431.779 257.242 433.033 258.876 433.033 262.03V274H436.263V262.79C436.263 259.56 437.935 257.242 440.937 257.242C443.407 257.242 444.623 258.8 444.623 261.954V274H447.853V261.612C447.853 257.204 445.953 254.354 441.545 254.354Z" fill="#082E51"/>
<path d="M927.785 120H931.129V96.744H931.965L938.919 109.626H942.491L949.445 96.744H950.281V120H953.625V92.868H947.887L941.161 105.598H940.325L933.485 92.868H927.785V120ZM965.379 127.6L976.855 100.848H973.473L968.153 113.464H967.203L961.351 100.848H957.893L966.063 118.214L962.111 127.6H965.379ZM991.234 92.374V120H994.464V92.374H991.234ZM1012.9 120H1015.94V106.966C1015.94 102.672 1012.86 100.354 1008.03 100.354C1003.74 100.354 1000.7 102.406 1000.43 105.94H1003.66C1003.81 104.268 1005.26 103.166 1008.11 103.166C1011.45 103.166 1012.78 104.838 1012.78 107.156V107.916H1006.55C1001.23 107.916 999.215 111.184 999.215 114.262C999.215 117.53 1001.69 120.494 1006.09 120.494C1008.83 120.494 1010.88 119.468 1012.06 117.986H1012.9V120ZM1006.89 117.682C1004.04 117.682 1002.45 116.314 1002.45 114.148C1002.45 111.868 1003.89 110.5 1007.04 110.5H1012.78V112.248C1012.78 115.288 1010.08 117.682 1006.89 117.682ZM1031.05 103.166C1034.88 103.166 1036.94 106.168 1036.94 110.424C1036.94 114.68 1034.88 117.682 1031.05 117.682C1026.79 117.682 1025.04 114.186 1025.04 110.424C1025.04 106.662 1026.79 103.166 1031.05 103.166ZM1021.85 100.848V127.6H1025.08V117.948H1025.92C1026.94 119.316 1028.73 120.494 1031.77 120.494C1037.05 120.494 1040.17 116.2 1040.17 110.424C1040.17 104.762 1037.05 100.354 1031.77 100.354C1028.73 100.354 1026.87 101.57 1025.8 102.9H1024.97V100.848H1021.85ZM1049.67 100.848V95.072H1046.44V100.848H1043.14V103.66H1046.44V114.642C1046.44 118.708 1048.88 120 1053.02 120H1054.5V117.112H1053.09C1050.51 117.112 1049.67 116.124 1049.67 114.186V103.66H1054.5V100.848H1049.67ZM1067.76 100.354C1061.76 100.354 1058.34 104.762 1058.34 110.424C1058.34 116.086 1061.76 120.494 1067.76 120.494C1073.73 120.494 1077.19 116.086 1077.19 110.424C1077.19 104.762 1073.73 100.354 1067.76 100.354ZM1067.76 117.682C1063.51 117.682 1061.57 114.186 1061.57 110.424C1061.57 106.662 1063.51 103.166 1067.76 103.166C1071.98 103.166 1073.96 106.662 1073.96 110.424C1073.96 114.186 1071.98 117.682 1067.76 117.682ZM1091.42 103.166C1095.26 103.166 1097.31 106.168 1097.31 110.424C1097.31 114.68 1095.26 117.682 1091.42 117.682C1087.17 117.682 1085.42 114.186 1085.42 110.424C1085.42 106.662 1087.17 103.166 1091.42 103.166ZM1082.23 100.848V127.6H1085.46V117.948H1086.29C1087.32 119.316 1089.1 120.494 1092.14 120.494C1097.43 120.494 1100.54 116.2 1100.54 110.424C1100.54 104.762 1097.43 100.354 1092.14 100.354C1089.1 100.354 1087.24 101.57 1086.18 102.9H1085.34V100.848H1082.23ZM1124.24 107.118L1120.97 116.58H1120.13L1117.85 100.848H1114.74L1117.47 120H1122.49L1125.83 110.31H1126.63L1129.98 120H1134.92L1137.69 100.848H1134.57L1132.37 116.58H1131.53L1128.34 107.118H1124.24ZM1145.87 95.87V92.374H1142.45V95.87H1145.87ZM1145.76 100.848H1142.53V120H1145.76V100.848ZM1156.55 100.848V95.072H1153.32V100.848H1150.01V103.66H1153.32V114.642C1153.32 118.708 1155.75 120 1159.89 120H1161.38V117.112H1159.97C1157.39 117.112 1156.55 116.124 1156.55 114.186V103.66H1161.38V100.848H1156.55ZM1183.71 120V107.84C1183.71 103.242 1181.13 100.354 1176.45 100.354C1173.87 100.354 1171.78 101.418 1170.75 102.9H1169.92V92.374H1166.69V120H1169.92V109.626C1169.92 106.244 1172.2 103.242 1175.62 103.242C1178.85 103.242 1180.48 105.066 1180.48 108.524V120H1183.71ZM1207.27 120.494C1212.62 120.494 1215.82 117.112 1215.82 111.336V92.868H1212.4V111.374C1212.4 115.478 1210.38 117.378 1207.34 117.378C1204.19 117.378 1202.25 115.592 1201.95 111.83H1198.53C1198.87 117.454 1202.29 120.494 1207.27 120.494ZM1228.62 120H1235.16L1243.82 92.868H1240.29L1232.88 116.504H1230.98L1223.57 92.868H1219.96L1228.62 120ZM1248.04 120H1251.38V96.744H1252.22L1259.17 109.626H1262.75L1269.7 96.744H1270.54V120H1273.88V92.868H1268.14L1261.42 105.598H1260.58L1253.74 92.868H1248.04V120ZM1290.58 100.772V103.356H1294.46L1293.4 110.044H1289.18V112.628H1292.98L1291.8 120H1294.54L1295.71 112.628H1300.84L1299.67 120H1302.4L1303.58 112.628H1307.84V110.044H1304L1305.02 103.356H1309.24V100.772H1305.44L1306.62 93.4H1303.92L1302.74 100.772H1297.58L1298.75 93.4H1296.06L1294.88 100.772H1290.58ZM1297.16 103.356H1302.33L1301.26 110.044H1296.13L1297.16 103.356ZM1312.77 120H1328.23V117.036H1322.42V93.4H1318.28L1312.73 97.162V100.658L1318.31 96.896H1319.07V117.036H1312.77V120Z" fill="#082E51"/>
<path d="M79.8047 808H83.1487V784.744H83.9847L90.9387 797.626H94.5107L101.465 784.744H102.301V808H105.645V780.868H99.9067L93.1807 793.598H92.3447L85.5047 780.868H79.8047V808ZM117.398 815.6L128.874 788.848H125.492L120.172 801.464H119.222L113.37 788.848H109.912L118.082 806.214L114.13 815.6H117.398ZM143.596 780.868V808H147.016V797.132H155.072C161 797.132 164.268 794.092 164.268 788.962C164.268 783.908 161 780.868 155.072 780.868H143.596ZM147.016 794.092V783.908H154.502C159.138 783.908 160.81 785.846 160.81 789C160.81 792.154 159.138 794.092 154.502 794.092H147.016ZM188 800.286C187.126 803.44 184.656 805.378 180.856 805.378C174.548 805.378 171.774 800.21 171.774 794.434C171.774 788.696 174.586 783.49 180.894 783.49C184.656 783.49 186.67 785.086 187.696 787.974H191.306C190.204 783.3 186.404 780.374 180.894 780.374C172.838 780.374 168.316 786.378 168.316 794.434C168.316 802.49 172.762 808.494 180.856 808.494C186.822 808.494 190.508 805.112 191.61 800.286H188ZM215.249 795.118L211.981 804.58H211.145L208.865 788.848H205.749L208.485 808H213.501L216.845 798.31H217.643L220.987 808H225.927L228.701 788.848H225.585L223.381 804.58H222.545L219.353 795.118H215.249ZM236.887 783.87V780.374H233.467V783.87H236.887ZM236.773 788.848H233.543V808H236.773V788.848ZM247.561 788.848V783.072H244.331V788.848H241.025V791.66H244.331V802.642C244.331 806.708 246.763 808 250.905 808H252.387V805.112H250.981C248.397 805.112 247.561 804.124 247.561 802.186V791.66H252.387V788.848H247.561ZM274.723 808V795.84C274.723 791.242 272.139 788.354 267.465 788.354C264.881 788.354 262.791 789.418 261.765 790.9H260.929V780.374H257.699V808H260.929V797.626C260.929 794.244 263.209 791.242 266.629 791.242C269.859 791.242 271.493 793.066 271.493 796.524V808H274.723ZM298.277 808.494C303.635 808.494 306.827 805.112 306.827 799.336V780.868H303.407V799.374C303.407 803.478 301.393 805.378 298.353 805.378C295.199 805.378 293.261 803.592 292.957 799.83H289.537C289.879 805.454 293.299 808.494 298.277 808.494ZM319.634 808H326.17L334.834 780.868H331.3L323.89 804.504H321.99L314.58 780.868H310.97L319.634 808ZM339.051 808H342.395V784.744H343.231L350.185 797.626H353.757L360.711 784.744H361.547V808H364.891V780.868H359.153L352.427 793.598H351.591L344.751 780.868H339.051V808ZM381.597 788.772V791.356H385.473L384.409 798.044H380.191V800.628H383.991L382.813 808H385.549L386.727 800.628H391.857L390.679 808H393.415L394.593 800.628H398.849V798.044H395.011L396.037 791.356H400.255V788.772H396.455L397.633 781.4H394.935L393.757 788.772H388.589L389.767 781.4H387.069L385.891 788.772H381.597ZM388.171 791.356H393.339L392.275 798.044H387.145L388.171 791.356ZM406.894 788.734C407.236 785.39 409.326 783.832 412.328 783.832C415.558 783.832 417.686 785.618 417.686 788.962C417.686 792.116 415.368 794.282 413.544 795.916C412.138 797.208 409.63 799.336 407.502 801.046L403.588 804.238V808H421.866V805.036H408.452V804.2L415.14 798.576C418.294 795.954 421.03 792.572 421.03 788.962C421.03 783.642 417.382 780.868 412.404 780.868C407.692 780.868 403.854 783.414 403.55 788.734H406.894Z" fill="#082E51"/>
<path d="M930.829 808H934.173V784.744H935.009L941.963 797.626H945.535L952.489 784.744H953.325V808H956.669V780.868H950.931L944.205 793.598H943.369L936.529 780.868H930.829V808ZM968.423 815.6L979.899 788.848H976.517L971.197 801.464H970.247L964.395 788.848H960.937L969.107 806.214L965.155 815.6H968.423ZM998.724 788.848V783.072H995.494V788.848H992.188V791.66H995.494V802.642C995.494 806.708 997.926 808 1002.07 808H1003.55V805.112H1002.14C999.56 805.112 998.724 804.124 998.724 802.186V791.66H1003.55V788.848H998.724ZM1021.06 808H1024.1V794.966C1024.1 790.672 1021.02 788.354 1016.2 788.354C1011.9 788.354 1008.86 790.406 1008.6 793.94H1011.83C1011.98 792.268 1013.42 791.166 1016.27 791.166C1019.62 791.166 1020.95 792.838 1020.95 795.156V795.916H1014.71C1009.39 795.916 1007.38 799.184 1007.38 802.262C1007.38 805.53 1009.85 808.494 1014.26 808.494C1016.99 808.494 1019.05 807.468 1020.22 805.986H1021.06V808ZM1015.06 805.682C1012.21 805.682 1010.61 804.314 1010.61 802.148C1010.61 799.868 1012.05 798.5 1015.21 798.5H1020.95V800.248C1020.95 803.288 1018.25 805.682 1015.06 805.682ZM1039.93 788.354C1036.89 788.354 1035.11 789.532 1034.08 790.9H1033.24V780.374H1030.01V808H1033.13V805.948H1033.97C1035.03 807.278 1036.89 808.494 1039.93 808.494C1045.21 808.494 1048.33 804.086 1048.33 798.424C1048.33 792.648 1045.21 788.354 1039.93 788.354ZM1039.21 805.682C1034.95 805.682 1033.21 802.186 1033.21 798.424C1033.21 794.662 1034.95 791.166 1039.21 791.166C1043.05 791.166 1045.1 794.168 1045.1 798.424C1045.1 802.68 1043.05 805.682 1039.21 805.682ZM1053.39 780.374V808H1056.62V780.374H1053.39ZM1079.46 797.284C1079.35 792.572 1076.61 788.354 1070.91 788.354C1065.1 788.354 1061.68 792.344 1061.68 798.234C1061.68 804.124 1065.02 808.494 1070.99 808.494C1075.74 808.494 1078.51 805.986 1079.12 802.718H1075.85C1075.28 804.542 1073.69 805.682 1070.99 805.682C1067.04 805.682 1064.98 802.946 1064.87 798.386H1079.46V797.284ZM1070.84 791.166C1074.07 791.166 1075.93 793.256 1076.12 795.688H1065.06C1065.48 793.256 1067.38 791.166 1070.84 791.166ZM1088.94 788.848V783.072H1085.71V788.848H1082.4V791.66H1085.71V802.642C1085.71 806.708 1088.14 808 1092.28 808H1093.76V805.112H1092.36C1089.77 805.112 1088.94 804.124 1088.94 802.186V791.66H1093.76V788.848H1088.94ZM1117.71 795.118L1114.44 804.58H1113.6L1111.32 788.848H1108.21L1110.94 808H1115.96L1119.3 798.31H1120.1L1123.45 808H1128.39L1131.16 788.848H1128.04L1125.84 804.58H1125L1121.81 795.118H1117.71ZM1139.34 783.87V780.374H1135.92V783.87H1139.34ZM1139.23 788.848H1136V808H1139.23V788.848ZM1150.02 788.848V783.072H1146.79V788.848H1143.48V791.66H1146.79V802.642C1146.79 806.708 1149.22 808 1153.36 808H1154.85V805.112H1153.44C1150.86 805.112 1150.02 804.124 1150.02 802.186V791.66H1154.85V788.848H1150.02ZM1177.18 808V795.84C1177.18 791.242 1174.6 788.354 1169.92 788.354C1167.34 788.354 1165.25 789.418 1164.22 790.9H1163.39V780.374H1160.16V808H1163.39V797.626C1163.39 794.244 1165.67 791.242 1169.09 791.242C1172.32 791.242 1173.95 793.066 1173.95 796.524V808H1177.18ZM1200.73 808.494C1206.09 808.494 1209.28 805.112 1209.28 799.336V780.868H1205.86V799.374C1205.86 803.478 1203.85 805.378 1200.81 805.378C1197.66 805.378 1195.72 803.592 1195.41 799.83H1191.99C1192.34 805.454 1195.76 808.494 1200.73 808.494ZM1222.09 808H1228.63L1237.29 780.868H1233.76L1226.35 804.504H1224.45L1217.04 780.868H1213.43L1222.09 808ZM1241.51 808H1244.85V784.744H1245.69L1252.64 797.626H1256.21L1263.17 784.744H1264V808H1267.35V780.868H1261.61L1254.88 793.598H1254.05L1247.21 780.868H1241.51V808ZM1284.05 788.772V791.356H1287.93L1286.87 798.044H1282.65V800.628H1286.45L1285.27 808H1288.01L1289.18 800.628H1294.31L1293.14 808H1295.87L1297.05 800.628H1301.31V798.044H1297.47L1298.49 791.356H1302.71V788.772H1298.91L1300.09 781.4H1297.39L1296.21 788.772H1291.05L1292.22 781.4H1289.53L1288.35 788.772H1284.05ZM1290.63 791.356H1295.8L1294.73 798.044H1289.6L1290.63 791.356ZM1307 781.4V784.288H1318.62V785.124L1312.13 790.748V794.282C1312.73 794.13 1313.49 794.054 1314.44 794.054C1318.36 794.054 1320.45 796.22 1320.45 799.716C1320.45 803.364 1318.05 805.53 1314.41 805.53C1311.21 805.53 1308.74 803.592 1308.44 800.552H1305.1C1305.4 805.074 1309.01 808.494 1314.41 808.494C1319.84 808.494 1323.79 805.226 1323.79 799.716C1323.79 794.586 1320.45 791.736 1315.89 791.622V790.824L1322.54 785.124V781.4H1307Z" fill="#082E51"/>
</g>
<defs>
<clipPath id="clip0">
<rect width="1474" height="1236" fill="white"/>
</clipPath>
</defs>
</svg>
