<svg width="1474" height="372" viewBox="0 0 1474 372" fill="none" xmlns="http://www.w3.org/2000/svg">
<g clip-path="url(#clip0)">
<rect width="1474" height="372" fill="white"/>
<path d="M300.6 114.898H45.4C39.7 114.898 35 110.198 35 104.498V48.2984C35 42.5984 39.7 37.8984 45.4 37.8984H300.6C306.3 37.8984 311 42.5984 311 48.2984V104.498C311 110.298 306.3 114.898 300.6 114.898Z" stroke="#007BFF" stroke-width="2" stroke-miterlimit="10" stroke-linecap="round" stroke-linejoin="round"/>
<path d="M300.6 220.598H45.4C39.7 220.598 35 215.898 35 210.198V153.998C35 148.298 39.7 143.598 45.4 143.598H300.6C306.3 143.598 311 148.298 311 153.998V210.198C311 215.898 306.3 220.598 300.6 220.598Z" stroke="#007BFF" stroke-width="2" stroke-miterlimit="10" stroke-linecap="round" stroke-linejoin="round"/>
<path d="M300.6 326.297H45.4C39.7 326.297 35 321.597 35 315.897V259.697C35 253.997 39.7 249.297 45.4 249.297H300.6C306.3 249.297 311 253.997 311 259.697V315.897C311 321.597 306.3 326.297 300.6 326.297Z" stroke="#007BFF" stroke-width="2" stroke-miterlimit="10" stroke-linecap="round" stroke-linejoin="round"/>
<path d="M1141.1 220.602H832.099C826.399 220.602 821.699 215.902 821.699 210.202V154.002C821.699 148.302 826.399 143.602 832.099 143.602H1141.2C1146.9 143.602 1151.6 148.302 1151.6 154.002V210.202C1151.5 215.902 1146.9 220.602 1141.1 220.602Z" fill="#E0EFFF" stroke="#E0EFFF" stroke-width="2" stroke-miterlimit="10" stroke-linecap="round" stroke-linejoin="round"/>
<path d="M1215.8 181.798L1197.5 191.198L1201.8 182.098L1197.2 172.898L1215.8 181.798Z" fill="#007BFF"/>
<path d="M1151.5 182.4L1204.8 182" stroke="#007BFF" stroke-width="2" stroke-miterlimit="10" stroke-linecap="round" stroke-linejoin="round"/>
<path d="M822.498 181.798L804.198 191.198L808.498 182.098L803.898 172.898L822.498 181.798Z" fill="#007BFF"/>
<path d="M758.199 182.3L811.499 182" stroke="#007BFF" stroke-width="2" stroke-miterlimit="10" stroke-linecap="round" stroke-linejoin="round"/>
<path d="M821.601 172.902L803.801 162.602L813.801 161.302L819.001 152.402L821.601 172.902Z" fill="#007BFF"/>
<path d="M757 75.3008L815.4 163.801" stroke="#007BFF" stroke-width="2" stroke-miterlimit="10" stroke-linecap="round" stroke-linejoin="round"/>
<path d="M819.001 209.602L813.801 200.702L803.801 199.402L821.601 189.102L819.001 209.602Z" fill="#007BFF"/>
<path d="M815.401 198.301L757.301 289.901" stroke="#007BFF" stroke-width="2" stroke-miterlimit="10" stroke-linecap="round" stroke-linejoin="round"/>
<path d="M375.301 182.099L357.001 191.499L361.301 182.399L356.701 173.199L375.301 182.099Z" fill="#007BFF"/>
<path d="M310.9 182.601L364.3 182.301" stroke="#007BFF" stroke-width="2" stroke-miterlimit="10" stroke-linecap="round" stroke-linejoin="round"/>
<path d="M375.301 76.2008L357.001 85.6008L361.301 76.5008L356.701 67.3008L375.301 76.2008Z" fill="#007BFF"/>
<path d="M310.9 76.7023L364.3 76.4023" stroke="#007BFF" stroke-width="2" stroke-miterlimit="10" stroke-linecap="round" stroke-linejoin="round"/>
<path d="M375.299 287.502L356.999 296.902L361.299 287.802L356.699 278.602L375.299 287.502Z" fill="#007BFF"/>
<path d="M311 288.003L364.3 287.703" stroke="#007BFF" stroke-width="2" stroke-miterlimit="10" stroke-linecap="round" stroke-linejoin="round"/>
<path d="M1332.1 223.301C1396.16 223.301 1448.1 204.944 1448.1 182.301C1448.1 159.657 1396.16 141.301 1332.1 141.301C1268.03 141.301 1216.1 159.657 1216.1 182.301C1216.1 204.944 1268.03 223.301 1332.1 223.301Z" fill="#082E51" stroke="#082E51" stroke-width="2.0114" stroke-miterlimit="10" stroke-linecap="round" stroke-linejoin="round"/>
<path d="M566.5 222.5C671.71 222.5 757 204.144 757 181.5C757 158.856 671.71 140.5 566.5 140.5C461.29 140.5 376 158.856 376 181.5C376 204.144 461.29 222.5 566.5 222.5Z" fill="#007BFF" stroke="#007BFF" stroke-width="2.0114" stroke-miterlimit="10" stroke-linecap="round" stroke-linejoin="round"/>
<path d="M566.5 117.5C671.71 117.5 757 99.1437 757 76.5C757 53.8563 671.71 35.5 566.5 35.5C461.29 35.5 376 53.8563 376 76.5C376 99.1437 461.29 117.5 566.5 117.5Z" fill="#007BFF" stroke="#007BFF" stroke-width="2.0114" stroke-miterlimit="10" stroke-linecap="round" stroke-linejoin="round"/>
<path d="M566.5 328.699C671.71 328.699 757 310.343 757 287.699C757 265.056 671.71 246.699 566.5 246.699C461.29 246.699 376 265.056 376 287.699C376 310.343 461.29 328.699 566.5 328.699Z" fill="#007BFF" stroke="#007BFF" stroke-width="2.0114" stroke-miterlimit="10" stroke-linecap="round" stroke-linejoin="round"/>
<g opacity="0.4">
<path d="M376.801 75.1992H382.801" stroke="white" stroke-width="2" stroke-linecap="round" stroke-linejoin="round"/>
<path d="M394.701 75.1992L745.101 75.2992" stroke="white" stroke-width="2" stroke-linecap="round" stroke-linejoin="round" stroke-dasharray="11.88 11.88"/>
<path d="M751 75.3008H757" stroke="white" stroke-width="2" stroke-linecap="round" stroke-linejoin="round"/>
</g>
<g opacity="0.4">
<path d="M376 288H382" stroke="white" stroke-width="2" stroke-linecap="round" stroke-linejoin="round"/>
<path d="M393.9 288L744.3 288.1" stroke="white" stroke-width="2" stroke-linecap="round" stroke-linejoin="round" stroke-dasharray="11.88 11.88"/>
<path d="M750.199 288.102H756.199" stroke="white" stroke-width="2" stroke-linecap="round" stroke-linejoin="round"/>
</g>
<g opacity="0.4">
<path d="M376 182H382" stroke="white" stroke-width="2" stroke-linecap="round" stroke-linejoin="round"/>
<path d="M393.9 182L744.3 182.1" stroke="white" stroke-width="2" stroke-linecap="round" stroke-linejoin="round" stroke-dasharray="11.88 11.88"/>
<path d="M750.199 182.102H756.199" stroke="white" stroke-width="2" stroke-linecap="round" stroke-linejoin="round"/>
</g>
<path d="M865.39 195.494C870.748 195.494 873.94 192.112 873.94 186.336V167.868H870.52V186.374C870.52 190.478 868.506 192.378 865.466 192.378C862.312 192.378 860.374 190.592 860.07 186.83H856.65C856.992 192.454 860.412 195.494 865.39 195.494ZM892.637 195H895.677V181.966C895.677 177.672 892.599 175.354 887.773 175.354C883.479 175.354 880.439 177.406 880.173 180.94H883.403C883.555 179.268 884.999 178.166 887.849 178.166C891.193 178.166 892.523 179.838 892.523 182.156V182.916H886.291C880.971 182.916 878.957 186.184 878.957 189.262C878.957 192.53 881.427 195.494 885.835 195.494C888.571 195.494 890.623 194.468 891.801 192.986H892.637V195ZM886.633 192.682C883.783 192.682 882.187 191.314 882.187 189.148C882.187 186.868 883.631 185.5 886.785 185.5H892.523V187.248C892.523 190.288 889.825 192.682 886.633 192.682ZM905.658 195H911.7L918.122 175.848H914.74L909.572 191.96H908.014L902.656 175.848H899.312L905.658 195ZM933.903 195H936.943V181.966C936.943 177.672 933.865 175.354 929.039 175.354C924.745 175.354 921.705 177.406 921.439 180.94H924.669C924.821 179.268 926.265 178.166 929.115 178.166C932.459 178.166 933.789 179.838 933.789 182.156V182.916H927.557C922.237 182.916 920.223 186.184 920.223 189.262C920.223 192.53 922.693 195.494 927.101 195.494C929.837 195.494 931.889 194.468 933.067 192.986H933.903V195ZM927.899 192.682C925.049 192.682 923.453 191.314 923.453 189.148C923.453 186.868 924.897 185.5 928.051 185.5H933.789V187.248C933.789 190.288 931.091 192.682 927.899 192.682ZM963.351 175.354C960.311 175.354 958.525 176.532 957.499 177.9H956.663V167.374H953.433V195H956.549V192.948H957.385C958.449 194.278 960.311 195.494 963.351 195.494C968.633 195.494 971.749 191.086 971.749 185.424C971.749 179.648 968.633 175.354 963.351 175.354ZM962.629 192.682C958.373 192.682 956.625 189.186 956.625 185.424C956.625 181.662 958.373 178.166 962.629 178.166C966.467 178.166 968.519 181.168 968.519 185.424C968.519 189.68 966.467 192.682 962.629 192.682ZM981.98 202.6L993.456 175.848H990.074L984.754 188.464H983.804L977.952 175.848H974.494L982.664 193.214L978.712 202.6H981.98ZM1001.71 175.848V170.072H998.476V175.848H995.17V178.66H998.476V189.642C998.476 193.708 1000.91 195 1005.05 195H1006.53V192.112H1005.13C1002.54 192.112 1001.71 191.124 1001.71 189.186V178.66H1006.53V175.848H1001.71ZM1028.15 184.284C1028.04 179.572 1025.3 175.354 1019.6 175.354C1013.79 175.354 1010.37 179.344 1010.37 185.234C1010.37 191.124 1013.71 195.494 1019.68 195.494C1024.43 195.494 1027.2 192.986 1027.81 189.718H1024.54C1023.97 191.542 1022.38 192.682 1019.68 192.682C1015.73 192.682 1013.67 189.946 1013.56 185.386H1028.15V184.284ZM1019.53 178.166C1022.76 178.166 1024.62 180.256 1024.81 182.688H1013.75C1014.17 180.256 1016.07 178.166 1019.53 178.166ZM1046.14 189.224C1045.65 191.352 1044.05 192.682 1041.31 192.682C1037.02 192.682 1035.23 189.186 1035.23 185.348C1035.23 181.548 1036.98 178.166 1041.31 178.166C1043.94 178.166 1045.42 179.458 1046.03 181.396H1049.26C1048.61 177.862 1045.87 175.354 1041.31 175.354C1035.35 175.354 1032 179.648 1032 185.424C1032 191.086 1035.35 195.494 1041.31 195.494C1045.76 195.494 1048.65 192.986 1049.37 189.224H1046.14ZM1062.43 175.354C1056.43 175.354 1053.01 179.762 1053.01 185.424C1053.01 191.086 1056.43 195.494 1062.43 195.494C1068.4 195.494 1071.86 191.086 1071.86 185.424C1071.86 179.762 1068.4 175.354 1062.43 175.354ZM1062.43 192.682C1058.18 192.682 1056.24 189.186 1056.24 185.424C1056.24 181.662 1058.18 178.166 1062.43 178.166C1066.65 178.166 1068.63 181.662 1068.63 185.424C1068.63 189.186 1066.65 192.682 1062.43 192.682ZM1090.8 167.374V177.9H1089.97C1088.9 176.532 1087.16 175.354 1084.12 175.354C1078.83 175.354 1075.72 179.648 1075.72 185.424C1075.72 191.086 1078.83 195.494 1084.12 195.494C1087.16 195.494 1089.02 194.278 1090.08 192.948H1090.92V195H1094.03V167.374H1090.8ZM1084.84 192.682C1081 192.682 1078.95 189.68 1078.95 185.424C1078.95 181.168 1081 178.166 1084.84 178.166C1089.09 178.166 1090.84 181.662 1090.84 185.424C1090.84 189.186 1089.09 192.682 1084.84 192.682ZM1116.88 184.284C1116.77 179.572 1114.03 175.354 1108.33 175.354C1102.52 175.354 1099.1 179.344 1099.1 185.234C1099.1 191.124 1102.44 195.494 1108.41 195.494C1113.16 195.494 1115.93 192.986 1116.54 189.718H1113.27C1112.7 191.542 1111.11 192.682 1108.41 192.682C1104.46 192.682 1102.4 189.946 1102.29 185.386H1116.88V184.284ZM1108.26 178.166C1111.49 178.166 1113.35 180.256 1113.54 182.688H1102.48C1102.9 180.256 1104.8 178.166 1108.26 178.166Z" fill="#082E51"/>
<path d="M1273.12 193H1276.69L1267.27 165.868H1261.49L1252.1 193H1255.6L1258.41 184.678H1270.31L1273.12 193ZM1263.58 169.364H1265.1L1269.24 181.562H1259.44L1263.58 169.364ZM1297.57 193V180.84C1297.57 176.242 1294.99 173.354 1290.28 173.354C1287.69 173.354 1285.56 174.418 1284.5 175.9H1283.66V173.848H1280.55V193H1283.78V182.626C1283.78 179.244 1286.06 176.242 1289.48 176.242C1292.71 176.242 1294.34 177.99 1294.34 181.524V193H1297.57ZM1308.65 200.6L1320.13 173.848H1316.74L1311.42 186.464H1310.47L1304.62 173.848H1301.16L1309.33 191.214L1305.38 200.6H1308.65ZM1341.57 193.494C1346.93 193.494 1350.12 190.112 1350.12 184.336V165.868H1346.7V184.374C1346.7 188.478 1344.69 190.378 1341.65 190.378C1338.49 190.378 1336.56 188.592 1336.25 184.83H1332.83C1333.17 190.454 1336.59 193.494 1341.57 193.494ZM1362.93 193H1369.47L1378.13 165.868H1374.6L1367.19 189.504H1365.29L1357.88 165.868H1354.27L1362.93 193ZM1382.35 193H1385.69V169.744H1386.53L1393.48 182.626H1397.05L1404.01 169.744H1404.84V193H1408.19V165.868H1402.45L1395.72 178.598H1394.89L1388.05 165.868H1382.35V193Z" fill="white"/>
<path d="M91.2641 87.494C96.6221 87.494 99.8141 84.112 99.8141 78.336V59.868H96.3941V78.374C96.3941 82.478 94.3801 84.378 91.3401 84.378C88.1861 84.378 86.2481 82.592 85.9441 78.83H82.5241C82.8661 84.454 86.2861 87.494 91.2641 87.494ZM118.511 87H121.551V73.966C121.551 69.672 118.473 67.354 113.647 67.354C109.353 67.354 106.313 69.406 106.047 72.94H109.277C109.429 71.268 110.873 70.166 113.723 70.166C117.067 70.166 118.397 71.838 118.397 74.156V74.916H112.165C106.845 74.916 104.831 78.184 104.831 81.262C104.831 84.53 107.301 87.494 111.709 87.494C114.445 87.494 116.497 86.468 117.675 84.986H118.511V87ZM112.507 84.682C109.657 84.682 108.061 83.314 108.061 81.148C108.061 78.868 109.505 77.5 112.659 77.5H118.397V79.248C118.397 82.288 115.699 84.682 112.507 84.682ZM131.532 87H137.574L143.996 67.848H140.614L135.446 83.96H133.888L128.53 67.848H125.186L131.532 87ZM159.777 87H162.817V73.966C162.817 69.672 159.739 67.354 154.913 67.354C150.619 67.354 147.579 69.406 147.313 72.94H150.543C150.695 71.268 152.139 70.166 154.989 70.166C158.333 70.166 159.663 71.838 159.663 74.156V74.916H153.431C148.111 74.916 146.097 78.184 146.097 81.262C146.097 84.53 148.567 87.494 152.975 87.494C155.711 87.494 157.763 86.468 158.941 84.986H159.777V87ZM153.773 84.682C150.923 84.682 149.327 83.314 149.327 81.148C149.327 78.868 150.771 77.5 153.925 77.5H159.663V79.248C159.663 82.288 156.965 84.682 153.773 84.682ZM192.265 81.224C191.771 83.352 190.175 84.682 187.439 84.682C183.145 84.682 181.359 81.186 181.359 77.348C181.359 73.548 183.107 70.166 187.439 70.166C190.061 70.166 191.543 71.458 192.151 73.396H195.381C194.735 69.862 191.999 67.354 187.439 67.354C181.473 67.354 178.129 71.648 178.129 77.424C178.129 83.086 181.473 87.494 187.439 87.494C191.885 87.494 194.773 84.986 195.495 81.224H192.265ZM208.557 67.354C202.553 67.354 199.133 71.762 199.133 77.424C199.133 83.086 202.553 87.494 208.557 87.494C214.523 87.494 217.981 83.086 217.981 77.424C217.981 71.762 214.523 67.354 208.557 67.354ZM208.557 84.682C204.301 84.682 202.363 81.186 202.363 77.424C202.363 73.662 204.301 70.166 208.557 70.166C212.775 70.166 214.751 73.662 214.751 77.424C214.751 81.186 212.775 84.682 208.557 84.682ZM236.93 59.374V69.9H236.094C235.03 68.532 233.282 67.354 230.242 67.354C224.96 67.354 221.844 71.648 221.844 77.424C221.844 83.086 224.96 87.494 230.242 87.494C233.282 87.494 235.144 86.278 236.208 84.948H237.044V87H240.16V59.374H236.93ZM230.964 84.682C227.126 84.682 225.074 81.68 225.074 77.424C225.074 73.168 227.126 70.166 230.964 70.166C235.22 70.166 236.968 73.662 236.968 77.424C236.968 81.186 235.22 84.682 230.964 84.682ZM263.007 76.284C262.893 71.572 260.157 67.354 254.457 67.354C248.643 67.354 245.223 71.344 245.223 77.234C245.223 83.124 248.567 87.494 254.533 87.494C259.283 87.494 262.057 84.986 262.665 81.718H259.397C258.827 83.542 257.231 84.682 254.533 84.682C250.581 84.682 248.529 81.946 248.415 77.386H263.007V76.284ZM254.381 70.166C257.611 70.166 259.473 72.256 259.663 74.688H248.605C249.023 72.256 250.923 70.166 254.381 70.166Z" fill="#082E51"/>
<path d="M73.8691 193H77.2891V183.614L83.8251 177.344H84.6611L92.7931 193H96.4411L86.9031 174.38L95.4151 165.868H91.2351L77.2891 179.32V165.868H73.8691V193ZM108.306 173.354C102.302 173.354 98.8823 177.762 98.8823 183.424C98.8823 189.086 102.302 193.494 108.306 193.494C114.272 193.494 117.73 189.086 117.73 183.424C117.73 177.762 114.272 173.354 108.306 173.354ZM108.306 190.682C104.05 190.682 102.112 187.186 102.112 183.424C102.112 179.662 104.05 176.166 108.306 176.166C112.524 176.166 114.5 179.662 114.5 183.424C114.5 187.186 112.524 190.682 108.306 190.682ZM127.217 173.848V168.072H123.987V173.848H120.681V176.66H123.987V187.642C123.987 191.708 126.419 193 130.561 193H132.043V190.112H130.637C128.053 190.112 127.217 189.124 127.217 187.186V176.66H132.043V173.848H127.217ZM137.355 165.374V193H140.585V165.374H137.355ZM150.238 168.87V165.374H146.818V168.87H150.238ZM150.124 173.848H146.894V193H150.124V173.848ZM173.491 193V180.84C173.491 176.242 170.907 173.354 166.195 173.354C163.611 173.354 161.483 174.418 160.419 175.9H159.583V173.848H156.467V193H159.697V182.626C159.697 179.244 161.977 176.242 165.397 176.242C168.627 176.242 170.261 177.99 170.261 181.524V193H173.491ZM202.934 187.224C202.44 189.352 200.844 190.682 198.108 190.682C193.814 190.682 192.028 187.186 192.028 183.348C192.028 179.548 193.776 176.166 198.108 176.166C200.73 176.166 202.212 177.458 202.82 179.396H206.05C205.404 175.862 202.668 173.354 198.108 173.354C192.142 173.354 188.798 177.648 188.798 183.424C188.798 189.086 192.142 193.494 198.108 193.494C202.554 193.494 205.442 190.986 206.164 187.224H202.934ZM219.226 173.354C213.222 173.354 209.802 177.762 209.802 183.424C209.802 189.086 213.222 193.494 219.226 193.494C225.192 193.494 228.65 189.086 228.65 183.424C228.65 177.762 225.192 173.354 219.226 173.354ZM219.226 190.682C214.97 190.682 213.032 187.186 213.032 183.424C213.032 179.662 214.97 176.166 219.226 176.166C223.444 176.166 225.42 179.662 225.42 183.424C225.42 187.186 223.444 190.682 219.226 190.682ZM247.599 165.374V175.9H246.763C245.699 174.532 243.951 173.354 240.911 173.354C235.629 173.354 232.513 177.648 232.513 183.424C232.513 189.086 235.629 193.494 240.911 193.494C243.951 193.494 245.813 192.278 246.877 190.948H247.713V193H250.829V165.374H247.599ZM241.633 190.682C237.795 190.682 235.743 187.68 235.743 183.424C235.743 179.168 237.795 176.166 241.633 176.166C245.889 176.166 247.637 179.662 247.637 183.424C247.637 187.186 245.889 190.682 241.633 190.682ZM273.676 182.284C273.562 177.572 270.826 173.354 265.126 173.354C259.312 173.354 255.892 177.344 255.892 183.234C255.892 189.124 259.236 193.494 265.202 193.494C269.952 193.494 272.726 190.986 273.334 187.718H270.066C269.496 189.542 267.9 190.682 265.202 190.682C261.25 190.682 259.198 187.946 259.084 183.386H273.676V182.284ZM265.05 176.166C268.28 176.166 270.142 178.256 270.332 180.688H259.274C259.692 178.256 261.592 176.166 265.05 176.166Z" fill="#082E51"/>
<path d="M115.03 299V294.592H111.078V299H115.03ZM124.827 299V294.592H120.875V299H124.827ZM134.624 299V294.592H130.672V299H134.624ZM164.193 293.224C163.699 295.352 162.103 296.682 159.367 296.682C155.073 296.682 153.287 293.186 153.287 289.348C153.287 285.548 155.035 282.166 159.367 282.166C161.989 282.166 163.471 283.458 164.079 285.396H167.309C166.663 281.862 163.927 279.354 159.367 279.354C153.401 279.354 150.057 283.648 150.057 289.424C150.057 295.086 153.401 299.494 159.367 299.494C163.813 299.494 166.701 296.986 167.423 293.224H164.193ZM180.485 279.354C174.481 279.354 171.061 283.762 171.061 289.424C171.061 295.086 174.481 299.494 180.485 299.494C186.451 299.494 189.909 295.086 189.909 289.424C189.909 283.762 186.451 279.354 180.485 279.354ZM180.485 296.682C176.229 296.682 174.291 293.186 174.291 289.424C174.291 285.662 176.229 282.166 180.485 282.166C184.703 282.166 186.679 285.662 186.679 289.424C186.679 293.186 184.703 296.682 180.485 296.682ZM208.858 271.374V281.9H208.022C206.958 280.532 205.21 279.354 202.17 279.354C196.888 279.354 193.772 283.648 193.772 289.424C193.772 295.086 196.888 299.494 202.17 299.494C205.21 299.494 207.072 298.278 208.136 296.948H208.972V299H212.088V271.374H208.858ZM202.892 296.682C199.054 296.682 197.002 293.68 197.002 289.424C197.002 285.168 199.054 282.166 202.892 282.166C207.148 282.166 208.896 285.662 208.896 289.424C208.896 293.186 207.148 296.682 202.892 296.682ZM234.935 288.284C234.821 283.572 232.085 279.354 226.385 279.354C220.571 279.354 217.151 283.344 217.151 289.234C217.151 295.124 220.495 299.494 226.461 299.494C231.211 299.494 233.985 296.986 234.593 293.718H231.325C230.755 295.542 229.159 296.682 226.461 296.682C222.509 296.682 220.457 293.946 220.343 289.386H234.935V288.284ZM226.309 282.166C229.539 282.166 231.401 284.256 231.591 286.688H220.533C220.951 284.256 222.851 282.166 226.309 282.166Z" fill="#082E51"/>
<path d="M448.458 87.494C453.816 87.494 457.008 84.112 457.008 78.336V59.868H453.588V78.374C453.588 82.478 451.574 84.378 448.534 84.378C445.38 84.378 443.442 82.592 443.138 78.83H439.718C440.06 84.454 443.48 87.494 448.458 87.494ZM475.706 87H478.746V73.966C478.746 69.672 475.668 67.354 470.842 67.354C466.548 67.354 463.508 69.406 463.242 72.94H466.472C466.624 71.268 468.068 70.166 470.918 70.166C474.262 70.166 475.592 71.838 475.592 74.156V74.916H469.36C464.04 74.916 462.026 78.184 462.026 81.262C462.026 84.53 464.496 87.494 468.904 87.494C471.64 87.494 473.692 86.468 474.87 84.986H475.706V87ZM469.702 84.682C466.852 84.682 465.256 83.314 465.256 81.148C465.256 78.868 466.7 77.5 469.854 77.5H475.592V79.248C475.592 82.288 472.894 84.682 469.702 84.682ZM488.726 87H494.768L501.19 67.848H497.808L492.64 83.96H491.082L485.724 67.848H482.38L488.726 87ZM516.971 87H520.011V73.966C520.011 69.672 516.933 67.354 512.107 67.354C507.813 67.354 504.773 69.406 504.507 72.94H507.737C507.889 71.268 509.333 70.166 512.183 70.166C515.527 70.166 516.857 71.838 516.857 74.156V74.916H510.625C505.305 74.916 503.291 78.184 503.291 81.262C503.291 84.53 505.761 87.494 510.169 87.494C512.905 87.494 514.957 86.468 516.135 84.986H516.971V87ZM510.967 84.682C508.117 84.682 506.521 83.314 506.521 81.148C506.521 78.868 507.965 77.5 511.119 77.5H516.857V79.248C516.857 82.288 514.159 84.682 510.967 84.682ZM549.46 81.224C548.966 83.352 547.37 84.682 544.634 84.682C540.34 84.682 538.554 81.186 538.554 77.348C538.554 73.548 540.302 70.166 544.634 70.166C547.256 70.166 548.738 71.458 549.346 73.396H552.576C551.93 69.862 549.194 67.354 544.634 67.354C538.668 67.354 535.324 71.648 535.324 77.424C535.324 83.086 538.668 87.494 544.634 87.494C549.08 87.494 551.968 84.986 552.69 81.224H549.46ZM565.752 67.354C559.748 67.354 556.328 71.762 556.328 77.424C556.328 83.086 559.748 87.494 565.752 87.494C571.718 87.494 575.176 83.086 575.176 77.424C575.176 71.762 571.718 67.354 565.752 67.354ZM565.752 84.682C561.496 84.682 559.558 81.186 559.558 77.424C559.558 73.662 561.496 70.166 565.752 70.166C569.97 70.166 571.946 73.662 571.946 77.424C571.946 81.186 569.97 84.682 565.752 84.682ZM600.319 67.354C597.925 67.354 596.101 68.19 594.923 69.9H594.087C593.061 68.19 591.351 67.354 589.033 67.354C586.601 67.354 585.119 68.228 584.169 69.71H583.333V67.848H580.217V87H583.447V76.398C583.447 72.94 584.967 70.242 588.159 70.242C590.553 70.242 591.807 71.876 591.807 75.03V87H595.037V75.79C595.037 72.56 596.709 70.242 599.711 70.242C602.181 70.242 603.397 71.8 603.397 74.954V87H606.627V74.612C606.627 70.204 604.727 67.354 600.319 67.354ZM621.735 70.166C625.573 70.166 627.625 73.168 627.625 77.424C627.625 81.68 625.573 84.682 621.735 84.682C617.479 84.682 615.731 81.186 615.731 77.424C615.731 73.662 617.479 70.166 621.735 70.166ZM612.539 67.848V94.6H615.769V84.948H616.605C617.631 86.316 619.417 87.494 622.457 87.494C627.739 87.494 630.855 83.2 630.855 77.424C630.855 71.762 627.739 67.354 622.457 67.354C619.417 67.354 617.555 68.57 616.491 69.9H615.655V67.848H612.539ZM639.338 62.87V59.374H635.918V62.87H639.338ZM639.224 67.848H635.994V87H639.224V67.848ZM645.566 59.374V87H648.796V59.374H645.566ZM671.635 76.284C671.521 71.572 668.785 67.354 663.085 67.354C657.271 67.354 653.851 71.344 653.851 77.234C653.851 83.124 657.195 87.494 663.161 87.494C667.911 87.494 670.685 84.986 671.293 81.718H668.025C667.455 83.542 665.859 84.682 663.161 84.682C659.209 84.682 657.157 81.946 657.043 77.386H671.635V76.284ZM663.009 70.166C666.239 70.166 668.101 72.256 668.291 74.688H657.233C657.651 72.256 659.551 70.166 663.009 70.166ZM687.608 67.848H686.164C683.39 67.848 681.566 68.95 680.616 70.128H679.78V67.848H676.664V87H679.894V77.424C679.894 73.206 682.212 70.888 686.012 70.888H687.608V67.848Z" fill="white"/>
<path d="M430.563 193H433.983V183.614L440.519 177.344H441.355L449.487 193H453.135L443.597 174.38L452.109 165.868H447.929L433.983 179.32V165.868H430.563V193ZM465.001 173.354C458.997 173.354 455.577 177.762 455.577 183.424C455.577 189.086 458.997 193.494 465.001 193.494C470.967 193.494 474.425 189.086 474.425 183.424C474.425 177.762 470.967 173.354 465.001 173.354ZM465.001 190.682C460.745 190.682 458.807 187.186 458.807 183.424C458.807 179.662 460.745 176.166 465.001 176.166C469.219 176.166 471.195 179.662 471.195 183.424C471.195 187.186 469.219 190.682 465.001 190.682ZM483.912 173.848V168.072H480.682V173.848H477.376V176.66H480.682V187.642C480.682 191.708 483.114 193 487.256 193H488.738V190.112H487.332C484.748 190.112 483.912 189.124 483.912 187.186V176.66H488.738V173.848H483.912ZM494.05 165.374V193H497.28V165.374H494.05ZM506.932 168.87V165.374H503.512V168.87H506.932ZM506.818 173.848H503.588V193H506.818V173.848ZM530.185 193V180.84C530.185 176.242 527.601 173.354 522.889 173.354C520.305 173.354 518.177 174.418 517.113 175.9H516.277V173.848H513.161V193H516.391V182.626C516.391 179.244 518.671 176.242 522.091 176.242C525.321 176.242 526.955 177.99 526.955 181.524V193H530.185ZM559.629 187.224C559.135 189.352 557.539 190.682 554.803 190.682C550.509 190.682 548.723 187.186 548.723 183.348C548.723 179.548 550.471 176.166 554.803 176.166C557.425 176.166 558.907 177.458 559.515 179.396H562.745C562.099 175.862 559.363 173.354 554.803 173.354C548.837 173.354 545.493 177.648 545.493 183.424C545.493 189.086 548.837 193.494 554.803 193.494C559.249 193.494 562.137 190.986 562.859 187.224H559.629ZM575.921 173.354C569.917 173.354 566.497 177.762 566.497 183.424C566.497 189.086 569.917 193.494 575.921 193.494C581.887 193.494 585.345 189.086 585.345 183.424C585.345 177.762 581.887 173.354 575.921 173.354ZM575.921 190.682C571.665 190.682 569.727 187.186 569.727 183.424C569.727 179.662 571.665 176.166 575.921 176.166C580.139 176.166 582.115 179.662 582.115 183.424C582.115 187.186 580.139 190.682 575.921 190.682ZM610.488 173.354C608.094 173.354 606.27 174.19 605.092 175.9H604.256C603.23 174.19 601.52 173.354 599.202 173.354C596.77 173.354 595.288 174.228 594.338 175.71H593.502V173.848H590.386V193H593.616V182.398C593.616 178.94 595.136 176.242 598.328 176.242C600.722 176.242 601.976 177.876 601.976 181.03V193H605.206V181.79C605.206 178.56 606.878 176.242 609.88 176.242C612.35 176.242 613.566 177.8 613.566 180.954V193H616.796V180.612C616.796 176.204 614.896 173.354 610.488 173.354ZM631.904 176.166C635.742 176.166 637.794 179.168 637.794 183.424C637.794 187.68 635.742 190.682 631.904 190.682C627.648 190.682 625.9 187.186 625.9 183.424C625.9 179.662 627.648 176.166 631.904 176.166ZM622.708 173.848V200.6H625.938V190.948H626.774C627.8 192.316 629.586 193.494 632.626 193.494C637.908 193.494 641.024 189.2 641.024 183.424C641.024 177.762 637.908 173.354 632.626 173.354C629.586 173.354 627.724 174.57 626.66 175.9H625.824V173.848H622.708ZM649.507 168.87V165.374H646.087V168.87H649.507ZM649.393 173.848H646.163V193H649.393V173.848ZM655.735 165.374V193H658.965V165.374H655.735ZM681.804 182.284C681.69 177.572 678.954 173.354 673.254 173.354C667.44 173.354 664.02 177.344 664.02 183.234C664.02 189.124 667.364 193.494 673.33 193.494C678.08 193.494 680.854 190.986 681.462 187.718H678.194C677.624 189.542 676.028 190.682 673.33 190.682C669.378 190.682 667.326 187.946 667.212 183.386H681.804V182.284ZM673.178 176.166C676.408 176.166 678.27 178.256 678.46 180.688H667.402C667.82 178.256 669.72 176.166 673.178 176.166ZM697.777 173.848H696.333C693.559 173.848 691.735 174.95 690.785 176.128H689.949V173.848H686.833V193H690.063V183.424C690.063 179.206 692.381 176.888 696.181 176.888H697.777V173.848Z" fill="white"/>
<path d="M478.014 298V293.592H474.062V298H478.014ZM487.811 298V293.592H483.859V298H487.811ZM497.607 298V293.592H493.655V298H497.607ZM515.598 292.224C515.104 294.352 513.508 295.682 510.772 295.682C506.478 295.682 504.692 292.186 504.692 288.348C504.692 284.548 506.44 281.166 510.772 281.166C513.394 281.166 514.876 282.458 515.484 284.396H518.714C518.068 280.862 515.332 278.354 510.772 278.354C504.806 278.354 501.462 282.648 501.462 288.424C501.462 294.086 504.806 298.494 510.772 298.494C515.218 298.494 518.106 295.986 518.828 292.224H515.598ZM531.89 278.354C525.886 278.354 522.466 282.762 522.466 288.424C522.466 294.086 525.886 298.494 531.89 298.494C537.856 298.494 541.314 294.086 541.314 288.424C541.314 282.762 537.856 278.354 531.89 278.354ZM531.89 295.682C527.634 295.682 525.696 292.186 525.696 288.424C525.696 284.662 527.634 281.166 531.89 281.166C536.108 281.166 538.084 284.662 538.084 288.424C538.084 292.186 536.108 295.682 531.89 295.682ZM566.457 278.354C564.063 278.354 562.239 279.19 561.061 280.9H560.225C559.199 279.19 557.489 278.354 555.171 278.354C552.739 278.354 551.257 279.228 550.307 280.71H549.471V278.848H546.355V298H549.585V287.398C549.585 283.94 551.105 281.242 554.297 281.242C556.691 281.242 557.945 282.876 557.945 286.03V298H561.175V286.79C561.175 283.56 562.847 281.242 565.849 281.242C568.319 281.242 569.535 282.8 569.535 285.954V298H572.765V285.612C572.765 281.204 570.865 278.354 566.457 278.354ZM587.874 281.166C591.712 281.166 593.764 284.168 593.764 288.424C593.764 292.68 591.712 295.682 587.874 295.682C583.618 295.682 581.87 292.186 581.87 288.424C581.87 284.662 583.618 281.166 587.874 281.166ZM578.678 278.848V305.6H581.908V295.948H582.744C583.77 297.316 585.556 298.494 588.596 298.494C593.878 298.494 596.994 294.2 596.994 288.424C596.994 282.762 593.878 278.354 588.596 278.354C585.556 278.354 583.694 279.57 582.63 280.9H581.794V278.848H578.678ZM605.476 273.87V270.374H602.056V273.87H605.476ZM605.362 278.848H602.132V298H605.362V278.848ZM611.705 270.374V298H614.935V270.374H611.705ZM637.774 287.284C637.66 282.572 634.924 278.354 629.224 278.354C623.41 278.354 619.99 282.344 619.99 288.234C619.99 294.124 623.334 298.494 629.3 298.494C634.05 298.494 636.824 295.986 637.432 292.718H634.164C633.594 294.542 631.998 295.682 629.3 295.682C625.348 295.682 623.296 292.946 623.182 288.386H637.774V287.284ZM629.148 281.166C632.378 281.166 634.24 283.256 634.43 285.688H623.372C623.79 283.256 625.69 281.166 629.148 281.166ZM653.747 278.848H652.303C649.529 278.848 647.705 279.95 646.755 281.128H645.919V278.848H642.803V298H646.033V288.424C646.033 284.206 648.351 281.888 652.151 281.888H653.747V278.848Z" fill="white"/>
</g>
<defs>
<clipPath id="clip0">
<rect width="1474" height="372" fill="white"/>
</clipPath>
</defs>
</svg>
