<svg width="51" height="45" viewBox="0 0 51 45" fill="none" xmlns="http://www.w3.org/2000/svg">
	<g clip-path="url(#clip0_111_64952)">
		<path d="M35.3373 9.78199L29.9714 4.49196C29.6249 4.13596 29.2105 3.85731 28.7542 3.67349C28.2978 3.48967 27.8093 3.40465 27.3194 3.42378C26.3352 3.44482 25.3993 3.86555 24.717 4.59369L4.12091 26.5931C4.02769 26.6981 3.95229 26.8185 3.89784 26.9491V27.1399L0.539514 39.8182C0.491285 40.0094 0.487146 40.2096 0.527424 40.4027C0.567701 40.5959 0.651288 40.7768 0.771555 40.9311C0.891823 41.0854 1.04546 41.2088 1.22029 41.2915C1.39512 41.3742 1.58633 41.414 1.77875 41.4077C1.89791 41.4256 2.01897 41.4256 2.13813 41.4077L14.3322 37.5928H14.5057C14.6295 37.5318 14.7426 37.4502 14.8403 37.3512L21.6933 30.0265C21.8923 29.779 21.9928 29.4634 21.9746 29.143C21.9563 28.8226 21.8207 28.5211 21.5949 28.2991C21.3691 28.077 21.0698 27.9508 20.7571 27.9457C20.4443 27.9406 20.1413 28.057 19.9088 28.2717L13.8985 34.6299L6.73569 27.4451L26.5635 6.36127C26.6757 6.24032 26.8101 6.14325 26.959 6.07561C27.1078 6.00797 27.2682 5.97109 27.4309 5.96706C27.7571 5.96953 28.0708 6.09645 28.3108 6.32312L33.6767 11.6132C33.9075 11.8514 34.037 12.1737 34.037 12.5097C34.037 12.8456 33.9075 13.1679 33.6767 13.4062L32.7596 14.3217C32.5247 14.5696 32.3952 14.9032 32.3999 15.249C32.4045 15.5947 32.5429 15.9245 32.7844 16.1656C33.026 16.4068 33.351 16.5396 33.688 16.5348C34.025 16.53 34.3463 16.3881 34.5813 16.1402L35.4364 15.2246C35.7822 14.8628 36.0543 14.434 36.2368 13.963C36.4193 13.4921 36.5086 12.9886 36.4993 12.482C36.4901 11.9753 36.3826 11.4756 36.1831 11.012C35.9835 10.5484 35.696 10.1303 35.3373 9.78199ZM3.51368 38.254L5.66995 29.8993L11.5687 35.7107L3.51368 38.254Z" fill="url(#paint0_linear_111_64952)"/>
		<path d="M25.5948 21.4993L22.8624 24.26C22.7434 24.3817 22.6501 24.525 22.588 24.6818C22.5259 24.8385 22.4961 25.0056 22.5004 25.1736C22.5047 25.3415 22.5429 25.507 22.6129 25.6605C22.6829 25.8141 22.7833 25.9527 22.9084 26.0686C23.0334 26.1844 23.1807 26.2751 23.3418 26.3355C23.5029 26.3959 23.6747 26.4249 23.8473 26.4208C24.0199 26.4166 24.19 26.3794 24.3478 26.3113C24.5057 26.2432 24.6482 26.1455 24.7672 26.0238L27.5521 23.2759C27.7632 23.0271 27.8697 22.7099 27.8503 22.3878C27.831 22.0658 27.6872 21.7628 27.4478 21.5397C27.2085 21.3165 26.8912 21.1896 26.5597 21.1845C26.2282 21.1794 25.907 21.2964 25.6605 21.5121L25.5948 21.4993ZM31.1122 17.7928C30.866 17.5548 30.5331 17.4211 30.186 17.4211C29.839 17.4211 29.506 17.5548 29.2599 17.7928C29.1356 17.9132 29.0373 18.0566 28.9709 18.2146C28.8662 18.4518 28.8377 18.7143 28.8893 18.9675C28.9409 19.2208 29.0701 19.4529 29.2599 19.6333C29.5046 19.8694 29.8348 20.0025 30.1795 20.0039C30.3547 20.0077 30.5289 19.9772 30.6918 19.9145C30.8494 19.8484 30.9923 19.7528 31.1122 19.6333C31.2966 19.455 31.4226 19.2274 31.474 18.9794C31.5255 18.7314 31.5001 18.4741 31.4012 18.2401C31.3321 18.0759 31.2344 17.9245 31.1122 17.7928Z" fill="url(#paint1_linear_111_64952)"/>
	</g>
	<defs>
		<linearGradient id="paint0_linear_111_64952" x1="18.5" y1="3.42114" x2="18.5" y2="41.4211" gradientUnits="userSpaceOnUse">
			<stop stop-color="white"/>
			<stop offset="1" stop-color="#63ADB9"/>
		</linearGradient>
		<linearGradient id="paint1_linear_111_64952" x1="27" y1="17.4211" x2="27" y2="26.4211" gradientUnits="userSpaceOnUse">
			<stop stop-color="white"/>
			<stop offset="1" stop-color="#63ADB9"/>
		</linearGradient>
		<clipPath id="clip0_111_64952">
			<rect width="50" height="44.2663" fill="white" transform="matrix(1 0 0 -1 0.5 44.5625)"/>
		</clipPath>
	</defs>
</svg>