<svg width="169" height="193" viewBox="0 0 169 193" fill="white" xmlns="http://www.w3.org/2000/svg">
	<path d="M73.5256 188.96V142.659L166 96.6852V142.85L73.5256 188.96Z" stroke="#7D4B32" stroke-width="5"/>
	<path fill-rule="evenodd" clip-rule="evenodd" d="M168.5 92.6504L71.0256 141.11V179.119C73.3738 174.542 76.8214 169.213 80.0546 164.216C80.5015 163.525 80.9444 162.841 81.3796 162.166C87.1397 152.485 93.2808 144.124 97.7175 140.921C99.2247 139.773 100.884 138.743 102.419 137.986L102.418 137.965L102.894 137.759C103.211 137.612 103.521 137.477 103.822 137.357L110.015 134.677V145.827V147.402L116.431 150.659L135.652 140.953L129.51 137.833L129.516 137.822H129.51V124.957L135.452 121.379C135.843 121.107 136.352 120.8 136.93 120.489L137.108 120.382L137.11 120.393C138.895 119.455 141.258 118.524 142.841 118.524C145.244 118.524 151.477 121.147 153.932 122.697C155.527 123.514 157.472 124.607 159.851 126.041C164.101 128.601 166.813 130.381 168.5 131.67V92.6504Z" fill="#7D4B32"/>
	<path d="M122.486 146.828L130.084 143.54L124.923 151.259L124.493 151.545L122.486 146.828Z" fill="#7D4B32"/>
	<path d="M124.493 150.83L125.21 150.544L123.346 157.12L122.63 157.405L124.493 150.83Z" fill="#7D4B32"/>
	<path d="M118.043 159.264L126.213 155.262V155.976L118.043 159.979V159.264Z" fill="#7D4B32"/>
	<ellipse rx="3.72141" ry="2.81775" transform="matrix(0.797221 -0.603687 0.605815 0.795605 103.637 147.456)" fill="#7D4B32"/>
	<ellipse rx="3.72141" ry="2.81775" transform="matrix(0.797222 -0.603687 0.605816 0.795605 135.904 131.446)" fill="#7D4B32"/>
	<path d="M103.278 14.7441L168.5 92.6506L135.817 108.947L103.278 14.7441Z" fill="#7D4B32" fill-opacity="0.8"/>
	<path d="M71.0256 76.498L136.247 109.09L103.708 124.957L46.3703 88.7915L71.0256 76.498Z" fill="#7D4B32"/>
	<path d="M8.73376 159.147V70.3855L68.5256 142.016V188.96L8.73376 159.147Z" stroke="#7D4B32" stroke-width="5"/>
	<path d="M6.23376 63.4893L103.708 124.957L71.0256 141.11L6.23376 63.4893Z" fill="#7D4B32" fill-opacity="0.8"/>
	<path d="M103.565 14.7441L136.104 109.661L71.0256 76.4975L103.565 14.7441Z" fill="#7D4B32"/>
	<rect width="1.78911" height="19.7284" transform="matrix(0.985302 -0.170823 0.171745 0.985142 99.4078 0.305664)" fill="#7D4B32"/>
	<rect width="1.78899" height="19.7297" transform="matrix(0.972937 -0.231073 0.232289 0.972647 2.22009 49.3223)" fill="#7D4B32"/>
	<rect width="1.78845" height="19.7357" transform="matrix(0.915392 -0.402564 0.404439 0.914565 0.5 53.3457)" fill="#7D4B32"/>
	<rect width="1.78874" height="19.7325" transform="matrix(0.946488 -0.322739 0.324346 0.945939 97.6877 4.31445)" fill="#7D4B32"/>
	<path d="M6.23376 63.4893L71.0256 141.11V167.555L6.23376 141.253V63.4893Z" fill="#7D4B32"/>
	<path d="M6.23376 136.821L27.7355 148.114L12.6843 153.26L6.23376 147.542V136.821Z" fill="#7D4B32"/>
	<path d="M20.4249 144.398L28.5955 143.826L37.0528 153.404L19.7081 159.836L20.4249 144.398Z" fill="#7D4B32"/>
	<path d="M31.8925 152.117L40.0631 150.974L50.2406 156.12L37.4829 167.127L31.8925 152.117Z" fill="#7D4B32"/>
	<path d="M44.2201 158.692L50.2406 153.975L66.7252 165.696L53.2508 176.703L44.2201 158.692Z" fill="#7D4B32"/>
	<path d="M62.4249 164.982H70.1655V178.705L57.4078 172.416L62.4249 164.982Z" fill="#7D4B32"/>
</svg>