<?xml version="1.0" encoding="utf-8"?>
<!-- Generator: Adobe Illustrator 20.1.0, SVG Export Plug-In . SVG Version: 6.00 Build 0)  -->
<svg version="1.1" id="Layer_1" xmlns="http://www.w3.org/2000/svg" xmlns:xlink="http://www.w3.org/1999/xlink" x="0px" y="0px"
	 viewBox="0 0 1474 870.1" style="enable-background:new 0 0 1474 870.1;" xml:space="preserve">
<style type="text/css">
	.st0{fill:#007BFF;}
	.st1{fill:#FFFFFF;}
	.st2{fill:none;stroke:#007BFF;stroke-width:4;stroke-miterlimit:10;}
	.st3{fill:none;stroke:#082E51;stroke-width:4;stroke-linecap:round;stroke-linejoin:round;stroke-miterlimit:10;}
</style>
<path class="st0" d="M1430.8,549.4H40c-11.6,0-21.1-9.4-21.1-21.1V338.7c0-11.6,9.4-21.1,21.1-21.1h1390.8
	c11.6,0,21.1,9.4,21.1,21.1v189.6C1451.9,540,1442.5,549.4,1430.8,549.4z"/>
<path d="M1296.6,4804.3c6.2,0.8,12.5,1.7,18.7,2.5c-0.1,0.6-0.1,1.1-0.2,1.7c-6.3-0.6-12.5-1.3-18.8-1.9
	C1296.5,4805.7,1296.6,4805,1296.6,4804.3z"/>
<g>
	<path class="st1" d="M171.5,425.9c0,23.1-13.1,41.6-37.5,41.6c-24.5,0-37.5-18.6-37.5-41.6s12.9-41.6,37.5-41.6
		C158.5,384.3,171.5,402.8,171.5,425.9z M161.3,425.9c0-16.8-8.1-32.4-27.2-32.4c-19.1,0-27.2,15.6-27.2,32.4s8.1,32.4,27.2,32.4
		C153.2,458.3,161.3,442.7,161.3,425.9z"/>
	<path class="st1" d="M225.6,421.1c12,2.7,20.1,8.9,20.1,22.6c0,12.6-10,23.9-30.4,23.9c-18.8,0-31.1-9.9-32.3-23.9h10.2
		c1.8,10.9,11.5,14.6,22.5,14.6c11.1,0,19.7-5.2,19.7-14.4c0-8.7-5.7-11.9-13.6-13.7c-4.1-0.9-11.9-2.4-15.9-3.3
		c-11.7-2.4-19.5-8.7-19.5-20.4c0-12.5,10.1-22.3,28.2-22.3c16.7,0,27.3,8.8,29.1,21.7h-10.2c-1.9-8.1-7.4-12.5-19.1-12.5
		c-9.7,0-17.8,4.4-17.8,12.8c0,7.8,6.9,10.2,13.6,11.7C213.9,418.6,221.5,420.2,225.6,421.1z"/>
</g>
<g>
	<g>
		<path d="M507,704.7c7.5,0,11.7,3.9,11.7,10.3c0,6.5-4.1,10.4-11.7,10.4h-10.2v13.8h-4.3v-34.4H507z M506.2,721.5
			c5.9,0,8-2.5,8-6.5s-2.1-6.5-8-6.5h-9.5v12.9H506.2z"/>
		<path d="M538.6,718.7h-2c-4.8,0-7.8,2.9-7.8,8.3v12.2h-4.1v-24.3h4v2.9h1.1c1.2-1.5,3.5-2.9,7-2.9h1.8V718.7z"/>
		<path d="M566.4,727c0,7.2-4.4,12.8-12,12.8c-7.6,0-12-5.6-12-12.8s4.3-12.8,12-12.8C562,714.2,566.4,719.8,566.4,727z M562.3,727
			c0-4.8-2.5-9.2-7.9-9.2c-5.4,0-7.9,4.4-7.9,9.2s2.5,9.2,7.9,9.2C559.8,736.2,562.3,731.8,562.3,727z"/>
		<path d="M593.3,731.8c-0.9,4.8-4.6,8-10.2,8c-7.6,0-11.8-5.6-11.8-12.8c0-7.3,4.2-12.8,11.8-12.8c5.8,0,9.3,3.2,10.1,7.7h-4.1
			c-0.8-2.5-2.7-4.1-6-4.1c-5.5,0-7.7,4.3-7.7,9.1c0,4.9,2.3,9.3,7.7,9.3c3.5,0,5.5-1.7,6.1-4.4H593.3z"/>
		<path d="M620.5,726.9H602c0.1,5.8,2.7,9.3,7.8,9.3c3.4,0,5.4-1.4,6.2-3.8h4.1c-0.8,4.1-4.3,7.3-10.3,7.3c-7.6,0-11.8-5.5-11.8-13
			c0-7.5,4.3-12.5,11.7-12.5c7.2,0,10.7,5.4,10.8,11.3V726.9z M602.2,723.5h14c-0.2-3.1-2.6-5.7-6.7-5.7
			C605.2,717.8,602.8,720.4,602.2,723.5z"/>
		<path d="M635.9,724.4l2.7,0.4c4.2,0.7,6.9,2.9,6.9,7.3c0,4-3.4,7.6-10,7.6c-6.9,0-10.3-3-10.8-7.7h4.1c0.4,2.7,2.8,4.1,6.5,4.1
			s6.1-1.3,6.1-4c0-2.1-1.4-3.3-4.4-3.8l-5.4-0.9c-3.5-0.6-5.8-2.5-5.8-6.1c0-4.1,3-7.2,9.6-7.2c5.7,0,9.1,2.7,9.6,6.9h-4.1
			c-0.3-2.3-2.7-3.4-5.7-3.4c-3.1,0-5.3,1.2-5.3,3.2c0,1.9,1.2,2.6,3.7,3L635.9,724.4z"/>
		<path d="M660.7,724.4l2.7,0.4c4.2,0.7,6.9,2.9,6.9,7.3c0,4-3.4,7.6-10,7.6c-6.9,0-10.3-3-10.8-7.7h4.1c0.4,2.7,2.8,4.1,6.5,4.1
			s6.1-1.3,6.1-4c0-2.1-1.3-3.3-4.4-3.8l-5.4-0.9c-3.5-0.6-5.8-2.5-5.8-6.1c0-4.1,3-7.2,9.6-7.2c5.7,0,9.1,2.7,9.6,6.9h-4.1
			c-0.3-2.3-2.7-3.4-5.7-3.4c-3.1,0-5.3,1.2-5.3,3.2c0,1.9,1.2,2.6,3.7,3L660.7,724.4z"/>
		<path d="M698.9,727c0,7.2-4.4,12.8-12,12.8c-7.6,0-12-5.6-12-12.8s4.3-12.8,12-12.8C694.5,714.2,698.9,719.8,698.9,727z
			 M694.8,727c0-4.8-2.5-9.2-7.9-9.2c-5.4,0-7.9,4.4-7.9,9.2s2.5,9.2,7.9,9.2C692.3,736.2,694.8,731.8,694.8,727z"/>
		<path d="M719.2,718.7h-2c-4.8,0-7.8,2.9-7.8,8.3v12.2h-4.1v-24.3h4v2.9h1.1c1.2-1.5,3.5-2.9,7-2.9h1.8V718.7z"/>
	</g>
</g>
<g>
	<g>
		<path d="M837.4,704.7h7.2l8.7,16.2h1.1l8.5-16.2h7.3v34.4H866v-29.5h-1.1l-8.8,16.3h-4.5l-8.8-16.3h-1.1v29.5h-4.2V704.7z"/>
		<path d="M899.6,726.9h-18.5c0.1,5.8,2.7,9.3,7.8,9.3c3.4,0,5.4-1.4,6.2-3.8h4.1c-0.8,4.1-4.3,7.3-10.3,7.3
			c-7.6,0-11.8-5.5-11.8-13c0-7.5,4.3-12.5,11.7-12.5c7.2,0,10.7,5.4,10.8,11.3V726.9z M881.3,723.5h14c-0.2-3.1-2.6-5.7-6.7-5.7
			C884.3,717.8,881.9,720.4,881.3,723.5z"/>
		<path d="M939.5,723.4v15.7h-4.1v-15.3c0-4-1.5-6-4.7-6c-3.8,0-5.9,2.9-5.9,7v14.2h-4.1V724c0-4-1.6-6.1-4.6-6.1c-4,0-6,3.4-6,7.8
			v13.5H906v-24.3h4v2.4h1.1c1.2-1.9,3.1-3,6.2-3c2.9,0,5.1,1.1,6.4,3.2h1.1c1.5-2.2,3.8-3.2,6.8-3.2
			C937.1,714.2,939.5,717.8,939.5,723.4z"/>
		<path d="M969.4,727c0,7.2-4.4,12.8-12,12.8c-7.6,0-12-5.6-12-12.8s4.3-12.8,12-12.8C965.1,714.2,969.4,719.8,969.4,727z
			 M965.3,727c0-4.8-2.5-9.2-7.9-9.2c-5.4,0-7.9,4.4-7.9,9.2s2.5,9.2,7.9,9.2C962.8,736.2,965.3,731.8,965.3,727z"/>
		<path d="M989.7,718.7h-2c-4.8,0-7.8,2.9-7.8,8.3v12.2h-4.1v-24.3h4v2.9h1.1c1.2-1.5,3.5-2.9,7-2.9h1.8V718.7z"/>
		<path d="M999.2,748.8l5-11.9l-10.4-22h4.4l7.4,16h1.2l6.8-16h4.3l-14.6,33.9H999.2z"/>
	</g>
</g>
<g>
	<g>
		<path d="M1151.3,704.7c10.6,0,15.9,6.8,15.9,17.2c0,10.3-5.4,17.2-15.9,17.2h-12.9v-34.4H1151.3z M1151.3,735.2
			c8.3,0,11.5-6.1,11.5-13.3s-3.2-13.3-11.5-13.3h-8.5v26.5H1151.3z"/>
		<path d="M1194.9,726.9h-18.5c0.1,5.8,2.7,9.3,7.8,9.3c3.4,0,5.4-1.4,6.2-3.8h4.1c-0.8,4.1-4.3,7.3-10.3,7.3
			c-7.6,0-11.8-5.5-11.8-13c0-7.5,4.3-12.5,11.7-12.5c7.2,0,10.7,5.4,10.8,11.3V726.9z M1176.6,723.5h14c-0.2-3.1-2.6-5.7-6.7-5.7
			C1179.5,717.8,1177.1,720.4,1176.6,723.5z"/>
		<path d="M1198.3,714.8h4.2l6.8,20.4h2l6.6-20.4h4.3l-8.1,24.3h-7.7L1198.3,714.8z"/>
		<path d="M1227.2,708.5v-4.4h4.3v4.4H1227.2z M1231.4,739.1h-4.1v-24.3h4.1V739.1z"/>
		<path d="M1260,731.8c-0.9,4.8-4.6,8-10.2,8c-7.6,0-11.8-5.6-11.8-12.8c0-7.3,4.2-12.8,11.8-12.8c5.8,0,9.3,3.2,10.1,7.7h-4.1
			c-0.8-2.5-2.7-4.1-6-4.1c-5.5,0-7.7,4.3-7.7,9.1c0,4.9,2.3,9.3,7.7,9.3c3.5,0,5.5-1.7,6.1-4.4H1260z"/>
		<path d="M1287.2,726.9h-18.5c0.1,5.8,2.7,9.3,7.8,9.3c3.4,0,5.4-1.4,6.2-3.8h4.1c-0.8,4.1-4.3,7.3-10.3,7.3
			c-7.6,0-11.8-5.5-11.8-13c0-7.5,4.3-12.5,11.7-12.5c7.2,0,10.7,5.4,10.8,11.3V726.9z M1268.9,723.5h14c-0.2-3.1-2.6-5.7-6.7-5.7
			C1271.9,717.8,1269.5,720.4,1268.9,723.5z"/>
	</g>
</g>
<g>
	<g>
		<path d="M122.7,704.7v34.4h-4.3v-15.7H99.1v15.7h-4.3v-34.4h4.3v14.7h19.2v-14.7H122.7z"/>
		<path d="M146.5,736.6h-1.1c-1.5,1.9-4.1,3.2-7.6,3.2c-5.6,0-8.7-3.8-8.7-7.9c0-3.9,2.6-8.1,9.3-8.1h7.9v-1c0-2.9-1.7-5.1-5.9-5.1
			c-3.6,0-5.4,1.4-5.6,3.5h-4.1c0.3-4.5,4.2-7.1,9.6-7.1c6.1,0,10,2.9,10,8.4v16.5h-3.9V736.6z M146.4,729.3v-2.2h-7.3
			c-4,0-5.8,1.7-5.8,4.6c0,2.7,2,4.5,5.6,4.5C143,736.2,146.4,733.2,146.4,729.3z"/>
		<path d="M171.8,718.7h-2c-4.8,0-7.8,2.9-7.8,8.3v12.2h-4.1v-24.3h4v2.9h1.1c1.2-1.5,3.5-2.9,7-2.9h1.8V718.7z"/>
		<path d="M198.9,704.1v35.1h-4v-2.6h-1.1c-1.4,1.7-3.7,3.2-7.6,3.2c-6.7,0-10.7-5.6-10.7-12.8c0-7.3,4-12.8,10.7-12.8
			c3.9,0,6.1,1.5,7.4,3.2h1.1v-13.4H198.9z M194.8,727c0-4.8-2.2-9.2-7.6-9.2c-4.9,0-7.5,3.8-7.5,9.2s2.6,9.2,7.5,9.2
			C192.6,736.2,194.8,731.8,194.8,727z"/>
		<path d="M222.2,722.8l4.1,12h1.1l2.8-20h4l-3.5,24.3h-6.3l-4.2-12.3h-1l-4.2,12.3h-6.4l-3.5-24.3h4l2.9,20h1.1l4.1-12H222.2z"/>
		<path d="M255.6,736.6h-1.1c-1.5,1.9-4.1,3.2-7.6,3.2c-5.6,0-8.7-3.8-8.7-7.9c0-3.9,2.6-8.1,9.3-8.1h7.9v-1c0-2.9-1.7-5.1-5.9-5.1
			c-3.6,0-5.4,1.4-5.6,3.5h-4.1c0.3-4.5,4.2-7.1,9.6-7.1c6.1,0,10,2.9,10,8.4v16.5h-3.9V736.6z M255.5,729.3v-2.2h-7.3
			c-4,0-5.8,1.7-5.8,4.6c0,2.7,2,4.5,5.6,4.5C252,736.2,255.5,733.2,255.5,729.3z"/>
		<path d="M280.9,718.7h-2c-4.8,0-7.8,2.9-7.8,8.3v12.2H267v-24.3h4v2.9h1.1c1.2-1.5,3.5-2.9,7-2.9h1.8V718.7z"/>
		<path d="M307.3,726.9h-18.5c0.1,5.8,2.7,9.3,7.8,9.3c3.4,0,5.4-1.4,6.2-3.8h4.1c-0.8,4.1-4.3,7.3-10.3,7.3
			c-7.6,0-11.8-5.5-11.8-13c0-7.5,4.3-12.5,11.7-12.5c7.2,0,10.7,5.4,10.8,11.3V726.9z M289,723.5h14c-0.2-3.1-2.6-5.7-6.7-5.7
			C292,717.8,289.6,720.4,289,723.5z"/>
	</g>
</g>
<g>
	<g>
		<path class="st1" d="M453.7,380.7c7.5,0,11.7,3.9,11.7,10.3c0,6.5-4.1,10.4-11.7,10.4h-10.2v13.8h-4.3v-34.4H453.7z M453,397.5
			c5.9,0,8-2.5,8-6.5s-2.1-6.5-8-6.5h-9.5v12.9H453z"/>
		<path class="st1" d="M485.3,394.7h-2c-4.8,0-7.8,2.9-7.8,8.3v12.2h-4.1v-24.3h4v2.9h1.1c1.2-1.5,3.5-2.9,7-2.9h1.8V394.7z"/>
		<path class="st1" d="M513.1,403c0,7.2-4.4,12.8-12,12.8c-7.6,0-12-5.6-12-12.8s4.3-12.8,12-12.8
			C508.7,390.2,513.1,395.8,513.1,403z M509,403c0-4.8-2.5-9.2-7.9-9.2c-5.4,0-7.9,4.4-7.9,9.2s2.5,9.2,7.9,9.2
			C506.5,412.2,509,407.8,509,403z"/>
		<path class="st1" d="M540.1,407.8c-0.9,4.8-4.6,8-10.2,8c-7.6,0-11.8-5.6-11.8-12.8c0-7.3,4.2-12.8,11.8-12.8
			c5.8,0,9.3,3.2,10.1,7.7h-4.1c-0.8-2.5-2.7-4.1-6-4.1c-5.5,0-7.7,4.3-7.7,9.1c0,4.9,2.3,9.3,7.7,9.3c3.5,0,5.5-1.7,6.1-4.4H540.1z
			"/>
		<path class="st1" d="M567.3,402.9h-18.5c0.1,5.8,2.7,9.3,7.8,9.3c3.4,0,5.4-1.4,6.2-3.8h4.1c-0.8,4.1-4.3,7.3-10.3,7.3
			c-7.6,0-11.8-5.5-11.8-13c0-7.5,4.3-12.5,11.7-12.5c7.2,0,10.7,5.4,10.8,11.3V402.9z M549,399.5h14c-0.2-3.1-2.6-5.7-6.7-5.7
			C551.9,393.8,549.5,396.4,549,399.5z"/>
		<path class="st1" d="M582.7,400.4l2.7,0.4c4.2,0.7,6.9,2.9,6.9,7.3c0,4-3.4,7.6-10,7.6c-6.9,0-10.3-3-10.8-7.7h4.1
			c0.4,2.7,2.8,4.1,6.5,4.1s6.1-1.3,6.1-4c0-2.1-1.3-3.3-4.4-3.8l-5.4-0.9c-3.5-0.6-5.8-2.5-5.8-6.1c0-4.1,3-7.2,9.6-7.2
			c5.7,0,9.1,2.7,9.6,6.9h-4.1c-0.3-2.3-2.7-3.4-5.7-3.4c-3.1,0-5.3,1.2-5.3,3.2c0,1.9,1.2,2.6,3.7,3L582.7,400.4z"/>
		<path class="st1" d="M607.5,400.4l2.7,0.4c4.2,0.7,6.9,2.9,6.9,7.3c0,4-3.4,7.6-10,7.6c-6.9,0-10.3-3-10.8-7.7h4.1
			c0.4,2.7,2.8,4.1,6.5,4.1s6.1-1.3,6.1-4c0-2.1-1.4-3.3-4.4-3.8l-5.4-0.9c-3.5-0.6-5.8-2.5-5.8-6.1c0-4.1,3-7.2,9.6-7.2
			c5.7,0,9.1,2.7,9.6,6.9h-4.1c-0.3-2.3-2.7-3.4-5.7-3.4c-3.1,0-5.3,1.2-5.3,3.2c0,1.9,1.2,2.6,3.7,3L607.5,400.4z"/>
		<path class="st1" d="M382.6,438.6h7.2l8.7,16.2h1.1l8.5-16.2h7.3V473h-4.2v-29.5h-1.1l-8.8,16.3h-4.5l-8.8-16.3h-1.1V473h-4.2
			V438.6z"/>
		<path class="st1" d="M439.2,470.5h-1.1c-1.5,1.9-4.1,3.2-7.6,3.2c-5.6,0-8.7-3.8-8.7-7.9c0-3.9,2.6-8.1,9.3-8.1h7.9v-1
			c0-2.9-1.7-5.1-5.9-5.1c-3.6,0-5.4,1.4-5.6,3.5h-4.1c0.3-4.5,4.2-7.1,9.6-7.1c6.1,0,10,2.9,10,8.4V473h-3.9V470.5z M439,463.2V461
			h-7.3c-4,0-5.8,1.7-5.8,4.6c0,2.7,2,4.5,5.6,4.5C435.6,470.1,439,467,439,463.2z"/>
		<path class="st1" d="M468.1,473v-14.6c0-4.5-2.1-6.7-6.2-6.7c-4.3,0-7.2,3.8-7.2,8.1V473h-4.1v-24.3h4v2.6h1.1
			c1.4-1.9,4.1-3.2,7.3-3.2c6,0,9.3,3.7,9.3,9.5V473H468.1z"/>
		<path class="st1" d="M495.2,470.5h-1.1c-1.5,1.9-4.1,3.2-7.6,3.2c-5.6,0-8.7-3.8-8.7-7.9c0-3.9,2.6-8.1,9.3-8.1h7.9v-1
			c0-2.9-1.7-5.1-5.9-5.1c-3.6,0-5.4,1.4-5.6,3.5h-4.1c0.3-4.5,4.2-7.1,9.6-7.1c6.1,0,10,2.9,10,8.4V473h-3.9V470.5z M495,463.2V461
			h-7.3c-4,0-5.8,1.7-5.8,4.6c0,2.7,2,4.5,5.6,4.5C491.6,470.1,495,467,495,463.2z"/>
		<path class="st1" d="M528.3,448.7v23.1c0,6.8-4.2,11.2-11.3,11.2c-6.2,0-10.3-2.6-11-7.4h4.1c0.7,2.9,3.2,4,6.9,4
			c5,0,7.3-3,7.3-7.9v-1.9h-1.1c-1.3,1.7-3.6,3.2-7.3,3.2c-6.7,0-10.8-5.3-10.8-12.4c0-7.1,4.1-12.4,10.8-12.4
			c3.8,0,6.1,1.5,7.4,3.2h1.1v-2.6H528.3z M524.3,460.5c0-4.7-2.5-8.9-7.7-8.9c-4.8,0-7.5,3.5-7.5,8.9c0,5.3,2.7,8.8,7.5,8.8
			C521.8,469.3,524.3,465.2,524.3,460.5z"/>
		<path class="st1" d="M557.3,460.8h-18.5c0.1,5.8,2.7,9.3,7.8,9.3c3.4,0,5.4-1.4,6.2-3.8h4.1c-0.8,4.1-4.3,7.3-10.3,7.3
			c-7.6,0-11.8-5.5-11.8-13c0-7.5,4.3-12.5,11.7-12.5c7.2,0,10.7,5.4,10.8,11.3V460.8z M539,457.4h14c-0.2-3.1-2.6-5.7-6.7-5.7
			C541.9,451.6,539.5,454.3,539,457.4z"/>
		<path class="st1" d="M597.2,457.3V473h-4.1v-15.3c0-4-1.5-6-4.7-6c-3.8,0-5.9,2.9-5.9,7V473h-4.1v-15.2c0-4-1.6-6.1-4.6-6.1
			c-4.1,0-6,3.4-6,7.8V473h-4.1v-24.3h4v2.4h1.1c1.2-1.9,3.1-3,6.2-3c2.9,0,5.1,1.1,6.4,3.2h1.1c1.5-2.2,3.8-3.2,6.8-3.2
			C594.7,448.1,597.2,451.7,597.2,457.3z"/>
		<path class="st1" d="M625.8,460.8h-18.5c0.1,5.8,2.7,9.3,7.8,9.3c3.4,0,5.4-1.4,6.2-3.8h4.1c-0.8,4.1-4.3,7.3-10.3,7.3
			c-7.6,0-11.8-5.5-11.8-13c0-7.5,4.3-12.5,11.7-12.5c7.2,0,10.7,5.4,10.8,11.3V460.8z M607.5,457.4h14c-0.2-3.1-2.6-5.7-6.7-5.7
			C610.4,451.6,608,454.3,607.5,457.4z"/>
		<path class="st1" d="M649.6,473v-14.6c0-4.5-2.1-6.7-6.2-6.7c-4.3,0-7.2,3.8-7.2,8.1V473h-4.1v-24.3h4v2.6h1.1
			c1.4-1.9,4.1-3.2,7.3-3.2c6,0,9.3,3.7,9.3,9.5V473H649.6z"/>
		<path class="st1" d="M673,448.7v3.6h-6.1v13.4c0,2.5,1.1,3.7,4.3,3.7h1.8v3.7h-1.9c-5.3,0-8.3-1.6-8.3-6.8v-13.9h-4.2v-3.6h4.2
			v-7.3h4.1v7.3H673z"/>
	</g>
</g>
<g>
	<g>
		<path class="st1" d="M790.5,380.7h7.2l8.7,16.2h1.1l8.5-16.2h7.3v34.4H819v-29.5H818l-8.8,16.3h-4.5l-8.8-16.3h-1.1v29.5h-4.2
			V380.7z"/>
		<path class="st1" d="M852.7,402.9h-18.5c0.1,5.8,2.7,9.3,7.8,9.3c3.4,0,5.4-1.4,6.2-3.8h4.1c-0.8,4.1-4.3,7.3-10.3,7.3
			c-7.6,0-11.8-5.5-11.8-13c0-7.5,4.3-12.5,11.7-12.5c7.2,0,10.7,5.4,10.8,11.3V402.9z M834.4,399.5h14c-0.2-3.1-2.6-5.7-6.7-5.7
			C837.4,393.8,834.9,396.4,834.4,399.5z"/>
		<path class="st1" d="M892.6,399.4v15.7h-4.1v-15.3c0-4-1.5-6-4.7-6c-3.8,0-5.9,2.9-5.9,7v14.2h-4.1V400c0-4-1.6-6.1-4.6-6.1
			c-4,0-6,3.4-6,7.8v13.5h-4.1v-24.3h4v2.4h1.1c1.2-1.9,3.1-3,6.2-3c2.9,0,5.1,1.1,6.4,3.2h1.1c1.5-2.2,3.8-3.2,6.8-3.2
			C890.2,390.2,892.6,393.8,892.6,399.4z"/>
		<path class="st1" d="M922.5,403c0,7.2-4.4,12.8-12,12.8c-7.6,0-12-5.6-12-12.8s4.3-12.8,12-12.8
			C918.1,390.2,922.5,395.8,922.5,403z M918.4,403c0-4.8-2.5-9.2-7.9-9.2c-5.4,0-7.9,4.4-7.9,9.2s2.5,9.2,7.9,9.2
			C915.9,412.2,918.4,407.8,918.4,403z"/>
		<path class="st1" d="M942.8,394.7h-2c-4.8,0-7.8,2.9-7.8,8.3v12.2h-4.1v-24.3h4v2.9h1.1c1.2-1.5,3.5-2.9,7-2.9h1.8V394.7z"/>
		<path class="st1" d="M952.3,424.8l5-11.9l-10.4-22h4.4l7.4,16h1.2l6.8-16h4.3l-14.6,33.9H952.3z"/>
		<path class="st1" d="M734.6,438.6h7.2l8.7,16.2h1.1l8.5-16.2h7.3V473h-4.2v-29.5h-1.1l-8.8,16.3h-4.5l-8.8-16.3h-1.1V473h-4.2
			V438.6z"/>
		<path class="st1" d="M791.2,470.5h-1.1c-1.5,1.9-4.1,3.2-7.6,3.2c-5.6,0-8.7-3.8-8.7-7.9c0-3.9,2.6-8.1,9.3-8.1h7.9v-1
			c0-2.9-1.7-5.1-5.9-5.1c-3.6,0-5.4,1.4-5.6,3.5h-4.1c0.3-4.5,4.2-7.1,9.6-7.1c6.1,0,10,2.9,10,8.4V473h-3.9V470.5z M791,463.2V461
			h-7.3c-4,0-5.8,1.7-5.8,4.6c0,2.7,2,4.5,5.6,4.5C787.6,470.1,791,467,791,463.2z"/>
		<path class="st1" d="M820.1,473v-14.6c0-4.5-2.1-6.7-6.2-6.7c-4.3,0-7.2,3.8-7.2,8.1V473h-4.1v-24.3h4v2.6h1.1
			c1.3-1.9,4.1-3.2,7.3-3.2c6,0,9.3,3.7,9.3,9.5V473H820.1z"/>
		<path class="st1" d="M847.2,470.5h-1.1c-1.5,1.9-4.1,3.2-7.6,3.2c-5.6,0-8.7-3.8-8.7-7.9c0-3.9,2.6-8.1,9.3-8.1h7.9v-1
			c0-2.9-1.7-5.1-5.9-5.1c-3.6,0-5.4,1.4-5.6,3.5h-4.1c0.3-4.5,4.2-7.1,9.6-7.1c6.1,0,10,2.9,10,8.4V473h-3.9V470.5z M847,463.2V461
			h-7.3c-4,0-5.8,1.7-5.8,4.6c0,2.7,2,4.5,5.6,4.5C843.6,470.1,847,467,847,463.2z"/>
		<path class="st1" d="M880.3,448.7v23.1c0,6.8-4.2,11.2-11.3,11.2c-6.2,0-10.3-2.6-11-7.4h4.1c0.7,2.9,3.2,4,6.9,4
			c5,0,7.3-3,7.3-7.9v-1.9h-1.1c-1.3,1.7-3.6,3.2-7.3,3.2c-6.7,0-10.8-5.3-10.8-12.4c0-7.1,4.1-12.4,10.8-12.4
			c3.8,0,6.1,1.5,7.4,3.2h1.1v-2.6H880.3z M876.3,460.5c0-4.7-2.5-8.9-7.7-8.9c-4.8,0-7.5,3.5-7.5,8.9c0,5.3,2.7,8.8,7.5,8.8
			C873.8,469.3,876.3,465.2,876.3,460.5z"/>
		<path class="st1" d="M909.3,460.8h-18.5c0.1,5.8,2.7,9.3,7.8,9.3c3.4,0,5.4-1.4,6.2-3.8h4.1c-0.8,4.1-4.3,7.3-10.3,7.3
			c-7.6,0-11.8-5.5-11.8-13c0-7.5,4.3-12.5,11.7-12.5c7.2,0,10.7,5.4,10.8,11.3V460.8z M891,457.4h14c-0.2-3.1-2.6-5.7-6.7-5.7
			C893.9,451.6,891.5,454.3,891,457.4z"/>
		<path class="st1" d="M949.2,457.3V473h-4.1v-15.3c0-4-1.5-6-4.7-6c-3.8,0-5.9,2.9-5.9,7V473h-4.1v-15.2c0-4-1.6-6.1-4.6-6.1
			c-4.1,0-6,3.4-6,7.8V473h-4.1v-24.3h4v2.4h1.1c1.2-1.9,3.1-3,6.2-3c2.9,0,5.1,1.1,6.4,3.2h1.1c1.5-2.2,3.8-3.2,6.8-3.2
			C946.8,448.1,949.2,451.7,949.2,457.3z"/>
		<path class="st1" d="M977.8,460.8h-18.5c0.1,5.8,2.7,9.3,7.8,9.3c3.4,0,5.4-1.4,6.2-3.8h4.1c-0.8,4.1-4.3,7.3-10.3,7.3
			c-7.6,0-11.8-5.5-11.8-13c0-7.5,4.3-12.5,11.7-12.5c7.2,0,10.7,5.4,10.8,11.3V460.8z M959.5,457.4h14c-0.2-3.1-2.6-5.7-6.7-5.7
			C962.4,451.6,960,454.3,959.5,457.4z"/>
		<path class="st1" d="M1001.6,473v-14.6c0-4.5-2.1-6.7-6.2-6.7c-4.3,0-7.2,3.8-7.2,8.1V473h-4.1v-24.3h4v2.6h1.1
			c1.3-1.9,4.1-3.2,7.3-3.2c6,0,9.3,3.7,9.3,9.5V473H1001.6z"/>
		<path class="st1" d="M1025,448.7v3.6h-6.1v13.4c0,2.5,1.1,3.7,4.3,3.7h1.8v3.7h-1.9c-5.3,0-8.3-1.6-8.3-6.8v-13.9h-4.2v-3.6h4.2
			v-7.3h4.1v7.3H1025z"/>
	</g>
</g>
<g>
	<g>
		<path class="st1" d="M1177.5,380.7c10.6,0,15.9,6.8,15.9,17.2c0,10.3-5.4,17.2-15.9,17.2h-12.9v-34.4H1177.5z M1177.5,411.2
			c8.3,0,11.5-6.1,11.5-13.3s-3.2-13.3-11.5-13.3h-8.5v26.5H1177.5z"/>
		<path class="st1" d="M1221,402.9h-18.5c0.1,5.8,2.7,9.3,7.8,9.3c3.4,0,5.4-1.4,6.2-3.8h4.1c-0.8,4.1-4.3,7.3-10.3,7.3
			c-7.6,0-11.8-5.5-11.8-13c0-7.5,4.3-12.5,11.7-12.5c7.2,0,10.7,5.4,10.8,11.3V402.9z M1202.8,399.5h14c-0.2-3.1-2.6-5.7-6.7-5.7
			C1205.7,393.8,1203.3,396.4,1202.8,399.5z"/>
		<path class="st1" d="M1224.5,390.8h4.2l6.8,20.4h2l6.6-20.4h4.3l-8.1,24.3h-7.7L1224.5,390.8z"/>
		<path class="st1" d="M1253.4,384.5v-4.4h4.3v4.4H1253.4z M1257.6,415.1h-4.1v-24.3h4.1V415.1z"/>
		<path class="st1" d="M1286.2,407.8c-0.9,4.8-4.6,8-10.2,8c-7.6,0-11.8-5.6-11.8-12.8c0-7.3,4.2-12.8,11.8-12.8
			c5.8,0,9.3,3.2,10.1,7.7h-4.1c-0.8-2.5-2.7-4.1-6-4.1c-5.5,0-7.7,4.3-7.7,9.1c0,4.9,2.3,9.3,7.7,9.3c3.5,0,5.5-1.7,6.1-4.4H1286.2
			z"/>
		<path class="st1" d="M1313.4,402.9h-18.5c0.1,5.8,2.7,9.3,7.8,9.3c3.4,0,5.4-1.4,6.2-3.8h4.1c-0.8,4.1-4.3,7.3-10.3,7.3
			c-7.6,0-11.8-5.5-11.8-13c0-7.5,4.3-12.5,11.7-12.5c7.2,0,10.7,5.4,10.8,11.3V402.9z M1295.1,399.5h14c-0.2-3.1-2.6-5.7-6.7-5.7
			C1298.1,393.8,1295.7,396.4,1295.1,399.5z"/>
		<path class="st1" d="M1093.6,438.6h7.2l8.7,16.2h1.1l8.5-16.2h7.3V473h-4.2v-29.5h-1.1l-8.8,16.3h-4.5l-8.8-16.3h-1.1V473h-4.2
			V438.6z"/>
		<path class="st1" d="M1150.2,470.5h-1.1c-1.5,1.9-4.1,3.2-7.6,3.2c-5.6,0-8.7-3.8-8.7-7.9c0-3.9,2.6-8.1,9.3-8.1h7.9v-1
			c0-2.9-1.7-5.1-5.9-5.1c-3.6,0-5.4,1.4-5.6,3.5h-4.1c0.3-4.5,4.2-7.1,9.6-7.1c6.1,0,10,2.9,10,8.4V473h-3.9V470.5z M1150,463.2
			V461h-7.3c-4,0-5.8,1.7-5.8,4.6c0,2.7,2,4.5,5.6,4.5C1146.6,470.1,1150,467,1150,463.2z"/>
		<path class="st1" d="M1179.1,473v-14.6c0-4.5-2.1-6.7-6.2-6.7c-4.3,0-7.2,3.8-7.2,8.1V473h-4.1v-24.3h4v2.6h1.1
			c1.4-1.9,4.1-3.2,7.3-3.2c6,0,9.3,3.7,9.3,9.5V473H1179.1z"/>
		<path class="st1" d="M1206.2,470.5h-1.1c-1.5,1.9-4.1,3.2-7.6,3.2c-5.6,0-8.7-3.8-8.7-7.9c0-3.9,2.6-8.1,9.3-8.1h7.9v-1
			c0-2.9-1.7-5.1-5.9-5.1c-3.6,0-5.4,1.4-5.6,3.5h-4.1c0.3-4.5,4.2-7.1,9.6-7.1c6.1,0,10,2.9,10,8.4V473h-3.9V470.5z M1206,463.2
			V461h-7.3c-4,0-5.8,1.7-5.8,4.6c0,2.7,2,4.5,5.6,4.5C1202.6,470.1,1206,467,1206,463.2z"/>
		<path class="st1" d="M1239.3,448.7v23.1c0,6.8-4.2,11.2-11.3,11.2c-6.2,0-10.3-2.6-11-7.4h4.1c0.7,2.9,3.2,4,6.9,4
			c5,0,7.3-3,7.3-7.9v-1.9h-1.1c-1.3,1.7-3.6,3.2-7.3,3.2c-6.7,0-10.8-5.3-10.8-12.4c0-7.1,4.1-12.4,10.8-12.4
			c3.8,0,6.1,1.5,7.4,3.2h1.1v-2.6H1239.3z M1235.3,460.5c0-4.7-2.5-8.9-7.7-8.9c-4.8,0-7.5,3.5-7.5,8.9c0,5.3,2.7,8.8,7.5,8.8
			C1232.8,469.3,1235.3,465.2,1235.3,460.5z"/>
		<path class="st1" d="M1268.3,460.8h-18.5c0.1,5.8,2.7,9.3,7.8,9.3c3.4,0,5.4-1.4,6.2-3.8h4.1c-0.8,4.1-4.3,7.3-10.3,7.3
			c-7.6,0-11.8-5.5-11.8-13c0-7.5,4.3-12.5,11.7-12.5c7.2,0,10.7,5.4,10.8,11.3V460.8z M1250,457.4h14c-0.2-3.1-2.6-5.7-6.7-5.7
			C1252.9,451.6,1250.5,454.3,1250,457.4z"/>
		<path class="st1" d="M1308.2,457.3V473h-4.1v-15.3c0-4-1.5-6-4.7-6c-3.8,0-5.9,2.9-5.9,7V473h-4.1v-15.2c0-4-1.6-6.1-4.6-6.1
			c-4,0-6,3.4-6,7.8V473h-4.1v-24.3h4v2.4h1.1c1.2-1.9,3.1-3,6.2-3c2.9,0,5.1,1.1,6.4,3.2h1.1c1.5-2.2,3.8-3.2,6.8-3.2
			C1305.8,448.1,1308.2,451.7,1308.2,457.3z"/>
		<path class="st1" d="M1336.8,460.8h-18.5c0.1,5.8,2.7,9.3,7.8,9.3c3.4,0,5.4-1.4,6.2-3.8h4.1c-0.8,4.1-4.3,7.3-10.3,7.3
			c-7.6,0-11.8-5.5-11.8-13c0-7.5,4.3-12.5,11.7-12.5c7.2,0,10.7,5.4,10.8,11.3V460.8z M1318.5,457.4h14c-0.2-3.1-2.6-5.7-6.7-5.7
			C1321.4,451.6,1319,454.3,1318.5,457.4z"/>
		<path class="st1" d="M1360.6,473v-14.6c0-4.5-2.1-6.7-6.2-6.7c-4.3,0-7.2,3.8-7.2,8.1V473h-4.1v-24.3h4v2.6h1.1
			c1.4-1.9,4.1-3.2,7.3-3.2c6,0,9.3,3.7,9.3,9.5V473H1360.6z"/>
		<path class="st1" d="M1384,448.7v3.6h-6.1v13.4c0,2.5,1.1,3.7,4.3,3.7h1.8v3.7h-1.9c-5.3,0-8.3-1.6-8.3-6.8v-13.9h-4.2v-3.6h4.2
			v-7.3h4.1v7.3H1384z"/>
	</g>
</g>
<g>
	<g>
		<path d="M121.8,122.7v22.1c0,8.1-4.7,12.9-13.5,12.9c-8.8,0-13.5-4.8-13.5-12.9v-22.1H99v22.1c0,5.4,3.2,9,9.2,9
			c6,0,9.2-3.6,9.2-9v-22.1H121.8z"/>
		<path d="M139.1,142.4l2.7,0.4c4.2,0.7,6.9,2.9,6.9,7.3c0,4-3.4,7.6-10,7.6c-6.9,0-10.3-3-10.8-7.7h4.1c0.4,2.7,2.8,4.1,6.5,4.1
			s6.1-1.3,6.1-4c0-2.1-1.4-3.3-4.4-3.8l-5.4-0.9c-3.5-0.6-5.8-2.5-5.8-6.1c0-4.1,3-7.2,9.6-7.2c5.7,0,9.1,2.7,9.6,6.9h-4.1
			c-0.3-2.3-2.7-3.4-5.7-3.4c-3.1,0-5.3,1.2-5.3,3.2c0,1.9,1.2,2.6,3.7,3L139.1,142.4z"/>
		<path d="M175.9,144.9h-18.5c0.1,5.8,2.7,9.3,7.8,9.3c3.4,0,5.4-1.4,6.2-3.8h4.1c-0.8,4.1-4.3,7.3-10.3,7.3
			c-7.6,0-11.8-5.5-11.8-13c0-7.5,4.3-12.5,11.7-12.5c7.2,0,10.7,5.4,10.8,11.3V144.9z M157.6,141.5h14c-0.2-3.1-2.6-5.7-6.7-5.7
			C160.6,135.8,158.2,138.4,157.6,141.5z"/>
		<path d="M196.2,136.7h-2c-4.8,0-7.8,2.9-7.8,8.3v12.2h-4.1v-24.3h4v2.9h1.1c1.2-1.5,3.5-2.9,7-2.9h1.8V136.7z"/>
		<path d="M231.5,137.9c5.2,1.2,8.6,3.8,8.6,9.7c0,5.4-4.3,10.2-13,10.2c-8.1,0-13.3-4.2-13.8-10.2h4.4c0.8,4.7,4.9,6.3,9.6,6.3
			c4.8,0,8.4-2.2,8.4-6.2c0-3.7-2.5-5.1-5.8-5.9c-1.7-0.4-5.1-1-6.8-1.4c-5-1-8.3-3.7-8.3-8.7c0-5.4,4.3-9.5,12.1-9.5
			c7.1,0,11.7,3.8,12.5,9.3H235c-0.8-3.5-3.2-5.4-8.2-5.4c-4.1,0-7.6,1.9-7.6,5.5c0,3.3,2.9,4.4,5.8,5
			C226.5,136.8,229.7,137.5,231.5,137.9z"/>
		<path d="M250.9,132.8v2.6h1.1c1.4-1.7,3.7-3.2,7.6-3.2c6.7,0,10.7,5.6,10.7,12.8c0,7.3-4,12.8-10.7,12.8c-3.9,0-6.1-1.5-7.4-3.2
			H251v12.2h-4.1v-33.9H250.9z M251,145c0,4.8,2.2,9.2,7.6,9.2c4.9,0,7.5-3.8,7.5-9.2s-2.6-9.2-7.5-9.2
			C253.2,135.8,251,140.2,251,145z"/>
		<path d="M292.1,154.6H291c-1.5,1.9-4.1,3.2-7.6,3.2c-5.6,0-8.7-3.8-8.7-7.9c0-3.9,2.6-8.1,9.3-8.1h7.9v-1c0-2.9-1.7-5.1-5.9-5.1
			c-3.6,0-5.4,1.4-5.6,3.5h-4.1c0.3-4.5,4.2-7.1,9.6-7.1c6.1,0,10,2.9,10,8.4v16.5h-3.9V154.6z M291.9,147.3v-2.2h-7.3
			c-4,0-5.8,1.7-5.8,4.6c0,2.7,2,4.5,5.6,4.5C288.5,154.2,291.9,151.2,291.9,147.3z"/>
		<path d="M324,149.8c-0.9,4.8-4.6,8-10.2,8c-7.6,0-11.8-5.6-11.8-12.8c0-7.3,4.2-12.8,11.8-12.8c5.8,0,9.3,3.2,10.1,7.7h-4.1
			c-0.8-2.5-2.7-4.1-6-4.1c-5.5,0-7.7,4.3-7.7,9.1c0,4.9,2.3,9.3,7.7,9.3c3.5,0,5.5-1.7,6.1-4.4H324z"/>
		<path d="M351.2,144.9h-18.5c0.1,5.8,2.7,9.3,7.8,9.3c3.4,0,5.4-1.4,6.2-3.8h4.1c-0.8,4.1-4.3,7.3-10.3,7.3
			c-7.6,0-11.8-5.5-11.8-13c0-7.5,4.3-12.5,11.7-12.5c7.2,0,10.7,5.4,10.8,11.3V144.9z M332.9,141.5h14c-0.2-3.1-2.6-5.7-6.7-5.7
			C335.9,135.8,333.4,138.4,332.9,141.5z"/>
	</g>
</g>
<g>
	<g>
		<path d="M584.6,146.6h-15.1l-3.6,10.6h-4.4l11.9-34.4h7.3l12,34.4h-4.5L584.6,146.6z M570.8,142.6h12.4l-5.3-15.5H576L570.8,142.6
			z"/>
		<path d="M601.6,132.8v2.6h1.1c1.4-1.7,3.7-3.2,7.6-3.2c6.7,0,10.7,5.6,10.7,12.8c0,7.3-4,12.8-10.7,12.8c-3.9,0-6.1-1.5-7.4-3.2
			h-1.1v12.2h-4.1v-33.9H601.6z M601.7,145c0,4.8,2.2,9.2,7.6,9.2c4.9,0,7.5-3.8,7.5-9.2s-2.6-9.2-7.5-9.2
			C603.9,135.8,601.7,140.2,601.7,145z"/>
		<path d="M631.2,132.8v2.6h1.1c1.4-1.7,3.7-3.2,7.6-3.2c6.7,0,10.7,5.6,10.7,12.8c0,7.3-4,12.8-10.7,12.8c-3.9,0-6.1-1.5-7.4-3.2
			h-1.1v12.2h-4.1v-33.9H631.2z M631.3,145c0,4.8,2.2,9.2,7.6,9.2c4.9,0,7.5-3.8,7.5-9.2s-2.6-9.2-7.5-9.2
			C633.5,135.8,631.3,140.2,631.3,145z"/>
		<path d="M661,122.1v35.1h-4.1v-35.1H661z"/>
		<path d="M668.9,126.5v-4.4h4.3v4.4H668.9z M673.1,157.1H669v-24.3h4.1V157.1z"/>
		<path d="M701.7,149.8c-0.9,4.8-4.6,8-10.2,8c-7.6,0-11.8-5.6-11.8-12.8c0-7.3,4.2-12.8,11.8-12.8c5.8,0,9.3,3.2,10.1,7.7h-4.1
			c-0.8-2.5-2.7-4.1-6-4.1c-5.5,0-7.7,4.3-7.7,9.1c0,4.9,2.3,9.3,7.7,9.3c3.5,0,5.5-1.7,6.1-4.4H701.7z"/>
		<path d="M723.3,154.6h-1.1c-1.5,1.9-4.1,3.2-7.6,3.2c-5.6,0-8.7-3.8-8.7-7.9c0-3.9,2.6-8.1,9.3-8.1h7.9v-1c0-2.9-1.7-5.1-5.9-5.1
			c-3.6,0-5.4,1.4-5.6,3.5h-4.1c0.3-4.5,4.2-7.1,9.6-7.1c6.1,0,10,2.9,10,8.4v16.5h-3.9V154.6z M723.2,147.3v-2.2h-7.3
			c-4,0-5.8,1.7-5.8,4.6c0,2.7,2,4.5,5.6,4.5C719.8,154.2,723.2,151.2,723.2,147.3z"/>
		<path d="M746.5,132.8v3.6h-6.1v13.4c0,2.5,1.1,3.7,4.3,3.7h1.8v3.7h-1.9c-5.3,0-8.3-1.6-8.3-6.8v-13.9h-4.2v-3.6h4.2v-7.3h4.1v7.3
			H746.5z"/>
		<path d="M753.2,126.5v-4.4h4.3v4.4H753.2z M757.4,157.1h-4.1v-24.3h4.1V157.1z"/>
		<path d="M787.9,145c0,7.2-4.4,12.8-12,12.8c-7.6,0-12-5.6-12-12.8s4.3-12.8,12-12.8C783.5,132.2,787.9,137.8,787.9,145z
			 M783.8,145c0-4.8-2.5-9.2-7.9-9.2c-5.4,0-7.9,4.4-7.9,9.2s2.5,9.2,7.9,9.2C781.3,154.2,783.8,149.8,783.8,145z"/>
		<path d="M811.8,157.1v-14.6c0-4.5-2.1-6.7-6.2-6.7c-4.3,0-7.2,3.8-7.2,8.1v13.2h-4.1v-24.3h4v2.6h1.1c1.3-1.9,4-3.2,7.3-3.2
			c6,0,9.3,3.7,9.3,9.5v15.4H811.8z"/>
	</g>
</g>
<g>
	<g>
		<path d="M1025.2,153v4.1h-23.7v-34.4h4.3V153H1025.2z"/>
		<path d="M1031.1,126.5v-4.4h4.3v4.4H1031.1z M1035.3,157.1h-4.1v-24.3h4.1V157.1z"/>
		<path d="M1066.6,145c0,7.2-4,12.8-10.7,12.8c-3.9,0-6.2-1.5-7.6-3.2h-1.1v2.6h-4v-35.1h4.1v13.4h1.1c1.3-1.7,3.6-3.2,7.4-3.2
			C1062.7,132.2,1066.6,137.7,1066.6,145z M1062.5,145c0-5.4-2.6-9.2-7.5-9.2c-5.4,0-7.6,4.4-7.6,9.2s2.2,9.2,7.6,9.2
			C1059.9,154.2,1062.5,150.4,1062.5,145z"/>
		<path d="M1086.9,136.7h-2c-4.8,0-7.8,2.9-7.8,8.3v12.2h-4.1v-24.3h4v2.9h1.1c1.2-1.5,3.5-2.9,7-2.9h1.8V136.7z"/>
		<path d="M1107.7,154.6h-1.1c-1.5,1.9-4.1,3.2-7.6,3.2c-5.6,0-8.7-3.8-8.7-7.9c0-3.9,2.6-8.1,9.3-8.1h7.9v-1c0-2.9-1.7-5.1-5.9-5.1
			c-3.6,0-5.4,1.4-5.6,3.5h-4.1c0.3-4.5,4.2-7.1,9.6-7.1c6.1,0,10,2.9,10,8.4v16.5h-3.9V154.6z M1107.6,147.3v-2.2h-7.3
			c-4,0-5.8,1.7-5.8,4.6c0,2.7,2,4.5,5.6,4.5C1104.2,154.2,1107.6,151.2,1107.6,147.3z"/>
		<path d="M1133,136.7h-2c-4.8,0-7.8,2.9-7.8,8.3v12.2h-4.1v-24.3h4v2.9h1.1c1.2-1.5,3.5-2.9,7-2.9h1.8V136.7z"/>
		<path d="M1138.4,126.5v-4.4h4.3v4.4H1138.4z M1142.6,157.1h-4.1v-24.3h4.1V157.1z"/>
		<path d="M1171.7,144.9h-18.5c0.1,5.8,2.7,9.3,7.8,9.3c3.4,0,5.4-1.4,6.2-3.8h4.1c-0.8,4.1-4.3,7.3-10.3,7.3
			c-7.6,0-11.8-5.5-11.8-13c0-7.5,4.3-12.5,11.7-12.5c7.2,0,10.7,5.4,10.8,11.3V144.9z M1153.4,141.5h14c-0.2-3.1-2.6-5.7-6.7-5.7
			C1156.3,135.8,1153.9,138.4,1153.4,141.5z"/>
		<path d="M1187.1,142.4l2.7,0.4c4.2,0.7,6.9,2.9,6.9,7.3c0,4-3.4,7.6-10,7.6c-6.9,0-10.3-3-10.8-7.7h4.1c0.4,2.7,2.8,4.1,6.5,4.1
			s6.1-1.3,6.1-4c0-2.1-1.4-3.3-4.4-3.8l-5.4-0.9c-3.5-0.6-5.8-2.5-5.8-6.1c0-4.1,3-7.2,9.6-7.2c5.7,0,9.1,2.7,9.6,6.9h-4.1
			c-0.3-2.3-2.7-3.4-5.7-3.4c-3.1,0-5.3,1.2-5.3,3.2c0,1.9,1.2,2.6,3.7,3L1187.1,142.4z"/>
	</g>
</g>
<path class="st2" d="M1430.8,259.3H40c-11.6,0-21.1-9.4-21.1-21.1V48.6c0-11.6,9.4-21.1,21.1-21.1h1390.8c11.6,0,21.1,9.4,21.1,21.1
	v189.6C1451.9,249.8,1442.5,259.3,1430.8,259.3z"/>
<path class="st3" d="M1430.8,839.6H40c-11.6,0-21.1-9.4-21.1-21.1V628.9c0-11.6,9.4-21.1,21.1-21.1h1390.8
	c11.6,0,21.1,9.4,21.1,21.1v189.6C1451.9,830.2,1442.5,839.6,1430.8,839.6z"/>
</svg>
