<?xml version="1.0" encoding="utf-8"?>
<!-- Generator: Adobe Illustrator 20.1.0, SVG Export Plug-In . SVG Version: 6.00 Build 0)  -->
<svg version="1.1" id="Layer_1" xmlns="http://www.w3.org/2000/svg" xmlns:xlink="http://www.w3.org/1999/xlink" x="0px" y="0px"
	 viewBox="0 0 1474 1923.2" style="enable-background:new 0 0 1474 1923.2;" xml:space="preserve">
<style type="text/css">
	.st0{fill:none;stroke:#007BFF;stroke-width:4;stroke-linecap:round;stroke-linejoin:round;stroke-miterlimit:10;}
	.st1{fill:none;stroke:#007BFF;stroke-width:5.3086;stroke-linecap:round;stroke-linejoin:round;stroke-miterlimit:10;}
	.st2{fill:#007BFF;}
</style>
<path d="M1296.6,4804.3c6.2,0.8,12.5,1.7,18.7,2.5c-0.1,0.6-0.1,1.1-0.2,1.7c-6.3-0.6-12.5-1.3-18.8-1.9
	C1296.5,4805.7,1296.6,4805,1296.6,4804.3z"/>
<path class="st0" d="M1420.5,239.3h-759c-10.2,0-18.5-8.3-18.5-18.5v-163c0-10.2,8.3-18.5,18.5-18.5h758.9
	c10.2,0,18.5,8.3,18.5,18.5v162.9C1439,231,1430.7,239.3,1420.5,239.3z"/>
<path class="st0" d="M814.5,637.3h-759c-10.2,0-18.5-8.3-18.5-18.5v-163c0-10.2,8.3-18.5,18.5-18.5h758.9c10.2,0,18.5,8.3,18.5,18.5
	v162.9C833,629,824.7,637.3,814.5,637.3z"/>
<path class="st0" d="M814.5,1439.3h-759c-10.2,0-18.5-8.3-18.5-18.5v-162.9c0-10.2,8.3-18.5,18.5-18.5h758.9
	c10.2,0,18.5,8.3,18.5,18.5v162.9C833,1431,824.7,1439.3,814.5,1439.3z"/>
<path class="st0" d="M1418.5,1843.3h-759c-10.2,0-18.5-8.3-18.5-18.5v-162.9c0-10.2,8.3-18.5,18.5-18.5h758.9
	c10.2,0,18.5,8.3,18.5,18.5v162.9C1437,1835,1428.7,1843.3,1418.5,1843.3z"/>
<path class="st1" d="M1414.4,1035.3H61.6c-13.6,0-24.6-11-24.6-24.6V859.9c0-13.6,11-24.6,24.6-24.6h1352.8
	c13.6,0,24.6,11,24.6,24.6v150.8C1439,1024.2,1428,1035.3,1414.4,1035.3z"/>
<g>
	<path pointer-events="none" class="st2" d="M1040.8,239.3l14,27.6l-13.7-6.6l-13.9,6.8L1040.8,239.3z"/>
	<path pointer-events="none" class="st2" d="M1041.2,835.3l-14-27.6l13.7,6.6l13.9-6.8L1041.2,835.3z"/>
	<line class="st0" x1="1041" y1="821.4" x2="1041" y2="255.8"/>
</g>
<g>
	<path pointer-events="none" class="st2" d="M1040.8,1035.3l14,27.6l-13.7-6.6l-13.9,6.8L1040.8,1035.3z"/>
	<path pointer-events="none" class="st2" d="M1041.2,1631.3l-14-27.6l13.7,6.6l13.9-6.8L1041.2,1631.3z"/>
	<line class="st0" x1="1041" y1="1617.4" x2="1041" y2="1051.8"/>
</g>
<g>
	<path pointer-events="none" class="st2" d="M438.8,1039.3l14,27.6l-13.7-6.6l-13.9,6.8L438.8,1039.3z"/>
	<path pointer-events="none" class="st2" d="M439.2,1236.3l-14-27.6l13.7,6.6l13.9-6.8L439.2,1236.3z"/>
	<line class="st0" x1="439" y1="1227.3" x2="439" y2="1055.8"/>
</g>
<g>
	<path pointer-events="none" class="st2" d="M741.8,1439.3l14,27.6l-13.7-6.6l-13.9,6.8L741.8,1439.3z"/>
	<path pointer-events="none" class="st2" d="M742.2,1636.3l-14-27.6l13.7,6.6l13.9-6.8L742.2,1636.3z"/>
	<line class="st0" x1="742" y1="1627.3" x2="742" y2="1455.8"/>
</g>
<g>
	<path pointer-events="none" class="st2" d="M438.8,637.3l14,27.6l-13.7-6.6l-13.9,6.8L438.8,637.3z"/>
	<path pointer-events="none" class="st2" d="M439.2,834.3l-14-27.6l13.7,6.6l13.9-6.8L439.2,834.3z"/>
	<line class="st0" x1="439" y1="825.3" x2="439" y2="653.8"/>
</g>
<g>
	<path class="st2" d="M892.7,119.2v41.2h-5.2v-18.8h-23v18.8h-5.2v-41.2h5.2v17.5h23v-17.5H892.7z"/>
	<path class="st2" d="M907.1,131.3v17.4c0,5.4,2.5,8,7.4,8c5.1,0,8.7-4.4,8.7-9.7v-15.8h4.9v29.1h-4.7v-3.1H922
		c-1.6,2.3-4.8,3.9-8.8,3.9c-7.2,0-11.1-4.4-11.1-11.4v-18.5h5V131.3z"/>
	<path class="st2" d="M977.6,141.6v18.8h-4.9v-18.3c0-4.8-1.8-7.2-5.6-7.2c-4.6,0-7.1,3.5-7.1,8.4v17h-4.9v-18.2
		c0-4.8-1.9-7.3-5.5-7.3c-4.8,0-7.2,4.1-7.2,9.3v16.1h-4.9v-29.1h4.7v2.8h1.3c1.4-2.3,3.7-3.6,7.4-3.6c3.5,0,6.1,1.3,7.7,3.9h1.3
		c1.8-2.6,4.6-3.9,8.2-3.9C974.7,130.6,977.6,134.9,977.6,141.6z"/>
	<path class="st2" d="M1005.1,157.3h-1.3c-1.8,2.3-4.9,3.8-9.1,3.8c-6.7,0-10.4-4.5-10.4-9.5c0-4.7,3.1-9.6,11.1-9.6h9.5v-1.2
		c0-3.5-2-6.1-7.1-6.1c-4.3,0-6.5,1.7-6.8,4.2h-4.9c0.4-5.4,5-8.5,11.5-8.5c7.3,0,12,3.5,12,10v19.8h-4.6L1005.1,157.3L1005.1,157.3
		z M1005,148.6V146h-8.7c-4.8,0-7,2.1-7,5.5c0,3.3,2.4,5.4,6.8,5.4C1000.9,156.9,1005,153.3,1005,148.6z"/>
	<path class="st2" d="M1039.7,160.4V143c0-5.4-2.5-8-7.4-8c-5.2,0-8.7,4.6-8.7,9.7v15.8h-4.9v-29.1h4.7v3.1h1.3
		c1.6-2.3,4.8-3.9,8.8-3.9c7.2,0,11.1,4.4,11.1,11.4v18.5h-4.9V160.4z"/>
	<path class="st2" d="M1102.5,119.2v26.5c0,9.8-5.7,15.5-16.2,15.5s-16.2-5.7-16.2-15.5v-26.5h5.2v26.4c0,6.5,3.8,10.8,11,10.8
		s11-4.3,11-10.8v-26.4C1097.3,119.2,1102.5,119.2,1102.5,119.2z"/>
	<path class="st2" d="M1123.2,142.7l3.3,0.5c5.1,0.9,8.3,3.5,8.3,8.8c0,4.8-4.1,9.1-11.9,9.1c-8.3,0-12.3-3.6-12.9-9.2h5
		c0.5,3.3,3.3,4.9,7.7,4.9s7.3-1.6,7.3-4.7c0-2.5-1.6-3.9-5.3-4.6l-6.5-1.1c-4.2-0.8-7-2.9-7-7.3c0-4.8,3.6-8.6,11.5-8.6
		c6.9,0,10.8,3.2,11.5,8.3h-4.9c-0.4-2.8-3.2-4-6.8-4c-3.8,0-6.3,1.4-6.3,3.9c0,2.3,1.4,3.1,4.4,3.6L1123.2,142.7z"/>
	<path class="st2" d="M1167.3,145.8h-22.2c0.2,6.9,3.3,11.1,9.3,11.1c4.1,0,6.5-1.7,7.4-4.5h5c-0.9,5-5.1,8.8-12.3,8.8
		c-9.1,0-14.1-6.6-14.1-15.6s5.2-15,14-15c8.7,0,12.8,6.4,13,13.6v1.6H1167.3z M1145.4,141.7h16.8c-0.3-3.7-3.1-6.9-8-6.9
		C1148.9,134.8,1146,138,1145.4,141.7z"/>
	<path class="st2" d="M1191.5,135.9h-2.4c-5.8,0-9.3,3.5-9.3,9.9v14.5h-4.9v-29.1h4.7v3.5h1.3c1.4-1.8,4.2-3.5,8.4-3.5h2.2
		L1191.5,135.9L1191.5,135.9z"/>
	<path class="st2" d="M1208.8,142.7l3.3,0.5c5.1,0.9,8.3,3.5,8.3,8.8c0,4.8-4.1,9.1-11.9,9.1c-8.3,0-12.3-3.6-12.9-9.2h5
		c0.5,3.3,3.3,4.9,7.7,4.9s7.3-1.6,7.3-4.7c0-2.5-1.6-3.9-5.3-4.6l-6.5-1.1c-4.2-0.8-7-2.9-7-7.3c0-4.8,3.6-8.6,11.5-8.6
		c6.9,0,10.8,3.2,11.5,8.3h-4.9c-0.4-2.8-3.2-4-6.8-4c-3.8,0-6.3,1.4-6.3,3.9c0,2.3,1.4,3.1,4.4,3.6L1208.8,142.7z"/>
</g>
<g>
	<path class="st2" d="M177.8,546.7h-18.1l-4.3,12.6h-5.3l14.3-41.2h8.8l14.3,41.2h-5.4L177.8,546.7z M161.3,542h14.9l-6.3-18.5h-2.3
		L161.3,542z"/>
	<path class="st2" d="M198.1,530.3v3.1h1.3c1.6-2,4.4-3.9,9.1-3.9c8,0,12.8,6.7,12.8,15.3c0,8.8-4.7,15.3-12.8,15.3
		c-4.6,0-7.3-1.8-8.9-3.9h-1.3v14.7h-4.9v-40.6L198.1,530.3L198.1,530.3z M198.3,544.8c0,5.7,2.7,11,9.1,11c5.8,0,8.9-4.6,8.9-11
		s-3.1-11-8.9-11C200.9,533.8,198.3,539.1,198.3,544.8z"/>
	<path class="st2" d="M233.6,530.3v3.1h1.3c1.6-2,4.4-3.9,9.1-3.9c8,0,12.8,6.7,12.8,15.3c0,8.8-4.7,15.3-12.8,15.3
		c-4.6,0-7.3-1.8-8.9-3.9h-1.3v14.7h-4.9v-40.6L233.6,530.3L233.6,530.3z M233.8,544.8c0,5.7,2.7,11,9.1,11c5.8,0,8.9-4.6,8.9-11
		s-3.1-11-8.9-11C236.4,533.8,233.8,539.1,233.8,544.8z"/>
	<path class="st2" d="M269.3,517.4v42h-4.9v-42H269.3z"/>
	<path class="st2" d="M278.8,522.7v-5.3h5.2v5.3H278.8z M283.8,559.4h-4.9v-29.1h4.9V559.4z"/>
	<path class="st2" d="M318,550.6c-1.1,5.7-5.5,9.5-12.2,9.5c-9.1,0-14.1-6.7-14.1-15.3c0-8.8,5.1-15.3,14.1-15.3
		c6.9,0,11.1,3.8,12.1,9.2H313c-0.9-2.9-3.2-4.9-7.2-4.9c-6.6,0-9.2,5.1-9.2,10.9c0,5.8,2.7,11.1,9.2,11.1c4.2,0,6.6-2,7.3-5.3
		L318,550.6L318,550.6z"/>
	<path class="st2" d="M343.9,556.3h-1.3c-1.8,2.3-4.9,3.8-9.1,3.8c-6.7,0-10.4-4.5-10.4-9.5c0-4.7,3.1-9.6,11.1-9.6h9.5v-1.2
		c0-3.5-2-6.1-7.1-6.1c-4.3,0-6.5,1.7-6.8,4.2h-4.9c0.4-5.4,5-8.5,11.5-8.5c7.3,0,12,3.5,12,10v19.8h-4.6L343.9,556.3L343.9,556.3z
		 M343.7,547.6V545H335c-4.8,0-7,2.1-7,5.5c0,3.3,2.4,5.4,6.8,5.4C339.6,555.9,343.7,552.2,343.7,547.6z"/>
	<path class="st2" d="M371.6,530.3v4.3h-7.3v16c0,2.9,1.3,4.4,5.2,4.4h2.1v4.4h-2.3c-6.3,0-10-2-10-8.1v-16.7h-5v-4.3h5v-8.8h4.9
		v8.8L371.6,530.3L371.6,530.3z"/>
	<path class="st2" d="M379.7,522.7v-5.3h5.2v5.3H379.7z M384.7,559.4h-4.9v-29.1h4.9V559.4z"/>
	<path class="st2" d="M421.1,544.8c0,8.6-5.3,15.3-14.3,15.3c-9.1,0-14.3-6.7-14.3-15.3s5.2-15.3,14.3-15.3
		C415.9,529.6,421.1,536.2,421.1,544.8z M416.2,544.8c0-5.7-3-11-9.4-11c-6.5,0-9.4,5.3-9.4,11s2.9,11,9.4,11
		C413.2,555.9,416.2,550.6,416.2,544.8z"/>
	<path class="st2" d="M449.8,559.4V542c0-5.4-2.5-8-7.4-8c-5.2,0-8.7,4.6-8.7,9.7v15.8h-4.9v-29.1h4.7v3.1h1.3
		c1.6-2.3,4.8-3.9,8.8-3.9c7.2,0,11.1,4.4,11.1,11.4v18.5L449.8,559.4L449.8,559.4z"/>
	<path class="st2" d="M499.6,536.3c6.2,1.4,10.3,4.6,10.3,11.6c0,6.5-5.1,12.2-15.6,12.2c-9.6,0-15.9-5.1-16.6-12.2h5.3
		c0.9,5.6,5.9,7.5,11.5,7.5c5.7,0,10.1-2.7,10.1-7.4c0-4.4-2.9-6.1-7-7c-2.1-0.5-6.1-1.2-8.1-1.7c-6-1.2-10-4.4-10-10.4
		c0-6.4,5.2-11.4,14.5-11.4c8.5,0,14,4.5,14.9,11.1h-5.3c-1-4.2-3.8-6.4-9.8-6.4c-5,0-9.1,2.3-9.1,6.6c0,4,3.5,5.3,7,6
		C493.6,535,497.4,535.8,499.6,536.3z"/>
	<path class="st2" d="M544.9,544.8c0,8.6-5.3,15.3-14.3,15.3c-9.1,0-14.3-6.7-14.3-15.3s5.2-15.3,14.3-15.3
		C539.6,529.6,544.9,536.2,544.9,544.8z M540,544.8c0-5.7-3-11-9.4-11c-6.5,0-9.4,5.3-9.4,11s2.9,11,9.4,11
		C537,555.9,540,550.6,540,544.8z"/>
	<path class="st2" d="M559.3,534.6v24.8h-4.9v-24.8h-5v-4.3h5V527c0-6.6,3.7-9.5,10-9.5h2.8v4.3h-2.8c-3.9,0-5.1,2.4-5.1,5.4v3.2
		h7.9v4.3h-7.9V534.6z"/>
	<path class="st2" d="M587.9,530.3v4.3h-7.3v16c0,2.9,1.3,4.4,5.2,4.4h2.1v4.4h-2.3c-6.3,0-10-2-10-8.1v-16.7h-5v-4.3h5v-8.8h4.9
		v8.8L587.9,530.3L587.9,530.3z"/>
	<path class="st2" d="M614.4,539.8l4.8,14.4h1.3l3.3-23.9h4.7l-4.2,29.1h-7.5l-5.1-14.7h-1.2l-5.1,14.7h-7.6l-4.2-29.1h4.7l3.5,23.9
		h1.3l5-14.4H614.4z"/>
	<path class="st2" d="M654.4,556.3h-1.3c-1.8,2.3-4.9,3.8-9.1,3.8c-6.7,0-10.4-4.5-10.4-9.5c0-4.7,3.1-9.6,11.1-9.6h9.5v-1.2
		c0-3.5-2-6.1-7.1-6.1c-4.3,0-6.5,1.7-6.8,4.2h-4.9c0.4-5.4,5-8.5,11.5-8.5c7.3,0,12,3.5,12,10v19.8h-4.6L654.4,556.3L654.4,556.3z
		 M654.2,547.6V545h-8.7c-4.8,0-7,2.1-7,5.5c0,3.3,2.4,5.4,6.8,5.4C650.1,555.9,654.2,552.2,654.2,547.6z"/>
	<path class="st2" d="M684.6,534.9h-2.4c-5.8,0-9.3,3.5-9.3,9.9v14.5H668v-29.1h4.7v3.5h1.3c1.4-1.8,4.2-3.5,8.4-3.5h2.2
		L684.6,534.9L684.6,534.9z"/>
	<path class="st2" d="M716.2,544.8H694c0.2,6.9,3.3,11.1,9.3,11.1c4.1,0,6.5-1.7,7.4-4.5h5c-0.9,5-5.1,8.8-12.3,8.8
		c-9.1,0-14.1-6.6-14.1-15.6s5.2-15,14-15c8.7,0,12.8,6.4,13,13.6v1.6H716.2z M694.4,540.7h16.8c-0.3-3.7-3.1-6.9-8-6.9
		C697.9,533.8,695,537,694.4,540.7z"/>
</g>
<g>
	<path class="st2" d="M532.6,935c0,11.8-6.7,21.4-19.2,21.4c-12.6,0-19.2-9.5-19.2-21.4s6.6-21.4,19.2-21.4
		C525.9,913.6,532.6,923.2,532.6,935z M527.4,935c0-8.6-4.2-16.6-14-16.6s-14,8-14,16.6s4.2,16.6,14,16.6S527.4,943.6,527.4,935z"/>
	<path class="st2" d="M545.3,926.5v3.1h1.3c1.6-2,4.4-3.9,9.1-3.9c8,0,12.8,6.7,12.8,15.3c0,8.8-4.7,15.3-12.8,15.3
		c-4.6,0-7.3-1.8-8.9-3.9h-1.3v14.7h-4.9v-40.6L545.3,926.5L545.3,926.5z M545.4,941.1c0,5.7,2.7,11,9.1,11c5.8,0,8.9-4.6,8.9-11
		c0-6.5-3.1-11-8.9-11C548,930,545.4,935.3,545.4,941.1z"/>
	<path class="st2" d="M601.2,941H579c0.2,6.9,3.3,11.1,9.3,11.1c4.1,0,6.5-1.7,7.4-4.5h5c-0.9,5-5.1,8.8-12.3,8.8
		c-9.1,0-14.1-6.6-14.1-15.6c0-8.9,5.2-15,14-15c8.7,0,12.8,6.4,13,13.6v1.6H601.2z M579.4,936.9h16.8c-0.3-3.7-3.1-6.9-8-6.9
		C582.9,930,580,933.2,579.4,936.9z"/>
	<path class="st2" d="M625.5,931.1h-2.4c-5.8,0-9.3,3.5-9.3,9.9v14.5h-4.9v-29.1h4.7v3.5h1.3c1.4-1.8,4.2-3.5,8.4-3.5h2.2V931.1z"/>
	<path class="st2" d="M650.4,952.5h-1.3c-1.8,2.3-4.9,3.8-9.1,3.8c-6.7,0-10.4-4.5-10.4-9.5c0-4.7,3.1-9.6,11.1-9.6h9.5V936
		c0-3.5-2-6.1-7.1-6.1c-4.3,0-6.5,1.7-6.8,4.2h-4.9c0.4-5.4,5-8.5,11.5-8.5c7.3,0,12,3.5,12,10v19.8h-4.6L650.4,952.5L650.4,952.5z
		 M650.2,943.8v-2.7h-8.7c-4.8,0-7,2.1-7,5.5c0,3.3,2.4,5.4,6.8,5.4C646.1,952.1,650.2,948.4,650.2,943.8z"/>
	<path class="st2" d="M678.1,926.5v4.3h-7.3v16c0,2.9,1.3,4.4,5.2,4.4h2.1v4.4h-2.3c-6.3,0-10-2-10-8.1v-16.7h-5v-4.3h5v-8.8h4.9
		v8.8L678.1,926.5L678.1,926.5z"/>
	<path class="st2" d="M686.2,918.9v-5.3h5.2v5.3H686.2z M691.2,955.6h-4.9v-29.1h4.9V955.6z"/>
	<path class="st2" d="M721.8,955.6v-17.4c0-5.4-2.5-8-7.4-8c-5.2,0-8.7,4.6-8.7,9.7v15.8h-4.9v-29.1h4.7v3.1h1.3
		c1.6-2.3,4.8-3.9,8.8-3.9c7.2,0,11.1,4.4,11.1,11.4v18.5L721.8,955.6L721.8,955.6z"/>
	<path class="st2" d="M761.7,926.5v27.6c0,8.1-5.1,13.4-13.6,13.4c-7.4,0-12.3-3.1-13.2-8.9h4.8c0.9,3.5,3.9,4.7,8.3,4.7
		c6,0,8.7-3.6,8.7-9.5v-2.3h-1.3c-1.6,2-4.3,3.9-8.7,3.9c-8,0-12.9-6.3-12.9-14.8s4.9-14.9,12.9-14.9c4.6,0,7.3,1.8,8.9,3.9h1.3
		v-3.1L761.7,926.5L761.7,926.5z M757,940.6c0-5.6-2.9-10.6-9.2-10.6c-5.7,0-8.9,4.2-8.9,10.6c0,6.3,3.2,10.6,8.9,10.6
		C754,951.2,757,946.2,757,940.6z"/>
	<path class="st2" d="M807.1,932.5c6.2,1.4,10.3,4.6,10.3,11.6c0,6.5-5.1,12.2-15.6,12.2c-9.6,0-15.9-5.1-16.6-12.2h5.3
		c0.9,5.6,5.9,7.5,11.5,7.5c5.7,0,10.1-2.7,10.1-7.4c0-4.4-2.9-6.1-7-7c-2.1-0.5-6.1-1.2-8.1-1.7c-6-1.2-10-4.4-10-10.4
		c0-6.4,5.2-11.4,14.5-11.4c8.5,0,14,4.5,14.9,11.1h-5.3c-1-4.2-3.8-6.4-9.8-6.4c-5,0-9.1,2.2-9.1,6.6c0,4,3.5,5.3,7,6
		C801.1,931.2,805,932,807.1,932.5z"/>
	<path class="st2" d="M828,967.1l6-14.3l-12.4-26.4h5.3l8.9,19.2h1.4l8.1-19.2h5.1L833,967.1H828z"/>
	<path class="st2" d="M867,937.9l3.3,0.5c5.1,0.9,8.3,3.5,8.3,8.8c0,4.8-4.1,9.1-11.9,9.1c-8.3,0-12.3-3.6-12.9-9.2h5
		c0.5,3.3,3.3,4.9,7.7,4.9s7.3-1.6,7.3-4.7c0-2.5-1.6-3.9-5.3-4.6l-6.5-1.1c-4.2-0.8-7-2.9-7-7.3c0-4.8,3.6-8.6,11.5-8.6
		c6.9,0,10.8,3.2,11.5,8.3h-5c-0.4-2.8-3.2-4-6.8-4c-3.8,0-6.3,1.4-6.3,3.9c0,2.3,1.4,3.1,4.4,3.6L867,937.9z"/>
	<path class="st2" d="M899.9,926.5v4.3h-7.3v16c0,2.9,1.3,4.4,5.2,4.4h2.1v4.4h-2.3c-6.3,0-10-2-10-8.1v-16.7h-5v-4.3h5v-8.8h4.9
		v8.8L899.9,926.5L899.9,926.5z"/>
	<path class="st2" d="M932.7,941h-22.2c0.2,6.9,3.3,11.1,9.3,11.1c4.1,0,6.5-1.7,7.4-4.5h5c-0.9,5-5.1,8.8-12.3,8.8
		c-9.1,0-14.1-6.6-14.1-15.6c0-8.9,5.2-15,14-15c8.7,0,12.8,6.4,13,13.6v1.6H932.7z M910.9,936.9h16.8c-0.3-3.7-3.1-6.9-8-6.9
		C914.4,930,911.5,933.2,910.9,936.9z"/>
	<path class="st2" d="M980.5,936.8v18.8h-4.9v-18.3c0-4.8-1.8-7.2-5.6-7.2c-4.6,0-7.1,3.5-7.1,8.4v17H958v-18.2
		c0-4.8-1.9-7.3-5.5-7.3c-4.8,0-7.2,4.1-7.2,9.3v16.1h-4.9v-29.1h4.7v2.8h1.3c1.4-2.3,3.7-3.6,7.4-3.6c3.5,0,6.1,1.3,7.7,3.9h1.3
		c1.8-2.6,4.6-3.9,8.2-3.9C977.6,925.8,980.5,930.1,980.5,936.8z"/>
</g>
<g>
	<path class="st2" d="M159.1,1338.5c0,11.8-6.7,21.4-19.2,21.4c-12.6,0-19.2-9.5-19.2-21.4s6.6-21.4,19.2-21.4
		S159.1,1326.6,159.1,1338.5z M153.9,1338.5c0-8.6-4.2-16.6-14-16.6s-14,8-14,16.6s4.2,16.6,14,16.6S153.9,1347.1,153.9,1338.5z"/>
	<path class="st2" d="M181.1,1330v4.3h-7.3v16c0,2.9,1.3,4.4,5.2,4.4h2.1v4.4h-2.3c-6.3,0-10-2-10-8.1v-16.7h-5v-4.3h5v-8.8h4.9v8.8
		L181.1,1330L181.1,1330z"/>
	<path class="st2" d="M210.2,1359.1v-17.4c0-5.3-2.5-8-7.4-8c-5.2,0-8.7,4.6-8.7,9.7v15.8h-4.9v-42h4.9v16h1.3
		c1.6-2.3,4.7-3.9,8.7-3.9c7.1,0,11,4.4,11,11.4v18.5L210.2,1359.1L210.2,1359.1z"/>
	<path class="st2" d="M249.3,1344.5h-22.2c0.2,6.9,3.3,11.1,9.3,11.1c4.1,0,6.5-1.7,7.4-4.5h5c-0.9,5-5.1,8.8-12.3,8.8
		c-9.1,0-14.1-6.6-14.1-15.6s5.2-15,14-15c8.7,0,12.8,6.4,13,13.6L249.3,1344.5L249.3,1344.5z M227.4,1340.4h16.8
		c-0.3-3.7-3.1-6.9-8-6.9C230.9,1333.5,228.1,1336.7,227.4,1340.4z"/>
	<path class="st2" d="M273.5,1334.6h-2.4c-5.8,0-9.3,3.5-9.3,9.9v14.5h-4.9v-29h4.7v3.5h1.3c1.4-1.8,4.2-3.5,8.4-3.5h2.2
		L273.5,1334.6L273.5,1334.6z"/>
	<path class="st2" d="M315.8,1336c6.2,1.4,10.3,4.6,10.3,11.6c0,6.5-5.1,12.2-15.6,12.2c-9.6,0-15.9-5.1-16.6-12.2h5.3
		c0.9,5.6,5.9,7.5,11.5,7.5c5.7,0,10.1-2.7,10.1-7.4c0-4.4-2.9-6.1-7-7c-2.1-0.5-6.1-1.2-8.1-1.7c-6-1.2-10-4.4-10-10.4
		c0-6.4,5.2-11.4,14.5-11.4c8.5,0,14,4.5,14.9,11.1H320c-1-4.2-3.8-6.4-9.8-6.4c-5,0-9.1,2.3-9.1,6.6c0,4,3.5,5.3,7,6
		C309.8,1334.7,313.7,1335.5,315.8,1336z"/>
	<path class="st2" d="M336.7,1370.6l6-14.3l-12.4-26.4h5.3l8.9,19.2h1.4l8.1-19.2h5.1l-17.4,40.6h-5V1370.6z"/>
	<path class="st2" d="M375.7,1341.4l3.3,0.5c5.1,0.9,8.3,3.5,8.3,8.8c0,4.8-4.1,9.1-11.9,9.1c-8.3,0-12.3-3.6-12.9-9.2h5
		c0.5,3.3,3.3,4.9,7.7,4.9c4.4,0,7.3-1.6,7.3-4.7c0-2.5-1.6-3.9-5.3-4.6l-6.5-1.1c-4.2-0.8-7-2.9-7-7.3c0-4.8,3.6-8.6,11.5-8.6
		c6.9,0,10.8,3.2,11.5,8.3h-4.9c-0.4-2.8-3.2-4-6.8-4c-3.8,0-6.3,1.4-6.3,3.9c0,2.3,1.4,3.1,4.4,3.6L375.7,1341.4z"/>
	<path class="st2" d="M408.6,1330v4.3h-7.3v16c0,2.9,1.3,4.4,5.2,4.4h2.1v4.4h-2.3c-6.3,0-10-2-10-8.1v-16.7h-5v-4.3h5v-8.8h4.9v8.8
		L408.6,1330L408.6,1330z"/>
	<path class="st2" d="M441.5,1344.5h-22.2c0.2,6.9,3.3,11.1,9.3,11.1c4.1,0,6.5-1.7,7.4-4.5h5c-0.9,5-5.1,8.8-12.3,8.8
		c-9.1,0-14.1-6.6-14.1-15.6s5.2-15,14-15c8.7,0,12.8,6.4,13,13.6L441.5,1344.5L441.5,1344.5z M419.6,1340.4h16.8
		c-0.3-3.7-3.1-6.9-8-6.9C423.1,1333.5,420.2,1336.7,419.6,1340.4z"/>
	<path class="st2" d="M489.2,1340.3v18.8h-4.9v-18.3c0-4.8-1.8-7.2-5.6-7.2c-4.6,0-7.1,3.5-7.1,8.4v17h-4.9v-18.2
		c0-4.8-1.9-7.3-5.5-7.3c-4.8,0-7.2,4.1-7.2,9.3v16.1h-4.9V1330h4.7v2.8h1.3c1.4-2.2,3.7-3.6,7.4-3.6c3.5,0,6.1,1.3,7.7,3.9h1.3
		c1.8-2.6,4.6-3.9,8.2-3.9C486.3,1329.2,489.2,1333.6,489.2,1340.3z"/>
	<path class="st2" d="M534.1,1336c6.2,1.4,10.3,4.6,10.3,11.6c0,6.5-5.1,12.2-15.6,12.2c-9.6,0-15.9-5.1-16.6-12.2h5.3
		c0.9,5.6,5.9,7.5,11.5,7.5c5.7,0,10.1-2.7,10.1-7.4c0-4.4-2.9-6.1-7-7c-2.1-0.5-6.1-1.2-8.1-1.7c-6-1.2-10-4.4-10-10.4
		c0-6.4,5.2-11.4,14.5-11.4c8.5,0,14,4.5,14.9,11.1h-5.3c-1-4.2-3.8-6.4-9.8-6.4c-5,0-9.1,2.3-9.1,6.6c0,4,3.5,5.3,7,6
		C528.1,1334.7,532,1335.5,534.1,1336z"/>
	<path class="st2" d="M579.4,1344.5c0,8.6-5.3,15.3-14.3,15.3c-9.1,0-14.3-6.7-14.3-15.3c0-8.6,5.2-15.3,14.3-15.3
		C574.1,1329.2,579.4,1335.9,579.4,1344.5z M574.5,1344.5c0-5.7-3-11-9.4-11c-6.5,0-9.4,5.3-9.4,11s2.9,11,9.4,11
		C571.5,1355.6,574.5,1350.2,574.5,1344.5z"/>
	<path class="st2" d="M593.8,1334.3v24.8h-4.9v-24.8h-5v-4.3h5v-3.3c0-6.6,3.7-9.5,10-9.5h2.8v4.3H599c-3.9,0-5.1,2.4-5.1,5.4v3.2
		h7.9v4.3L593.8,1334.3L593.8,1334.3z"/>
	<path class="st2" d="M622.4,1330v4.3h-7.3v16c0,2.9,1.3,4.4,5.2,4.4h2.1v4.4h-2.3c-6.3,0-10-2-10-8.1v-16.7h-5v-4.3h5v-8.8h4.9v8.8
		L622.4,1330L622.4,1330z"/>
	<path class="st2" d="M648.9,1339.5l4.8,14.4h1.3l3.3-23.9h4.7l-4.2,29.1h-7.5l-5.1-14.7H645l-5.1,14.7h-7.6l-4.2-29.1h4.7l3.5,23.9
		h1.3l5-14.4H648.9z"/>
	<path class="st2" d="M688.9,1356h-1.3c-1.8,2.2-4.9,3.8-9.1,3.8c-6.7,0-10.4-4.5-10.4-9.5c0-4.7,3.1-9.6,11.1-9.6h9.5v-1.2
		c0-3.5-2-6.1-7.1-6.1c-4.3,0-6.5,1.7-6.8,4.2H670c0.4-5.4,5-8.5,11.5-8.5c7.3,0,12,3.5,12,10v19.8h-4.6V1356z M688.7,1347.3v-2.7
		H680c-4.8,0-7,2.1-7,5.5c0,3.3,2.4,5.4,6.8,5.4C684.6,1355.6,688.7,1351.9,688.7,1347.3z"/>
	<path class="st2" d="M719.1,1334.6h-2.4c-5.8,0-9.3,3.5-9.3,9.9v14.5h-4.9v-29h4.7v3.5h1.3c1.4-1.8,4.2-3.5,8.4-3.5h2.2V1334.6z"/>
	<path class="st2" d="M750.7,1344.5h-22.2c0.2,6.9,3.3,11.1,9.3,11.1c4.1,0,6.5-1.7,7.4-4.5h5c-0.9,5-5.1,8.8-12.3,8.8
		c-9.1,0-14.1-6.6-14.1-15.6s5.2-15,14-15c8.7,0,12.8,6.4,13,13.6v1.6H750.7z M728.9,1340.4h16.8c-0.3-3.7-3.1-6.9-8-6.9
		C732.4,1333.5,729.5,1336.7,728.9,1340.4z"/>
</g>
<g>
	<path class="st2" d="M948.7,1721.4v41.2h-5.2v-18.8h-23v18.8h-5.2v-41.2h5.2v17.5h23v-17.5H948.7z"/>
	<path class="st2" d="M977.2,1759.5h-1.3c-1.8,2.3-4.9,3.8-9.1,3.8c-6.7,0-10.4-4.5-10.4-9.5c0-4.7,3.1-9.6,11.1-9.6h9.5v-1.2
		c0-3.5-2-6.1-7.1-6.1c-4.3,0-6.5,1.7-6.8,4.2h-4.9c0.4-5.4,5-8.5,11.5-8.5c7.3,0,12,3.5,12,10v19.8h-4.6L977.2,1759.5L977.2,1759.5
		z M977,1750.8v-2.7h-8.7c-4.8,0-7,2.1-7,5.5c0,3.3,2.4,5.4,6.8,5.4C972.9,1759,977,1755.4,977,1750.8z"/>
	<path class="st2" d="M1007.4,1738.1h-2.4c-5.8,0-9.3,3.5-9.3,9.9v14.5h-4.9v-29.1h4.7v3.5h1.3c1.4-1.8,4.2-3.5,8.4-3.5h2.2V1738.1z
		"/>
	<path class="st2" d="M1039.8,1720.6v42h-4.7v-3.1h-1.3c-1.6,2-4.4,3.9-9.1,3.9c-8,0-12.8-6.7-12.8-15.3c0-8.8,4.7-15.3,12.8-15.3
		c4.6,0,7.3,1.8,8.9,3.9h1.3v-16L1039.8,1720.6L1039.8,1720.6z M1035,1748c0-5.7-2.7-11-9.1-11c-5.8,0-8.9,4.6-8.9,11
		c0,6.5,3.1,11,8.9,11C1032.3,1759,1035,1753.7,1035,1748z"/>
	<path class="st2" d="M1068.9,1743l4.8,14.4h1.3l3.3-23.9h4.7l-4.2,29.1h-7.5l-5.1-14.7h-1.2l-5.1,14.7h-7.6l-4.2-29.1h4.7l3.5,23.9
		h1.3l5-14.4H1068.9z"/>
	<path class="st2" d="M1108.9,1759.5h-1.3c-1.8,2.3-4.9,3.8-9.1,3.8c-6.7,0-10.4-4.5-10.4-9.5c0-4.7,3.1-9.6,11.1-9.6h9.5v-1.2
		c0-3.5-2-6.1-7.1-6.1c-4.3,0-6.5,1.7-6.8,4.2h-4.9c0.4-5.4,5-8.5,11.5-8.5c7.3,0,12,3.5,12,10v19.8h-4.6v-2.9H1108.9z
		 M1108.7,1750.8v-2.7h-8.7c-4.8,0-7,2.1-7,5.5c0,3.3,2.4,5.4,6.8,5.4C1104.6,1759,1108.7,1755.4,1108.7,1750.8z"/>
	<path class="st2" d="M1139.1,1738.1h-2.4c-5.8,0-9.3,3.5-9.3,9.9v14.5h-4.9v-29.1h4.7v3.5h1.3c1.4-1.8,4.2-3.5,8.4-3.5h2.2
		L1139.1,1738.1L1139.1,1738.1z"/>
	<path class="st2" d="M1170.7,1748h-22.2c0.2,6.9,3.3,11.1,9.3,11.1c4.1,0,6.5-1.7,7.4-4.5h5c-0.9,5-5.1,8.8-12.3,8.8
		c-9.1,0-14.1-6.6-14.1-15.6c0-8.9,5.2-15,14-15c8.7,0,12.8,6.4,13,13.6v1.6H1170.7z M1148.9,1743.9h16.8c-0.3-3.7-3.1-6.9-8-6.9
		C1152.4,1737,1149.5,1740.2,1148.9,1743.9z"/>
</g>
</svg>
