<svg width="335" height="700" viewBox="0 0 335 700" fill="none" xmlns="http://www.w3.org/2000/svg">
    <g opacity="0.17">
        <mask id="path-1-outside-1_36_211" maskUnits="userSpaceOnUse" x="-66.1255" y="-22.1255" width="1132.52" height="761.766" fill="black">
            <rect fill="white" x="-66.1255" y="-22.1255" width="1132.52" height="761.766"/>
            <path d="M822.643 1.4051C820.608 0.568919 817.55 0.984442 815.812 2.33332C814.508 3.34499 814.321 4.59129 815.172 5.49561L717.667 80.7784L728.115 157.665L704.359 176.007L715.722 259.631L634.359 322.459L619.529 316.407L682.27 267.963L676.041 222.123L675.746 222.008L592.298 187.959L590.184 172.405L630.529 141.253C632.523 141.786 635.158 141.335 636.73 140.133C638.468 138.784 638.229 137.024 636.196 136.203C634.161 135.366 631.103 135.782 629.365 137.131C627.795 138.349 627.849 139.887 629.367 140.793L589.021 171.945L591.304 188.743L591.598 188.857L675.047 222.907L681.107 267.503L633.709 304.111L631.113 285.006L652.849 268.221C654.843 268.754 657.478 268.303 659.05 267.101C660.788 265.752 660.549 263.992 658.516 263.171C656.481 262.334 653.423 262.75 651.685 264.099C650.115 265.317 650.169 266.855 651.687 267.761L629.951 284.546L632.716 304.895L618.368 315.962L598.536 307.87L594.016 274.609L625.988 249.911L622.864 226.922L622.57 226.808L543.812 194.671C545.033 193.392 544.675 191.895 542.837 191.141C540.802 190.304 537.744 190.72 536.006 192.069C534.268 193.418 534.507 195.178 536.54 195.999C538.378 196.754 541.035 196.47 542.815 195.424L621.851 227.678L624.806 249.422L593.83 273.351L590.714 250.423L590.42 250.309L542.239 230.645C543.46 229.367 543.102 227.87 541.264 227.115C539.229 226.279 536.171 226.695 534.433 228.044C532.695 229.393 532.934 231.153 534.967 231.974C536.805 232.728 539.462 232.445 541.242 231.399L589.716 251.177L597.352 307.367L583.425 301.686L563.806 316.839L543.021 308.351L539.355 281.372L539.061 281.257L484.106 258.836L480.651 233.405C481.692 233.201 482.677 232.805 483.419 232.225C485.157 230.876 484.918 229.116 482.885 228.295C480.85 227.459 477.792 227.874 476.054 229.223C474.316 230.572 474.555 232.332 476.588 233.153C477.458 233.514 478.51 233.618 479.57 233.551L483.111 259.605L483.405 259.72L538.359 282.141L541.856 307.876L452.42 271.379L445.539 220.743L487.007 188.728L528.297 183.117L528.408 183.025L593.717 132.61C595.711 133.142 598.346 132.692 599.917 131.489C601.656 130.14 601.416 128.38 599.383 127.559C597.348 126.723 594.291 127.138 592.552 128.487C590.983 129.705 591.037 131.243 592.554 132.149L527.864 182.095L488.734 187.412L608.704 94.7812C610.698 95.3139 613.333 94.8631 614.905 93.6604C616.643 92.3115 616.404 90.5513 614.371 89.7303C612.336 88.8942 609.278 89.3097 607.54 90.6586C605.97 91.8764 606.024 93.4145 607.542 94.321L444.378 220.298L451.428 272.178L451.723 272.293L562.828 317.621L543.714 332.381L354.016 254.986L345.801 194.533L345.507 194.418L280.99 168.104C282.211 166.825 281.852 165.329 280.014 164.574C277.979 163.738 274.921 164.153 273.183 165.502C271.445 166.851 271.685 168.611 273.717 169.432C275.555 170.187 278.213 169.903 279.992 168.858L344.79 195.304L353.005 255.757L353.299 255.871L542.703 333.152L524.5 347.201L336.9 270.649L233.141 284.748L163.225 256.216L155.427 198.828C156.093 198.598 156.718 198.297 157.21 197.921C158.948 196.572 158.708 194.812 156.676 193.991C154.641 193.155 151.583 193.57 149.845 194.919C148.106 196.268 148.346 198.028 150.379 198.849C151.526 199.311 152.991 199.375 154.365 199.111L162.23 256.985L162.524 257.099L233.014 285.863L336.772 271.763L495.14 336.385L465.595 340.4L411.543 318.351L372.93 323.598L372.819 323.69L323.456 361.801C321.462 361.268 318.827 361.719 317.255 362.922C315.517 364.271 315.757 366.031 317.79 366.852C319.825 367.688 322.883 367.272 324.621 365.923C326.191 364.706 326.136 363.168 324.619 362.261L373.364 324.621L411.399 319.452L465.45 341.501L497.156 337.193L523.518 347.952L474.941 385.462L458.782 378.864L455.703 356.209L414.659 339.455C415.88 338.177 415.521 336.68 413.683 335.925C411.648 335.089 408.59 335.505 406.852 336.853C405.114 338.202 405.353 339.963 407.386 340.784C409.224 341.538 411.882 341.254 413.661 340.209L454.706 356.963L457.615 378.374L413.832 360.508L394.602 363.121L394.49 363.214L373.372 379.528C371.378 378.996 368.743 379.446 367.171 380.649C365.433 381.998 365.673 383.758 367.705 384.579C369.74 385.415 372.798 385 374.536 383.651C376.106 382.433 376.052 380.895 374.535 379.989L395.05 364.142L413.687 361.61L473.939 386.185L464.585 393.406L499.51 407.654L485.529 418.455L462.587 421.572L444.886 414.35C446.048 413.095 445.662 411.617 443.856 410.873C441.821 410.037 438.763 410.453 437.025 411.802C435.287 413.151 435.526 414.911 437.559 415.732C439.412 416.484 442.115 416.194 443.906 415.117L462.442 422.674L483.802 419.771L448.14 447.304L350.009 407.26L284.513 416.16L284.402 416.252L250.408 442.492C248.414 441.959 245.779 442.41 244.207 443.613C242.469 444.961 242.709 446.722 244.742 447.543C246.777 448.379 249.834 447.963 251.573 446.614C253.142 445.397 253.088 443.859 251.571 442.952L284.947 417.183L349.849 408.363L425.539 439.248L395.491 443.331L363.832 430.417C365.052 429.139 364.694 427.642 362.856 426.887C360.821 426.051 357.763 426.467 356.025 427.816C354.287 429.164 354.526 430.925 356.559 431.746C358.397 432.5 361.055 432.217 362.834 431.171L395.349 444.448L427.556 440.071L447.127 448.06L404.537 480.939L256.872 501.004L133.166 450.526C134.387 449.248 134.029 447.751 132.191 446.996C130.156 446.16 127.098 446.576 125.36 447.924C123.622 449.273 123.861 451.033 125.894 451.854C127.732 452.609 130.389 452.325 132.168 451.28L256.727 502.106L402.81 482.255L385.913 495.307L276.601 510.161L276.49 510.253L226.806 548.624C224.812 548.091 222.177 548.542 220.605 549.745C218.867 551.094 219.106 552.854 221.139 553.675C223.174 554.511 226.232 554.096 227.97 552.747C229.54 551.529 229.486 549.991 227.968 549.084L277.052 511.197L386.363 496.343L386.475 496.251L500.668 408.083L515.498 414.135L395.444 506.839L300.19 519.783L300.079 519.875L194.034 601.758L34.6229 623.42L1.4044 609.868L1.57349 611.112L34.4802 624.536L194.454 602.798L194.565 602.706L261.121 551.317L264.465 575.93L220.6 609.801C218.606 609.268 215.971 609.719 214.399 610.921C212.661 612.27 212.901 614.03 214.933 614.851C216.968 615.688 220.026 615.272 221.765 613.923C223.334 612.705 223.28 611.167 221.763 610.261L265.628 576.39L262.135 550.685L261.892 550.718L300.623 520.806L395.877 507.862L395.989 507.77L516.661 414.596L533.508 421.471L299.372 602.249L313.548 698.475L314.628 698.328L300.537 602.725L534.673 421.946L555.49 430.445L434.721 523.694L436.554 537.184L415.141 553.724L419.357 584.755L377.835 616.824C375.841 616.291 373.206 616.742 371.634 617.945C371.003 618.432 370.628 618.978 370.516 619.519L379.933 618.239C379.744 617.878 379.438 617.564 379 617.3L420.522 585.23L416.305 554.2L436.723 538.428L443.473 588.108L457.565 593.858L435.857 610.624L438.017 610.331L458.73 594.334L570.238 636.126L572.398 635.832L444.454 587.341L435.87 524.172L556.64 430.922L575.587 438.656L490.115 504.654C488.121 504.121 485.486 504.572 483.914 505.774C482.176 507.123 482.415 508.883 484.448 509.704C486.483 510.541 489.541 510.125 491.279 508.776C492.849 507.558 492.795 506.02 491.277 505.114L576.75 439.116L595.041 446.583L492.796 525.523L462.657 529.619C462.404 529.128 461.895 528.687 461.14 528.372C459.105 527.536 456.047 527.952 454.308 529.301C452.57 530.649 452.81 532.41 454.843 533.231C456.878 534.067 459.936 533.651 461.674 532.302C462.318 531.798 462.691 531.237 462.803 530.696L493.231 526.561L493.342 526.469L596.191 447.06L603.573 450.075L608.425 446.325L637.084 458.024L639.979 479.328L619.743 494.952L619.734 494.891L585.275 499.573L585.164 499.666L550.316 526.578C548.322 526.045 545.688 526.496 544.116 527.699C542.377 529.048 542.617 530.808 544.65 531.629C546.685 532.465 549.743 532.049 551.481 530.7C553.051 529.483 552.996 527.945 551.479 527.038L585.71 500.612L618.101 496.21L558.598 542.143C556.581 541.552 553.866 541.982 552.252 543.222C550.514 544.571 550.753 546.331 552.786 547.152C554.821 547.988 557.879 547.572 559.617 546.224C561.146 545.042 561.144 543.543 559.732 542.622L633.945 485.325L635.337 495.568L591.192 529.662L593.838 549.131L557.896 576.887C555.902 576.354 553.267 576.805 551.695 578.008C549.957 579.356 550.197 581.117 552.23 581.938C554.265 582.774 557.322 582.358 559.06 581.009C560.63 579.792 560.576 578.253 559.059 577.347L595 549.591L592.355 530.123L636.499 496.028L634.939 484.541L641.122 479.76L638.058 457.212L609.401 445.528L625.499 433.094L684.457 457.15L689.321 492.946L655.089 519.372C653.072 518.781 650.357 519.212 648.743 520.451C647.005 521.8 647.244 523.56 649.277 524.381C651.312 525.217 654.37 524.802 656.108 523.453C657.637 522.272 657.634 520.773 656.223 519.852L689.472 494.177L693.402 523.099L667.138 543.389L671.909 578.502L672.989 578.355L668.303 543.865L693.574 524.358L700.405 574.63L701.485 574.483L685.437 456.383L626.48 432.327L644.556 418.373L721.623 449.813L723.749 465.457L724.745 464.689L722.619 449.044L645.552 417.604L658.943 407.254L762.946 449.684L774.309 533.308L774.153 532.162L775.305 532.539L763.941 448.915L659.939 406.485L681.647 389.719L854.695 460.321L860.349 501.928L967.676 545.19L967.507 543.946L861.344 501.159L855.69 459.552L758.362 419.831L829.746 410.131L908.241 442.165L908.072 440.92L829.888 409.014L756.329 419.01L682.642 388.95L707.885 369.463L771.222 395.304L865.548 382.487L902.161 397.416L901.992 396.172L893.971 392.904L897.981 394.538L894.489 393.115L891.953 392.081L865.705 381.368L771.38 394.185L753.647 386.952L793.75 381.502L793.862 381.41L812.401 367.099L896.214 355.71L896.509 355.824L896.34 354.58L814.124 365.752L834.991 349.641C836.985 350.174 839.62 349.723 841.192 348.521C842.93 347.172 842.691 345.411 840.658 344.59C838.623 343.754 835.565 344.17 833.827 345.519C832.257 346.737 832.311 348.275 833.829 349.181L793.302 380.481L751.616 386.146L708.867 368.712L722.372 358.284L712.201 354.133L739.601 350.41L778.217 366.165C776.996 367.444 777.354 368.94 779.192 369.695C781.227 370.531 784.285 370.116 786.023 368.767C787.761 367.418 787.522 365.658 785.489 364.837C783.651 364.082 780.994 364.366 779.215 365.411L739.746 349.309L710.185 353.325L688.564 344.503L699.923 335.727L721.785 332.756L739.51 319.066L753.857 317.116L788.799 331.377C787.486 332.668 787.821 334.214 789.691 334.98C791.726 335.816 794.784 335.401 796.522 334.052C798.26 332.703 798.021 330.943 795.988 330.122C794.185 329.393 791.599 329.636 789.811 330.621L754.002 316.015L739.077 318.043L721.352 331.733L701.65 334.41L737.984 306.353L759.268 303.461L807.102 322.971L982.182 299.18L982.035 298.103L807.245 321.854L759.411 302.345L737.549 305.315L737.437 305.408L687.402 344.043L672.048 337.784L728.59 294.123L771.858 288.243L810.342 303.939L861.262 297.02L861.116 295.942L810.5 302.82L774.034 287.948L908.868 268.529L908.721 267.451L728.17 293.083L728.059 293.175L670.914 337.304L653.46 330.187L732.3 269.309L815.058 258.064L814.912 256.986L772.759 262.714L997.705 99.1146L997.536 97.8703L770.599 263.008L732.944 268.125L807.69 210.415L806.292 200.127L842.067 172.517C844.061 173.05 846.696 172.599 848.268 171.397C850.006 170.048 849.767 168.287 847.734 167.466C845.699 166.63 842.641 167.046 840.903 168.395C839.333 169.613 839.387 171.151 840.904 172.057L821.426 187.098L817.593 158.89L864.81 122.431L864.64 121.186L816.428 158.414L820.43 187.867L805.131 199.682L806.529 209.97L731.168 268.165L731.506 268.598L652.302 329.757L635.454 322.882L716.818 260.054L705.454 176.43L753.357 139.471L753.188 138.226L729.041 156.844L718.762 81.2013L816.097 6.14265C816.179 6.17784 816.248 6.23028 816.33 6.26547C818.365 7.10164 821.423 6.6861 823.162 5.33722C824.9 3.98834 824.66 2.22815 822.627 1.40715L822.643 1.4051ZM720.306 358.704L603.436 448.95L535.087 421.063L466.739 393.175L583.609 302.929L720.306 358.704Z"/>
        </mask>
        <path d="M822.643 1.4051C820.608 0.568919 817.55 0.984442 815.812 2.33332C814.508 3.34499 814.321 4.59129 815.172 5.49561L717.667 80.7784L728.115 157.665L704.359 176.007L715.722 259.631L634.359 322.459L619.529 316.407L682.27 267.963L676.041 222.123L675.746 222.008L592.298 187.959L590.184 172.405L630.529 141.253C632.523 141.786 635.158 141.335 636.73 140.133C638.468 138.784 638.229 137.024 636.196 136.203C634.161 135.366 631.103 135.782 629.365 137.131C627.795 138.349 627.849 139.887 629.367 140.793L589.021 171.945L591.304 188.743L591.598 188.857L675.047 222.907L681.107 267.503L633.709 304.111L631.113 285.006L652.849 268.221C654.843 268.754 657.478 268.303 659.05 267.101C660.788 265.752 660.549 263.992 658.516 263.171C656.481 262.334 653.423 262.75 651.685 264.099C650.115 265.317 650.169 266.855 651.687 267.761L629.951 284.546L632.716 304.895L618.368 315.962L598.536 307.87L594.016 274.609L625.988 249.911L622.864 226.922L622.57 226.808L543.812 194.671C545.033 193.392 544.675 191.895 542.837 191.141C540.802 190.304 537.744 190.72 536.006 192.069C534.268 193.418 534.507 195.178 536.54 195.999C538.378 196.754 541.035 196.47 542.815 195.424L621.851 227.678L624.806 249.422L593.83 273.351L590.714 250.423L590.42 250.309L542.239 230.645C543.46 229.367 543.102 227.87 541.264 227.115C539.229 226.279 536.171 226.695 534.433 228.044C532.695 229.393 532.934 231.153 534.967 231.974C536.805 232.728 539.462 232.445 541.242 231.399L589.716 251.177L597.352 307.367L583.425 301.686L563.806 316.839L543.021 308.351L539.355 281.372L539.061 281.257L484.106 258.836L480.651 233.405C481.692 233.201 482.677 232.805 483.419 232.225C485.157 230.876 484.918 229.116 482.885 228.295C480.85 227.459 477.792 227.874 476.054 229.223C474.316 230.572 474.555 232.332 476.588 233.153C477.458 233.514 478.51 233.618 479.57 233.551L483.111 259.605L483.405 259.72L538.359 282.141L541.856 307.876L452.42 271.379L445.539 220.743L487.007 188.728L528.297 183.117L528.408 183.025L593.717 132.61C595.711 133.142 598.346 132.692 599.917 131.489C601.656 130.14 601.416 128.38 599.383 127.559C597.348 126.723 594.291 127.138 592.552 128.487C590.983 129.705 591.037 131.243 592.554 132.149L527.864 182.095L488.734 187.412L608.704 94.7812C610.698 95.3139 613.333 94.8631 614.905 93.6604C616.643 92.3115 616.404 90.5513 614.371 89.7303C612.336 88.8942 609.278 89.3097 607.54 90.6586C605.97 91.8764 606.024 93.4145 607.542 94.321L444.378 220.298L451.428 272.178L451.723 272.293L562.828 317.621L543.714 332.381L354.016 254.986L345.801 194.533L345.507 194.418L280.99 168.104C282.211 166.825 281.852 165.329 280.014 164.574C277.979 163.738 274.921 164.153 273.183 165.502C271.445 166.851 271.685 168.611 273.717 169.432C275.555 170.187 278.213 169.903 279.992 168.858L344.79 195.304L353.005 255.757L353.299 255.871L542.703 333.152L524.5 347.201L336.9 270.649L233.141 284.748L163.225 256.216L155.427 198.828C156.093 198.598 156.718 198.297 157.21 197.921C158.948 196.572 158.708 194.812 156.676 193.991C154.641 193.155 151.583 193.57 149.845 194.919C148.106 196.268 148.346 198.028 150.379 198.849C151.526 199.311 152.991 199.375 154.365 199.111L162.23 256.985L162.524 257.099L233.014 285.863L336.772 271.763L495.14 336.385L465.595 340.4L411.543 318.351L372.93 323.598L372.819 323.69L323.456 361.801C321.462 361.268 318.827 361.719 317.255 362.922C315.517 364.271 315.757 366.031 317.79 366.852C319.825 367.688 322.883 367.272 324.621 365.923C326.191 364.706 326.136 363.168 324.619 362.261L373.364 324.621L411.399 319.452L465.45 341.501L497.156 337.193L523.518 347.952L474.941 385.462L458.782 378.864L455.703 356.209L414.659 339.455C415.88 338.177 415.521 336.68 413.683 335.925C411.648 335.089 408.59 335.505 406.852 336.853C405.114 338.202 405.353 339.963 407.386 340.784C409.224 341.538 411.882 341.254 413.661 340.209L454.706 356.963L457.615 378.374L413.832 360.508L394.602 363.121L394.49 363.214L373.372 379.528C371.378 378.996 368.743 379.446 367.171 380.649C365.433 381.998 365.673 383.758 367.705 384.579C369.74 385.415 372.798 385 374.536 383.651C376.106 382.433 376.052 380.895 374.535 379.989L395.05 364.142L413.687 361.61L473.939 386.185L464.585 393.406L499.51 407.654L485.529 418.455L462.587 421.572L444.886 414.35C446.048 413.095 445.662 411.617 443.856 410.873C441.821 410.037 438.763 410.453 437.025 411.802C435.287 413.151 435.526 414.911 437.559 415.732C439.412 416.484 442.115 416.194 443.906 415.117L462.442 422.674L483.802 419.771L448.14 447.304L350.009 407.26L284.513 416.16L284.402 416.252L250.408 442.492C248.414 441.959 245.779 442.41 244.207 443.613C242.469 444.961 242.709 446.722 244.742 447.543C246.777 448.379 249.834 447.963 251.573 446.614C253.142 445.397 253.088 443.859 251.571 442.952L284.947 417.183L349.849 408.363L425.539 439.248L395.491 443.331L363.832 430.417C365.052 429.139 364.694 427.642 362.856 426.887C360.821 426.051 357.763 426.467 356.025 427.816C354.287 429.164 354.526 430.925 356.559 431.746C358.397 432.5 361.055 432.217 362.834 431.171L395.349 444.448L427.556 440.071L447.127 448.06L404.537 480.939L256.872 501.004L133.166 450.526C134.387 449.248 134.029 447.751 132.191 446.996C130.156 446.16 127.098 446.576 125.36 447.924C123.622 449.273 123.861 451.033 125.894 451.854C127.732 452.609 130.389 452.325 132.168 451.28L256.727 502.106L402.81 482.255L385.913 495.307L276.601 510.161L276.49 510.253L226.806 548.624C224.812 548.091 222.177 548.542 220.605 549.745C218.867 551.094 219.106 552.854 221.139 553.675C223.174 554.511 226.232 554.096 227.97 552.747C229.54 551.529 229.486 549.991 227.968 549.084L277.052 511.197L386.363 496.343L386.475 496.251L500.668 408.083L515.498 414.135L395.444 506.839L300.19 519.783L300.079 519.875L194.034 601.758L34.6229 623.42L1.4044 609.868L1.57349 611.112L34.4802 624.536L194.454 602.798L194.565 602.706L261.121 551.317L264.465 575.93L220.6 609.801C218.606 609.268 215.971 609.719 214.399 610.921C212.661 612.27 212.901 614.03 214.933 614.851C216.968 615.688 220.026 615.272 221.765 613.923C223.334 612.705 223.28 611.167 221.763 610.261L265.628 576.39L262.135 550.685L261.892 550.718L300.623 520.806L395.877 507.862L395.989 507.77L516.661 414.596L533.508 421.471L299.372 602.249L313.548 698.475L314.628 698.328L300.537 602.725L534.673 421.946L555.49 430.445L434.721 523.694L436.554 537.184L415.141 553.724L419.357 584.755L377.835 616.824C375.841 616.291 373.206 616.742 371.634 617.945C371.003 618.432 370.628 618.978 370.516 619.519L379.933 618.239C379.744 617.878 379.438 617.564 379 617.3L420.522 585.23L416.305 554.2L436.723 538.428L443.473 588.108L457.565 593.858L435.857 610.624L438.017 610.331L458.73 594.334L570.238 636.126L572.398 635.832L444.454 587.341L435.87 524.172L556.64 430.922L575.587 438.656L490.115 504.654C488.121 504.121 485.486 504.572 483.914 505.774C482.176 507.123 482.415 508.883 484.448 509.704C486.483 510.541 489.541 510.125 491.279 508.776C492.849 507.558 492.795 506.02 491.277 505.114L576.75 439.116L595.041 446.583L492.796 525.523L462.657 529.619C462.404 529.128 461.895 528.687 461.14 528.372C459.105 527.536 456.047 527.952 454.308 529.301C452.57 530.649 452.81 532.41 454.843 533.231C456.878 534.067 459.936 533.651 461.674 532.302C462.318 531.798 462.691 531.237 462.803 530.696L493.231 526.561L493.342 526.469L596.191 447.06L603.573 450.075L608.425 446.325L637.084 458.024L639.979 479.328L619.743 494.952L619.734 494.891L585.275 499.573L585.164 499.666L550.316 526.578C548.322 526.045 545.688 526.496 544.116 527.699C542.377 529.048 542.617 530.808 544.65 531.629C546.685 532.465 549.743 532.049 551.481 530.7C553.051 529.483 552.996 527.945 551.479 527.038L585.71 500.612L618.101 496.21L558.598 542.143C556.581 541.552 553.866 541.982 552.252 543.222C550.514 544.571 550.753 546.331 552.786 547.152C554.821 547.988 557.879 547.572 559.617 546.224C561.146 545.042 561.144 543.543 559.732 542.622L633.945 485.325L635.337 495.568L591.192 529.662L593.838 549.131L557.896 576.887C555.902 576.354 553.267 576.805 551.695 578.008C549.957 579.356 550.197 581.117 552.23 581.938C554.265 582.774 557.322 582.358 559.06 581.009C560.63 579.792 560.576 578.253 559.059 577.347L595 549.591L592.355 530.123L636.499 496.028L634.939 484.541L641.122 479.76L638.058 457.212L609.401 445.528L625.499 433.094L684.457 457.15L689.321 492.946L655.089 519.372C653.072 518.781 650.357 519.212 648.743 520.451C647.005 521.8 647.244 523.56 649.277 524.381C651.312 525.217 654.37 524.802 656.108 523.453C657.637 522.272 657.634 520.773 656.223 519.852L689.472 494.177L693.402 523.099L667.138 543.389L671.909 578.502L672.989 578.355L668.303 543.865L693.574 524.358L700.405 574.63L701.485 574.483L685.437 456.383L626.48 432.327L644.556 418.373L721.623 449.813L723.749 465.457L724.745 464.689L722.619 449.044L645.552 417.604L658.943 407.254L762.946 449.684L774.309 533.308L774.153 532.162L775.305 532.539L763.941 448.915L659.939 406.485L681.647 389.719L854.695 460.321L860.349 501.928L967.676 545.19L967.507 543.946L861.344 501.159L855.69 459.552L758.362 419.831L829.746 410.131L908.241 442.165L908.072 440.92L829.888 409.014L756.329 419.01L682.642 388.95L707.885 369.463L771.222 395.304L865.548 382.487L902.161 397.416L901.992 396.172L893.971 392.904L897.981 394.538L894.489 393.115L891.953 392.081L865.705 381.368L771.38 394.185L753.647 386.952L793.75 381.502L793.862 381.41L812.401 367.099L896.214 355.71L896.509 355.824L896.34 354.58L814.124 365.752L834.991 349.641C836.985 350.174 839.62 349.723 841.192 348.521C842.93 347.172 842.691 345.411 840.658 344.59C838.623 343.754 835.565 344.17 833.827 345.519C832.257 346.737 832.311 348.275 833.829 349.181L793.302 380.481L751.616 386.146L708.867 368.712L722.372 358.284L712.201 354.133L739.601 350.41L778.217 366.165C776.996 367.444 777.354 368.94 779.192 369.695C781.227 370.531 784.285 370.116 786.023 368.767C787.761 367.418 787.522 365.658 785.489 364.837C783.651 364.082 780.994 364.366 779.215 365.411L739.746 349.309L710.185 353.325L688.564 344.503L699.923 335.727L721.785 332.756L739.51 319.066L753.857 317.116L788.799 331.377C787.486 332.668 787.821 334.214 789.691 334.98C791.726 335.816 794.784 335.401 796.522 334.052C798.26 332.703 798.021 330.943 795.988 330.122C794.185 329.393 791.599 329.636 789.811 330.621L754.002 316.015L739.077 318.043L721.352 331.733L701.65 334.41L737.984 306.353L759.268 303.461L807.102 322.971L982.182 299.18L982.035 298.103L807.245 321.854L759.411 302.345L737.549 305.315L737.437 305.408L687.402 344.043L672.048 337.784L728.59 294.123L771.858 288.243L810.342 303.939L861.262 297.02L861.116 295.942L810.5 302.82L774.034 287.948L908.868 268.529L908.721 267.451L728.17 293.083L728.059 293.175L670.914 337.304L653.46 330.187L732.3 269.309L815.058 258.064L814.912 256.986L772.759 262.714L997.705 99.1146L997.536 97.8703L770.599 263.008L732.944 268.125L807.69 210.415L806.292 200.127L842.067 172.517C844.061 173.05 846.696 172.599 848.268 171.397C850.006 170.048 849.767 168.287 847.734 167.466C845.699 166.63 842.641 167.046 840.903 168.395C839.333 169.613 839.387 171.151 840.904 172.057L821.426 187.098L817.593 158.89L864.81 122.431L864.64 121.186L816.428 158.414L820.43 187.867L805.131 199.682L806.529 209.97L731.168 268.165L731.506 268.598L652.302 329.757L635.454 322.882L716.818 260.054L705.454 176.43L753.357 139.471L753.188 138.226L729.041 156.844L718.762 81.2013L816.097 6.14265C816.179 6.17784 816.248 6.23028 816.33 6.26547C818.365 7.10164 821.423 6.6861 823.162 5.33722C824.9 3.98834 824.66 2.22815 822.627 1.40715L822.643 1.4051ZM720.306 358.704L603.436 448.95L535.087 421.063L466.739 393.175L583.609 302.929L720.306 358.704Z" fill="#04AA6D"/>
        <path d="M822.643 1.4051C820.608 0.568919 817.55 0.984442 815.812 2.33332C814.508 3.34499 814.321 4.59129 815.172 5.49561L717.667 80.7784L728.115 157.665L704.359 176.007L715.722 259.631L634.359 322.459L619.529 316.407L682.27 267.963L676.041 222.123L675.746 222.008L592.298 187.959L590.184 172.405L630.529 141.253C632.523 141.786 635.158 141.335 636.73 140.133C638.468 138.784 638.229 137.024 636.196 136.203C634.161 135.366 631.103 135.782 629.365 137.131C627.795 138.349 627.849 139.887 629.367 140.793L589.021 171.945L591.304 188.743L591.598 188.857L675.047 222.907L681.107 267.503L633.709 304.111L631.113 285.006L652.849 268.221C654.843 268.754 657.478 268.303 659.05 267.101C660.788 265.752 660.549 263.992 658.516 263.171C656.481 262.334 653.423 262.75 651.685 264.099C650.115 265.317 650.169 266.855 651.687 267.761L629.951 284.546L632.716 304.895L618.368 315.962L598.536 307.87L594.016 274.609L625.988 249.911L622.864 226.922L622.57 226.808L543.812 194.671C545.033 193.392 544.675 191.895 542.837 191.141C540.802 190.304 537.744 190.72 536.006 192.069C534.268 193.418 534.507 195.178 536.54 195.999C538.378 196.754 541.035 196.47 542.815 195.424L621.851 227.678L624.806 249.422L593.83 273.351L590.714 250.423L590.42 250.309L542.239 230.645C543.46 229.367 543.102 227.87 541.264 227.115C539.229 226.279 536.171 226.695 534.433 228.044C532.695 229.393 532.934 231.153 534.967 231.974C536.805 232.728 539.462 232.445 541.242 231.399L589.716 251.177L597.352 307.367L583.425 301.686L563.806 316.839L543.021 308.351L539.355 281.372L539.061 281.257L484.106 258.836L480.651 233.405C481.692 233.201 482.677 232.805 483.419 232.225C485.157 230.876 484.918 229.116 482.885 228.295C480.85 227.459 477.792 227.874 476.054 229.223C474.316 230.572 474.555 232.332 476.588 233.153C477.458 233.514 478.51 233.618 479.57 233.551L483.111 259.605L483.405 259.72L538.359 282.141L541.856 307.876L452.42 271.379L445.539 220.743L487.007 188.728L528.297 183.117L528.408 183.025L593.717 132.61C595.711 133.142 598.346 132.692 599.917 131.489C601.656 130.14 601.416 128.38 599.383 127.559C597.348 126.723 594.291 127.138 592.552 128.487C590.983 129.705 591.037 131.243 592.554 132.149L527.864 182.095L488.734 187.412L608.704 94.7812C610.698 95.3139 613.333 94.8631 614.905 93.6604C616.643 92.3115 616.404 90.5513 614.371 89.7303C612.336 88.8942 609.278 89.3097 607.54 90.6586C605.97 91.8764 606.024 93.4145 607.542 94.321L444.378 220.298L451.428 272.178L451.723 272.293L562.828 317.621L543.714 332.381L354.016 254.986L345.801 194.533L345.507 194.418L280.99 168.104C282.211 166.825 281.852 165.329 280.014 164.574C277.979 163.738 274.921 164.153 273.183 165.502C271.445 166.851 271.685 168.611 273.717 169.432C275.555 170.187 278.213 169.903 279.992 168.858L344.79 195.304L353.005 255.757L353.299 255.871L542.703 333.152L524.5 347.201L336.9 270.649L233.141 284.748L163.225 256.216L155.427 198.828C156.093 198.598 156.718 198.297 157.21 197.921C158.948 196.572 158.708 194.812 156.676 193.991C154.641 193.155 151.583 193.57 149.845 194.919C148.106 196.268 148.346 198.028 150.379 198.849C151.526 199.311 152.991 199.375 154.365 199.111L162.23 256.985L162.524 257.099L233.014 285.863L336.772 271.763L495.14 336.385L465.595 340.4L411.543 318.351L372.93 323.598L372.819 323.69L323.456 361.801C321.462 361.268 318.827 361.719 317.255 362.922C315.517 364.271 315.757 366.031 317.79 366.852C319.825 367.688 322.883 367.272 324.621 365.923C326.191 364.706 326.136 363.168 324.619 362.261L373.364 324.621L411.399 319.452L465.45 341.501L497.156 337.193L523.518 347.952L474.941 385.462L458.782 378.864L455.703 356.209L414.659 339.455C415.88 338.177 415.521 336.68 413.683 335.925C411.648 335.089 408.59 335.505 406.852 336.853C405.114 338.202 405.353 339.963 407.386 340.784C409.224 341.538 411.882 341.254 413.661 340.209L454.706 356.963L457.615 378.374L413.832 360.508L394.602 363.121L394.49 363.214L373.372 379.528C371.378 378.996 368.743 379.446 367.171 380.649C365.433 381.998 365.673 383.758 367.705 384.579C369.74 385.415 372.798 385 374.536 383.651C376.106 382.433 376.052 380.895 374.535 379.989L395.05 364.142L413.687 361.61L473.939 386.185L464.585 393.406L499.51 407.654L485.529 418.455L462.587 421.572L444.886 414.35C446.048 413.095 445.662 411.617 443.856 410.873C441.821 410.037 438.763 410.453 437.025 411.802C435.287 413.151 435.526 414.911 437.559 415.732C439.412 416.484 442.115 416.194 443.906 415.117L462.442 422.674L483.802 419.771L448.14 447.304L350.009 407.26L284.513 416.16L284.402 416.252L250.408 442.492C248.414 441.959 245.779 442.41 244.207 443.613C242.469 444.961 242.709 446.722 244.742 447.543C246.777 448.379 249.834 447.963 251.573 446.614C253.142 445.397 253.088 443.859 251.571 442.952L284.947 417.183L349.849 408.363L425.539 439.248L395.491 443.331L363.832 430.417C365.052 429.139 364.694 427.642 362.856 426.887C360.821 426.051 357.763 426.467 356.025 427.816C354.287 429.164 354.526 430.925 356.559 431.746C358.397 432.5 361.055 432.217 362.834 431.171L395.349 444.448L427.556 440.071L447.127 448.06L404.537 480.939L256.872 501.004L133.166 450.526C134.387 449.248 134.029 447.751 132.191 446.996C130.156 446.16 127.098 446.576 125.36 447.924C123.622 449.273 123.861 451.033 125.894 451.854C127.732 452.609 130.389 452.325 132.168 451.28L256.727 502.106L402.81 482.255L385.913 495.307L276.601 510.161L276.49 510.253L226.806 548.624C224.812 548.091 222.177 548.542 220.605 549.745C218.867 551.094 219.106 552.854 221.139 553.675C223.174 554.511 226.232 554.096 227.97 552.747C229.54 551.529 229.486 549.991 227.968 549.084L277.052 511.197L386.363 496.343L386.475 496.251L500.668 408.083L515.498 414.135L395.444 506.839L300.19 519.783L300.079 519.875L194.034 601.758L34.6229 623.42L1.4044 609.868L1.57349 611.112L34.4802 624.536L194.454 602.798L194.565 602.706L261.121 551.317L264.465 575.93L220.6 609.801C218.606 609.268 215.971 609.719 214.399 610.921C212.661 612.27 212.901 614.03 214.933 614.851C216.968 615.688 220.026 615.272 221.765 613.923C223.334 612.705 223.28 611.167 221.763 610.261L265.628 576.39L262.135 550.685L261.892 550.718L300.623 520.806L395.877 507.862L395.989 507.77L516.661 414.596L533.508 421.471L299.372 602.249L313.548 698.475L314.628 698.328L300.537 602.725L534.673 421.946L555.49 430.445L434.721 523.694L436.554 537.184L415.141 553.724L419.357 584.755L377.835 616.824C375.841 616.291 373.206 616.742 371.634 617.945C371.003 618.432 370.628 618.978 370.516 619.519L379.933 618.239C379.744 617.878 379.438 617.564 379 617.3L420.522 585.23L416.305 554.2L436.723 538.428L443.473 588.108L457.565 593.858L435.857 610.624L438.017 610.331L458.73 594.334L570.238 636.126L572.398 635.832L444.454 587.341L435.87 524.172L556.64 430.922L575.587 438.656L490.115 504.654C488.121 504.121 485.486 504.572 483.914 505.774C482.176 507.123 482.415 508.883 484.448 509.704C486.483 510.541 489.541 510.125 491.279 508.776C492.849 507.558 492.795 506.02 491.277 505.114L576.75 439.116L595.041 446.583L492.796 525.523L462.657 529.619C462.404 529.128 461.895 528.687 461.14 528.372C459.105 527.536 456.047 527.952 454.308 529.301C452.57 530.649 452.81 532.41 454.843 533.231C456.878 534.067 459.936 533.651 461.674 532.302C462.318 531.798 462.691 531.237 462.803 530.696L493.231 526.561L493.342 526.469L596.191 447.06L603.573 450.075L608.425 446.325L637.084 458.024L639.979 479.328L619.743 494.952L619.734 494.891L585.275 499.573L585.164 499.666L550.316 526.578C548.322 526.045 545.688 526.496 544.116 527.699C542.377 529.048 542.617 530.808 544.65 531.629C546.685 532.465 549.743 532.049 551.481 530.7C553.051 529.483 552.996 527.945 551.479 527.038L585.71 500.612L618.101 496.21L558.598 542.143C556.581 541.552 553.866 541.982 552.252 543.222C550.514 544.571 550.753 546.331 552.786 547.152C554.821 547.988 557.879 547.572 559.617 546.224C561.146 545.042 561.144 543.543 559.732 542.622L633.945 485.325L635.337 495.568L591.192 529.662L593.838 549.131L557.896 576.887C555.902 576.354 553.267 576.805 551.695 578.008C549.957 579.356 550.197 581.117 552.23 581.938C554.265 582.774 557.322 582.358 559.06 581.009C560.63 579.792 560.576 578.253 559.059 577.347L595 549.591L592.355 530.123L636.499 496.028L634.939 484.541L641.122 479.76L638.058 457.212L609.401 445.528L625.499 433.094L684.457 457.15L689.321 492.946L655.089 519.372C653.072 518.781 650.357 519.212 648.743 520.451C647.005 521.8 647.244 523.56 649.277 524.381C651.312 525.217 654.37 524.802 656.108 523.453C657.637 522.272 657.634 520.773 656.223 519.852L689.472 494.177L693.402 523.099L667.138 543.389L671.909 578.502L672.989 578.355L668.303 543.865L693.574 524.358L700.405 574.63L701.485 574.483L685.437 456.383L626.48 432.327L644.556 418.373L721.623 449.813L723.749 465.457L724.745 464.689L722.619 449.044L645.552 417.604L658.943 407.254L762.946 449.684L774.309 533.308L774.153 532.162L775.305 532.539L763.941 448.915L659.939 406.485L681.647 389.719L854.695 460.321L860.349 501.928L967.676 545.19L967.507 543.946L861.344 501.159L855.69 459.552L758.362 419.831L829.746 410.131L908.241 442.165L908.072 440.92L829.888 409.014L756.329 419.01L682.642 388.95L707.885 369.463L771.222 395.304L865.548 382.487L902.161 397.416L901.992 396.172L893.971 392.904L897.981 394.538L894.489 393.115L891.953 392.081L865.705 381.368L771.38 394.185L753.647 386.952L793.75 381.502L793.862 381.41L812.401 367.099L896.214 355.71L896.509 355.824L896.34 354.58L814.124 365.752L834.991 349.641C836.985 350.174 839.62 349.723 841.192 348.521C842.93 347.172 842.691 345.411 840.658 344.59C838.623 343.754 835.565 344.17 833.827 345.519C832.257 346.737 832.311 348.275 833.829 349.181L793.302 380.481L751.616 386.146L708.867 368.712L722.372 358.284L712.201 354.133L739.601 350.41L778.217 366.165C776.996 367.444 777.354 368.94 779.192 369.695C781.227 370.531 784.285 370.116 786.023 368.767C787.761 367.418 787.522 365.658 785.489 364.837C783.651 364.082 780.994 364.366 779.215 365.411L739.746 349.309L710.185 353.325L688.564 344.503L699.923 335.727L721.785 332.756L739.51 319.066L753.857 317.116L788.799 331.377C787.486 332.668 787.821 334.214 789.691 334.98C791.726 335.816 794.784 335.401 796.522 334.052C798.26 332.703 798.021 330.943 795.988 330.122C794.185 329.393 791.599 329.636 789.811 330.621L754.002 316.015L739.077 318.043L721.352 331.733L701.65 334.41L737.984 306.353L759.268 303.461L807.102 322.971L982.182 299.18L982.035 298.103L807.245 321.854L759.411 302.345L737.549 305.315L737.437 305.408L687.402 344.043L672.048 337.784L728.59 294.123L771.858 288.243L810.342 303.939L861.262 297.02L861.116 295.942L810.5 302.82L774.034 287.948L908.868 268.529L908.721 267.451L728.17 293.083L728.059 293.175L670.914 337.304L653.46 330.187L732.3 269.309L815.058 258.064L814.912 256.986L772.759 262.714L997.705 99.1146L997.536 97.8703L770.599 263.008L732.944 268.125L807.69 210.415L806.292 200.127L842.067 172.517C844.061 173.05 846.696 172.599 848.268 171.397C850.006 170.048 849.767 168.287 847.734 167.466C845.699 166.63 842.641 167.046 840.903 168.395C839.333 169.613 839.387 171.151 840.904 172.057L821.426 187.098L817.593 158.89L864.81 122.431L864.64 121.186L816.428 158.414L820.43 187.867L805.131 199.682L806.529 209.97L731.168 268.165L731.506 268.598L652.302 329.757L635.454 322.882L716.818 260.054L705.454 176.43L753.357 139.471L753.188 138.226L729.041 156.844L718.762 81.2013L816.097 6.14265C816.179 6.17784 816.248 6.23028 816.33 6.26547C818.365 7.10164 821.423 6.6861 823.162 5.33722C824.9 3.98834 824.66 2.22815 822.627 1.40715L822.643 1.4051ZM720.306 358.704L603.436 448.95L535.087 421.063L466.739 393.175L583.609 302.929L720.306 358.704Z" stroke="#04AA6D" mask="url(#path-1-outside-1_36_211)"/>
    </g>
</svg>