<svg width="278" height="625" viewBox="0 0 278 625" fill="none" xmlns="http://www.w3.org/2000/svg">
    <g opacity="0.17">
        <mask id="path-1-outside-1_36_210" maskUnits="userSpaceOnUse" x="-780" y="-8.74228e-08" width="1058" height="625" fill="black">
            <rect fill="white" x="-780" y="-8.74228e-08" width="1058" height="625"/>
            <path d="M116.688 1.82701C114.784 0.724436 111.698 0.724435 109.794 1.82701C108.366 2.65393 108.013 3.8637 108.735 4.87439L1.98052 66.3427L1.98052 143.936L-24.0286 158.913L-24.0286 243.305L-113.111 294.605L-126.991 286.612L-58.2982 247.057L-58.2982 200.795L-58.5745 200.642L-136.679 155.666L-136.679 139.97L-92.5061 114.534C-90.6022 115.33 -87.9307 115.239 -86.2111 114.259C-84.3073 113.156 -84.3073 111.38 -86.2111 110.292C-88.115 109.19 -91.2009 109.19 -93.1048 110.292C-94.8244 111.288 -94.978 112.819 -93.5961 113.922L-137.769 139.357L-137.769 156.309L-137.492 156.462L-59.3881 201.438L-59.3881 246.444L-111.284 276.336L-111.284 257.057L-87.4854 243.351C-85.5816 244.147 -82.9101 244.056 -81.1905 243.076C-79.2866 241.973 -79.2866 240.197 -81.1905 239.109C-83.0944 238.007 -86.1804 238.007 -88.0842 239.109C-89.8039 240.105 -89.9574 241.636 -88.5756 242.739L-112.374 256.444L-112.374 276.98L-128.081 286.014L-146.643 275.326L-146.643 241.759L-111.637 221.591L-111.637 198.391L-111.913 198.238L-185.626 155.789C-184.244 154.686 -184.398 153.155 -186.118 152.159C-188.021 151.057 -191.107 151.057 -193.011 152.159C-194.915 153.262 -194.915 155.038 -193.011 156.126C-191.292 157.121 -188.62 157.198 -186.716 156.401L-112.742 199.003L-112.742 220.948L-146.659 240.488L-146.659 217.349L-146.935 217.196L-192.029 191.224C-190.647 190.121 -190.8 188.59 -192.52 187.595C-194.424 186.492 -197.51 186.492 -199.414 187.595C-201.318 188.697 -201.318 190.474 -199.414 191.561C-197.694 192.556 -195.023 192.633 -193.119 191.837L-147.749 217.961L-147.749 274.667L-160.784 267.164L-182.264 279.537L-201.717 268.327L-201.717 241.1L-201.993 240.947L-253.428 211.331L-253.428 185.665C-252.369 185.604 -251.34 185.344 -250.526 184.869C-248.622 183.766 -248.622 181.99 -250.526 180.903C-252.43 179.8 -255.516 179.8 -257.42 180.903C-259.324 182.005 -259.324 183.782 -257.42 184.869C-256.606 185.344 -255.578 185.589 -254.518 185.665L-254.518 211.958L-254.242 212.112L-202.807 241.728L-202.807 267.7L-286.515 219.493L-286.515 168.392L-241.114 142.252L-199.444 142.252L-199.322 142.175L-127.82 101.012C-125.916 101.809 -123.244 101.717 -121.525 100.737C-119.621 99.6342 -119.621 97.8578 -121.525 96.7705C-123.428 95.668 -126.514 95.668 -128.418 96.7705C-130.138 97.7659 -130.292 99.2973 -128.91 100.4L-199.736 141.18L-239.226 141.18L-107.875 65.5464C-105.971 66.3427 -103.3 66.2508 -101.58 65.2707C-99.6762 64.1682 -99.6762 62.3918 -101.58 61.3045C-103.484 60.202 -106.57 60.202 -108.474 61.3045C-110.194 62.2999 -110.347 63.8313 -108.965 64.9338L-287.605 167.794L-287.605 220.151L-287.329 220.304L-183.339 280.18L-204.266 292.232L-381.816 189.999L-381.816 128.99L-382.092 128.837L-442.478 94.0753C-441.096 92.9728 -441.25 91.4414 -442.969 90.446C-444.873 89.3435 -447.959 89.3435 -449.863 90.446C-451.767 91.5486 -451.767 93.325 -449.863 94.4122C-448.143 95.4076 -445.472 95.4842 -443.568 94.6879L-382.921 129.618L-382.921 190.627L-382.645 190.78L-205.371 292.86L-225.3 304.329L-400.885 203.214L-505.597 203.214L-571.034 165.528L-571.034 107.612C-570.343 107.475 -569.683 107.26 -569.146 106.954C-567.242 105.851 -567.242 104.075 -569.146 102.988C-571.05 101.885 -574.136 101.885 -576.04 102.988C-577.944 104.09 -577.944 105.867 -576.04 106.954C-574.965 107.567 -573.522 107.827 -572.124 107.75L-572.124 166.156L-571.848 166.309L-505.873 204.302L-401.161 204.302L-252.937 289.659L-282.754 289.659L-333.344 260.533L-372.312 260.533L-372.435 260.609L-426.479 291.726C-428.383 290.93 -431.055 291.022 -432.774 292.002C-434.678 293.105 -434.678 294.881 -432.774 295.968C-430.871 297.071 -427.784 297.071 -425.881 295.968C-424.161 294.973 -424.008 293.441 -425.389 292.339L-372.02 261.605L-333.636 261.605L-283.045 290.731L-251.048 290.731L-226.375 304.942L-279.56 335.569L-294.683 326.855L-294.683 303.992L-333.098 281.865C-331.716 280.762 -331.87 279.231 -333.59 278.235C-335.494 277.133 -338.58 277.133 -340.484 278.235C-342.387 279.338 -342.387 281.114 -340.484 282.201C-338.764 283.197 -336.092 283.273 -334.188 282.477L-295.773 304.605L-295.773 326.212L-336.752 302.614L-356.16 302.614L-356.282 302.691L-379.405 316.014C-381.309 315.217 -383.98 315.309 -385.7 316.289C-387.604 317.392 -387.604 319.168 -385.7 320.255C-383.796 321.358 -380.71 321.358 -378.806 320.255C-377.087 319.26 -376.933 317.729 -378.315 316.626L-355.852 303.686L-337.044 303.686L-280.65 336.151L-290.891 342.046L-258.203 360.867L-273.511 369.687L-296.664 369.687L-313.231 360.147C-311.91 359.06 -312.094 357.544 -313.783 356.564C-315.687 355.461 -318.773 355.461 -320.677 356.564C-322.581 357.666 -322.581 359.443 -320.677 360.53C-318.942 361.525 -316.225 361.602 -314.305 360.775L-296.956 370.759L-275.399 370.759L-314.444 393.239L-406.289 340.347L-472.387 340.347L-472.51 340.423L-509.727 361.847C-511.631 361.05 -514.303 361.142 -516.022 362.122C-517.926 363.225 -517.926 365.001 -516.022 366.089C-514.118 367.191 -511.032 367.191 -509.128 366.089C-507.409 365.093 -507.255 363.562 -508.637 362.459L-472.095 341.419L-406.596 341.419L-335.755 382.214L-366.078 382.214L-395.711 365.154C-394.329 364.052 -394.482 362.521 -396.202 361.525C-398.106 360.423 -401.192 360.423 -403.096 361.525C-405 362.628 -405 364.404 -403.096 365.491C-401.376 366.487 -398.705 366.563 -396.801 365.767L-366.37 383.301L-333.866 383.301L-315.549 393.852L-362.178 420.696L-511.201 420.696L-626.983 354.022C-625.601 352.919 -625.755 351.388 -627.475 350.392C-629.378 349.29 -632.464 349.29 -634.368 350.392C-636.272 351.495 -636.272 353.271 -634.368 354.358C-632.649 355.354 -629.977 355.43 -628.073 354.634L-511.493 421.768L-364.067 421.768L-382.568 432.427L-492.884 432.427L-493.007 432.503L-547.405 463.834C-549.309 463.038 -551.98 463.13 -553.7 464.11C-555.604 465.213 -555.604 466.989 -553.7 468.076C-551.796 469.179 -548.71 469.179 -546.806 468.076C-545.087 467.081 -544.933 465.55 -546.315 464.447L-492.577 433.514L-382.261 433.514L-382.138 433.437L-257.113 361.449L-243.233 369.442L-374.676 445.137L-470.806 445.137L-470.928 445.213L-587.033 512.072L-747.909 512.072L-779 494.171L-779 495.426L-748.201 513.159L-586.757 513.159L-586.634 513.083L-513.765 471.124L-513.765 495.962L-561.791 523.618C-563.695 522.822 -566.367 522.914 -568.087 523.894C-569.99 524.997 -569.99 526.773 -568.087 527.86C-566.183 528.963 -563.097 528.963 -561.193 527.86C-559.473 526.865 -559.32 525.334 -560.701 524.231L-512.675 496.575L-512.675 470.634L-512.921 470.634L-470.514 446.209L-374.384 446.209L-374.262 446.132L-242.143 370.055L-226.375 379.136L-482.72 526.742L-481.63 624L-480.54 624L-481.63 527.37L-225.285 379.764L-205.801 390.988L-338.027 467.127L-338.027 480.741L-361.472 494.247L-361.472 525.563L-406.934 551.749C-408.838 550.953 -411.51 551.045 -413.229 552.025C-413.92 552.423 -414.365 552.913 -414.55 553.434L-405.046 553.434C-405.184 553.051 -405.445 552.699 -405.844 552.377L-360.382 526.191L-360.382 494.875L-338.027 481.996L-338.027 532.133L-324.838 539.728L-348.606 553.418L-346.425 553.418L-323.748 540.356L-218.882 596.782L-216.702 596.782L-336.952 531.505L-336.952 467.755L-204.726 391.616L-186.993 401.83L-280.573 455.718C-282.477 454.922 -285.149 455.014 -286.868 455.994C-288.772 457.097 -288.772 458.873 -286.868 459.96C-284.964 461.063 -281.878 461.063 -279.975 459.96C-278.255 458.965 -278.101 457.434 -279.483 456.331L-185.903 402.443L-168.783 412.305L-280.727 476.759L-311.143 476.759C-311.327 476.238 -311.772 475.733 -312.478 475.32C-314.382 474.217 -317.468 474.217 -319.372 475.32C-321.276 476.422 -321.276 478.199 -319.372 479.286C-317.468 480.388 -314.382 480.388 -312.478 479.286C-311.772 478.872 -311.327 478.367 -311.143 477.846L-280.435 477.846L-280.312 477.77L-167.708 412.933L-160.799 416.914L-155.487 413.851L-128.664 429.303L-128.664 450.803L-150.819 463.559L-150.819 463.498L-185.596 463.498L-185.718 463.574L-223.872 485.549C-225.776 484.753 -228.448 484.845 -230.167 485.825C-232.071 486.927 -232.071 488.704 -230.167 489.791C-228.263 490.894 -225.177 490.894 -223.273 489.791C-221.554 488.796 -221.4 487.264 -222.782 486.162L-185.304 464.585L-152.616 464.585L-217.761 502.088C-219.681 501.23 -222.429 501.291 -224.195 502.302C-226.098 503.405 -226.098 505.181 -224.195 506.268C-222.291 507.371 -219.205 507.371 -217.301 506.268C-215.627 505.303 -215.428 503.818 -216.702 502.715L-135.45 455.933L-135.45 466.269L-183.784 494.109L-183.784 513.756L-223.135 536.42C-225.039 535.624 -227.711 535.716 -229.43 536.696C-231.334 537.799 -231.334 539.575 -229.43 540.662C-227.526 541.765 -224.44 541.765 -222.537 540.662C-220.817 539.667 -220.663 538.136 -222.045 537.033L-182.694 514.369L-182.694 494.722L-134.36 466.882L-134.36 455.29L-127.589 451.385L-127.589 428.629L-154.412 413.193L-136.786 403.04L-81.605 434.815L-81.605 470.94L-119.083 492.517C-121.003 491.659 -123.751 491.72 -125.517 492.731C-127.42 493.834 -127.42 495.61 -125.517 496.697C-123.613 497.8 -120.527 497.8 -118.623 496.697C-116.949 495.733 -116.75 494.247 -118.024 493.145L-81.6204 472.18L-81.6204 501.368L-110.378 517.937L-110.378 553.372L-109.288 553.372L-109.288 518.565L-81.6204 502.639L-81.6204 553.372L-80.5303 553.372L-80.5303 434.188L-135.711 402.412L-115.921 391.019L-43.7889 432.549L-43.7889 448.338L-42.6988 447.71L-42.6988 431.921L-114.83 390.391L-100.168 381.938L-2.82523 437.985L-2.82524 522.378L-2.82524 521.222L-1.73515 521.75L-1.73515 437.358L-99.0775 381.31L-75.31 367.62L86.656 460.879L86.656 502.869L187.181 560.189L187.181 558.933L87.7462 502.241L87.7462 460.251L-3.34714 407.787L68.6922 407.787L142.16 450.098L142.16 448.843L68.9839 406.7L-5.25107 406.7L-74.2198 366.992L-46.5833 351.081L12.6975 385.215L107.89 385.215L142.16 404.939L142.16 403.683L134.652 399.365L138.406 401.524L135.137 399.644L132.763 398.278L108.197 384.128L13.0045 384.128L-3.59287 374.572L36.8795 374.572L37.0022 374.496L57.2998 362.812L141.883 362.812L142.16 362.965L142.16 361.709L59.1883 361.709L82.0347 348.555C83.9386 349.351 86.6101 349.259 88.3297 348.279C90.2336 347.177 90.2336 345.4 88.3297 344.313C86.4258 343.21 83.3396 343.21 81.4358 344.313C79.7162 345.308 79.5628 346.84 80.9446 347.942L36.5724 373.5L-5.49674 373.5L-45.5085 350.469L-30.723 341.955L-40.2422 336.472L-12.5902 336.472L23.5525 357.283C22.1707 358.386 22.3242 359.917 24.0439 360.913C25.9477 362.015 29.0337 362.015 30.9376 360.913C32.8415 359.81 32.8415 358.034 30.9376 356.946C29.218 355.951 26.5464 355.875 24.6425 356.671L-12.2984 335.4L-42.1306 335.4L-62.3668 323.747L-49.9304 316.58L-27.867 316.58L-8.45999 305.401L6.01853 305.401L38.7219 324.237C37.248 325.339 37.3708 326.917 39.1211 327.927C41.0249 329.03 44.111 329.03 46.0149 327.927C47.9187 326.825 47.9187 325.049 46.0149 323.961C44.326 322.997 41.7312 322.889 39.8274 323.624L6.31028 304.329L-8.7518 304.329L-28.1588 315.508L-48.0418 315.508L-8.26046 292.599L13.2195 292.599L57.9908 318.372L234.679 318.372L234.679 317.285L58.2825 317.285L13.5111 291.512L-8.55215 291.512L-8.67495 291.589L-63.457 323.134L-77.828 314.865L-15.9219 279.215L27.7439 279.215L63.7638 299.95L115.152 299.95L115.152 298.862L64.0708 298.862L29.9396 279.215L166.16 278.128L166.16 277.041L-16.1983 278.128L-16.3212 278.205L-78.8874 314.237L-95.2237 304.835L-8.9053 255.127L74.6138 255.127L74.6138 254.04L32.0737 254.04L277 122.219L277 120.963L29.8935 254.04L-8.10696 254.04L73.7283 206.92L73.7283 196.538L112.896 173.996C114.799 174.793 117.471 174.701 119.191 173.721C121.094 172.618 121.094 170.842 119.191 169.755C117.287 168.652 114.201 168.652 112.297 169.755C110.577 170.75 110.424 172.281 111.805 173.384L90.4791 185.665L90.4791 157.198L142.175 127.428L142.175 126.172L89.3891 156.57L89.3891 186.293L72.638 195.941L72.638 206.323L-9.87252 253.841L-9.59615 254.316L-96.3139 304.253L-112.082 295.172L-23 243.872L-23 159.479L29.443 129.306L29.443 128.05L3.0092 143.247L3.00921 66.9093L109.564 5.64006C109.641 5.686 109.702 5.74725 109.779 5.7932C111.683 6.89577 114.769 6.89577 116.673 5.7932C118.576 4.69063 118.576 2.91426 116.673 1.82701L116.688 1.82701ZM-32.8264 342.092L-160.784 415.781L-224.755 378.944L-288.726 342.108L-160.769 268.419L-32.8264 342.092Z"/>
        </mask>
        <path d="M116.688 1.82701C114.784 0.724436 111.698 0.724435 109.794 1.82701C108.366 2.65393 108.013 3.8637 108.735 4.87439L1.98052 66.3427L1.98052 143.936L-24.0286 158.913L-24.0286 243.305L-113.111 294.605L-126.991 286.612L-58.2982 247.057L-58.2982 200.795L-58.5745 200.642L-136.679 155.666L-136.679 139.97L-92.5061 114.534C-90.6022 115.33 -87.9307 115.239 -86.2111 114.259C-84.3073 113.156 -84.3073 111.38 -86.2111 110.292C-88.115 109.19 -91.2009 109.19 -93.1048 110.292C-94.8244 111.288 -94.978 112.819 -93.5961 113.922L-137.769 139.357L-137.769 156.309L-137.492 156.462L-59.3881 201.438L-59.3881 246.444L-111.284 276.336L-111.284 257.057L-87.4854 243.351C-85.5816 244.147 -82.9101 244.056 -81.1905 243.076C-79.2866 241.973 -79.2866 240.197 -81.1905 239.109C-83.0944 238.007 -86.1804 238.007 -88.0842 239.109C-89.8039 240.105 -89.9574 241.636 -88.5756 242.739L-112.374 256.444L-112.374 276.98L-128.081 286.014L-146.643 275.326L-146.643 241.759L-111.637 221.591L-111.637 198.391L-111.913 198.238L-185.626 155.789C-184.244 154.686 -184.398 153.155 -186.118 152.159C-188.021 151.057 -191.107 151.057 -193.011 152.159C-194.915 153.262 -194.915 155.038 -193.011 156.126C-191.292 157.121 -188.62 157.198 -186.716 156.401L-112.742 199.003L-112.742 220.948L-146.659 240.488L-146.659 217.349L-146.935 217.196L-192.029 191.224C-190.647 190.121 -190.8 188.59 -192.52 187.595C-194.424 186.492 -197.51 186.492 -199.414 187.595C-201.318 188.697 -201.318 190.474 -199.414 191.561C-197.694 192.556 -195.023 192.633 -193.119 191.837L-147.749 217.961L-147.749 274.667L-160.784 267.164L-182.264 279.537L-201.717 268.327L-201.717 241.1L-201.993 240.947L-253.428 211.331L-253.428 185.665C-252.369 185.604 -251.34 185.344 -250.526 184.869C-248.622 183.766 -248.622 181.99 -250.526 180.903C-252.43 179.8 -255.516 179.8 -257.42 180.903C-259.324 182.005 -259.324 183.782 -257.42 184.869C-256.606 185.344 -255.578 185.589 -254.518 185.665L-254.518 211.958L-254.242 212.112L-202.807 241.728L-202.807 267.7L-286.515 219.493L-286.515 168.392L-241.114 142.252L-199.444 142.252L-199.322 142.175L-127.82 101.012C-125.916 101.809 -123.244 101.717 -121.525 100.737C-119.621 99.6342 -119.621 97.8578 -121.525 96.7705C-123.428 95.668 -126.514 95.668 -128.418 96.7705C-130.138 97.7659 -130.292 99.2973 -128.91 100.4L-199.736 141.18L-239.226 141.18L-107.875 65.5464C-105.971 66.3427 -103.3 66.2508 -101.58 65.2707C-99.6762 64.1682 -99.6762 62.3918 -101.58 61.3045C-103.484 60.202 -106.57 60.202 -108.474 61.3045C-110.194 62.2999 -110.347 63.8313 -108.965 64.9338L-287.605 167.794L-287.605 220.151L-287.329 220.304L-183.339 280.18L-204.266 292.232L-381.816 189.999L-381.816 128.99L-382.092 128.837L-442.478 94.0753C-441.096 92.9728 -441.25 91.4414 -442.969 90.446C-444.873 89.3435 -447.959 89.3435 -449.863 90.446C-451.767 91.5486 -451.767 93.325 -449.863 94.4122C-448.143 95.4076 -445.472 95.4842 -443.568 94.6879L-382.921 129.618L-382.921 190.627L-382.645 190.78L-205.371 292.86L-225.3 304.329L-400.885 203.214L-505.597 203.214L-571.034 165.528L-571.034 107.612C-570.343 107.475 -569.683 107.26 -569.146 106.954C-567.242 105.851 -567.242 104.075 -569.146 102.988C-571.05 101.885 -574.136 101.885 -576.04 102.988C-577.944 104.09 -577.944 105.867 -576.04 106.954C-574.965 107.567 -573.522 107.827 -572.124 107.75L-572.124 166.156L-571.848 166.309L-505.873 204.302L-401.161 204.302L-252.937 289.659L-282.754 289.659L-333.344 260.533L-372.312 260.533L-372.435 260.609L-426.479 291.726C-428.383 290.93 -431.055 291.022 -432.774 292.002C-434.678 293.105 -434.678 294.881 -432.774 295.968C-430.871 297.071 -427.784 297.071 -425.881 295.968C-424.161 294.973 -424.008 293.441 -425.389 292.339L-372.02 261.605L-333.636 261.605L-283.045 290.731L-251.048 290.731L-226.375 304.942L-279.56 335.569L-294.683 326.855L-294.683 303.992L-333.098 281.865C-331.716 280.762 -331.87 279.231 -333.59 278.235C-335.494 277.133 -338.58 277.133 -340.484 278.235C-342.387 279.338 -342.387 281.114 -340.484 282.201C-338.764 283.197 -336.092 283.273 -334.188 282.477L-295.773 304.605L-295.773 326.212L-336.752 302.614L-356.16 302.614L-356.282 302.691L-379.405 316.014C-381.309 315.217 -383.98 315.309 -385.7 316.289C-387.604 317.392 -387.604 319.168 -385.7 320.255C-383.796 321.358 -380.71 321.358 -378.806 320.255C-377.087 319.26 -376.933 317.729 -378.315 316.626L-355.852 303.686L-337.044 303.686L-280.65 336.151L-290.891 342.046L-258.203 360.867L-273.511 369.687L-296.664 369.687L-313.231 360.147C-311.91 359.06 -312.094 357.544 -313.783 356.564C-315.687 355.461 -318.773 355.461 -320.677 356.564C-322.581 357.666 -322.581 359.443 -320.677 360.53C-318.942 361.525 -316.225 361.602 -314.305 360.775L-296.956 370.759L-275.399 370.759L-314.444 393.239L-406.289 340.347L-472.387 340.347L-472.51 340.423L-509.727 361.847C-511.631 361.05 -514.303 361.142 -516.022 362.122C-517.926 363.225 -517.926 365.001 -516.022 366.089C-514.118 367.191 -511.032 367.191 -509.128 366.089C-507.409 365.093 -507.255 363.562 -508.637 362.459L-472.095 341.419L-406.596 341.419L-335.755 382.214L-366.078 382.214L-395.711 365.154C-394.329 364.052 -394.482 362.521 -396.202 361.525C-398.106 360.423 -401.192 360.423 -403.096 361.525C-405 362.628 -405 364.404 -403.096 365.491C-401.376 366.487 -398.705 366.563 -396.801 365.767L-366.37 383.301L-333.866 383.301L-315.549 393.852L-362.178 420.696L-511.201 420.696L-626.983 354.022C-625.601 352.919 -625.755 351.388 -627.475 350.392C-629.378 349.29 -632.464 349.29 -634.368 350.392C-636.272 351.495 -636.272 353.271 -634.368 354.358C-632.649 355.354 -629.977 355.43 -628.073 354.634L-511.493 421.768L-364.067 421.768L-382.568 432.427L-492.884 432.427L-493.007 432.503L-547.405 463.834C-549.309 463.038 -551.98 463.13 -553.7 464.11C-555.604 465.213 -555.604 466.989 -553.7 468.076C-551.796 469.179 -548.71 469.179 -546.806 468.076C-545.087 467.081 -544.933 465.55 -546.315 464.447L-492.577 433.514L-382.261 433.514L-382.138 433.437L-257.113 361.449L-243.233 369.442L-374.676 445.137L-470.806 445.137L-470.928 445.213L-587.033 512.072L-747.909 512.072L-779 494.171L-779 495.426L-748.201 513.159L-586.757 513.159L-586.634 513.083L-513.765 471.124L-513.765 495.962L-561.791 523.618C-563.695 522.822 -566.367 522.914 -568.087 523.894C-569.99 524.997 -569.99 526.773 -568.087 527.86C-566.183 528.963 -563.097 528.963 -561.193 527.86C-559.473 526.865 -559.32 525.334 -560.701 524.231L-512.675 496.575L-512.675 470.634L-512.921 470.634L-470.514 446.209L-374.384 446.209L-374.262 446.132L-242.143 370.055L-226.375 379.136L-482.72 526.742L-481.63 624L-480.54 624L-481.63 527.37L-225.285 379.764L-205.801 390.988L-338.027 467.127L-338.027 480.741L-361.472 494.247L-361.472 525.563L-406.934 551.749C-408.838 550.953 -411.51 551.045 -413.229 552.025C-413.92 552.423 -414.365 552.913 -414.55 553.434L-405.046 553.434C-405.184 553.051 -405.445 552.699 -405.844 552.377L-360.382 526.191L-360.382 494.875L-338.027 481.996L-338.027 532.133L-324.838 539.728L-348.606 553.418L-346.425 553.418L-323.748 540.356L-218.882 596.782L-216.702 596.782L-336.952 531.505L-336.952 467.755L-204.726 391.616L-186.993 401.83L-280.573 455.718C-282.477 454.922 -285.149 455.014 -286.868 455.994C-288.772 457.097 -288.772 458.873 -286.868 459.96C-284.964 461.063 -281.878 461.063 -279.975 459.96C-278.255 458.965 -278.101 457.434 -279.483 456.331L-185.903 402.443L-168.783 412.305L-280.727 476.759L-311.143 476.759C-311.327 476.238 -311.772 475.733 -312.478 475.32C-314.382 474.217 -317.468 474.217 -319.372 475.32C-321.276 476.422 -321.276 478.199 -319.372 479.286C-317.468 480.388 -314.382 480.388 -312.478 479.286C-311.772 478.872 -311.327 478.367 -311.143 477.846L-280.435 477.846L-280.312 477.77L-167.708 412.933L-160.799 416.914L-155.487 413.851L-128.664 429.303L-128.664 450.803L-150.819 463.559L-150.819 463.498L-185.596 463.498L-185.718 463.574L-223.872 485.549C-225.776 484.753 -228.448 484.845 -230.167 485.825C-232.071 486.927 -232.071 488.704 -230.167 489.791C-228.263 490.894 -225.177 490.894 -223.273 489.791C-221.554 488.796 -221.4 487.264 -222.782 486.162L-185.304 464.585L-152.616 464.585L-217.761 502.088C-219.681 501.23 -222.429 501.291 -224.195 502.302C-226.098 503.405 -226.098 505.181 -224.195 506.268C-222.291 507.371 -219.205 507.371 -217.301 506.268C-215.627 505.303 -215.428 503.818 -216.702 502.715L-135.45 455.933L-135.45 466.269L-183.784 494.109L-183.784 513.756L-223.135 536.42C-225.039 535.624 -227.711 535.716 -229.43 536.696C-231.334 537.799 -231.334 539.575 -229.43 540.662C-227.526 541.765 -224.44 541.765 -222.537 540.662C-220.817 539.667 -220.663 538.136 -222.045 537.033L-182.694 514.369L-182.694 494.722L-134.36 466.882L-134.36 455.29L-127.589 451.385L-127.589 428.629L-154.412 413.193L-136.786 403.04L-81.605 434.815L-81.605 470.94L-119.083 492.517C-121.003 491.659 -123.751 491.72 -125.517 492.731C-127.42 493.834 -127.42 495.61 -125.517 496.697C-123.613 497.8 -120.527 497.8 -118.623 496.697C-116.949 495.733 -116.75 494.247 -118.024 493.145L-81.6204 472.18L-81.6204 501.368L-110.378 517.937L-110.378 553.372L-109.288 553.372L-109.288 518.565L-81.6204 502.639L-81.6204 553.372L-80.5303 553.372L-80.5303 434.188L-135.711 402.412L-115.921 391.019L-43.7889 432.549L-43.7889 448.338L-42.6988 447.71L-42.6988 431.921L-114.83 390.391L-100.168 381.938L-2.82523 437.985L-2.82524 522.378L-2.82524 521.222L-1.73515 521.75L-1.73515 437.358L-99.0775 381.31L-75.31 367.62L86.656 460.879L86.656 502.869L187.181 560.189L187.181 558.933L87.7462 502.241L87.7462 460.251L-3.34714 407.787L68.6922 407.787L142.16 450.098L142.16 448.843L68.9839 406.7L-5.25107 406.7L-74.2198 366.992L-46.5833 351.081L12.6975 385.215L107.89 385.215L142.16 404.939L142.16 403.683L134.652 399.365L138.406 401.524L135.137 399.644L132.763 398.278L108.197 384.128L13.0045 384.128L-3.59287 374.572L36.8795 374.572L37.0022 374.496L57.2998 362.812L141.883 362.812L142.16 362.965L142.16 361.709L59.1883 361.709L82.0347 348.555C83.9386 349.351 86.6101 349.259 88.3297 348.279C90.2336 347.177 90.2336 345.4 88.3297 344.313C86.4258 343.21 83.3396 343.21 81.4358 344.313C79.7162 345.308 79.5628 346.84 80.9446 347.942L36.5724 373.5L-5.49674 373.5L-45.5085 350.469L-30.723 341.955L-40.2422 336.472L-12.5902 336.472L23.5525 357.283C22.1707 358.386 22.3242 359.917 24.0439 360.913C25.9477 362.015 29.0337 362.015 30.9376 360.913C32.8415 359.81 32.8415 358.034 30.9376 356.946C29.218 355.951 26.5464 355.875 24.6425 356.671L-12.2984 335.4L-42.1306 335.4L-62.3668 323.747L-49.9304 316.58L-27.867 316.58L-8.45999 305.401L6.01853 305.401L38.7219 324.237C37.248 325.339 37.3708 326.917 39.1211 327.927C41.0249 329.03 44.111 329.03 46.0149 327.927C47.9187 326.825 47.9187 325.049 46.0149 323.961C44.326 322.997 41.7312 322.889 39.8274 323.624L6.31028 304.329L-8.7518 304.329L-28.1588 315.508L-48.0418 315.508L-8.26046 292.599L13.2195 292.599L57.9908 318.372L234.679 318.372L234.679 317.285L58.2825 317.285L13.5111 291.512L-8.55215 291.512L-8.67495 291.589L-63.457 323.134L-77.828 314.865L-15.9219 279.215L27.7439 279.215L63.7638 299.95L115.152 299.95L115.152 298.862L64.0708 298.862L29.9396 279.215L166.16 278.128L166.16 277.041L-16.1983 278.128L-16.3212 278.205L-78.8874 314.237L-95.2237 304.835L-8.9053 255.127L74.6138 255.127L74.6138 254.04L32.0737 254.04L277 122.219L277 120.963L29.8935 254.04L-8.10696 254.04L73.7283 206.92L73.7283 196.538L112.896 173.996C114.799 174.793 117.471 174.701 119.191 173.721C121.094 172.618 121.094 170.842 119.191 169.755C117.287 168.652 114.201 168.652 112.297 169.755C110.577 170.75 110.424 172.281 111.805 173.384L90.4791 185.665L90.4791 157.198L142.175 127.428L142.175 126.172L89.3891 156.57L89.3891 186.293L72.638 195.941L72.638 206.323L-9.87252 253.841L-9.59615 254.316L-96.3139 304.253L-112.082 295.172L-23 243.872L-23 159.479L29.443 129.306L29.443 128.05L3.0092 143.247L3.00921 66.9093L109.564 5.64006C109.641 5.686 109.702 5.74725 109.779 5.7932C111.683 6.89577 114.769 6.89577 116.673 5.7932C118.576 4.69063 118.576 2.91426 116.673 1.82701L116.688 1.82701ZM-32.8264 342.092L-160.784 415.781L-224.755 378.944L-288.726 342.108L-160.769 268.419L-32.8264 342.092Z" fill="#04AA6D"/>
        <path d="M116.688 1.82701C114.784 0.724436 111.698 0.724435 109.794 1.82701C108.366 2.65393 108.013 3.8637 108.735 4.87439L1.98052 66.3427L1.98052 143.936L-24.0286 158.913L-24.0286 243.305L-113.111 294.605L-126.991 286.612L-58.2982 247.057L-58.2982 200.795L-58.5745 200.642L-136.679 155.666L-136.679 139.97L-92.5061 114.534C-90.6022 115.33 -87.9307 115.239 -86.2111 114.259C-84.3073 113.156 -84.3073 111.38 -86.2111 110.292C-88.115 109.19 -91.2009 109.19 -93.1048 110.292C-94.8244 111.288 -94.978 112.819 -93.5961 113.922L-137.769 139.357L-137.769 156.309L-137.492 156.462L-59.3881 201.438L-59.3881 246.444L-111.284 276.336L-111.284 257.057L-87.4854 243.351C-85.5816 244.147 -82.9101 244.056 -81.1905 243.076C-79.2866 241.973 -79.2866 240.197 -81.1905 239.109C-83.0944 238.007 -86.1804 238.007 -88.0842 239.109C-89.8039 240.105 -89.9574 241.636 -88.5756 242.739L-112.374 256.444L-112.374 276.98L-128.081 286.014L-146.643 275.326L-146.643 241.759L-111.637 221.591L-111.637 198.391L-111.913 198.238L-185.626 155.789C-184.244 154.686 -184.398 153.155 -186.118 152.159C-188.021 151.057 -191.107 151.057 -193.011 152.159C-194.915 153.262 -194.915 155.038 -193.011 156.126C-191.292 157.121 -188.62 157.198 -186.716 156.401L-112.742 199.003L-112.742 220.948L-146.659 240.488L-146.659 217.349L-146.935 217.196L-192.029 191.224C-190.647 190.121 -190.8 188.59 -192.52 187.595C-194.424 186.492 -197.51 186.492 -199.414 187.595C-201.318 188.697 -201.318 190.474 -199.414 191.561C-197.694 192.556 -195.023 192.633 -193.119 191.837L-147.749 217.961L-147.749 274.667L-160.784 267.164L-182.264 279.537L-201.717 268.327L-201.717 241.1L-201.993 240.947L-253.428 211.331L-253.428 185.665C-252.369 185.604 -251.34 185.344 -250.526 184.869C-248.622 183.766 -248.622 181.99 -250.526 180.903C-252.43 179.8 -255.516 179.8 -257.42 180.903C-259.324 182.005 -259.324 183.782 -257.42 184.869C-256.606 185.344 -255.578 185.589 -254.518 185.665L-254.518 211.958L-254.242 212.112L-202.807 241.728L-202.807 267.7L-286.515 219.493L-286.515 168.392L-241.114 142.252L-199.444 142.252L-199.322 142.175L-127.82 101.012C-125.916 101.809 -123.244 101.717 -121.525 100.737C-119.621 99.6342 -119.621 97.8578 -121.525 96.7705C-123.428 95.668 -126.514 95.668 -128.418 96.7705C-130.138 97.7659 -130.292 99.2973 -128.91 100.4L-199.736 141.18L-239.226 141.18L-107.875 65.5464C-105.971 66.3427 -103.3 66.2508 -101.58 65.2707C-99.6762 64.1682 -99.6762 62.3918 -101.58 61.3045C-103.484 60.202 -106.57 60.202 -108.474 61.3045C-110.194 62.2999 -110.347 63.8313 -108.965 64.9338L-287.605 167.794L-287.605 220.151L-287.329 220.304L-183.339 280.18L-204.266 292.232L-381.816 189.999L-381.816 128.99L-382.092 128.837L-442.478 94.0753C-441.096 92.9728 -441.25 91.4414 -442.969 90.446C-444.873 89.3435 -447.959 89.3435 -449.863 90.446C-451.767 91.5486 -451.767 93.325 -449.863 94.4122C-448.143 95.4076 -445.472 95.4842 -443.568 94.6879L-382.921 129.618L-382.921 190.627L-382.645 190.78L-205.371 292.86L-225.3 304.329L-400.885 203.214L-505.597 203.214L-571.034 165.528L-571.034 107.612C-570.343 107.475 -569.683 107.26 -569.146 106.954C-567.242 105.851 -567.242 104.075 -569.146 102.988C-571.05 101.885 -574.136 101.885 -576.04 102.988C-577.944 104.09 -577.944 105.867 -576.04 106.954C-574.965 107.567 -573.522 107.827 -572.124 107.75L-572.124 166.156L-571.848 166.309L-505.873 204.302L-401.161 204.302L-252.937 289.659L-282.754 289.659L-333.344 260.533L-372.312 260.533L-372.435 260.609L-426.479 291.726C-428.383 290.93 -431.055 291.022 -432.774 292.002C-434.678 293.105 -434.678 294.881 -432.774 295.968C-430.871 297.071 -427.784 297.071 -425.881 295.968C-424.161 294.973 -424.008 293.441 -425.389 292.339L-372.02 261.605L-333.636 261.605L-283.045 290.731L-251.048 290.731L-226.375 304.942L-279.56 335.569L-294.683 326.855L-294.683 303.992L-333.098 281.865C-331.716 280.762 -331.87 279.231 -333.59 278.235C-335.494 277.133 -338.58 277.133 -340.484 278.235C-342.387 279.338 -342.387 281.114 -340.484 282.201C-338.764 283.197 -336.092 283.273 -334.188 282.477L-295.773 304.605L-295.773 326.212L-336.752 302.614L-356.16 302.614L-356.282 302.691L-379.405 316.014C-381.309 315.217 -383.98 315.309 -385.7 316.289C-387.604 317.392 -387.604 319.168 -385.7 320.255C-383.796 321.358 -380.71 321.358 -378.806 320.255C-377.087 319.26 -376.933 317.729 -378.315 316.626L-355.852 303.686L-337.044 303.686L-280.65 336.151L-290.891 342.046L-258.203 360.867L-273.511 369.687L-296.664 369.687L-313.231 360.147C-311.91 359.06 -312.094 357.544 -313.783 356.564C-315.687 355.461 -318.773 355.461 -320.677 356.564C-322.581 357.666 -322.581 359.443 -320.677 360.53C-318.942 361.525 -316.225 361.602 -314.305 360.775L-296.956 370.759L-275.399 370.759L-314.444 393.239L-406.289 340.347L-472.387 340.347L-472.51 340.423L-509.727 361.847C-511.631 361.05 -514.303 361.142 -516.022 362.122C-517.926 363.225 -517.926 365.001 -516.022 366.089C-514.118 367.191 -511.032 367.191 -509.128 366.089C-507.409 365.093 -507.255 363.562 -508.637 362.459L-472.095 341.419L-406.596 341.419L-335.755 382.214L-366.078 382.214L-395.711 365.154C-394.329 364.052 -394.482 362.521 -396.202 361.525C-398.106 360.423 -401.192 360.423 -403.096 361.525C-405 362.628 -405 364.404 -403.096 365.491C-401.376 366.487 -398.705 366.563 -396.801 365.767L-366.37 383.301L-333.866 383.301L-315.549 393.852L-362.178 420.696L-511.201 420.696L-626.983 354.022C-625.601 352.919 -625.755 351.388 -627.475 350.392C-629.378 349.29 -632.464 349.29 -634.368 350.392C-636.272 351.495 -636.272 353.271 -634.368 354.358C-632.649 355.354 -629.977 355.43 -628.073 354.634L-511.493 421.768L-364.067 421.768L-382.568 432.427L-492.884 432.427L-493.007 432.503L-547.405 463.834C-549.309 463.038 -551.98 463.13 -553.7 464.11C-555.604 465.213 -555.604 466.989 -553.7 468.076C-551.796 469.179 -548.71 469.179 -546.806 468.076C-545.087 467.081 -544.933 465.55 -546.315 464.447L-492.577 433.514L-382.261 433.514L-382.138 433.437L-257.113 361.449L-243.233 369.442L-374.676 445.137L-470.806 445.137L-470.928 445.213L-587.033 512.072L-747.909 512.072L-779 494.171L-779 495.426L-748.201 513.159L-586.757 513.159L-586.634 513.083L-513.765 471.124L-513.765 495.962L-561.791 523.618C-563.695 522.822 -566.367 522.914 -568.087 523.894C-569.99 524.997 -569.99 526.773 -568.087 527.86C-566.183 528.963 -563.097 528.963 -561.193 527.86C-559.473 526.865 -559.32 525.334 -560.701 524.231L-512.675 496.575L-512.675 470.634L-512.921 470.634L-470.514 446.209L-374.384 446.209L-374.262 446.132L-242.143 370.055L-226.375 379.136L-482.72 526.742L-481.63 624L-480.54 624L-481.63 527.37L-225.285 379.764L-205.801 390.988L-338.027 467.127L-338.027 480.741L-361.472 494.247L-361.472 525.563L-406.934 551.749C-408.838 550.953 -411.51 551.045 -413.229 552.025C-413.92 552.423 -414.365 552.913 -414.55 553.434L-405.046 553.434C-405.184 553.051 -405.445 552.699 -405.844 552.377L-360.382 526.191L-360.382 494.875L-338.027 481.996L-338.027 532.133L-324.838 539.728L-348.606 553.418L-346.425 553.418L-323.748 540.356L-218.882 596.782L-216.702 596.782L-336.952 531.505L-336.952 467.755L-204.726 391.616L-186.993 401.83L-280.573 455.718C-282.477 454.922 -285.149 455.014 -286.868 455.994C-288.772 457.097 -288.772 458.873 -286.868 459.96C-284.964 461.063 -281.878 461.063 -279.975 459.96C-278.255 458.965 -278.101 457.434 -279.483 456.331L-185.903 402.443L-168.783 412.305L-280.727 476.759L-311.143 476.759C-311.327 476.238 -311.772 475.733 -312.478 475.32C-314.382 474.217 -317.468 474.217 -319.372 475.32C-321.276 476.422 -321.276 478.199 -319.372 479.286C-317.468 480.388 -314.382 480.388 -312.478 479.286C-311.772 478.872 -311.327 478.367 -311.143 477.846L-280.435 477.846L-280.312 477.77L-167.708 412.933L-160.799 416.914L-155.487 413.851L-128.664 429.303L-128.664 450.803L-150.819 463.559L-150.819 463.498L-185.596 463.498L-185.718 463.574L-223.872 485.549C-225.776 484.753 -228.448 484.845 -230.167 485.825C-232.071 486.927 -232.071 488.704 -230.167 489.791C-228.263 490.894 -225.177 490.894 -223.273 489.791C-221.554 488.796 -221.4 487.264 -222.782 486.162L-185.304 464.585L-152.616 464.585L-217.761 502.088C-219.681 501.23 -222.429 501.291 -224.195 502.302C-226.098 503.405 -226.098 505.181 -224.195 506.268C-222.291 507.371 -219.205 507.371 -217.301 506.268C-215.627 505.303 -215.428 503.818 -216.702 502.715L-135.45 455.933L-135.45 466.269L-183.784 494.109L-183.784 513.756L-223.135 536.42C-225.039 535.624 -227.711 535.716 -229.43 536.696C-231.334 537.799 -231.334 539.575 -229.43 540.662C-227.526 541.765 -224.44 541.765 -222.537 540.662C-220.817 539.667 -220.663 538.136 -222.045 537.033L-182.694 514.369L-182.694 494.722L-134.36 466.882L-134.36 455.29L-127.589 451.385L-127.589 428.629L-154.412 413.193L-136.786 403.04L-81.605 434.815L-81.605 470.94L-119.083 492.517C-121.003 491.659 -123.751 491.72 -125.517 492.731C-127.42 493.834 -127.42 495.61 -125.517 496.697C-123.613 497.8 -120.527 497.8 -118.623 496.697C-116.949 495.733 -116.75 494.247 -118.024 493.145L-81.6204 472.18L-81.6204 501.368L-110.378 517.937L-110.378 553.372L-109.288 553.372L-109.288 518.565L-81.6204 502.639L-81.6204 553.372L-80.5303 553.372L-80.5303 434.188L-135.711 402.412L-115.921 391.019L-43.7889 432.549L-43.7889 448.338L-42.6988 447.71L-42.6988 431.921L-114.83 390.391L-100.168 381.938L-2.82523 437.985L-2.82524 522.378L-2.82524 521.222L-1.73515 521.75L-1.73515 437.358L-99.0775 381.31L-75.31 367.62L86.656 460.879L86.656 502.869L187.181 560.189L187.181 558.933L87.7462 502.241L87.7462 460.251L-3.34714 407.787L68.6922 407.787L142.16 450.098L142.16 448.843L68.9839 406.7L-5.25107 406.7L-74.2198 366.992L-46.5833 351.081L12.6975 385.215L107.89 385.215L142.16 404.939L142.16 403.683L134.652 399.365L138.406 401.524L135.137 399.644L132.763 398.278L108.197 384.128L13.0045 384.128L-3.59287 374.572L36.8795 374.572L37.0022 374.496L57.2998 362.812L141.883 362.812L142.16 362.965L142.16 361.709L59.1883 361.709L82.0347 348.555C83.9386 349.351 86.6101 349.259 88.3297 348.279C90.2336 347.177 90.2336 345.4 88.3297 344.313C86.4258 343.21 83.3396 343.21 81.4358 344.313C79.7162 345.308 79.5628 346.84 80.9446 347.942L36.5724 373.5L-5.49674 373.5L-45.5085 350.469L-30.723 341.955L-40.2422 336.472L-12.5902 336.472L23.5525 357.283C22.1707 358.386 22.3242 359.917 24.0439 360.913C25.9477 362.015 29.0337 362.015 30.9376 360.913C32.8415 359.81 32.8415 358.034 30.9376 356.946C29.218 355.951 26.5464 355.875 24.6425 356.671L-12.2984 335.4L-42.1306 335.4L-62.3668 323.747L-49.9304 316.58L-27.867 316.58L-8.45999 305.401L6.01853 305.401L38.7219 324.237C37.248 325.339 37.3708 326.917 39.1211 327.927C41.0249 329.03 44.111 329.03 46.0149 327.927C47.9187 326.825 47.9187 325.049 46.0149 323.961C44.326 322.997 41.7312 322.889 39.8274 323.624L6.31028 304.329L-8.7518 304.329L-28.1588 315.508L-48.0418 315.508L-8.26046 292.599L13.2195 292.599L57.9908 318.372L234.679 318.372L234.679 317.285L58.2825 317.285L13.5111 291.512L-8.55215 291.512L-8.67495 291.589L-63.457 323.134L-77.828 314.865L-15.9219 279.215L27.7439 279.215L63.7638 299.95L115.152 299.95L115.152 298.862L64.0708 298.862L29.9396 279.215L166.16 278.128L166.16 277.041L-16.1983 278.128L-16.3212 278.205L-78.8874 314.237L-95.2237 304.835L-8.9053 255.127L74.6138 255.127L74.6138 254.04L32.0737 254.04L277 122.219L277 120.963L29.8935 254.04L-8.10696 254.04L73.7283 206.92L73.7283 196.538L112.896 173.996C114.799 174.793 117.471 174.701 119.191 173.721C121.094 172.618 121.094 170.842 119.191 169.755C117.287 168.652 114.201 168.652 112.297 169.755C110.577 170.75 110.424 172.281 111.805 173.384L90.4791 185.665L90.4791 157.198L142.175 127.428L142.175 126.172L89.3891 156.57L89.3891 186.293L72.638 195.941L72.638 206.323L-9.87252 253.841L-9.59615 254.316L-96.3139 304.253L-112.082 295.172L-23 243.872L-23 159.479L29.443 129.306L29.443 128.05L3.0092 143.247L3.00921 66.9093L109.564 5.64006C109.641 5.686 109.702 5.74725 109.779 5.7932C111.683 6.89577 114.769 6.89577 116.673 5.7932C118.576 4.69063 118.576 2.91426 116.673 1.82701L116.688 1.82701ZM-32.8264 342.092L-160.784 415.781L-224.755 378.944L-288.726 342.108L-160.769 268.419L-32.8264 342.092Z" stroke="#04AA6D" mask="url(#path-1-outside-1_36_210)"/>
    </g>
</svg>