<svg width="42" height="40" viewBox="0 0 42 40" fill="none" xmlns="http://www.w3.org/2000/svg">
    <path d="M4.02517 21.0588H1.91406V12.5882C1.91406 10.2491 3.80441 8.35294 6.13628 8.35294H14.5807M4.02517 21.0588V33.7647C4.02517 36.1039 5.91553 38 8.2474 38H33.5807C35.9127 38 37.803 36.1039 37.803 33.7647V21.0588M4.02517 21.0588H16.6918M14.5807 8.35294V6.23529C14.5807 3.8962 16.4711 2 18.803 2H23.0252C25.3571 2 27.2474 3.8962 27.2474 6.23529V8.35294M14.5807 8.35294H27.2474M37.803 21.0588H39.9141V12.5882C39.9141 10.2491 38.0238 8.35294 35.6918 8.35294H27.2474M37.803 21.0588H25.1363M16.6918 21.0588V16.8235H25.1363V21.0588M16.6918 21.0588V25.2941H25.1363V21.0588" stroke="url(#paint0_linear_111_65386)" stroke-width="3" stroke-linecap="round" stroke-linejoin="round"/>
    <defs>
        <linearGradient id="paint0_linear_111_65386" x1="20.9141" y1="2" x2="20.9141" y2="38" gradientUnits="userSpaceOnUse">
            <stop stop-color="white"/>
            <stop offset="1" stop-color="#63ADB9"/>
        </linearGradient>
    </defs>
</svg>