<svg width="32" height="44" viewBox="0 0 32 44" fill="none" xmlns="http://www.w3.org/2000/svg">
	<path d="M7.96976 40.7311V43.3455H6.47581V40.7311C6.47653 40.4356 6.41883 40.143 6.30601 39.8699C6.1932 39.5969 6.02751 39.3488 5.81847 39.14C5.63943 38.9684 5.43543 38.8248 5.21342 38.7143C5.14954 38.7327 5.08471 38.7477 5.0192 38.7591C4.95533 38.7776 4.8905 38.7925 4.82499 38.8039C4.63821 38.8426 4.44804 38.8627 4.25729 38.8636H4.23488C4.04167 38.8624 3.84905 38.8424 3.65971 38.8039H3.48043L3.27875 38.7516C2.90166 38.9294 2.58165 39.2088 2.35467 39.5585C2.1277 39.9082 2.00278 40.3143 1.99395 40.7311V43.3455H0.5V40.7311C0.502211 40.1843 0.624442 39.6447 0.858062 39.1504C1.09168 38.656 1.43099 38.219 1.85203 37.8702C1.38108 37.3989 1.06043 36.7987 0.930603 36.1452C0.800777 35.4918 0.867609 34.8145 1.12265 34.1991C1.37769 33.5836 1.80949 33.0576 2.36345 32.6875C2.91741 32.3174 3.56867 32.1199 4.23488 32.1199C4.90109 32.1199 5.55235 32.3174 6.10631 32.6875C6.66027 33.0576 7.09207 33.5836 7.34711 34.1991C7.60215 34.8145 7.66898 35.4918 7.53915 36.1452C7.40933 36.7987 7.08867 37.3989 6.61773 37.8702C6.70737 37.9374 6.78954 38.0121 6.8717 38.0868C7.57101 38.7897 7.96548 39.7396 7.96976 40.7311Z" fill="url(#paint0_linear_130_72881)"/>
	<path d="M7.96976 24.6711V27.2856H6.47581V24.6711C6.47653 24.3757 6.41883 24.083 6.30601 23.81C6.1932 23.5369 6.02751 23.2889 5.81847 23.0801C5.63943 22.9084 5.43543 22.7649 5.21342 22.6543C5.14954 22.6728 5.08471 22.6877 5.0192 22.6991C4.95533 22.7176 4.8905 22.7326 4.82499 22.744C4.63088 22.7842 4.43312 22.8042 4.23488 22.8037C4.04167 22.8024 3.84905 22.7824 3.65971 22.744H3.48043L3.27875 22.6917C2.90166 22.8694 2.58165 23.1489 2.35467 23.4986C2.1277 23.8483 2.00278 24.2543 1.99395 24.6711V27.2856H0.5V24.6711C0.502211 24.1244 0.624442 23.5848 0.858062 23.0904C1.09168 22.5961 1.43099 22.1591 1.85203 21.8102C1.38108 21.339 1.06043 20.7387 0.930603 20.0853C0.800777 19.4319 0.867609 18.7546 1.12265 18.1391C1.37769 17.5237 1.80949 16.9976 2.36345 16.6276C2.91741 16.2575 3.56867 16.0599 4.23488 16.0599C4.90109 16.0599 5.55235 16.2575 6.10631 16.6276C6.66027 16.9976 7.09207 17.5237 7.34711 18.1391C7.60215 18.7546 7.66898 19.4319 7.53915 20.0853C7.40933 20.7387 7.08867 21.339 6.61773 21.8102C6.70737 21.8775 6.78954 21.9522 6.8717 22.0269C7.57101 22.7297 7.96548 23.6797 7.96976 24.6711Z" fill="url(#paint1_linear_130_72881)"/>
	<path d="M7.96976 8.61121V11.2256H6.47581V8.61121C6.47653 8.31577 6.41883 8.0231 6.30601 7.75004C6.1932 7.47699 6.02751 7.22893 5.81847 7.02015C5.63943 6.84851 5.43543 6.70496 5.21342 6.59438C5.14954 6.61284 5.08471 6.6278 5.0192 6.6392C4.95533 6.65768 4.8905 6.67264 4.82499 6.68402C4.63821 6.72276 4.44804 6.74278 4.25729 6.74377H4.23488C4.04167 6.7425 3.84905 6.72248 3.65971 6.68402H3.48043L3.27875 6.63173C2.90166 6.80951 2.58165 7.08895 2.35467 7.43865C2.1277 7.78834 2.00278 8.19441 1.99395 8.61121V11.2256H0.5V8.61121C0.502211 8.06445 0.624442 7.52484 0.858062 7.0305C1.09168 6.53615 1.43099 6.09913 1.85203 5.7503C1.38108 5.27907 1.06043 4.6788 0.930603 4.02536C0.800777 3.37192 0.867609 2.69465 1.12265 2.07919C1.37769 1.46373 1.80949 0.937703 2.36345 0.567616C2.91741 0.19753 3.56867 0 4.23488 0C4.90109 0 5.55235 0.19753 6.10631 0.567616C6.66027 0.937703 7.09207 1.46373 7.34711 2.07919C7.60215 2.69465 7.66898 3.37192 7.53915 4.02536C7.40933 4.6788 7.08867 5.27907 6.61773 5.7503C6.70737 5.81752 6.78954 5.89222 6.8717 5.96692C7.57101 6.66979 7.96548 7.61973 7.96976 8.61121Z" fill="url(#paint2_linear_130_72881)"/>
	<path d="M29.6375 19.069H14.698C14.1036 19.069 13.5336 19.3051 13.1134 19.7253C12.6931 20.1456 12.457 20.7156 12.457 21.3099V22.8038C12.457 23.3982 12.6931 23.9682 13.1134 24.3884C13.5336 24.8087 14.1036 25.0448 14.698 25.0448H29.6375C30.2318 25.0448 30.8018 24.8087 31.222 24.3884C31.6423 23.9682 31.8784 23.3982 31.8784 22.8038V21.3099C31.8784 20.7156 31.6423 20.1456 31.222 19.7253C30.8018 19.3051 30.2318 19.069 29.6375 19.069ZM30.3844 22.8038C30.3844 23.002 30.3057 23.192 30.1657 23.332C30.0256 23.4721 29.8356 23.5508 29.6375 23.5508H22.1677V20.5629H29.6375C29.8356 20.5629 30.0256 20.6416 30.1657 20.7817C30.3057 20.9218 30.3844 21.1118 30.3844 21.3099V22.8038Z" fill="url(#paint3_linear_130_72881)"/>
	<path d="M29.6375 3.38232H14.698C14.1036 3.38232 13.5336 3.61842 13.1134 4.03868C12.6931 4.45893 12.457 5.02892 12.457 5.62325V7.1172C12.457 7.71153 12.6931 8.28152 13.1134 8.70178C13.5336 9.12203 14.1036 9.35813 14.698 9.35813H29.6375C30.2318 9.35813 30.8018 9.12203 31.222 8.70178C31.6423 8.28152 31.8784 7.71153 31.8784 7.1172V5.62325C31.8784 5.02892 31.6423 4.45893 31.222 4.03868C30.8018 3.61842 30.2318 3.38232 29.6375 3.38232ZM30.3844 7.1172C30.3844 7.31531 30.3057 7.50531 30.1657 7.64539C30.0256 7.78548 29.8356 7.86418 29.6375 7.86418H19.9268V4.87628H29.6375C29.8356 4.87628 30.0256 4.95497 30.1657 5.09506C30.3057 5.23514 30.3844 5.42514 30.3844 5.62325V7.1172Z" fill="url(#paint4_linear_130_72881)"/>
	<path d="M29.6375 34.7554H14.698C14.1036 34.7554 13.5336 34.9915 13.1134 35.4117C12.6931 35.832 12.457 36.402 12.457 36.9963V38.4902C12.457 39.0846 12.6931 39.6546 13.1134 40.0748C13.5336 40.4951 14.1036 40.7312 14.698 40.7312H29.6375C30.2318 40.7312 30.8018 40.4951 31.222 40.0748C31.6423 39.6546 31.8784 39.0846 31.8784 38.4902V36.9963C31.8784 36.402 31.6423 35.832 31.222 35.4117C30.8018 34.9915 30.2318 34.7554 29.6375 34.7554ZM30.3844 38.4902C30.3844 38.6884 30.3057 38.8784 30.1657 39.0184C30.0256 39.1585 29.8356 39.2372 29.6375 39.2372H25.9026V36.2493H29.6375C29.8356 36.2493 30.0256 36.328 30.1657 36.4681C30.3057 36.6082 30.3844 36.7982 30.3844 36.9963V38.4902Z" fill="url(#paint5_linear_130_72881)"/>
	<defs>
		<linearGradient id="paint0_linear_130_72881" x1="4.23488" y1="32.1199" x2="4.23488" y2="43.3455" gradientUnits="userSpaceOnUse">
			<stop stop-color="white"/>
			<stop offset="1" stop-color="#63ADB9"/>
		</linearGradient>
		<linearGradient id="paint1_linear_130_72881" x1="4.23488" y1="16.0599" x2="4.23488" y2="27.2856" gradientUnits="userSpaceOnUse">
			<stop stop-color="white"/>
			<stop offset="1" stop-color="#63ADB9"/>
		</linearGradient>
		<linearGradient id="paint2_linear_130_72881" x1="4.23488" y1="0" x2="4.23488" y2="11.2256" gradientUnits="userSpaceOnUse">
			<stop stop-color="white"/>
			<stop offset="1" stop-color="#63ADB9"/>
		</linearGradient>
		<linearGradient id="paint3_linear_130_72881" x1="22.1677" y1="19.069" x2="22.1677" y2="25.0448" gradientUnits="userSpaceOnUse">
			<stop stop-color="white"/>
			<stop offset="1" stop-color="#63ADB9"/>
		</linearGradient>
		<linearGradient id="paint4_linear_130_72881" x1="22.1677" y1="3.38232" x2="22.1677" y2="9.35813" gradientUnits="userSpaceOnUse">
			<stop stop-color="white"/>
			<stop offset="1" stop-color="#63ADB9"/>
		</linearGradient>
		<linearGradient id="paint5_linear_130_72881" x1="22.1677" y1="34.7554" x2="22.1677" y2="40.7312" gradientUnits="userSpaceOnUse">
			<stop stop-color="white"/>
			<stop offset="1" stop-color="#63ADB9"/>
		</linearGradient>
	</defs>
</svg>