<svg width="47" height="43" viewBox="0 0 47 43" fill="none" xmlns="http://www.w3.org/2000/svg">
	<path d="M8.59375 22.125H23.5156C23.8984 24.7719 26.1531 26.8125 28.9062 26.8125C31.6594 26.8125 33.9141 24.7719 34.2969 22.125H38.2812C40.1922 22.125 41.7797 20.7438 42.1156 18.9281C44.7969 18.5766 46.875 16.3078 46.875 13.5312C46.875 10.7547 44.7969 8.48594 42.1156 8.13437C41.7797 6.31875 40.1922 4.9375 38.2812 4.9375H28.0469C27.6641 2.29063 25.4094 0.25 22.6562 0.25C19.9031 0.25 17.6484 2.29063 17.2656 4.9375H13.9844C13.6016 2.29063 11.3469 0.25 8.59375 0.25C5.57344 0.25 3.125 2.69844 3.125 5.71875C3.125 8.73906 5.57344 11.1875 8.59375 11.1875C11.3469 11.1875 13.6016 9.14687 13.9844 6.5H17.2672C17.65 9.14687 19.9047 11.1875 22.6578 11.1875C25.4109 11.1875 27.6656 9.14687 28.0484 6.5H38.2828C39.3328 6.5 40.2141 7.19844 40.5109 8.15312C37.9187 8.58281 35.9375 10.8188 35.9375 13.5312C35.9375 16.2437 37.9188 18.4797 40.5094 18.9094C40.2125 19.8641 39.3312 20.5625 38.2812 20.5625H34.2969C33.9141 17.9156 31.6594 15.875 28.9062 15.875C26.1531 15.875 23.8984 17.9156 23.5156 20.5625H8.59375C6.68281 20.5625 5.09531 21.9437 4.75938 23.7594C2.07813 24.1109 0 26.3797 0 29.1562C0 31.9328 2.07813 34.2016 4.75938 34.5531C5.09531 36.3688 6.68281 37.75 8.59375 37.75H12.5781C12.9609 40.3969 15.2156 42.4375 17.9688 42.4375C20.7219 42.4375 22.9766 40.3969 23.3594 37.75H32.8922C33.275 40.3969 35.5297 42.4375 38.2828 42.4375C41.3031 42.4375 43.7516 39.9891 43.7516 36.9688C43.7516 33.9484 41.3016 31.5 38.2812 31.5C35.5281 31.5 33.2734 33.5406 32.8906 36.1875H23.3594C22.9766 33.5406 20.7219 31.5 17.9688 31.5C15.2156 31.5 12.9609 33.5406 12.5781 36.1875H8.59375C7.54375 36.1875 6.6625 35.4891 6.36562 34.5344C8.95625 34.1047 10.9375 31.8687 10.9375 29.1562C10.9375 26.4438 8.95625 24.2078 6.36562 23.7781C6.6625 22.8234 7.54375 22.125 8.59375 22.125ZM8.59375 8.0625C7.30156 8.0625 6.25 7.01094 6.25 5.71875C6.25 4.42656 7.30156 3.375 8.59375 3.375C9.88594 3.375 10.9375 4.42656 10.9375 5.71875C10.9375 7.01094 9.88594 8.0625 8.59375 8.0625ZM22.6562 8.0625C21.3641 8.0625 20.3125 7.01094 20.3125 5.71875C20.3125 4.42656 21.3641 3.375 22.6562 3.375C23.9484 3.375 25 4.42656 25 5.71875C25 7.01094 23.9484 8.0625 22.6562 8.0625ZM39.0625 13.5312C39.0625 12.2391 40.1141 11.1875 41.4062 11.1875C42.6984 11.1875 43.75 12.2391 43.75 13.5312C43.75 14.8234 42.6984 15.875 41.4062 15.875C40.1141 15.875 39.0625 14.8234 39.0625 13.5312ZM28.9062 19C30.1984 19 31.25 20.0516 31.25 21.3438C31.25 22.6359 30.1984 23.6875 28.9062 23.6875C27.6141 23.6875 26.5625 22.6359 26.5625 21.3438C26.5625 20.0516 27.6141 19 28.9062 19ZM38.2812 34.625C39.5734 34.625 40.625 35.6766 40.625 36.9688C40.625 38.2609 39.5734 39.3125 38.2812 39.3125C36.9891 39.3125 35.9375 38.2609 35.9375 36.9688C35.9375 35.6766 36.9891 34.625 38.2812 34.625ZM17.9688 34.625C19.2609 34.625 20.3125 35.6766 20.3125 36.9688C20.3125 38.2609 19.2609 39.3125 17.9688 39.3125C16.6766 39.3125 15.625 38.2609 15.625 36.9688C15.625 35.6766 16.6766 34.625 17.9688 34.625ZM7.8125 29.1562C7.8125 30.4484 6.76094 31.5 5.46875 31.5C4.17656 31.5 3.125 30.4484 3.125 29.1562C3.125 27.8641 4.17656 26.8125 5.46875 26.8125C6.76094 26.8125 7.8125 27.8641 7.8125 29.1562Z" fill="url(#paint0_linear_111_64944)"/>
	<defs>
		<linearGradient id="paint0_linear_111_64944" x1="23.4375" y1="0.25" x2="23.4375" y2="42.4375" gradientUnits="userSpaceOnUse">
			<stop stop-color="white"/>
			<stop offset="1" stop-color="#63ADB9"/>
		</linearGradient>
	</defs>
</svg>