<svg width="56" height="56" viewBox="0 0 56 56" fill="none" xmlns="http://www.w3.org/2000/svg">
	<path d="M10.8922 12.7585C10.5918 9.67375 13.0161 7 16.1175 7L24.5002 7.00006C25.4667 7.00007 26.2502 7.78357 26.2502 8.75006V10.0872C26.2502 12.5224 24.5097 14.2248 23.1989 15.2283C22.9717 15.4023 22.8526 15.5478 22.7962 15.6413C22.7691 15.686 22.7583 15.7155 22.754 15.7298C22.7501 15.743 22.7502 15.7485 22.7502 15.7501C22.7502 15.7519 22.7503 15.7547 22.7513 15.7596C22.7523 15.7648 22.755 15.7756 22.762 15.7926C22.7761 15.8272 22.81 15.8919 22.8863 15.9822C23.046 16.1709 23.3455 16.4159 23.833 16.6597C24.8091 17.1477 26.2799 17.5001 28.0002 17.5001C29.7204 17.5001 31.1913 17.1477 32.1673 16.6597C32.6548 16.4159 32.9544 16.1709 33.114 15.9822C33.1904 15.8919 33.2242 15.8272 33.2383 15.7926C33.2453 15.7756 33.248 15.7648 33.2491 15.7596C33.2501 15.7547 33.2502 15.7519 33.2502 15.7501C33.2502 15.7485 33.2502 15.743 33.2463 15.7298C33.2421 15.7155 33.2312 15.686 33.2042 15.6413C33.1477 15.5478 33.0286 15.4023 32.8014 15.2283C31.4906 14.2248 29.7502 12.5224 29.7502 10.0872V8.75006C29.7502 7.78356 30.5337 7.00006 31.5002 7.00006H39.8825C42.9839 7.00006 45.4082 9.6738 45.1078 12.7585L44.2556 22.75H45.0871C45.7688 22.75 46.5579 22.2353 47.4491 21.0711C48.1839 20.1114 49.2981 19.25 50.75 19.25C52.7364 19.25 54.0637 20.8148 54.7901 22.2676C55.5688 23.8251 56 25.8542 56 28C56 30.1457 55.5688 32.1749 54.7901 33.7323C54.0637 35.1851 52.7364 36.75 50.75 36.75C49.2981 36.75 48.1839 35.8886 47.4491 34.9288C46.5579 33.7647 45.7688 33.25 45.0871 33.25H44.2556L45.1078 43.2415C45.4082 46.3263 42.9839 49 39.8825 49H31.5002C30.5337 49 29.7502 48.2165 29.7502 47.25V45.9129C29.7502 43.4777 31.4906 41.7753 32.8014 40.7718C33.0286 40.5978 33.1477 40.4522 33.2042 40.3588C33.2312 40.3141 33.2421 40.2846 33.2463 40.2703C33.2502 40.257 33.2502 40.2516 33.2502 40.25C33.2502 40.2481 33.2501 40.2454 33.2491 40.2405C33.248 40.2353 33.2453 40.2245 33.2383 40.2074C33.2242 40.1729 33.1904 40.1081 33.114 40.0178C32.9544 39.8292 32.6548 39.5841 32.1673 39.3404C31.1913 38.8523 29.7204 38.5 28.0002 38.5C26.2799 38.5 24.8091 38.8523 23.833 39.3404C23.3455 39.5841 23.046 39.8292 22.8863 40.0178C22.81 40.1081 22.7761 40.1729 22.762 40.2074C22.755 40.2245 22.7523 40.2353 22.7513 40.2405C22.7503 40.2454 22.7502 40.2481 22.7502 40.25C22.7502 40.2517 22.7502 40.2572 22.754 40.2703C22.7583 40.2846 22.7691 40.3141 22.7962 40.3588C22.8526 40.4522 22.9717 40.5978 23.1989 40.7718C24.5097 41.7753 26.2502 43.4777 26.2502 45.9129V47.25C26.2502 47.7141 26.0658 48.1593 25.7376 48.4874C25.4094 48.8156 24.9643 49 24.5002 49L16.1175 48.9999C13.0162 48.9999 10.5918 46.3262 10.8922 43.2415L11.7444 33.2499H10.9129C10.2312 33.2499 9.4421 33.7646 8.55086 34.9288C7.81608 35.8885 6.7019 36.7499 5.25 36.7499C3.26355 36.7499 1.93627 35.1851 1.20988 33.7323C0.431149 32.1748 0 30.1457 0 27.9999C0 25.8541 0.431149 23.825 1.20988 22.2675C1.93627 20.8148 3.26355 19.2499 5.25 19.2499C6.70189 19.2499 7.81608 20.1113 8.55086 21.0711C9.4421 22.2352 10.2312 22.7499 10.9129 22.7499H11.7444L10.8922 12.7585ZM16.1175 10.5C15.0821 10.5 14.2731 11.3939 14.3762 12.4241L14.3787 12.4495L15.3937 24.3512C15.4353 24.8394 15.2704 25.3227 14.939 25.6836C14.6076 26.0445 14.14 26.2499 13.65 26.2499H10.9129C8.47769 26.2499 6.77529 24.5094 5.77178 23.1987C5.59783 22.9715 5.45225 22.8524 5.35881 22.7959C5.31412 22.7689 5.28458 22.758 5.2703 22.7538C5.25727 22.7499 5.25176 22.7499 5.25008 22.7499C5.24822 22.7499 5.24543 22.75 5.24048 22.751C5.23531 22.7521 5.22451 22.7548 5.20747 22.7617C5.17291 22.7759 5.10815 22.8097 5.01787 22.8861C4.82918 23.0457 4.58414 23.3453 4.34037 23.8328C3.85235 24.8088 3.5 26.2797 3.5 27.9999C3.5 29.7201 3.85235 31.191 4.34037 32.167C4.58414 32.6546 4.82918 32.9541 5.01787 33.1137C5.10815 33.1901 5.17291 33.2239 5.20747 33.2381C5.22451 33.2451 5.23531 33.2477 5.24048 33.2488C5.24543 33.2498 5.24814 33.2499 5.25 33.2499C5.25168 33.2499 5.25727 33.2499 5.27029 33.246C5.28458 33.2418 5.31412 33.2309 5.35881 33.2039C5.45225 33.1474 5.59783 33.0284 5.77178 32.8011C6.77529 31.4904 8.47769 29.7499 10.9129 29.7499H13.65C14.14 29.7499 14.6075 29.9553 14.939 30.3162C15.2704 30.6771 15.4353 31.1604 15.3937 31.6486L14.3764 43.5758C14.2733 44.606 15.0821 45.4999 16.1175 45.4999L22.6899 45.5C22.5236 44.9181 22.0075 44.2675 21.0713 43.5508C20.1116 42.8161 19.2502 41.7019 19.2502 40.25C19.2502 38.2635 20.815 36.9362 22.2678 36.2099C23.8253 35.4311 25.8544 35 28.0002 35C30.1459 35 32.1751 35.4311 33.7325 36.2099C35.1853 36.9362 36.7502 38.2635 36.7502 40.25C36.7502 41.7019 35.8888 42.8161 34.929 43.5508C33.9929 44.2675 33.4767 44.9181 33.3104 45.5H39.8825C40.9179 45.5 41.7269 44.6061 41.6238 43.5759L41.6213 43.5505L40.6063 31.6487C40.5647 31.1605 40.7296 30.6772 41.061 30.3163C41.3925 29.9554 41.86 29.75 42.35 29.75H45.0871C47.5223 29.75 49.2247 31.4904 50.2282 32.8012C50.4022 33.0284 50.5477 33.1475 50.6412 33.204C50.6859 33.231 50.7154 33.2419 50.7297 33.2461C50.7427 33.25 50.7482 33.25 50.7499 33.25C50.7518 33.25 50.7546 33.2499 50.7595 33.2488C50.7647 33.2478 50.7755 33.2451 50.7925 33.2381C50.8271 33.224 50.8918 33.1902 50.9821 33.1138C51.1708 32.9542 51.4159 32.6546 51.6596 32.1671C52.1476 31.1911 52.5 29.7202 52.5 28C52.5 26.2797 52.1476 24.8089 51.6596 23.8328C51.4159 23.3453 51.1708 23.0458 50.9821 22.8861C50.8918 22.8098 50.8271 22.7759 50.7925 22.7618C50.7755 22.7548 50.7647 22.7521 50.7595 22.7511C50.7546 22.7501 50.7519 22.75 50.75 22.75C50.7484 22.75 50.7429 22.7499 50.7297 22.7538C50.7154 22.7581 50.6859 22.7689 50.6412 22.796C50.5477 22.8524 50.4022 22.9715 50.2282 23.1987C49.2247 24.5095 47.5223 26.25 45.0871 26.25H42.35C41.86 26.25 41.3925 26.0446 41.061 25.6837C40.7296 25.3228 40.5647 24.8395 40.6063 24.3512L41.6236 12.4242C41.7267 11.394 40.9179 10.5001 39.8825 10.5001H33.3104C33.4767 11.0819 33.9929 11.7325 34.929 12.4492C35.8888 13.184 36.7502 14.2982 36.7502 15.7501C36.7502 17.7365 35.1853 19.0638 33.7325 19.7902C32.1751 20.5689 30.1459 21.0001 28.0002 21.0001C25.8544 21.0001 23.8253 20.5689 22.2678 19.7902C20.815 19.0638 19.2502 17.7365 19.2502 15.7501C19.2502 14.2982 20.1116 13.184 21.0713 12.4492C22.0075 11.7325 22.5236 11.0819 22.6899 10.5L16.1175 10.5Z" fill="#D9EEE1"/>
</svg>