<?xml version="1.0" encoding="UTF-8" standalone="no"?>
<!DOCTYPE svg  PUBLIC '-//W3C//DTD SVG 1.1//EN'  'http://www.w3.org/Graphics/SVG/1.1/DTD/svg11.dtd'>
<svg style="enable-background:new 0 0 512 512" xmlns="http://www.w3.org/2000/svg" xml:space="preserve" height="512px" width="512px" version="1.1" xmlns:xlink="http://www.w3.org/1999/xlink" viewBox="0 0 512 512"><g id="comp_x5F_267-python"><path d="m194 240.25h105.05c29.216 0 52.529-24.101 52.529-53.414v-100.24c0-28.525-24.002-49.871-52.529-54.691-35.214-5.804-73.479-5.509-105.05 0.097-44.462 7.87-52.527 24.298-52.527 54.693v21.453h105.16v31.959h-144.6c-30.591 0-57.349 18.394-65.709 53.315-9.64 40.035-10.032 65.02 0 106.83 7.477 31.085 25.28 53.314 55.872 53.314h36.101v-48.001c0.01-34.72 30.01-65.31 65.71-65.31z" fill="#347AB4"/><path d="m128.3 363.57h-36.105c-32.842 0-56.137-21.655-65.595-60.976-10.146-42.276-10.145-69.37 0-111.5 4.521-18.885 14.243-34.559 28.112-45.314 13.21-10.245 29.573-15.66 47.319-15.66h134.6v-11.959h-95.152c-5.523 0-10-4.477-10-10v-21.458c0-13.954 1.423-29.889 11.979-42.278 9.452-11.094 24.504-17.96 48.806-22.261 16.512-2.932 35.127-4.482 53.829-4.482 18.655 0 37.023 1.469 54.594 4.365 16.345 2.762 31.383 10.299 42.385 21.229 11.941 11.865 18.519 27.253 18.519 43.329v100.24c0 34.967-28.051 63.414-62.529 63.414h-105.07c-29.677 0-55.709 25.849-55.709 55.316v48.001c0.01 5.52-4.47 10-9.99 10zm-26.27-213.46c-28.213 0-49.142 17.063-55.984 45.643-9.526 39.563-9.525 62.475-0.001 102.16 5.008 20.821 17.081 45.647 46.148 45.647h26.101v-38.001c0-19.263 8.159-38.487 22.386-52.743 14.527-14.557 33.464-22.573 53.323-22.573h105.05c23.451 0 42.529-19.476 42.529-43.414v-100.24c0-24.529-22.233-41.12-44.195-44.831-16.46-2.713-33.733-4.092-51.302-4.092-17.549 0-34.956 1.444-50.337 4.175-39.908 7.064-44.275 19.689-44.275 44.847v11.453h95.152c5.523 0 10 4.477 10 10v31.959c0 5.523-4.477 10-10 10h-144.58z" fill="#275C87"/><path d="m474.98 209.37c-7.575-30.395-21.935-53.315-52.527-53.315h-39.443v46.626c0 36.199-30.692 66.691-65.71 66.691h-105.06c-28.724 0-52.528 24.594-52.528 53.414v100.14c0 28.524 24.788 45.246 52.528 53.413 33.247 9.737 65.215 11.509 105.05 0 26.462-7.675 52.529-23.116 52.529-53.413v-20.997h-104.95v-32.417h157.58c30.593 0 41.904-21.346 52.527-53.314 11.01-32.96 10.52-64.63 0-106.83z" fill="#FFCA1D"/><path d="m264.43 494.32c-17.747 0-35.738-2.743-55.001-8.385-38.515-11.339-59.718-33.715-59.718-63.01v-100.14c0-34.374 28.634-63.414 62.528-63.414h105.05c29.678 0 55.71-26.491 55.71-56.691v-46.626c0-5.523 4.478-10 10-10h39.443c17.276 0 31.546 6.279 42.412 18.664 8.734 9.955 15.217 23.77 19.818 42.232 11.191 44.863 11.126 78.483-0.219 112.42-10.11 30.424-23.23 60.144-62.012 60.144h-147.58v12.417h94.956c5.522 0 10 4.478 10 10v20.997c0 20.844-10.365 48.696-59.744 63.018-19.52 5.63-37.72 8.37-55.65 8.37zm-52.19-214.95c-23.053 0-42.528 19.881-42.528 43.414v100.14c0 26.51 28.415 38.834 45.353 43.82 17.639 5.166 33.33 7.574 49.366 7.574 16.028 0 32.413-2.482 50.088-7.589 30.059-8.718 45.305-23.457 45.305-43.806v-10.997h-94.956c-5.522 0-10-4.478-10-10v-32.417c0-5.522 4.478-10 10-10h157.58c21.148 0 31.204-10.857 43.037-46.468 10.189-30.476 10.126-59.805-0.213-101.25-7.883-31.631-21.09-45.735-42.824-45.735h-29.443v36.626c0 41.571-34.671 76.691-75.71 76.691h-105.06z" fill="#BF9816"/><path d="m187.41 89.594c-10.479 0-18.975-8.591-18.975-19.164 0.094-10.668 8.496-19.259 18.975-19.259 10.386 0 18.976 8.685 18.976 19.259-0.01 10.573-8.51 19.164-18.99 19.164z" fill="#fff"/><path d="m314.91 460.08c-10.479 0-18.976-8.591-18.976-19.164 0.095-10.668 8.496-19.259 18.976-19.259 10.385 0 18.976 8.685 18.976 19.259-0.01 10.56-8.5 19.16-18.98 19.16z" fill="#fff"/></g></svg>
