<?xml version="1.0" standalone="no"?>
<!DOCTYPE svg PUBLIC "-//W3C//DTD SVG 20010904//EN"
        "http://www.w3.org/TR/2001/REC-SVG-20010904/DTD/svg10.dtd">
<svg version="1.0" xmlns="http://www.w3.org/2000/svg"
     width="512.000000pt" height="512.000000pt" viewBox="0 0 512.000000 512.000000"
     preserveAspectRatio="xMidYMid meet">
    <metadata>
        Created by potrace 1.14, written by Peter Selinger 2001-2017
    </metadata>
    <g transform="translate(0.000000,512.000000) scale(0.100000,-0.100000)"
       fill="#000" stroke="none">
        <path d="M4250 4175 l0 -115 253 -2 254 -3 -164 -205 c-125 -158 -161 -209
-157 -225 4 -11 15 -41 26 -66 l19 -46 96 -7 c54 -4 119 -16 149 -27 166 -62
193 -271 47 -368 -109 -72 -286 -46 -407 60 -24 21 -46 39 -49 39 -3 0 -27
-35 -53 -77 -26 -43 -54 -86 -62 -95 -20 -24 -11 -41 50 -86 237 -179 547
-180 728 -2 144 140 182 370 91 549 -47 91 -182 191 -279 207 l-41 6 47 61
c26 33 100 124 165 203 l117 143 0 86 0 85 -415 0 -415 0 0 -115z"/>
        <path d="M63 3698 c392 -745 390 -741 585 -1108 120 -227 363 -687 612 -1160
56 -107 117 -222 135 -255 17 -33 65 -123 105 -200 41 -77 78 -143 84 -147 6
-4 19 11 32 35 24 48 216 413 279 532 24 44 106 199 183 345 161 306 371 702
514 974 l100 188 49 -92 c27 -50 70 -133 97 -183 27 -51 118 -222 202 -382 84
-159 169 -321 190 -360 21 -38 88 -167 151 -285 62 -118 137 -260 166 -315 29
-55 95 -180 146 -277 50 -98 95 -178 98 -178 3 0 72 125 152 277 80 153 202
383 269 512 l124 235 -66 125 c-37 69 -136 257 -220 416 -84 160 -172 326
-195 370 -23 44 -89 168 -145 275 -101 192 -151 286 -215 405 -18 33 -69 131
-114 218 l-83 157 -606 0 -607 -1 -230 -437 c-126 -240 -238 -452 -248 -470
l-20 -33 -32 58 c-17 32 -98 184 -180 338 -81 154 -165 312 -185 350 -20 39
-52 98 -70 133 l-33 62 -544 0 -545 0 65 -122z"/>
    </g>
</svg>