<svg id="Layer_1" height="512" viewBox="0 0 128 128" width="512" xmlns="http://www.w3.org/2000/svg" xmlns:xlink="http://www.w3.org/1999/xlink" data-name="Layer 1"><linearGradient id="linear-gradient" gradientUnits="userSpaceOnUse" x1="117.319" x2=".84" y1="126.164" y2="9.685"><stop offset="0" stop-color="#30ade0"/><stop offset="1" stop-color="#85c646"/></linearGradient><path d="m49.863 89.589h-32.227a1.75 1.75 0 1 1 0-3.5h32.227a1.75 1.75 0 0 1 0 3.5zm1.747 7.724a1.75 1.75 0 0 0 -1.75-1.75h-32.227a1.75 1.75 0 1 0 0 3.5h32.227a1.75 1.75 0 0 0 1.75-1.75zm0 9.475a1.75 1.75 0 0 0 -1.75-1.75h-32.227a1.75 1.75 0 1 0 0 3.5h32.227a1.75 1.75 0 0 0 1.75-1.75zm0-37.9a1.749 1.749 0 0 0 -1.75-1.75h-32.224a1.75 1.75 0 1 0 0 3.5h32.227a1.75 1.75 0 0 0 1.75-1.747zm0 9.473a1.75 1.75 0 0 0 -1.75-1.75h-32.227a1.75 1.75 0 1 0 0 3.5h32.227a1.749 1.749 0 0 0 1.75-1.747zm52.474 6.8a18.838 18.838 0 0 0 -13.326-18.071 1.75 1.75 0 1 0 -1.037 3.343 15.354 15.354 0 0 1 10.863 14.733 1.75 1.75 0 0 0 3.5 0zm-51.467-61.111v13.284h5.067v-21.085a1.75 1.75 0 0 1 1.75-1.75h8.566a1.75 1.75 0 0 1 1.75 1.75v6.051h6.816a1.75 1.75 0 0 1 1.75 1.75v26.25h3.5a1.75 1.75 0 0 1 0 3.5h-53.329a1.75 1.75 0 1 1 0-3.5h3.5v-17.91a1.751 1.751 0 0 1 1.75-1.75h6.817v-6.59a1.75 1.75 0 0 1 1.746-1.75h8.565a1.75 1.75 0 0 1 1.752 1.75zm-17.132 26.25h5.067v-16.16h-5.067zm8.567 0h5.065v-24.5h-5.065zm25.7-24.5v24.5h5.066v-24.5zm-8.568 13.284v11.216h5.065v-32.3h-5.065zm-8.567 1.75v9.466h5.067v-9.466zm-46.117 11.083a1.75 1.75 0 0 0 1.75-1.75v-41.917h93.81v48.25a1.75 1.75 0 0 0 3.5 0v-50a1.751 1.751 0 0 0 -1.75-1.75h-97.31a1.75 1.75 0 0 0 -1.75 1.75v43.667a1.75 1.75 0 0 0 1.75 1.75zm0 16.974a1.75 1.75 0 0 0 1.75-1.75v-6.974a1.75 1.75 0 0 0 -3.5 0v6.974a1.75 1.75 0 0 0 1.75 1.75zm116.75 49.209a5.15 5.15 0 0 1 -8.792 3.641l-8.9-8.9v8.659a1.751 1.751 0 0 1 -1.75 1.75h-97.308a1.75 1.75 0 0 1 -1.75-1.75v-44.886a1.75 1.75 0 0 1 3.5 0v43.136h93.81v-14.95a25.915 25.915 0 0 1 -40.608-30.11 1.75 1.75 0 1 1 3.2 1.416 22.443 22.443 0 1 0 4.681-6.812 1.75 1.75 0 1 1 -2.471-2.478 25.909 25.909 0 0 1 38.7 34.319v1.462l.939.94.922-.922a1.751 1.751 0 0 1 2.475 0l11.845 11.846a5.115 5.115 0 0 1 1.507 3.639zm-3.5 0a1.642 1.642 0 0 0 -.483-1.167l-10.609-10.608-.914.914-.007.008-.008.007-1.405 1.405 10.609 10.608a1.653 1.653 0 0 0 2.334 0 1.638 1.638 0 0 0 .483-1.167z" fill="url(#linear-gradient)"/></svg>