<?xml version="1.0" encoding="iso-8859-1"?>
<!-- Uploaded to: SVG Repo, www.svgrepo.com, Generator: SVG Repo Mixer Tools -->
<!DOCTYPE svg PUBLIC "-//W3C//DTD SVG 1.1//EN" "http://www.w3.org/Graphics/SVG/1.1/DTD/svg11.dtd">
<svg fill="#000000" version="1.1" id="Capa_1" xmlns="http://www.w3.org/2000/svg" xmlns:xlink="http://www.w3.org/1999/xlink" 
	 width="800px" height="800px" viewBox="0 0 28.994 28.994"
	 xml:space="preserve">
<g>
	<g>
		<path d="M13.208,14.109h2.578c0-0.711-0.577-1.289-1.289-1.289S13.208,13.398,13.208,14.109z"/>
		<path d="M14.497,10.245c2.135,0,3.866,1.731,3.866,3.866h5.799c0-5.337-4.327-9.664-9.665-9.664s-9.665,4.327-9.665,9.664h5.799
			C10.631,11.976,12.362,10.245,14.497,10.245z"/>
		<path d="M27.834,15.27H1.16c-0.638,0-1.16,0.522-1.16,1.16v6.959c0,0.637,0.522,1.159,1.16,1.159h26.674
			c0.637,0,1.16-0.522,1.16-1.159v-6.959C28.994,15.792,28.473,15.27,27.834,15.27z M27.254,22.914c0,0.2-0.162,0.363-0.363,0.363
			h-2.387c-0.199,0-0.361-0.164-0.361-0.363v-0.34c0-0.2,0.164-0.363,0.361-0.363h2.387c0.201,0,0.363,0.163,0.363,0.363V22.914z
			 M27.254,20.489c0,0.319-0.261,0.58-0.58,0.58H2.32c-0.319,0-0.58-0.261-0.58-0.58v-3.479c0-0.318,0.261-0.58,0.58-0.58h24.354
			c0.319,0,0.58,0.262,0.58,0.58V20.489z"/>
	</g>
</g>
</svg>