<?xml version="1.0" encoding="utf-8"?>
<!-- Generator: Adobe Illustrator 20.1.0, SVG Export Plug-In . SVG Version: 6.00 Build 0)  -->
<svg version="1.1" id="Layer_1" xmlns="http://www.w3.org/2000/svg" xmlns:xlink="http://www.w3.org/1999/xlink" x="0px" y="0px"
	 viewBox="0 0 128 128" style="enable-background:new 0 0 128 128;" xml:space="preserve">
<style type="text/css">
	.st0{fill:#082E51;}
	.st1{opacity:0.12;fill:#007BFF;enable-background:new    ;}
	.st2{fill:#007BFF;}
	.st3{fill:#FFFFFF;stroke:#007BFF;stroke-miterlimit:10;}
</style>
<path class="st0" d="M72.2,27H65v-6.4h6.7c1.8,0,3.3,1.5,3.3,3.3v0.3C75,25.7,73.7,27,72.2,27z"/>
<path class="st0" d="M83.7,38.5h-8v-6.4h7.5c1.9,0,3.4,1.5,3.4,3.4v0.1C86.7,37.2,85.3,38.5,83.7,38.5z"/>
<path class="st0" d="M74.8,102h-7.2v6.4h6.7c1.8,0,3.3-1.5,3.3-3.3v-0.3C77.7,103.3,76.4,102,74.8,102z"/>
<path class="st0" d="M86.4,90.5h-8v6.4h7.5c1.9,0,3.4-1.5,3.4-3.4v-0.1C89.3,91.8,88,90.5,86.4,90.5z"/>
<path class="st1" d="M113.8,79.5c-3,0.7-76,0.5-80.3,0S12,69.8,12,64.5s17.2-14.2,22-15s74.9-0.3,77.7,0c4.8,0.5,15.6,10.9,15.6,15
	S117.8,78.7,113.8,79.5z"/>
<path class="st2" d="M20.9,61.2H6.6L4.9,48.6C4.6,46.7,6.1,45,8,45h1.9c1.3,0,2.5,0.7,3.1,1.9L20.9,61.2z"/>
<path class="st2" d="M21.5,68.4H7.2L5.5,81c-0.3,1.9,1.2,3.6,3.2,3.6h1.9c1.3,0,2.5-0.7,3.1-1.9L21.5,68.4z"/>
<path class="st3" d="M35.7,64.8c0,0.9-7.8,4.4-17.3,4.4S1,68.3,1,64.8c0-3.5,7.8-4.4,17.3-4.4S35.7,63.9,35.7,64.8z"/>
<path class="st2" d="M92,49H70.1c0,0-17.6-30.5-20.9-32.5c-3.2-2-6.4-2.6-7.6-3.5s-1.4-3.1,0-3.6s9-1.1,11.8,0S92,49,92,49z"/>
<path class="st2" d="M94.7,80H72.8c0,0-17.6,30.5-20.9,32.5c-3.2,2-6.4,2.6-7.6,3.5c-1.2,0.9-1.4,3.1,0,3.6s9,1.1,11.8,0
	S94.7,80,94.7,80z"/>
<path class="st0" d="M114.8,64.8c0,3.9-2.3,6.4-5.6,6.8c-0.9,0.1-3.1,0.1-3.8-0.4c-1.8-1.2,4.6-2.4,4.5-6.2
	c-0.1-3.4-6.4-4.6-4.9-5.9c0.9-0.8,2.3-0.8,3.4-0.8C111.3,58.3,114.8,60.9,114.8,64.8z"/>
</svg>
