<?xml version="1.0" encoding="iso-8859-1"?>
<!-- Generator: Adobe Illustrator 16.0.0, SVG Export Plug-In . SVG Version: 6.00 Build 0)  -->
<!DOCTYPE svg PUBLIC "-//W3C//DTD SVG 1.1//EN" "http://www.w3.org/Graphics/SVG/1.1/DTD/svg11.dtd">
<svg version="1.1" id="Capa_1" xmlns="http://www.w3.org/2000/svg" xmlns:xlink="http://www.w3.org/1999/xlink" x="0px" y="0px"
     width="431.494px" height="431.494px" viewBox="0 0 431.494 431.494" style="enable-background:new 0 0 431.494 431.494;"
     xml:space="preserve">
<g>
	<g>
		<path d="M141.634,409.029c-1.848-4.079-5.949-6.913-10.712-6.913c-6.489,0-11.75,5.262-11.75,11.749v5.877
			c0,6.49,5.261,11.752,11.75,11.752h5.875c6.489,0,11.751-5.262,11.751-11.752C148.547,414.974,145.707,410.873,141.634,409.029z"
        />
        <path d="M130.921,355.756c6.489,0,11.751-5.262,11.751-11.75v-13.971c0-6.492-5.262-11.75-11.751-11.75
			c-6.489,0-11.75,5.258-11.75,11.75v13.971C119.171,350.494,124.433,355.756,130.921,355.756z"/>
        <path d="M130.921,271.924c4.763,0,8.864-2.834,10.712-6.916c4.073-1.84,6.914-5.941,6.914-10.709
			c0-6.49-5.262-11.752-11.751-11.752h-5.875c-6.489,0-11.75,5.262-11.75,11.752v5.873
			C119.171,266.663,124.433,271.924,130.921,271.924z"/>
        <path d="M208.987,242.547h-12.031c-2.949,0-5.611,1.123-7.671,2.914V11.752c0-6.49-5.262-11.752-11.751-11.752H12.089
			C5.601,0,0.339,5.262,0.339,11.752v288.482c0,6.488,5.261,11.75,11.75,11.75h165.444c6.489,0,11.751-5.262,11.751-11.75v-37.103
			c2.06,1.792,4.722,2.916,7.671,2.916h12.031c6.489,0,11.751-5.262,11.751-11.75C220.738,247.809,215.476,242.547,208.987,242.547z
			 M165.783,288.482H23.841V23.502h141.942V288.482L165.783,288.482z"/>
        <path d="M281.178,242.547h-12.031c-6.49,0-11.75,5.262-11.75,11.752c0,6.488,5.26,11.75,11.75,11.75h12.03
			c6.489,0,11.751-5.262,11.751-11.75C292.929,247.809,287.667,242.547,281.178,242.547z"/>
        <path d="M353.37,242.547h-12.031c-6.49,0-11.752,5.262-11.752,11.752c0,6.488,5.262,11.75,11.752,11.75h12.031
			c6.489,0,11.75-5.262,11.75-11.75C365.12,247.809,359.859,242.547,353.37,242.547z"/>
        <path d="M419.404,242.547h-5.876c-6.488,0-11.75,5.262-11.75,11.752c0,4.768,2.834,8.869,6.914,10.709
			c1.842,4.082,5.942,6.916,10.712,6.916c6.489,0,11.751-5.261,11.751-11.752v-5.873
			C431.155,247.809,425.893,242.547,419.404,242.547z"/>
        <path d="M419.404,318.285c-6.489,0-11.75,5.258-11.75,11.75v13.971c0,6.488,5.261,11.75,11.75,11.75s11.751-5.262,11.751-11.75
			v-13.971C431.155,323.543,425.893,318.285,419.404,318.285z"/>
        <path d="M419.404,402.116c-4.77,0-8.87,2.834-10.712,6.913c-4.08,1.844-6.914,5.943-6.914,10.713
			c0,6.49,5.262,11.752,11.75,11.752h5.876c6.489,0,11.751-5.262,11.751-11.752v-5.877
			C431.155,407.378,425.893,402.116,419.404,402.116z"/>
        <path d="M208.987,407.992h-12.031c-6.489,0-11.75,5.262-11.75,11.75c0,6.49,5.261,11.752,11.75,11.752h12.031
			c6.489,0,11.751-5.262,11.751-11.752C220.738,413.254,215.476,407.992,208.987,407.992z"/>
        <path d="M353.37,407.992h-12.031c-6.49,0-11.752,5.262-11.752,11.75c0,6.49,5.262,11.752,11.752,11.752h12.031
			c6.489,0,11.75-5.262,11.75-11.752C365.12,413.254,359.859,407.992,353.37,407.992z"/>
        <path d="M281.178,407.992h-12.031c-6.49,0-11.75,5.262-11.75,11.75c0,6.49,5.26,11.752,11.75,11.752h12.03
			c6.489,0,11.751-5.262,11.751-11.752C292.929,413.254,287.667,407.992,281.178,407.992z"/>
        <path d="M401.6,139.963c-4.591-4.59-12.031-4.59-16.615,0l-25.178,25.178c-2.856-58.689-49.979-105.814-108.671-108.676
			l25.171-25.172c4.591-4.592,4.591-12.025,0-16.617c-4.584-4.588-12.03-4.588-16.616,0l-44.948,44.949
			c-2.203,2.203-3.442,5.193-3.442,8.31c0,3.113,1.239,6.103,3.442,8.307l44.944,44.942c2.294,2.297,5.301,3.442,8.308,3.442
			c3.006,0,6.019-1.146,8.308-3.442c4.592-4.588,4.592-12.025,0-16.613l-24.573-24.576c45.258,3.07,81.475,39.286,84.549,84.545
			l-24.574-24.576c-4.584-4.59-12.031-4.59-16.615,0c-4.59,4.592-4.59,12.025,0,16.617l44.949,44.948
			c2.202,2.204,5.191,3.442,8.308,3.442c3.117,0,6.104-1.238,8.309-3.442l44.949-44.948
			C406.19,151.988,406.19,144.555,401.6,139.963z"/>
	</g>
</g>
    <g>
</g>
    <g>
</g>
    <g>
</g>
    <g>
</g>
    <g>
</g>
    <g>
</g>
    <g>
</g>
    <g>
</g>
    <g>
</g>
    <g>
</g>
    <g>
</g>
    <g>
</g>
    <g>
</g>
    <g>
</g>
    <g>
</g>
</svg>