<svg width="50" height="50" viewBox="0 0 50 50" fill="none" xmlns="http://www.w3.org/2000/svg">
	<path d="M26.5625 7.8125H31.25C31.6732 7.8125 32.0719 7.89388 32.4463 8.05664C32.8206 8.2194 33.1543 8.44727 33.4473 8.74023C33.7402 9.0332 33.9681 9.36686 34.1309 9.74121C34.2936 10.1156 34.375 10.5143 34.375 10.9375V18.75H31.25V10.9375H26.5625V15.625H7.8125V10.9375H3.125V43.75H17.1875V46.875H3.125C2.70182 46.875 2.30306 46.7936 1.92871 46.6309C1.55436 46.4681 1.2207 46.2402 0.927734 45.9473C0.634766 45.6543 0.406901 45.3206 0.244141 44.9463C0.0813802 44.5719 0 44.1732 0 43.75V10.9375C0 10.5143 0.0813802 10.1156 0.244141 9.74121C0.406901 9.36686 0.634766 9.0332 0.927734 8.74023C1.2207 8.44727 1.55436 8.2194 1.92871 8.05664C2.30306 7.89388 2.70182 7.8125 3.125 7.8125H7.8125V6.25C7.8125 5.82682 7.89388 5.42806 8.05664 5.05371C8.2194 4.67936 8.44727 4.3457 8.74023 4.05273C9.0332 3.75977 9.36686 3.5319 9.74121 3.36914C10.1156 3.20638 10.5143 3.125 10.9375 3.125H23.4375C23.8607 3.125 24.2594 3.20638 24.6338 3.36914C25.0081 3.5319 25.3418 3.75977 25.6348 4.05273C25.9277 4.3457 26.1556 4.67936 26.3184 5.05371C26.4811 5.42806 26.5625 5.82682 26.5625 6.25V7.8125ZM10.9375 12.5H23.4375V6.25H10.9375V12.5ZM37.9395 26.7578C38.2975 27.4414 38.5742 28.1657 38.7695 28.9307C38.9648 29.6956 39.0625 30.4688 39.0625 31.25C39.0625 31.901 38.9974 32.5521 38.8672 33.2031C38.737 33.8542 38.5254 34.4727 38.2324 35.0586C37.972 35.6771 37.6465 36.2467 37.2559 36.7676C36.8652 37.2884 36.4258 37.7767 35.9375 38.2324V50L29.6875 47.0215L23.4375 50V38.2324C22.8516 37.7116 22.3389 37.1257 21.8994 36.4746C21.46 35.8236 21.11 35.1237 20.8496 34.375C20.5892 33.6589 20.4264 32.9102 20.3613 32.1289C20.2962 31.3477 20.3125 30.5664 20.4102 29.7852C20.5404 29.0039 20.7601 28.2552 21.0693 27.5391C21.3786 26.8229 21.7773 26.1556 22.2656 25.5371C22.7214 24.9186 23.2585 24.3652 23.877 23.877C24.4954 23.3887 25.1628 22.9818 25.8789 22.6562C26.5951 22.3307 27.3356 22.1029 28.1006 21.9727C28.8656 21.8424 29.6387 21.8099 30.4199 21.875C31.2012 21.9401 31.9661 22.1029 32.7148 22.3633C33.4635 22.6237 34.1634 22.9655 34.8145 23.3887C35.4655 23.8118 36.0514 24.3083 36.5723 24.8779C37.0931 25.4476 37.5488 26.0742 37.9395 26.7578ZM29.6875 43.6035L32.8125 45.0684V40.0879C31.8034 40.446 30.7617 40.625 29.6875 40.625C28.6133 40.625 27.5716 40.446 26.5625 40.0879V45.0684L29.6875 43.6035ZM26.2207 36.4258C26.7415 36.7839 27.2949 37.0524 27.8809 37.2314C28.4668 37.4105 29.069 37.5 29.6875 37.5C30.5013 37.5 31.2907 37.3372 32.0557 37.0117C32.8206 36.6862 33.4961 36.2305 34.082 35.6445C34.668 35.0586 35.1237 34.3831 35.4492 33.6182C35.7747 32.8532 35.9375 32.0638 35.9375 31.25C35.9375 30.6315 35.848 30.0293 35.6689 29.4434C35.4899 28.8574 35.2214 28.304 34.8633 27.7832C34.5378 27.2624 34.139 26.8066 33.667 26.416C33.195 26.0254 32.666 25.7161 32.0801 25.4883C31.4941 25.2279 30.9001 25.0732 30.2979 25.0244C29.6956 24.9756 29.0853 25 28.4668 25.0977C27.8483 25.2279 27.2705 25.4395 26.7334 25.7324C26.1963 26.0254 25.6999 26.3997 25.2441 26.8555C24.821 27.2786 24.4629 27.7588 24.1699 28.2959C23.877 28.833 23.6654 29.4108 23.5352 30.0293C23.4375 30.6478 23.4131 31.2581 23.4619 31.8604C23.5107 32.4626 23.6654 33.0566 23.9258 33.6426C24.1536 34.2285 24.4629 34.7575 24.8535 35.2295C25.2441 35.7015 25.6999 36.1003 26.2207 36.4258Z" fill="url(#paint0_linear_111_65330)"/>
	<defs>
		<linearGradient id="paint0_linear_111_65330" x1="3.61844e-07" y1="3.125" x2="49.9384" y2="29.0511" gradientUnits="userSpaceOnUse">
			<stop stop-color="white"/>
			<stop offset="1" stop-color="#79D0D0"/>
		</linearGradient>
	</defs>
</svg>