<?xml version="1.0" encoding="utf-8"?>
<!-- Generator: Adobe Illustrator 20.1.0, SVG Export Plug-In . SVG Version: 6.00 Build 0)  -->
<svg version="1.1" id="Layer_1" xmlns="http://www.w3.org/2000/svg" xmlns:xlink="http://www.w3.org/1999/xlink" x="0px" y="0px"
	 viewBox="0 0 1474 942.1" style="enable-background:new 0 0 1474 942.1;" xml:space="preserve">
<style type="text/css">
	.st0{fill:#007BFF;}
</style>
<path d="M1296.6,4804.3c6.2,0.8,12.5,1.7,18.7,2.5c-0.1,0.6-0.1,1.1-0.2,1.7c-6.3-0.6-12.5-1.3-18.8-1.9
	C1296.5,4805.7,1296.6,4805,1296.6,4804.3z"/>
<g>
	<path class="st0" d="M1329.2,77c39.6,0,71.9,32.3,71.9,71.9v638.5c0,39.6-32.3,71.9-71.9,71.9H140.9c-39.6,0-71.9-32.3-71.9-71.9
		V148.9c0-39.6,32.3-71.9,71.9-71.9H1329.2 M1329.2,20H140.9C69.7,20,12,77.7,12,148.9v638.5c0,71.2,57.7,128.9,128.9,128.9h1188.3
		c71.2,0,128.9-57.7,128.9-128.9V148.9C1458.1,77.7,1400.4,20,1329.2,20L1329.2,20z"/>
</g>
<g>
	<path class="st0" d="M146.2,297.2l128.5-55.8v-7.3L146.2,178v-25.2l167.3,73.4V249l-167.3,73.4V297.2z"/>
	<path class="st0" d="M342,375.8v-21.2h168.3v21.2H342z"/>
</g>
</svg>
