<svg width="40" height="48" viewBox="0 0 40 48" fill="none" xmlns="http://www.w3.org/2000/svg">
	<path d="M27.0625 5.25H31.75C32.1732 5.25 32.5719 5.33138 32.9463 5.49414C33.3206 5.6569 33.6543 5.88477 33.9473 6.17773C34.2402 6.4707 34.4681 6.80436 34.6309 7.17871C34.7936 7.55306 34.875 7.95182 34.875 8.375V16.1875H31.75V8.375H27.0625V13.0625H8.3125V8.375H3.625V41.1875H17.6875V44.3125H3.625C3.20182 44.3125 2.80306 44.2311 2.42871 44.0684C2.05436 43.9056 1.7207 43.6777 1.42773 43.3848C1.13477 43.0918 0.906901 42.7581 0.744141 42.3838C0.58138 42.0094 0.5 41.6107 0.5 41.1875V8.375C0.5 7.95182 0.58138 7.55306 0.744141 7.17871C0.906901 6.80436 1.13477 6.4707 1.42773 6.17773C1.7207 5.88477 2.05436 5.6569 2.42871 5.49414C2.80306 5.33138 3.20182 5.25 3.625 5.25H8.3125V3.6875C8.3125 3.26432 8.39388 2.86556 8.55664 2.49121C8.7194 2.11686 8.94727 1.7832 9.24023 1.49023C9.5332 1.19727 9.86686 0.969401 10.2412 0.806641C10.6156 0.64388 11.0143 0.5625 11.4375 0.5625H23.9375C24.3607 0.5625 24.7594 0.64388 25.1338 0.806641C25.5081 0.969401 25.8418 1.19727 26.1348 1.49023C26.4277 1.7832 26.6556 2.11686 26.8184 2.49121C26.9811 2.86556 27.0625 3.26432 27.0625 3.6875V5.25ZM11.4375 9.9375H23.9375V3.6875H11.4375V9.9375ZM38.4395 24.1953C38.7975 24.8789 39.0742 25.6032 39.2695 26.3682C39.4648 27.1331 39.5625 27.9062 39.5625 28.6875C39.5625 29.3385 39.4974 29.9896 39.3672 30.6406C39.237 31.2917 39.0254 31.9102 38.7324 32.4961C38.472 33.1146 38.1465 33.6842 37.7559 34.2051C37.3652 34.7259 36.9258 35.2142 36.4375 35.6699V47.4375L30.1875 44.459L23.9375 47.4375V35.6699C23.3516 35.1491 22.8389 34.5632 22.3994 33.9121C21.96 33.2611 21.61 32.5612 21.3496 31.8125C21.0892 31.0964 20.9264 30.3477 20.8613 29.5664C20.7962 28.7852 20.8125 28.0039 20.9102 27.2227C21.0404 26.4414 21.2601 25.6927 21.5693 24.9766C21.8786 24.2604 22.2773 23.5931 22.7656 22.9746C23.2214 22.3561 23.7585 21.8027 24.377 21.3145C24.9954 20.8262 25.6628 20.4193 26.3789 20.0938C27.0951 19.7682 27.8356 19.5404 28.6006 19.4102C29.3656 19.2799 30.1387 19.2474 30.9199 19.3125C31.7012 19.3776 32.4661 19.5404 33.2148 19.8008C33.9635 20.0612 34.6634 20.403 35.3145 20.8262C35.9655 21.2493 36.5514 21.7458 37.0723 22.3154C37.5931 22.8851 38.0488 23.5117 38.4395 24.1953ZM30.1875 41.041L33.3125 42.5059V37.5254C32.3034 37.8835 31.2617 38.0625 30.1875 38.0625C29.1133 38.0625 28.0716 37.8835 27.0625 37.5254V42.5059L30.1875 41.041ZM26.7207 33.8633C27.2415 34.2214 27.7949 34.4899 28.3809 34.6689C28.9668 34.848 29.569 34.9375 30.1875 34.9375C31.0013 34.9375 31.7907 34.7747 32.5557 34.4492C33.3206 34.1237 33.9961 33.668 34.582 33.082C35.168 32.4961 35.6237 31.8206 35.9492 31.0557C36.2747 30.2907 36.4375 29.5013 36.4375 28.6875C36.4375 28.069 36.348 27.4668 36.1689 26.8809C35.9899 26.2949 35.7214 25.7415 35.3633 25.2207C35.0378 24.6999 34.639 24.2441 34.167 23.8535C33.695 23.4629 33.166 23.1536 32.5801 22.9258C31.9941 22.6654 31.4001 22.5107 30.7979 22.4619C30.1956 22.4131 29.5853 22.4375 28.9668 22.5352C28.3483 22.6654 27.7705 22.877 27.2334 23.1699C26.6963 23.4629 26.1999 23.8372 25.7441 24.293C25.321 24.7161 24.9629 25.1963 24.6699 25.7334C24.377 26.2705 24.1654 26.8483 24.0352 27.4668C23.9375 28.0853 23.9131 28.6956 23.9619 29.2979C24.0107 29.9001 24.1654 30.4941 24.4258 31.0801C24.6536 31.666 24.9629 32.195 25.3535 32.667C25.7441 33.139 26.1999 33.5378 26.7207 33.8633Z" fill="url(#paint0_linear_111_64973)"/>
	<defs>
		<linearGradient id="paint0_linear_111_64973" x1="0.5" y1="0.562499" x2="50.4384" y2="26.4886" gradientUnits="userSpaceOnUse">
			<stop stop-color="white"/>
			<stop offset="1" stop-color="#79D0D0"/>
		</linearGradient>
	</defs>
</svg>