<?xml version="1.0" encoding="UTF-8" standalone="no"?>
<!-- Created with Inkscape (http://www.inkscape.org/) -->

<svg
   xmlns:dc="http://purl.org/dc/elements/1.1/"
   xmlns:cc="http://creativecommons.org/ns#"
   xmlns:rdf="http://www.w3.org/1999/02/22-rdf-syntax-ns#"
   xmlns:svg="http://www.w3.org/2000/svg"
   xmlns="http://www.w3.org/2000/svg"
   xmlns:xlink="http://www.w3.org/1999/xlink"
   xmlns:sodipodi="http://sodipodi.sourceforge.net/DTD/sodipodi-0.dtd"
   xmlns:inkscape="http://www.inkscape.org/namespaces/inkscape"
   width="232.78"
   height="232.75"
   id="svg2"
   version="1.1"
   inkscape:version="0.47 r22583"
   sodipodi:docname="UE.svg">
  <defs
     id="defs4">
    <linearGradient
       inkscape:collect="always"
       id="linearGradient3976">
      <stop
         style="stop-color:#f0c918;stop-opacity:0"
         offset="0"
         id="stop3978" />
      <stop
         style="stop-color:#ffffff;stop-opacity:1"
         offset="1"
         id="stop3980" />
    </linearGradient>
    <linearGradient
       id="linearGradient3917"
       inkscape:collect="always">
      <stop
         id="stop3919"
         offset="0"
         style="stop-color:#393939;stop-opacity:1" />
      <stop
         id="stop3921"
         offset="1"
         style="stop-color:#101010;stop-opacity:1" />
    </linearGradient>
    <linearGradient
       id="linearGradient3909"
       inkscape:collect="always">
      <stop
         id="stop3911"
         offset="0"
         style="stop-color:#818181;stop-opacity:1" />
      <stop
         id="stop3913"
         offset="1"
         style="stop-color:#1b1b1b;stop-opacity:1" />
    </linearGradient>
    <linearGradient
       inkscape:collect="always"
       id="linearGradient3899">
      <stop
         style="stop-color:#a7a7a7;stop-opacity:1"
         offset="0"
         id="stop3901" />
      <stop
         style="stop-color:#414141;stop-opacity:1"
         offset="1"
         id="stop3903" />
    </linearGradient>
    <linearGradient
       inkscape:collect="always"
       id="linearGradient3891">
      <stop
         style="stop-color:#b5b5b5;stop-opacity:1"
         offset="0"
         id="stop3893" />
      <stop
         style="stop-color:#585858;stop-opacity:1"
         offset="1"
         id="stop3895" />
    </linearGradient>
    <inkscape:perspective
       sodipodi:type="inkscape:persp3d"
       inkscape:vp_x="0 : 526.18109 : 1"
       inkscape:vp_y="0 : 1000 : 0"
       inkscape:vp_z="744.09448 : 526.18109 : 1"
       inkscape:persp3d-origin="372.04724 : 350.78739 : 1"
       id="perspective10" />
    <inkscape:perspective
       id="perspective2824"
       inkscape:persp3d-origin="0.5 : 0.33333333 : 1"
       inkscape:vp_z="1 : 0.5 : 1"
       inkscape:vp_y="0 : 1000 : 0"
       inkscape:vp_x="0 : 0.5 : 1"
       sodipodi:type="inkscape:persp3d" />
    <inkscape:perspective
       id="perspective3612"
       inkscape:persp3d-origin="0.5 : 0.33333333 : 1"
       inkscape:vp_z="1 : 0.5 : 1"
       inkscape:vp_y="0 : 1000 : 0"
       inkscape:vp_x="0 : 0.5 : 1"
       sodipodi:type="inkscape:persp3d" />
    <inkscape:perspective
       id="perspective3634"
       inkscape:persp3d-origin="0.5 : 0.33333333 : 1"
       inkscape:vp_z="1 : 0.5 : 1"
       inkscape:vp_y="0 : 1000 : 0"
       inkscape:vp_x="0 : 0.5 : 1"
       sodipodi:type="inkscape:persp3d" />
    <inkscape:perspective
       id="perspective3660"
       inkscape:persp3d-origin="0.5 : 0.33333333 : 1"
       inkscape:vp_z="1 : 0.5 : 1"
       inkscape:vp_y="0 : 1000 : 0"
       inkscape:vp_x="0 : 0.5 : 1"
       sodipodi:type="inkscape:persp3d" />
    <inkscape:perspective
       id="perspective3686"
       inkscape:persp3d-origin="0.5 : 0.33333333 : 1"
       inkscape:vp_z="1 : 0.5 : 1"
       inkscape:vp_y="0 : 1000 : 0"
       inkscape:vp_x="0 : 0.5 : 1"
       sodipodi:type="inkscape:persp3d" />
    <inkscape:perspective
       id="perspective3739"
       inkscape:persp3d-origin="0.5 : 0.33333333 : 1"
       inkscape:vp_z="1 : 0.5 : 1"
       inkscape:vp_y="0 : 1000 : 0"
       inkscape:vp_x="0 : 0.5 : 1"
       sodipodi:type="inkscape:persp3d" />
    <inkscape:perspective
       id="perspective3764"
       inkscape:persp3d-origin="0.5 : 0.33333333 : 1"
       inkscape:vp_z="1 : 0.5 : 1"
       inkscape:vp_y="0 : 1000 : 0"
       inkscape:vp_x="0 : 0.5 : 1"
       sodipodi:type="inkscape:persp3d" />
    <inkscape:perspective
       id="perspective3786"
       inkscape:persp3d-origin="0.5 : 0.33333333 : 1"
       inkscape:vp_z="1 : 0.5 : 1"
       inkscape:vp_y="0 : 1000 : 0"
       inkscape:vp_x="0 : 0.5 : 1"
       sodipodi:type="inkscape:persp3d" />
    <inkscape:perspective
       id="perspective3786-4"
       inkscape:persp3d-origin="0.5 : 0.33333333 : 1"
       inkscape:vp_z="1 : 0.5 : 1"
       inkscape:vp_y="0 : 1000 : 0"
       inkscape:vp_x="0 : 0.5 : 1"
       sodipodi:type="inkscape:persp3d" />
    <inkscape:perspective
       id="perspective3822"
       inkscape:persp3d-origin="0.5 : 0.33333333 : 1"
       inkscape:vp_z="1 : 0.5 : 1"
       inkscape:vp_y="0 : 1000 : 0"
       inkscape:vp_x="0 : 0.5 : 1"
       sodipodi:type="inkscape:persp3d" />
    <inkscape:perspective
       id="perspective3847"
       inkscape:persp3d-origin="0.5 : 0.33333333 : 1"
       inkscape:vp_z="1 : 0.5 : 1"
       inkscape:vp_y="0 : 1000 : 0"
       inkscape:vp_x="0 : 0.5 : 1"
       sodipodi:type="inkscape:persp3d" />
    <inkscape:perspective
       id="perspective3873"
       inkscape:persp3d-origin="0.5 : 0.33333333 : 1"
       inkscape:vp_z="1 : 0.5 : 1"
       inkscape:vp_y="0 : 1000 : 0"
       inkscape:vp_x="0 : 0.5 : 1"
       sodipodi:type="inkscape:persp3d" />
    <inkscape:perspective
       id="perspective3994"
       inkscape:persp3d-origin="0.5 : 0.33333333 : 1"
       inkscape:vp_z="1 : 0.5 : 1"
       inkscape:vp_y="0 : 1000 : 0"
       inkscape:vp_x="0 : 0.5 : 1"
       sodipodi:type="inkscape:persp3d" />
    <filter
       inkscape:collect="always"
       id="filter4037"
       x="-0.072904184"
       width="1.1458085"
       y="-0.14051457"
       height="1.2810291"
       color-interpolation-filters="sRGB">
      <feGaussianBlur
         inkscape:collect="always"
         stdDeviation="5.6967197"
         id="feGaussianBlur4039" />
    </filter>
    <linearGradient
       inkscape:collect="always"
       xlink:href="#linearGradient3976"
       id="linearGradient4058"
       gradientUnits="userSpaceOnUse"
       x1="286.78571"
       y1="396.64789"
       x2="286.78571"
       y2="268.79077" />
    <linearGradient
       inkscape:collect="always"
       xlink:href="#linearGradient3899"
       id="linearGradient4060"
       gradientUnits="userSpaceOnUse"
       x1="276.7818"
       y1="323.53711"
       x2="261.7334"
       y2="360.34854" />
    <radialGradient
       inkscape:collect="always"
       xlink:href="#linearGradient3917"
       id="radialGradient4062"
       gradientUnits="userSpaceOnUse"
       gradientTransform="matrix(1.2104448,-0.71637101,0.49466281,0.83582882,-246.7541,236.11171)"
       cx="248.49753"
       cy="393.11441"
       fx="248.49753"
       fy="393.11441"
       r="32.637501" />
    <linearGradient
       inkscape:collect="always"
       xlink:href="#linearGradient3891"
       id="linearGradient4064"
       gradientUnits="userSpaceOnUse"
       x1="234.35539"
       y1="264.74335"
       x2="222.31793"
       y2="301.11569" />
    <radialGradient
       inkscape:collect="always"
       xlink:href="#linearGradient3909"
       id="radialGradient4066"
       gradientUnits="userSpaceOnUse"
       gradientTransform="matrix(1.3530345,-0.67089446,0.43881721,0.88499295,-221.18287,169.00072)"
       cx="206.07112"
       cy="338.25623"
       fx="206.07112"
       fy="338.25623"
       r="32.010334" />
  </defs>
  <sodipodi:namedview
     id="base"
     pagecolor="#ffffff"
     bordercolor="#666666"
     borderopacity="1.0"
     inkscape:pageopacity="0.0"
     inkscape:pageshadow="2"
     inkscape:zoom="1.4"
     inkscape:cx="94.086543"
     inkscape:cy="108.05746"
     inkscape:document-units="px"
     inkscape:current-layer="layer1"
     showgrid="false"
     showguides="true"
     inkscape:guide-bbox="true"
     inkscape:window-width="1280"
     inkscape:window-height="967"
     inkscape:window-x="1280"
     inkscape:window-y="30"
     inkscape:window-maximized="1" />
  <metadata
     id="metadata7">
    <rdf:RDF>
      <cc:Work
         rdf:about="">
        <dc:format>image/svg+xml</dc:format>
        <dc:type
           rdf:resource="http://purl.org/dc/dcmitype/StillImage" />
        <dc:title></dc:title>
      </cc:Work>
    </rdf:RDF>
  </metadata>
  <g
     inkscape:label="Capa 1"
     inkscape:groupmode="layer"
     id="layer1"
     transform="translate(-59.144991,-56.345394)">
    <g
       id="g4041"
       transform="translate(53.428275,6.5702185)">
      <g
         transform="translate(-151.13603,-258.67097)"
         id="g3709">
        <path
           sodipodi:type="arc"
           style="color:#000000;fill:#7c7c7c;fill-opacity:1;fill-rule:nonzero;stroke:none;stroke-width:2.36614537;marker:none;visibility:visible;display:inline;overflow:visible;enable-background:accumulate"
           id="path2830"
           sodipodi:cx="135.36044"
           sodipodi:cy="114.94062"
           sodipodi:rx="107.07617"
           sodipodi:ry="107.07617"
           d="m 242.43661,114.94062 c 0,59.13654 -47.93963,107.07617 -107.07617,107.07617 -59.136534,0 -107.076169,-47.93963 -107.076169,-107.07617 0,-59.136536 47.939635,-107.0761715 107.076169,-107.0761715 59.13654,0 107.07617,47.9396355 107.07617,107.0761715 z"
           transform="matrix(1.0565708,0,0,1.0565708,130.22484,303.113)" />
        <path
           style="color:#000000;fill:#3f3f3f;fill-opacity:1;fill-rule:nonzero;stroke:none;stroke-width:2.36614537;marker:none;visibility:visible;display:inline;overflow:visible;enable-background:accumulate"
           d="m 382.1022,455.70238 c -16.92472,60.14605 -79.40292,95.18386 -139.54897,78.25913 -40.7244,-11.45959 -71.65222,-44.68337 -80.17121,-86.12278 l 109.30089,-29.85599 110.41929,37.71964 z"
           id="path2830-6"
           sodipodi:nodetypes="csccc" />
      </g>
      <path
         transform="matrix(0.95285451,0,0,0.95285451,-6.8721,56.628481)"
         d="m 242.43661,114.94062 c 0,59.13654 -47.93963,107.07617 -107.07617,107.07617 -59.136534,0 -107.076169,-47.93963 -107.076169,-107.07617 0,-59.136536 47.939635,-107.0761715 107.076169,-107.0761715 59.13654,0 107.07617,47.9396355 107.07617,107.0761715 z"
         sodipodi:ry="107.07617"
         sodipodi:rx="107.07617"
         sodipodi:cy="114.94062"
         sodipodi:cx="135.36044"
         id="path2830-5"
         style="color:#000000;fill:#f0c918;fill-opacity:1;fill-rule:nonzero;stroke:none;stroke-width:2.62369537;marker:none;visibility:visible;display:inline;overflow:visible;enable-background:accumulate"
         sodipodi:type="arc" />
      <path
         id="path2830-9"
         d="m 122.12322,51.776391 c -63.15749,0 -114.4068,51.216299 -114.4068,114.373789 0,63.15749 51.24931,114.37378 114.4068,114.37378 63.15749,0 114.37379,-51.21629 114.37379,-114.37378 0,-63.15749 -51.2163,-114.373789 -114.37379,-114.373789 z m 0,2.50935 c 61.80639,0 111.86444,50.058049 111.86444,111.864439 0,61.80639 -50.05805,111.89745 -111.86444,111.89745 -61.80639,0 -111.89745,-50.09106 -111.89745,-111.89745 0,-61.80639 50.09106,-111.864439 111.89745,-111.864439 z"
         style="font-size:medium;font-style:normal;font-variant:normal;font-weight:normal;font-stretch:normal;text-indent:0;text-align:start;text-decoration:none;line-height:normal;letter-spacing:normal;word-spacing:normal;text-transform:none;direction:ltr;block-progression:tb;writing-mode:lr-tb;text-anchor:start;color:#000000;fill:#000000;fill-opacity:1;fill-rule:nonzero;stroke:none;stroke-width:2.36614537;marker:none;visibility:visible;display:inline;overflow:visible;enable-background:accumulate;font-family:Andale Mono;-inkscape-font-specification:Andale Mono" />
      <path
         id="path2830-5-7"
         d="m 122.1216,62.869681 c -57.02407,0 -103.29538,46.241539 -103.29538,103.265609 0,57.02406 46.27131,103.29538 103.29538,103.29538 57.02406,0 103.26561,-46.27132 103.26561,-103.29538 0,-57.02407 -46.24155,-103.265609 -103.26561,-103.265609 z m 0,2.50124 c 55.67296,0 100.76436,45.091399 100.76436,100.764369 0,55.67296 -45.0914,100.79414 -100.76436,100.79414 -55.67297,0 -100.79414,-45.12118 -100.79414,-100.79414 0,-55.67297 45.12117,-100.764369 100.79414,-100.764369 z"
         style="font-size:medium;font-style:normal;font-variant:normal;font-weight:normal;font-stretch:normal;text-indent:0;text-align:start;text-decoration:none;line-height:normal;letter-spacing:normal;word-spacing:normal;text-transform:none;direction:ltr;block-progression:tb;writing-mode:lr-tb;text-anchor:start;color:#000000;fill:#000000;fill-opacity:1;fill-rule:nonzero;stroke:none;stroke-width:2.62369537;marker:none;visibility:visible;display:inline;overflow:visible;enable-background:accumulate;font-family:Andale Mono;-inkscape-font-specification:Andale Mono" />
      <path
         transform="matrix(1.0002154,0,0,0.9611381,-165.06177,-187.42703)"
         d="m 359.28571,332.71933 c 0,35.30677 -32.45936,63.92857 -72.5,63.92857 -40.04065,0 -72.5,-28.6218 -72.5,-63.92857 0,-35.30677 32.45935,-63.92857 72.5,-63.92857 40.04064,0 72.5,28.6218 72.5,63.92857 z"
         sodipodi:ry="63.92857"
         sodipodi:rx="72.5"
         sodipodi:cy="332.71933"
         sodipodi:cx="286.78571"
         id="path3974"
         style="color:#000000;fill:url(#linearGradient4058);fill-opacity:1;fill-rule:nonzero;stroke:none;stroke-width:1.60000002;marker:none;visibility:visible;display:inline;overflow:visible;enable-background:accumulate"
         sodipodi:type="arc" />
      <g
         transform="translate(-118.21428,-164.64286)"
         id="g3923">
        <path
           id="path3727-1"
           style="font-size:40px;font-style:italic;font-weight:bold;fill:url(#linearGradient4060);fill-opacity:1;stroke:none;font-family:Bitstream Vera Sans;-inkscape-font-specification:Andale Mono Bold Italic"
           d="m 252.27649,324.17645 50.84595,0 -4.97497,13.46924 -31.98691,0 -5.81049,14.98586 28.48399,0.12627 -4.77144,12.83789 -30.07648,0 -6.27226,16.44555 31.7529,-0.12627 -6.01342,14.60564 -53.10902,0 31.93215,-72.34418"
           sodipodi:nodetypes="ccccccccccccc" />
        <path
           style="font-size:40px;font-style:italic;font-weight:bold;fill:url(#radialGradient4062);fill-opacity:1;stroke:#000000;stroke-width:0.40000001;stroke-miterlimit:4;stroke-dasharray:none;font-family:Bitstream Vera Sans;-inkscape-font-specification:Andale Mono Bold Italic"
           d="m 260.3441,359.59236 c -8.57469,-0.0101 -16.99863,0.92228 -24.84375,2.59375 l -15.15625,34.34375 53.09375,0 6.03125,-14.625 -31.75,0.125 6.28125,-16.4375 30.0625,0 1.15625,-3.125 c -8.1546,-1.97584 -16.58397,-2.86527 -24.875,-2.875 z"
           id="path3727" />
        <path
           id="path3725-7"
           style="font-size:40px;font-style:italic;font-weight:bold;fill:url(#linearGradient4064);fill-opacity:1;stroke:none;font-family:Bitstream Vera Sans;-inkscape-font-specification:Andale Mono Bold Italic"
           d="m 204.37402,264.92191 20.48672,0.17857 -18.67534,41.96112 c -0.71414,1.55952 -1.30508,2.94033 -1.77284,4.14241 -0.43731,1.20213 -0.77509,2.25802 -1.01356,3.16771 -0.83475,3.18397 -0.66705,5.57195 0.50304,7.1639 1.20907,1.55952 2.24035,2.07141 3.89738,2.16068 4.2676,0.2299 5.74479,-0.46352 8.69876,-2.99771 2.9624,-2.56662 5.43235,-7.86984 8.12415,-13.94539 l 18.68812,-42.00986 19.95102,0.17857 -18.33099,43.43843 c -4.97368,13.40008 -9.71232,17.43129 -17.43021,22.80792 -6.60753,3.73699 -15.6954,6.31979 -26.01361,6.31979 -8.08978,0 -13.75982,-1.83566 -17.01011,-5.50698 -3.24181,-3.70377 -3.94281,-9.0645 -2.10302,-16.08224 0.30661,-1.16959 0.72364,-2.46915 1.25106,-3.89872 0.53591,-1.462 1.22304,-3.15144 2.06139,-5.06834 l 18.68811,-42.00986"
           sodipodi:nodetypes="ccccscsccccccscsscc" />
        <path
           style="font-size:40px;font-style:italic;font-weight:bold;fill:url(#radialGradient4066);fill-opacity:1;stroke:#000000;stroke-width:0.30000001;stroke-miterlimit:4;stroke-dasharray:none;font-family:Bitstream Vera Sans;-inkscape-font-specification:Andale Mono Bold Italic"
           d="m 202.56285,301.93611 c -4.81767,0.0566 -9.82373,0.3439 -15,0.78125 l -1.875,4.21875 c -0.83835,1.9169 -1.52659,3.6005 -2.0625,5.0625 -0.52742,1.42957 -0.94339,2.73666 -1.25,3.90625 -1.83979,7.01774 -1.14806,12.35873 2.09375,16.0625 3.25029,3.67132 8.94147,5.53125 17.03125,5.53125 10.31821,0 19.39247,-2.60676 26,-6.34375 7.71789,-5.37663 12.46382,-9.38117 17.4375,-22.78125 l 0.15625,-0.34375 c -5.84469,-2.07163 -12.18726,-3.58131 -19,-4.59375 l -1.46875,3.3125 c -2.6918,6.07555 -5.1626,11.37088 -8.125,13.9375 -2.95397,2.53419 -4.4199,3.2299 -8.6875,3 -1.65703,-0.0893 -2.69718,-0.59673 -3.90625,-2.15625 -1.17009,-1.59195 -1.33475,-3.97228 -0.5,-7.15625 0.23847,-0.90969 0.56269,-1.95412 1,-3.15625 0.46776,-1.20208 1.06711,-2.59673 1.78125,-4.15625 l 2.28125,-5.09375 c -1.94013,-0.043 -3.9039,-0.0548 -5.90625,-0.0312 z"
           id="path3725" />
        <path
           style="font-size:40px;font-style:italic;font-variant:normal;font-weight:bold;font-stretch:normal;text-indent:0;text-align:start;text-decoration:none;line-height:normal;letter-spacing:normal;word-spacing:normal;text-transform:none;direction:ltr;block-progression:tb;writing-mode:lr-tb;text-anchor:start;color:#000000;fill:#000000;fill-opacity:1;fill-rule:nonzero;stroke:none;stroke-width:1.60000002;marker:none;visibility:visible;display:inline;overflow:visible;enable-background:accumulate;font-family:Bitstream Vera Sans;-inkscape-font-specification:Andale Mono Bold Italic"
           d="m 251.5386,323.94257 -0.50508,0.008 -0.21367,0.4609 -31.9375,72.34375 -0.5,1.125 1.21875,0 53.125,0 0.53125,0 0.1875,-0.5 6.03125,-14.59375 0.4375,-1.125 -1.1875,0.0312 -30.59375,0.125 5.6875,-14.84375 29.5,0 0.5625,0 0.1875,-0.53125 4.78125,-12.84375 0.40625,-1.0625 -1.15625,0 -27.34375,-0.125 5.21875,-13.40625 31.4375,0 0.5625,0 0.1875,-0.53125 4.96875,-13.46875 0.40625,-1.0625 -1.15625,0 -50.84375,0 0,5e-5 z m 0.53125,1.59375 49.15625,0 -4.375,11.875 -31.4375,0 -0.53125,0 -0.1875,0.5 -5.8125,15 -0.4375,1.09375 1.15625,0 27.34375,0.125 -4.1875,11.21875 -29.5,0 -0.5625,0 -0.1875,0.53125 -6.28125,16.4375 -0.40625,1.09375 1.15625,0 30.5625,-0.125 -5.34375,13 -51.34375,0 31.21875,-70.75 z"
           id="path3727-1-8"
           sodipodi:nodetypes="ccccccccccccccccccccccccccccccccccccccccccccccccccc" />
        <path
           style="font-size:40px;font-style:italic;font-variant:normal;font-weight:bold;font-stretch:normal;text-indent:0;text-align:start;text-decoration:none;line-height:normal;letter-spacing:normal;word-spacing:normal;text-transform:none;direction:ltr;block-progression:tb;writing-mode:lr-tb;text-anchor:start;color:#000000;fill:#000000;fill-opacity:1;fill-rule:nonzero;stroke:none;stroke-width:1.60000002;marker:none;visibility:visible;display:inline;overflow:visible;enable-background:accumulate;font-family:Bitstream Vera Sans;-inkscape-font-specification:Andale Mono Bold Italic"
           d="m 242.98739,263.774 -0.21875,0.46875 -18.6875,42 c -2.68823,6.06748 -5.18972,11.33389 -7.90625,13.6875 -2.90868,2.49533 -3.98484,3.00597 -8.15625,2.78125 -1.51079,-0.0814 -2.15521,-0.39133 -3.28125,-1.84375 -0.95216,-1.3152 -1.17383,-3.42181 -0.375,-6.46875 0.22788,-0.8693 0.57466,-1.89099 1,-3.0625 0.004,-0.0108 -0.004,-0.0204 0,-0.0312 0.4589,-1.17759 1.04528,-2.55481 1.75,-4.09375 l 18.65625,-41.9688 0.5,-1.09375 -1.21875,-0.0312 -20.46875,-0.15625 -0.53664,0.008 -0.21336,0.4609 -18.6875,42 c -0.84319,1.92797 -1.55033,3.64251 -2.09375,5.125 -0.53452,1.4488 -0.93513,2.76765 -1.25,3.96875 -1.87778,7.16263 -1.20613,12.86387 2.25,16.8125 l 0.0312,0 c 3.46864,3.91796 9.38295,5.78125 17.59375,5.78125 10.45171,0 19.66261,-2.62353 26.40625,-6.4375 l 0.0312,0 0.0312,-0.0312 c 7.73984,-5.39193 12.7095,-9.67421 17.71875,-23.15625 0.004,-0.0103 -0.004,-0.0209 0,-0.0312 l 18.3125,-43.40625 0.46875,-1.09375 -1.1875,0 -19.9375,-0.1875 -0.53125,0 1.5e-4,-1.5e-4 z m 1.03125,1.59375 18.21875,0.1875 -17.84375,42.3125 -0.0312,0.0312 c -4.9212,13.25869 -9.40945,17.07139 -17.0625,22.40625 -0.0202,0.0141 -0.0422,0.0171 -0.0625,0.0312 -6.46694,3.64256 -15.40809,6.1875 -25.5625,6.1875 -7.96876,0 -13.37432,-1.82532 -16.40625,-5.25 -3.02749,-3.45891 -3.73931,-8.4709 -1.9375,-15.34375 0.29835,-1.13808 0.69842,-2.40216 1.21875,-3.8125 0.5284,-1.44151 1.22899,-3.12542 2.0625,-5.03125 l 18.46875,-41.53115 18.75,0.1875 -18.1875,40.8125 c -0.71901,1.57015 -1.306,2.96616 -1.78125,4.1875 l 0,0.0312 c -0.44352,1.21919 -0.81555,2.2767 -1.0625,3.21875 -0.8663,3.30431 -0.71834,5.97357 0.65625,7.84375 l 0,0.0312 c 1.2921,1.66662 2.69673,2.3716 4.5,2.46875 4.36378,0.23508 6.25073,-0.61445 9.25,-3.1875 l 0,-0.0312 c 3.20826,-2.77963 5.64837,-8.13513 8.34375,-14.21875 l 18.46875,-41.5312 -5e-5,0 z"
           id="path3725-7-6"
           sodipodi:nodetypes="ccccscsssccccccccssccscccscccccccccccscscssccccccsccsccccc" />
      </g>
      <path
         sodipodi:nodetypes="csccc"
         id="path2830-5-8"
         d="m 218.76777,171.3367 c 0,51.78652 -41.98126,93.76779 -93.76778,93.76779 -51.786509,0 -93.767776,-41.98127 -93.767776,-93.76779 11.816224,-14.36847 34.902126,68.26916 93.111326,74.94164 72.79313,-1.96937 85.23383,-97.84405 94.42423,-74.94164 z"
         style="opacity:0.5;color:#000000;fill:#faedb1;fill-opacity:1;fill-rule:nonzero;stroke:none;stroke-width:2.62369537;marker:none;visibility:visible;display:inline;overflow:visible;filter:url(#filter4037);enable-background:accumulate" />
    </g>
  </g>
</svg>
