<svg width="51" height="55" viewBox="0 0 51 55" fill="none" xmlns="http://www.w3.org/2000/svg">
    <g clip-path="url(#clip0_111_65568)">
        <path fill-rule="evenodd" clip-rule="evenodd" d="M24.58 3.125C25.5078 3.125 26.26 3.87716 26.26 4.805V7.12665L37.4775 12.7353L37.5982 12.7956C39.2434 13.6181 40.6457 14.3192 41.6216 15.0003C42.6112 15.691 43.6514 16.6938 43.6514 18.245C43.6514 19.7961 42.6112 20.7989 41.6216 21.4896C40.6458 22.1707 39.2434 22.8718 37.5982 23.6943L37.5982 23.6943L37.4775 23.7546L26.26 29.3633V32.2661C31.9257 32.4094 37.0809 33.2729 40.9742 34.6355C43.1039 35.3809 44.9471 36.3071 46.2907 37.4189C47.6237 38.5219 48.66 39.982 48.66 41.7649C48.66 43.5478 47.6237 45.0079 46.2907 46.1109C44.9471 47.2228 43.1039 48.1489 40.9742 48.8943C36.6993 50.3905 30.903 51.2849 24.58 51.2849C18.257 51.2849 12.4607 50.3905 8.18582 48.8943C6.05612 48.1489 4.21289 47.2228 2.86926 46.1109C1.53631 45.0079 0.5 43.5478 0.5 41.7649C0.5 39.982 1.53631 38.5219 2.86926 37.4189C4.21289 36.3071 6.05612 35.3809 8.18582 34.6355C12.0791 33.2729 17.2343 32.4094 22.9 32.2661V28.3614C22.8995 28.3379 22.8995 28.3145 22.9 28.2911V8.19879C22.8995 8.17541 22.8995 8.15198 22.9 8.12854V4.805C22.9 3.87716 23.6522 3.125 24.58 3.125ZM26.26 10.8832V25.6067L35.9749 20.7494C37.7744 19.8496 38.9498 19.2569 39.6986 18.7344C40.0528 18.4871 40.2055 18.3277 40.2676 18.245C40.2055 18.1622 40.0528 18.0028 39.6986 17.7556C38.9498 17.233 37.7744 16.6403 35.9749 15.7406L26.26 10.8832ZM22.9 40.645V35.6272C17.5344 35.7702 12.7695 36.5911 9.2958 37.8069C7.37189 38.4803 5.93472 39.2435 5.01135 40.0076C4.07729 40.7805 3.86 41.3829 3.86 41.7649C3.86 42.147 4.07729 42.7494 5.01135 43.5223C5.93472 44.2864 7.37189 45.0496 9.2958 45.723C13.1281 47.0643 18.5318 47.9249 24.58 47.9249C30.6282 47.9249 36.0319 47.0643 39.8642 45.723C41.7881 45.0496 43.2253 44.2864 44.1487 43.5223C45.0827 42.7494 45.3 42.147 45.3 41.7649C45.3 41.3829 45.0827 40.7805 44.1487 40.0076C43.2253 39.2435 41.7881 38.4803 39.8642 37.8069C36.3905 36.5911 31.6256 35.7702 26.26 35.6272V40.645C26.26 41.5728 25.5078 42.325 24.58 42.325C23.6522 42.325 22.9 41.5728 22.9 40.645ZM40.3062 18.3137C40.3044 18.3136 40.299 18.3042 40.2952 18.2861C40.306 18.3049 40.3079 18.3139 40.3062 18.3137ZM40.2952 18.2039C40.299 18.1858 40.3044 18.1764 40.3062 18.1762C40.3079 18.176 40.306 18.1851 40.2952 18.2039Z" fill="url(#paint0_linear_111_65568)"/>
    </g>
    <defs>
        <linearGradient id="paint0_linear_111_65568" x1="24.58" y1="3.125" x2="24.58" y2="51.285" gradientUnits="userSpaceOnUse">
            <stop stop-color="white"/>
            <stop offset="1" stop-color="#63ADB9"/>
        </linearGradient>
        <clipPath id="clip0_111_65568">
            <rect width="50" height="54.41" fill="white" transform="matrix(1 0 0 -1 0.5 54.4099)"/>
        </clipPath>
    </defs>
</svg>