<?xml version="1.0" encoding="iso-8859-1"?>
<!-- Generator: Adobe Illustrator 16.0.0, SVG Export Plug-In . SVG Version: 6.00 Build 0)  -->
<!DOCTYPE svg PUBLIC "-//W3C//DTD SVG 1.1//EN" "http://www.w3.org/Graphics/SVG/1.1/DTD/svg11.dtd">
<svg version="1.1" id="Capa_1" xmlns="http://www.w3.org/2000/svg" xmlns:xlink="http://www.w3.org/1999/xlink" x="0px" y="0px"
	 width="492.963px" height="492.963px" viewBox="0 0 492.963 492.963" style="enable-background:new 0 0 492.963 492.963;"
	 xml:space="preserve">
<g>
	<g>
		<path d="M246.458,169.582c-11.5,0-19.1,9.6-19.1,19.1v114.8c0,11.5,7.6,19.101,19.1,19.101s19.101-9.601,19.101-19.101v-114.8
			C265.559,177.182,257.958,169.582,246.458,169.582z"/>
		<circle cx="246.458" cy="379.982" r="19.1"/>
		<path d="M483.658,391.382l-206.6-334.7c-17.2-26.8-44-26.8-61.2,0l-206.5,334.7c-21,36.3-5.7,65,36.3,65h399.7
			C489.358,456.382,504.658,427.781,483.658,391.382z M451.158,437.281h-409.3c-21,0-28.7-15.3-17.2-32.5l210.4-340.399
			c5.7-11.5,17.2-11.5,24.899,0l210.4,340.399C479.858,421.981,472.158,437.281,451.158,437.281z"/>
	</g>
</g>
<g>
</g>
<g>
</g>
<g>
</g>
<g>
</g>
<g>
</g>
<g>
</g>
<g>
</g>
<g>
</g>
<g>
</g>
<g>
</g>
<g>
</g>
<g>
</g>
<g>
</g>
<g>
</g>
<g>
</g>
</svg>
