<svg width="216" height="95" viewBox="0 0 216 95" fill="none" xmlns="http://www.w3.org/2000/svg">
    <path d="M212.43 15.3705C209.24 23.3605 194.45 39.0605 192.71 42.5705C187.52 61.8405 156.08 90.5805 105.79 92.4405C55.4999 94.3005 21.3799 68.5105 12.6599 57.8505C4.23985 47.5405 6.81984 38.8605 3.17984 31.6005C1.56984 28.4005 9.41985 19.5005 15.4498 23.2705C18.7698 25.3405 26.0999 24.6005 36.3899 26.9005C46.6799 29.1905 61.8898 39.4305 91.2698 42.7005C112.84 45.1005 134.1 40.9105 150.89 33.3805C167.67 25.8505 178.14 22.9605 181.73 22.1105C185.32 21.2605 195.97 8.17047 201 3.48047L212.42 15.3705H212.43Z" fill="#F3EA5B"/>
    <path d="M36.25 78.4999C23.05 71.2799 14.28 63.4499 10.73 59.1099C5.01004 52.1099 3.92005 45.5999 3.05005 40.3699C2.54005 37.3399 2.10004 34.7099 0.920044 32.3499C-0.629956 29.2499 1.62005 25.1999 4.52005 22.5499C8.53005 18.9099 13.3 18.2899 17.11 20.4399C18.36 21.2199 21.29 21.5299 24.67 21.8599C28.08 22.2099 32.31 22.6299 37.2 23.7199C40.7 24.4999 44.6601 26.1099 49.2401 27.9699C58.9001 31.8999 72.12 37.2799 91.78 39.4599C111.39 41.6399 132.05 38.4099 149.98 30.3699C167.04 22.6999 177.57 19.8199 181.31 18.9299C183.11 18.3199 189.16 11.7399 192.79 7.80985C195.29 5.09985 197.63 2.55985 199.34 0.979853C200.43 -0.0501469 202.17 0.00985342 203.19 1.07985L214.61 12.9699C215.36 13.7499 215.58 14.8899 215.18 15.8899C213.01 21.3499 206.33 29.4999 200.98 36.0399C198.47 39.1199 195.87 42.2899 195.37 43.2999C190.24 62.5799 158.13 92.7699 106.09 94.6899C76.77 95.7799 52.97 87.6199 36.26 78.4899L36.25 78.4999ZM14.0201 25.0099C12.8401 24.3599 11.4301 24.5099 9.82005 25.4499C7.33005 26.8899 5.88005 29.4199 5.91005 30.1399C7.39005 32.9799 7.92004 36.1299 8.48004 39.4699C9.32004 44.5199 10.2001 49.7599 14.9901 55.6299C22.6001 64.9399 55.6201 91.0899 105.88 89.2199C155.15 87.3899 185.34 59.5899 190.24 41.3799C191.18 39.3799 193.2 36.8799 196.71 32.5799C201.06 27.2799 206.84 20.2199 209.33 15.4399L201.14 6.91985C199.85 8.26985 198.36 9.87985 196.81 11.5499C189.94 19.0099 185.55 23.5899 182.55 24.2999C179.76 24.9599 169.31 27.7199 152.2 35.3999C133.41 43.8499 111.73 47.2299 91.15 44.9499C70.74 42.6799 57.11 37.1299 47.16 33.0899C42.62 31.2499 39.03 29.7799 35.98 29.0999C31.41 28.0899 27.3601 27.6799 24.1001 27.3499C19.6901 26.8999 16.45 26.4699 14.18 25.1299C14.12 25.0899 14.07 25.0499 14.01 25.0199L14.0201 25.0099Z" fill="#424243"/>
</svg>