<svg width="139" height="138" viewBox="0 0 139 138" fill="none" xmlns="http://www.w3.org/2000/svg">
    <path d="M74.9202 16.4599C56.7802 12.4299 28.5702 3.35993 10.4302 39.6399C-8.30984 77.1199 15.4702 129.32 58.8002 133.35C102.13 137.38 139.41 100.1 134.37 58.7899C129.33 17.4799 94.6902 20.8599 74.9202 16.4699V16.4599Z" fill="#CE534F"/>
    <path d="M65.2599 137.64C62.9899 137.64 60.7099 137.53 58.4299 137.32C37.9999 135.42 20.1399 123.26 9.40994 103.95C-2.15006 83.1498 -3.13006 57.8198 6.85994 37.8598C25.3299 0.919825 54.8499 7.73982 72.4699 11.8198L75.7699 12.5698C78.9999 13.2898 82.6199 13.7798 86.4599 14.3198C106.42 17.0898 133.75 20.8798 138.32 58.3098C140.81 78.7598 133.59 99.3898 118.52 114.9C104.27 129.56 85.1699 137.65 65.2599 137.65V137.64ZM49.5099 16.3798C36.7799 16.3798 23.9499 21.4998 13.9899 41.4198C5.15994 59.0698 6.07995 81.5398 16.3699 100.07C25.8099 117.04 41.3999 127.72 59.1599 129.37C79.0199 131.19 98.6199 123.92 112.79 109.33C126.18 95.5498 132.6 77.2998 130.39 59.2598C126.57 27.9298 104.67 24.8898 85.3599 22.2098C81.2899 21.6398 77.4499 21.1098 74.0399 20.3498L70.6699 19.5798C64.0199 18.0398 56.7799 16.3698 49.5099 16.3698V16.3798Z" fill="#424243"/>
    <path d="M76.2699 32.5497C74.9999 32.5497 73.6999 32.4397 72.3699 32.1797C66.7699 31.0597 63.9699 28.6497 61.7299 26.7097C61.0399 26.1197 60.3899 25.5497 59.6699 25.0597C58.4499 24.2497 58.1199 22.5997 58.9299 21.3797C59.7499 20.1397 61.3999 19.8197 62.6199 20.6397C63.5199 21.2397 64.3499 21.9397 65.2099 22.6797C67.2599 24.4497 69.1999 26.1097 73.4299 26.9697C76.8099 27.6397 80.2299 26.9097 83.2399 26.2697C85.8499 25.7197 88.0699 25.2397 90.1699 25.6097C91.6099 25.8697 92.5699 27.2597 92.2999 28.6997C92.0299 30.1397 90.6899 31.0597 89.2099 30.8397C88.1599 30.6597 86.2999 31.0497 84.3399 31.4697C81.9899 31.9697 79.2399 32.5497 76.2699 32.5497Z" fill="#424243"/>
    <path d="M72.3298 29.5003C72.4998 22.0703 73.3998 8.65031 73.0198 7.27031L72.8098 3.32031L87.2498 6.68031C87.2498 6.68031 76.4598 21.0803 74.7798 29.8103L72.3198 29.5003H72.3298Z" fill="#618047"/>
    <path d="M74.7901 32.4701C74.6801 32.4701 74.5701 32.4701 74.4501 32.4501L71.9901 32.1401C70.6501 31.9701 69.6401 30.8001 69.6701 29.4401C69.7401 26.5301 69.9101 22.7201 70.0801 19.0601C70.2801 14.5001 70.5501 8.83009 70.4101 7.81009L70.1401 3.47009C70.0901 2.63009 70.4501 1.83009 71.0901 1.29009C71.7301 0.750085 72.6201 0.550085 73.4001 0.740085L87.8401 4.10009C88.7201 4.30009 89.4301 4.93009 89.7401 5.78009C90.0401 6.62009 89.9101 7.56009 89.3601 8.29009C89.2601 8.43009 78.9201 22.3001 77.3901 30.3301C77.1501 31.5901 76.0401 32.4901 74.7801 32.4901L74.7901 32.4701ZM75.6501 6.72009L75.6801 7.13009C75.8901 7.68009 75.8201 10.1301 75.4001 19.3101C75.3801 19.8001 75.3501 20.3001 75.3301 20.8001C77.6701 16.0901 80.7101 11.4001 82.7801 8.38009L75.6501 6.72009Z" fill="#424243"/>
</svg>