<svg width="125" height="132" viewBox="0 0 125 132" fill="none" xmlns="http://www.w3.org/2000/svg">
    <path d="M67.5501 23.2204C51.3401 19.6204 26.1302 11.5104 9.92017 43.9304C-6.82983 77.4304 14.4202 124.07 53.1402 127.67C91.8602 131.27 125.17 97.9604 120.67 61.0404C116.17 24.1204 85.2101 27.1504 67.5401 23.2204H67.5501Z" fill="#E9B13D"/>
    <path d="M58.9198 131.51C56.8898 131.51 54.8498 131.42 52.8098 131.23C34.5598 129.53 18.5898 118.66 8.99982 101.41C-1.33018 82.82 -2.20017 60.19 6.71983 42.35C23.2198 9.34003 49.6098 15.44 65.3498 19.08L68.2998 19.75C71.1898 20.39 74.4198 20.83 77.8498 21.31C95.6798 23.78 120.11 27.17 124.2 60.62C126.43 78.89 119.97 97.33 106.5 111.19C93.7698 124.29 76.6998 131.52 58.8998 131.52L58.9198 131.51ZM44.8498 23.15C33.4798 23.15 22.0098 27.72 13.1098 45.53C5.21981 61.3 6.03981 81.38 15.2398 97.94C23.6698 113.1 37.5998 122.65 53.4698 124.12C71.2098 125.75 88.7298 119.25 101.39 106.21C113.36 93.9 119.09 77.59 117.12 61.47C113.71 33.47 94.1398 30.76 76.8798 28.36C73.2498 27.85 69.8098 27.37 66.7598 26.7L63.7498 26.01C57.8098 24.64 51.3398 23.14 44.8398 23.14L44.8498 23.15Z" fill="#424243"/>
    <path d="M66.6701 20.4199C73.4501 29.4199 71.9301 40.5199 67.5601 42.6099C63.1901 44.6999 53.7501 38.8799 50.8401 27.9899C47.7801 16.5399 44.2401 4.50988 48.6101 2.41988C52.9801 0.329876 58.4501 9.50988 66.6701 20.4199Z" fill="#51924B" stroke="#424243" stroke-width="4.25" stroke-miterlimit="10"/>
    <path d="M64.6701 20.4804C57.8901 29.4804 59.4101 40.5804 63.7801 42.6704C68.1501 44.7604 77.5901 38.9404 80.5001 28.0504C83.5601 16.6004 87.1001 4.57042 82.7301 2.48042C78.3601 0.390422 72.8901 9.57042 64.6701 20.4804Z" fill="#51924B" stroke="#424243" stroke-width="4.25" stroke-miterlimit="10"/>
</svg>